<svg width="81" height="80" viewBox="0 0 81 80" fill="none" xmlns="http://www.w3.org/2000/svg">
<path d="M76.0085 38.0994C76.0085 19.5832 60.9981 4.57275 42.4817 4.57275M46.6721 21.8642C52.5632 23.3802 57.2008 28.018 58.7171 33.909M55.3137 51.7231C57.5901 48.6876 61.7114 47.7149 65.1048 49.4118L70.2821 52.0001C73.6629 53.6907 75.4939 57.4343 74.7525 61.1407L73.165 69.0795C72.3813 72.9975 68.9293 75.8787 64.9593 75.4299C34.5207 71.9867 8.59462 46.0604 5.15137 15.6219C4.70228 11.6519 7.5837 8.19986 11.5015 7.41629L19.4403 5.82854C23.1466 5.08727 26.8905 6.91833 28.5809 10.2991L31.1693 15.4763C32.8662 18.8698 31.8935 22.9911 28.8581 25.2675C26.8813 26.7502 25.676 29.1316 26.6313 31.4104C29.9146 39.2431 41.338 50.6665 49.1707 53.9497C51.4497 54.9052 53.8309 53.6999 55.3137 51.7231Z" stroke="#A3052D" stroke-width="8.38171" stroke-linecap="round" stroke-linejoin="round"/>
</svg>
