<svg width="1261" height="1012" viewBox="0 0 1261 1012" fill="none" xmlns="http://www.w3.org/2000/svg">
<g clip-path="url(#clip0_1_3882)">
<rect width="1260.88" height="1012" rx="26.0154" fill="#6B6B6B"/>
<rect width="1260.88" height="1012" rx="26.0154" fill="url(#paint0_linear_1_3882)" fill-opacity="0.5"/>
<mask id="mask0_1_3882" style="mask-type:alpha" maskUnits="userSpaceOnUse" x="1012" y="-18" width="443" height="372">
<rect x="1012.97" y="-17.2722" width="441.835" height="370.989" fill="#FBCCCF"/>
</mask>
<g mask="url(#mask0_1_3882)">
<rect x="883.233" y="102.871" width="624.663" height="1.52357" transform="rotate(-34.7596 883.233 102.871)" fill="#FBCCCF"/>
<rect x="887.577" y="109.13" width="624.663" height="1.52357" transform="rotate(-34.7596 887.577 109.13)" fill="#FBCCCF"/>
<rect x="891.92" y="115.388" width="624.663" height="1.52357" transform="rotate(-34.7596 891.92 115.388)" fill="#FBCCCF"/>
<rect x="795.67" y="121.647" width="624.663" height="1.52357" transform="rotate(-34.7596 795.67 121.647)" fill="#FBCCCF"/>
<rect x="800.014" y="127.905" width="624.663" height="1.52357" transform="rotate(-34.7596 800.014 127.905)" fill="#FBCCCF"/>
<rect x="804.356" y="134.164" width="624.663" height="1.52357" transform="rotate(-34.7596 804.356 134.164)" fill="#FBCCCF"/>
<rect x="808.7" y="140.422" width="624.663" height="1.52357" transform="rotate(-34.7596 808.7 140.422)" fill="#FBCCCF"/>
<rect x="813.043" y="146.68" width="624.663" height="1.52357" transform="rotate(-34.7596 813.043 146.68)" fill="#FBCCCF"/>
<rect x="817.386" y="152.939" width="624.663" height="1.52357" transform="rotate(-34.7596 817.386 152.939)" fill="#FBCCCF"/>
<rect x="821.729" y="159.198" width="624.663" height="1.52357" transform="rotate(-34.7596 821.729 159.198)" fill="#FBCCCF"/>
<rect x="826.073" y="165.456" width="624.663" height="1.52357" transform="rotate(-34.7596 826.073 165.456)" fill="#FBCCCF"/>
<rect x="830.416" y="171.714" width="624.663" height="1.52357" transform="rotate(-34.7596 830.416 171.714)" fill="#FBCCCF"/>
<rect x="834.759" y="177.972" width="624.663" height="1.52357" transform="rotate(-34.7596 834.759 177.972)" fill="#FBCCCF"/>
<rect x="839.102" y="184.231" width="624.663" height="1.52357" transform="rotate(-34.7596 839.102 184.231)" fill="#FBCCCF"/>
<rect x="843.445" y="190.49" width="624.663" height="1.52357" transform="rotate(-34.7596 843.445 190.49)" fill="#FBCCCF"/>
<rect x="847.789" y="196.748" width="624.663" height="1.52357" transform="rotate(-34.7596 847.789 196.748)" fill="#FBCCCF"/>
<rect x="852.132" y="203.006" width="624.663" height="1.52357" transform="rotate(-34.7596 852.132 203.006)" fill="#FBCCCF"/>
<rect x="856.475" y="209.265" width="624.663" height="1.52357" transform="rotate(-34.7596 856.475 209.265)" fill="#FBCCCF"/>
<rect x="860.818" y="215.524" width="624.663" height="1.52357" transform="rotate(-34.7596 860.818 215.524)" fill="#FBCCCF"/>
<rect x="865.161" y="221.782" width="624.663" height="1.52357" transform="rotate(-34.7596 865.161 221.782)" fill="#FBCCCF"/>
<rect x="869.505" y="228.04" width="624.663" height="1.52357" transform="rotate(-34.7596 869.505 228.04)" fill="#FBCCCF"/>
<rect x="873.848" y="234.298" width="624.663" height="1.52357" transform="rotate(-34.7596 873.848 234.298)" fill="#FBCCCF"/>
<rect x="878.191" y="240.558" width="624.663" height="1.52357" transform="rotate(-34.7596 878.191 240.558)" fill="#FBCCCF"/>
<rect x="882.534" y="246.816" width="624.663" height="1.52357" transform="rotate(-34.7596 882.534 246.816)" fill="#FBCCCF"/>
<rect x="886.877" y="253.074" width="624.663" height="1.52357" transform="rotate(-34.7596 886.877 253.074)" fill="#FBCCCF"/>
<rect x="891.22" y="259.332" width="624.663" height="1.52357" transform="rotate(-34.7596 891.22 259.332)" fill="#FBCCCF"/>
<rect x="895.564" y="265.591" width="624.663" height="1.52357" transform="rotate(-34.7596 895.564 265.591)" fill="#FBCCCF"/>
<rect x="899.907" y="271.85" width="624.663" height="1.52357" transform="rotate(-34.7596 899.907 271.85)" fill="#FBCCCF"/>
<rect x="904.25" y="278.108" width="624.663" height="1.52357" transform="rotate(-34.7596 904.25 278.108)" fill="#FBCCCF"/>
<rect x="908.593" y="284.366" width="624.663" height="1.52357" transform="rotate(-34.7596 908.593 284.366)" fill="#FBCCCF"/>
<rect x="912.936" y="290.625" width="624.663" height="1.52357" transform="rotate(-34.7596 912.936 290.625)" fill="#FBCCCF"/>
<rect x="917.279" y="296.883" width="624.663" height="1.52357" transform="rotate(-34.7596 917.279 296.883)" fill="#FBCCCF"/>
<rect x="921.623" y="303.142" width="624.663" height="1.52357" transform="rotate(-34.7596 921.623 303.142)" fill="#FBCCCF"/>
<rect x="925.966" y="309.4" width="624.663" height="1.52357" transform="rotate(-34.7596 925.966 309.4)" fill="#FBCCCF"/>
<rect x="930.309" y="315.658" width="624.663" height="1.52357" transform="rotate(-34.7596 930.309 315.658)" fill="#FBCCCF"/>
<rect x="934.652" y="321.917" width="624.663" height="1.52357" transform="rotate(-34.7596 934.652 321.917)" fill="#FBCCCF"/>
<rect x="976.284" y="328.176" width="624.663" height="1.52357" transform="rotate(-34.7596 976.284 328.176)" fill="#FBCCCF"/>
<rect x="980.627" y="334.434" width="624.663" height="1.52357" transform="rotate(-34.7596 980.627 334.434)" fill="#FBCCCF"/>
<rect x="984.971" y="340.692" width="624.663" height="1.52357" transform="rotate(-34.7596 984.971 340.692)" fill="#FBCCCF"/>
<rect x="989.314" y="346.951" width="624.663" height="1.52357" transform="rotate(-34.7596 989.314 346.951)" fill="#FBCCCF"/>
<rect x="993.657" y="353.209" width="624.663" height="1.52357" transform="rotate(-34.7596 993.657 353.209)" fill="#FBCCCF"/>
<rect x="998" y="359.468" width="624.663" height="1.52357" transform="rotate(-34.7596 998 359.468)" fill="#FBCCCF"/>
<rect x="1002.34" y="365.726" width="624.663" height="1.52357" transform="rotate(-34.7596 1002.34 365.726)" fill="#FBCCCF"/>
<rect x="1006.69" y="371.985" width="624.663" height="1.52357" transform="rotate(-34.7596 1006.69 371.985)" fill="#FBCCCF"/>
<rect x="1011.03" y="378.243" width="624.663" height="1.52357" transform="rotate(-34.7596 1011.03 378.243)" fill="#FBCCCF"/>
<rect x="1015.37" y="384.502" width="624.663" height="1.52357" transform="rotate(-34.7596 1015.37 384.502)" fill="#FBCCCF"/>
<rect x="1019.72" y="390.76" width="624.663" height="1.52357" transform="rotate(-34.7596 1019.72 390.76)" fill="#FBCCCF"/>
<rect x="1024.06" y="397.018" width="624.663" height="1.52357" transform="rotate(-34.7596 1024.06 397.018)" fill="#FBCCCF"/>
<rect x="1028.4" y="403.277" width="624.663" height="1.52357" transform="rotate(-34.7596 1028.4 403.277)" fill="#FBCCCF"/>
<rect x="1032.75" y="409.535" width="624.663" height="1.52357" transform="rotate(-34.7596 1032.75 409.535)" fill="#FBCCCF"/>
<rect x="1037.09" y="415.793" width="624.663" height="1.52357" transform="rotate(-34.7596 1037.09 415.793)" fill="#FBCCCF"/>
<rect x="1041.43" y="422.052" width="624.663" height="1.52357" transform="rotate(-34.7596 1041.43 422.052)" fill="#FBCCCF"/>
<rect x="1045.78" y="428.311" width="624.663" height="1.52357" transform="rotate(-34.7596 1045.78 428.311)" fill="#FBCCCF"/>
<rect x="1050.12" y="434.569" width="624.663" height="1.52357" transform="rotate(-34.7596 1050.12 434.569)" fill="#FBCCCF"/>
<rect x="1054.46" y="440.827" width="624.663" height="1.52357" transform="rotate(-34.7596 1054.46 440.827)" fill="#FBCCCF"/>
<rect x="1058.81" y="447.086" width="624.663" height="1.52357" transform="rotate(-34.7596 1058.81 447.086)" fill="#FBCCCF"/>
<rect x="1063.15" y="453.344" width="624.663" height="1.52357" transform="rotate(-34.7596 1063.15 453.344)" fill="#FBCCCF"/>
<rect x="1067.49" y="459.603" width="624.663" height="1.52357" transform="rotate(-34.7596 1067.49 459.603)" fill="#FBCCCF"/>
<rect x="1071.83" y="465.861" width="624.663" height="1.52357" transform="rotate(-34.7596 1071.83 465.861)" fill="#FBCCCF"/>
<rect x="1076.18" y="472.119" width="624.663" height="1.52357" transform="rotate(-34.7596 1076.18 472.119)" fill="#FBCCCF"/>
<rect x="979.061" y="478.378" width="624.663" height="1.52357" transform="rotate(-34.7596 979.061 478.378)" fill="#FBCCCF"/>
<rect x="983.404" y="484.637" width="624.663" height="1.52357" transform="rotate(-34.7596 983.404 484.637)" fill="#FBCCCF"/>
<rect x="987.747" y="490.895" width="624.663" height="1.52357" transform="rotate(-34.7596 987.747 490.895)" fill="#FBCCCF"/>
<rect x="992.09" y="497.153" width="624.663" height="1.52357" transform="rotate(-34.7596 992.09 497.153)" fill="#FBCCCF"/>
<rect x="996.433" y="503.412" width="624.663" height="1.52357" transform="rotate(-34.7596 996.433 503.412)" fill="#FBCCCF"/>
<rect x="1000.78" y="509.671" width="624.663" height="1.52357" transform="rotate(-34.7596 1000.78 509.671)" fill="#FBCCCF"/>
<rect x="1005.12" y="515.929" width="624.663" height="1.52357" transform="rotate(-34.7596 1005.12 515.929)" fill="#FBCCCF"/>
<rect x="1009.46" y="522.187" width="624.663" height="1.52357" transform="rotate(-34.7596 1009.46 522.187)" fill="#FBCCCF"/>
</g>
<mask id="mask1_1_3882" style="mask-type:alpha" maskUnits="userSpaceOnUse" x="2" y="394" width="443" height="372">
<rect x="2.76074" y="394.854" width="441.835" height="370.989" fill="#D0A7A9"/>
</mask>
<g mask="url(#mask1_1_3882)">
<rect x="-190.277" y="514.998" width="624.663" height="1.52357" transform="rotate(-34.7596 -190.277 514.998)" fill="#D0A7A9"/>
<rect x="-185.935" y="521.256" width="624.663" height="1.52357" transform="rotate(-34.7596 -185.935 521.256)" fill="#D0A7A9"/>
<rect x="-181.591" y="527.515" width="624.663" height="1.52357" transform="rotate(-34.7596 -181.591 527.515)" fill="#D0A7A9"/>
<rect x="-177.248" y="533.773" width="624.663" height="1.52357" transform="rotate(-34.7596 -177.248 533.773)" fill="#D0A7A9"/>
<rect x="-172.904" y="540.032" width="624.663" height="1.52357" transform="rotate(-34.7596 -172.904 540.032)" fill="#D0A7A9"/>
<rect x="-168.562" y="546.29" width="624.663" height="1.52357" transform="rotate(-34.7596 -168.562 546.29)" fill="#D0A7A9"/>
<rect x="-164.218" y="552.549" width="624.663" height="1.52357" transform="rotate(-34.7596 -164.218 552.549)" fill="#D0A7A9"/>
<rect x="-159.875" y="558.807" width="624.663" height="1.52357" transform="rotate(-34.7596 -159.875 558.807)" fill="#D0A7A9"/>
<rect x="-155.531" y="565.066" width="624.663" height="1.52357" transform="rotate(-34.7596 -155.531 565.066)" fill="#D0A7A9"/>
<rect x="-151.188" y="571.324" width="624.663" height="1.52357" transform="rotate(-34.7596 -151.188 571.324)" fill="#D0A7A9"/>
<rect x="-146.845" y="577.583" width="624.663" height="1.52357" transform="rotate(-34.7596 -146.845 577.583)" fill="#D0A7A9"/>
<rect x="-142.502" y="583.841" width="624.663" height="1.52357" transform="rotate(-34.7596 -142.502 583.841)" fill="#D0A7A9"/>
<rect x="-138.159" y="590.099" width="624.663" height="1.52357" transform="rotate(-34.7596 -138.159 590.099)" fill="#D0A7A9"/>
<rect x="-133.815" y="596.358" width="624.663" height="1.52357" transform="rotate(-34.7596 -133.815 596.358)" fill="#D0A7A9"/>
<rect x="-129.473" y="602.616" width="624.663" height="1.52357" transform="rotate(-34.7596 -129.473 602.616)" fill="#D0A7A9"/>
<rect x="-125.129" y="608.875" width="624.663" height="1.52357" transform="rotate(-34.7596 -125.129 608.875)" fill="#D0A7A9"/>
<rect x="-120.786" y="615.133" width="624.663" height="1.52357" transform="rotate(-34.7596 -120.786 615.133)" fill="#D0A7A9"/>
<rect x="-116.443" y="621.392" width="624.663" height="1.52357" transform="rotate(-34.7596 -116.443 621.392)" fill="#D0A7A9"/>
<rect x="-112.1" y="627.65" width="624.663" height="1.52357" transform="rotate(-34.7596 -112.1 627.65)" fill="#D0A7A9"/>
<rect x="-107.757" y="633.908" width="624.663" height="1.52357" transform="rotate(-34.7596 -107.757 633.908)" fill="#D0A7A9"/>
<rect x="-103.413" y="640.167" width="624.663" height="1.52357" transform="rotate(-34.7596 -103.413 640.167)" fill="#D0A7A9"/>
<rect x="-99.0703" y="646.425" width="624.663" height="1.52357" transform="rotate(-34.7596 -99.0703 646.425)" fill="#D0A7A9"/>
<rect x="-94.7266" y="652.683" width="624.663" height="1.52357" transform="rotate(-34.7596 -94.7266 652.683)" fill="#D0A7A9"/>
<rect x="-90.3838" y="658.942" width="624.663" height="1.52357" transform="rotate(-34.7596 -90.3838 658.942)" fill="#D0A7A9"/>
<rect x="-86.041" y="665.201" width="624.663" height="1.52357" transform="rotate(-34.7596 -86.041 665.201)" fill="#D0A7A9"/>
<rect x="-81.6973" y="671.459" width="624.663" height="1.52357" transform="rotate(-34.7596 -81.6973 671.459)" fill="#D0A7A9"/>
<rect x="-77.3545" y="677.717" width="624.663" height="1.52357" transform="rotate(-34.7596 -77.3545 677.717)" fill="#D0A7A9"/>
<rect x="-73.0107" y="683.976" width="624.663" height="1.52357" transform="rotate(-34.7596 -73.0107 683.976)" fill="#D0A7A9"/>
<rect x="-68.668" y="690.235" width="624.663" height="1.52357" transform="rotate(-34.7596 -68.668 690.235)" fill="#D0A7A9"/>
<rect x="-64.3242" y="696.493" width="624.663" height="1.52357" transform="rotate(-34.7596 -64.3242 696.493)" fill="#D0A7A9"/>
<rect x="-59.9814" y="702.751" width="624.663" height="1.52357" transform="rotate(-34.7596 -59.9814 702.751)" fill="#D0A7A9"/>
<rect x="-55.6387" y="709.01" width="624.663" height="1.52357" transform="rotate(-34.7596 -55.6387 709.01)" fill="#D0A7A9"/>
<rect x="-51.2949" y="715.269" width="624.663" height="1.52357" transform="rotate(-34.7596 -51.2949 715.269)" fill="#D0A7A9"/>
<rect x="-46.9521" y="721.527" width="624.663" height="1.52357" transform="rotate(-34.7596 -46.9521 721.527)" fill="#D0A7A9"/>
<rect x="-42.6084" y="727.785" width="624.663" height="1.52357" transform="rotate(-34.7596 -42.6084 727.785)" fill="#D0A7A9"/>
<rect x="-38.2656" y="734.043" width="624.663" height="1.52357" transform="rotate(-34.7596 -38.2656 734.043)" fill="#D0A7A9"/>
<rect x="-33.9219" y="740.302" width="624.663" height="1.52357" transform="rotate(-34.7596 -33.9219 740.302)" fill="#D0A7A9"/>
<rect x="-29.5791" y="746.561" width="624.663" height="1.52357" transform="rotate(-34.7596 -29.5791 746.561)" fill="#D0A7A9"/>
<rect x="-25.2363" y="752.819" width="624.663" height="1.52357" transform="rotate(-34.7596 -25.2363 752.819)" fill="#D0A7A9"/>
<rect x="-20.8926" y="759.077" width="624.663" height="1.52357" transform="rotate(-34.7596 -20.8926 759.077)" fill="#D0A7A9"/>
<rect x="-16.5498" y="765.336" width="624.663" height="1.52357" transform="rotate(-34.7596 -16.5498 765.336)" fill="#D0A7A9"/>
<rect x="-12.2061" y="771.594" width="624.663" height="1.52357" transform="rotate(-34.7596 -12.2061 771.594)" fill="#D0A7A9"/>
<rect x="-7.86328" y="777.853" width="624.663" height="1.52357" transform="rotate(-34.7596 -7.86328 777.853)" fill="#D0A7A9"/>
<rect x="-3.51953" y="784.111" width="624.663" height="1.52357" transform="rotate(-34.7596 -3.51953 784.111)" fill="#D0A7A9"/>
<rect x="0.823242" y="790.37" width="624.663" height="1.52357" transform="rotate(-34.7596 0.823242 790.37)" fill="#D0A7A9"/>
<rect x="5.16699" y="796.628" width="624.663" height="1.52357" transform="rotate(-34.7596 5.16699 796.628)" fill="#D0A7A9"/>
<rect x="9.50977" y="802.886" width="624.663" height="1.52357" transform="rotate(-34.7596 9.50977 802.886)" fill="#D0A7A9"/>
<rect x="13.8525" y="809.145" width="624.663" height="1.52357" transform="rotate(-34.7596 13.8525 809.145)" fill="#D0A7A9"/>
<rect x="18.1963" y="815.403" width="624.663" height="1.52357" transform="rotate(-34.7596 18.1963 815.403)" fill="#D0A7A9"/>
<rect x="22.5391" y="821.662" width="624.663" height="1.52357" transform="rotate(-34.7596 22.5391 821.662)" fill="#D0A7A9"/>
<rect x="26.8828" y="827.921" width="624.663" height="1.52357" transform="rotate(-34.7596 26.8828 827.921)" fill="#D0A7A9"/>
<rect x="31.2256" y="834.179" width="624.663" height="1.52357" transform="rotate(-34.7596 31.2256 834.179)" fill="#D0A7A9"/>
<rect x="35.5684" y="840.438" width="624.663" height="1.52357" transform="rotate(-34.7596 35.5684 840.438)" fill="#D0A7A9"/>
<rect x="39.9121" y="846.696" width="624.663" height="1.52357" transform="rotate(-34.7596 39.9121 846.696)" fill="#D0A7A9"/>
<rect x="44.2549" y="852.954" width="624.663" height="1.52357" transform="rotate(-34.7596 44.2549 852.954)" fill="#D0A7A9"/>
<rect x="48.5986" y="859.213" width="624.663" height="1.52357" transform="rotate(-34.7596 48.5986 859.213)" fill="#D0A7A9"/>
<rect x="52.9414" y="865.471" width="624.663" height="1.52357" transform="rotate(-34.7596 52.9414 865.471)" fill="#D0A7A9"/>
<rect x="57.2852" y="871.729" width="624.663" height="1.52357" transform="rotate(-34.7596 57.2852 871.729)" fill="#D0A7A9"/>
<rect x="61.6279" y="877.988" width="624.663" height="1.52357" transform="rotate(-34.7596 61.6279 877.988)" fill="#D0A7A9"/>
<rect x="65.9717" y="884.246" width="624.663" height="1.52357" transform="rotate(-34.7596 65.9717 884.246)" fill="#D0A7A9"/>
<rect x="70.3145" y="890.504" width="624.663" height="1.52357" transform="rotate(-34.7596 70.3145 890.504)" fill="#D0A7A9"/>
<rect x="74.6572" y="896.764" width="624.663" height="1.52357" transform="rotate(-34.7596 74.6572 896.764)" fill="#D0A7A9"/>
<rect x="79.001" y="903.021" width="624.663" height="1.52357" transform="rotate(-34.7596 79.001 903.021)" fill="#D0A7A9"/>
<rect x="83.3438" y="909.28" width="624.663" height="1.52357" transform="rotate(-34.7596 83.3438 909.28)" fill="#D0A7A9"/>
<rect x="87.6865" y="915.538" width="624.663" height="1.52357" transform="rotate(-34.7596 87.6865 915.538)" fill="#D0A7A9"/>
<rect x="92.0303" y="921.796" width="624.663" height="1.52357" transform="rotate(-34.7596 92.0303 921.796)" fill="#D0A7A9"/>
<rect x="96.373" y="928.056" width="624.663" height="1.52357" transform="rotate(-34.7596 96.373 928.056)" fill="#D0A7A9"/>
<rect x="100.717" y="934.314" width="624.663" height="1.52357" transform="rotate(-34.7596 100.717 934.314)" fill="#D0A7A9"/>
</g>
<mask id="mask2_1_3882" style="mask-type:alpha" maskUnits="userSpaceOnUse" x="-1" y="-212" width="443" height="372">
<rect x="-0.286133" y="-211.526" width="441.835" height="370.989" fill="#FBCCCF"/>
</mask>
<g mask="url(#mask2_1_3882)">
<rect x="-128.175" y="2.49414" width="624.663" height="1.52357" transform="rotate(-34.7596 -128.175 2.49414)" fill="#FBCCCF"/>
<rect x="-123.832" y="8.75244" width="624.663" height="1.52357" transform="rotate(-34.7596 -123.832 8.75244)" fill="#FBCCCF"/>
<rect x="-119.488" y="15.0117" width="624.663" height="1.52357" transform="rotate(-34.7596 -119.488 15.0117)" fill="#FBCCCF"/>
<rect x="-115.146" y="21.27" width="624.663" height="1.52357" transform="rotate(-34.7596 -115.146 21.27)" fill="#FBCCCF"/>
<rect x="-110.802" y="27.5281" width="624.663" height="1.52357" transform="rotate(-34.7596 -110.802 27.5281)" fill="#FBCCCF"/>
<rect x="-106.459" y="33.7864" width="624.663" height="1.52357" transform="rotate(-34.7596 -106.459 33.7864)" fill="#FBCCCF"/>
<rect x="-102.116" y="40.0457" width="624.663" height="1.52357" transform="rotate(-34.7596 -102.116 40.0457)" fill="#FBCCCF"/>
<rect x="-97.7725" y="46.3037" width="624.663" height="1.52357" transform="rotate(-34.7596 -97.7725 46.3037)" fill="#FBCCCF"/>
<rect x="-93.4297" y="52.562" width="624.663" height="1.52357" transform="rotate(-34.7596 -93.4297 52.562)" fill="#FBCCCF"/>
<rect x="-89.0869" y="58.8203" width="624.663" height="1.52357" transform="rotate(-34.7596 -89.0869 58.8203)" fill="#FBCCCF"/>
<rect x="-84.7432" y="65.0786" width="624.663" height="1.52357" transform="rotate(-34.7596 -84.7432 65.0786)" fill="#FBCCCF"/>
<rect x="-80.4004" y="71.3369" width="624.663" height="1.52357" transform="rotate(-34.7596 -80.4004 71.3369)" fill="#FBCCCF"/>
<rect x="-76.0566" y="77.5959" width="624.663" height="1.52357" transform="rotate(-34.7596 -76.0566 77.5959)" fill="#FBCCCF"/>
<rect x="-71.7139" y="83.8542" width="624.663" height="1.52357" transform="rotate(-34.7596 -71.7139 83.8542)" fill="#FBCCCF"/>
<rect x="-67.3701" y="90.1125" width="624.663" height="1.52357" transform="rotate(-34.7596 -67.3701 90.1125)" fill="#FBCCCF"/>
<rect x="-63.0273" y="96.3708" width="624.663" height="1.52357" transform="rotate(-34.7596 -63.0273 96.3708)" fill="#FBCCCF"/>
<rect x="-58.6836" y="102.63" width="624.663" height="1.52357" transform="rotate(-34.7596 -58.6836 102.63)" fill="#FBCCCF"/>
<rect x="-54.3408" y="108.888" width="624.663" height="1.52357" transform="rotate(-34.7596 -54.3408 108.888)" fill="#FBCCCF"/>
<rect x="-49.9971" y="115.146" width="624.663" height="1.52357" transform="rotate(-34.7596 -49.9971 115.146)" fill="#FBCCCF"/>
<rect x="-45.6543" y="121.405" width="624.663" height="1.52357" transform="rotate(-34.7596 -45.6543 121.405)" fill="#FBCCCF"/>
<rect x="-41.3115" y="127.663" width="624.663" height="1.52357" transform="rotate(-34.7596 -41.3115 127.663)" fill="#FBCCCF"/>
<rect x="-36.9678" y="133.922" width="624.663" height="1.52357" transform="rotate(-34.7596 -36.9678 133.922)" fill="#FBCCCF"/>
<rect x="-32.625" y="140.18" width="624.663" height="1.52357" transform="rotate(-34.7596 -32.625 140.18)" fill="#FBCCCF"/>
<rect x="-28.2822" y="146.439" width="624.663" height="1.52357" transform="rotate(-34.7596 -28.2822 146.439)" fill="#FBCCCF"/>
<rect x="-23.9385" y="152.697" width="624.663" height="1.52357" transform="rotate(-34.7596 -23.9385 152.697)" fill="#FBCCCF"/>
<rect x="-19.5957" y="158.956" width="624.663" height="1.52357" transform="rotate(-34.7596 -19.5957 158.956)" fill="#FBCCCF"/>
<rect x="-15.252" y="165.214" width="624.663" height="1.52357" transform="rotate(-34.7596 -15.252 165.214)" fill="#FBCCCF"/>
<rect x="-10.9092" y="171.473" width="624.663" height="1.52357" transform="rotate(-34.7596 -10.9092 171.473)" fill="#FBCCCF"/>
<rect x="-6.56543" y="177.731" width="624.663" height="1.52357" transform="rotate(-34.7596 -6.56543 177.731)" fill="#FBCCCF"/>
<rect x="-2.22266" y="183.989" width="624.663" height="1.52357" transform="rotate(-34.7596 -2.22266 183.989)" fill="#FBCCCF"/>
<rect x="2.12109" y="190.248" width="624.663" height="1.52357" transform="rotate(-34.7596 2.12109 190.248)" fill="#FBCCCF"/>
<rect x="6.46387" y="196.507" width="624.663" height="1.52357" transform="rotate(-34.7596 6.46387 196.507)" fill="#FBCCCF"/>
<rect x="10.8066" y="202.765" width="624.663" height="1.52357" transform="rotate(-34.7596 10.8066 202.765)" fill="#FBCCCF"/>
<rect x="15.1504" y="209.023" width="624.663" height="1.52357" transform="rotate(-34.7596 15.1504 209.023)" fill="#FBCCCF"/>
<rect x="19.4932" y="215.282" width="624.663" height="1.52357" transform="rotate(-34.7596 19.4932 215.282)" fill="#FBCCCF"/>
<rect x="23.8369" y="221.54" width="624.663" height="1.52357" transform="rotate(-34.7596 23.8369 221.54)" fill="#FBCCCF"/>
<rect x="28.1797" y="227.799" width="624.663" height="1.52357" transform="rotate(-34.7596 28.1797 227.799)" fill="#FBCCCF"/>
<rect x="32.5225" y="234.057" width="624.663" height="1.52357" transform="rotate(-34.7596 32.5225 234.057)" fill="#FBCCCF"/>
<rect x="36.8662" y="240.315" width="624.663" height="1.52357" transform="rotate(-34.7596 36.8662 240.315)" fill="#FBCCCF"/>
<rect x="41.209" y="246.573" width="624.663" height="1.52357" transform="rotate(-34.7596 41.209 246.573)" fill="#FBCCCF"/>
<rect x="45.5527" y="252.833" width="624.663" height="1.52357" transform="rotate(-34.7596 45.5527 252.833)" fill="#FBCCCF"/>
<rect x="49.8955" y="259.091" width="624.663" height="1.52357" transform="rotate(-34.7596 49.8955 259.091)" fill="#FBCCCF"/>
<rect x="54.2393" y="265.349" width="624.663" height="1.52357" transform="rotate(-34.7596 54.2393 265.349)" fill="#FBCCCF"/>
<rect x="58.582" y="271.607" width="624.663" height="1.52357" transform="rotate(-34.7596 58.582 271.607)" fill="#FBCCCF"/>
<rect x="62.9258" y="277.866" width="624.663" height="1.52357" transform="rotate(-34.7596 62.9258 277.866)" fill="#FBCCCF"/>
<rect x="67.2686" y="284.125" width="624.663" height="1.52357" transform="rotate(-34.7596 67.2686 284.125)" fill="#FBCCCF"/>
<rect x="71.6113" y="290.383" width="624.663" height="1.52357" transform="rotate(-34.7596 71.6113 290.383)" fill="#FBCCCF"/>
<rect x="75.9551" y="296.641" width="624.663" height="1.52357" transform="rotate(-34.7596 75.9551 296.641)" fill="#FBCCCF"/>
<rect x="80.2979" y="302.9" width="624.663" height="1.52357" transform="rotate(-34.7596 80.2979 302.9)" fill="#FBCCCF"/>
<rect x="84.6416" y="309.159" width="624.663" height="1.52357" transform="rotate(-34.7596 84.6416 309.159)" fill="#FBCCCF"/>
<rect x="88.9844" y="315.417" width="624.663" height="1.52357" transform="rotate(-34.7596 88.9844 315.417)" fill="#FBCCCF"/>
<rect x="93.3281" y="321.675" width="624.663" height="1.52357" transform="rotate(-34.7596 93.3281 321.675)" fill="#FBCCCF"/>
<rect x="97.6709" y="327.934" width="624.663" height="1.52357" transform="rotate(-34.7596 97.6709 327.934)" fill="#FBCCCF"/>
</g>
</g>
<defs>
<linearGradient id="paint0_linear_1_3882" x1="630" y1="-247.5" x2="630" y2="143" gradientUnits="userSpaceOnUse">
<stop stop-opacity="0"/>
<stop offset="1"/>
</linearGradient>
<clipPath id="clip0_1_3882">
<rect width="1260.88" height="1012" rx="26.0154" fill="white"/>
</clipPath>
</defs>
</svg>
