<svg width="164" height="69" viewBox="0 0 164 69" fill="none" xmlns="http://www.w3.org/2000/svg">
<path d="M113.392 64.6329H147.633C151.265 64.6329 154.749 63.1897 157.317 60.6213C159.886 58.0526 161.329 54.5693 161.329 50.9367V16.6962C161.329 13.0638 159.886 9.57987 157.317 7.01131C154.749 4.44279 151.265 3 147.633 3H106.544C102.912 3 99.4279 4.44279 96.8594 7.01131C94.2909 9.57987 92.8479 13.0638 92.8479 16.6962V33.8165" stroke="#A3052D" stroke-width="5.13608" stroke-linecap="round" stroke-linejoin="round"/>
<path d="M86 54.3594H120.241" stroke="#A3052D" stroke-width="5.13608" stroke-linecap="round" stroke-linejoin="round"/>
<path d="M86.0001 44.0898H99.6963" stroke="#A3052D" stroke-width="5.13608" stroke-linecap="round" stroke-linejoin="round"/>
<path d="M158.587 9.94922C139.378 46.3811 114.725 46.3469 95.5156 9.94922" stroke="#A3052D" stroke-width="5.13608" stroke-linecap="round" stroke-linejoin="round"/>
<path d="M0 42H62.5" stroke="#A3052D" stroke-width="4"/>
<path d="M0 67H105" stroke="#A3052D" stroke-width="4"/>
</svg>
