<svg width="1737" height="2974" viewBox="0 0 1737 2974" fill="none" xmlns="http://www.w3.org/2000/svg">
<g clip-path="url(#clip0_24_7778)">
<rect width="1737" height="2974" fill="white"/>
<g opacity="0.04">
<mask id="mask0_24_7778" style="mask-type:luminance" maskUnits="userSpaceOnUse" x="-1307" y="0" width="3044" height="2974">
<path d="M1736.9 0H-1307V2974H1736.9V0Z" fill="white"/>
</mask>
<g mask="url(#mask0_24_7778)">
<path d="M-57.6719 111.879L-59.8579 70.8594L-54.4204 70.2305L-52.6632 103.277L-17.8106 99.3011L-19.4017 69.3176L-17.437 68.283C-5.45506 61.9942 5.29541 51.1003 13.6523 36.7578C26.4644 14.8078 32.6767 -13.147 31.1409 -41.9538C29.6052 -70.7606 20.5288 -96.9708 5.54448 -115.736C-9.42599 -134.521 -28.5056 -143.65 -48.1388 -141.378C-67.7858 -139.146 -85.6619 -125.818 -98.4602 -103.848C-110.677 -82.9123 -116.89 -56.5195 -116.115 -29.1327L-81.2206 -33.1089C-81.3866 -62.7069 -65.835 -87.923 -45.4132 -90.256C-35.1054 -91.4326 -25.0605 -86.645 -17.174 -76.7452C-9.28753 -66.8453 -4.50031 -53.0708 -3.69782 -37.9371C-2.03751 -6.65532 -18.0457 20.7923 -39.3807 23.2267L-56.8002 25.2148L-55.6241 47.3271L-61.0616 47.9559L-62.6666 17.8711L-39.7959 15.2541C-21.4633 13.1646 -7.71032 -10.4083 -9.13542 -37.2879C-9.82721 -50.2916 -13.9365 -62.1389 -20.7161 -70.6389C-27.4957 -79.139 -36.1155 -83.2774 -44.9705 -82.2631C-63.3031 -80.1736 -77.056 -56.6007 -75.6309 -29.7211L-75.4233 -25.7246L-121.165 -20.511L-121.372 -24.5074C-123.019 -55.4443 -116.35 -85.4684 -102.583 -109.041C-88.8303 -132.614 -69.6261 -146.936 -48.5263 -149.33C-27.3988 -151.744 -6.94941 -141.946 9.12794 -121.781C25.2053 -101.616 34.9736 -73.4587 36.6062 -42.5218C38.2527 -11.5849 31.5837 18.4391 17.8169 42.012C9.29401 56.6183 -1.53949 67.9178 -13.6321 74.795L-11.9442 106.706L-57.6719 111.919V111.879Z" fill="black"/>
<path d="M249.69 266.963L213.026 291.893L230.03 345.65L266.693 320.72L249.69 266.963Z" fill="black"/>
<path d="M249.929 71.5909C258.521 98.7748 259.393 129.225 252.35 157.362C247.701 175.965 239.967 192.072 229.908 204.508L238.805 232.645L202.14 257.577L177.373 179.251L195.706 166.795C213.762 154.522 221.634 123.017 213.264 96.5433C204.893 70.0694 183.392 58.5264 165.35 70.7997C147.294 83.073 139.421 114.578 147.792 141.052L111.127 165.984C102.535 138.8 101.663 108.35 108.706 80.2126C115.734 52.0753 129.819 29.6384 148.346 17.0405C166.886 4.44258 187.653 3.16453 206.844 13.4904C226.034 23.7959 241.337 44.4476 249.929 71.6112V71.5909Z" fill="black"/>
<path d="M140.777 757.739C133.527 785.735 119.276 807.948 100.639 820.222C88.3247 828.357 75.0561 831.501 61.9673 829.635L54.4682 858.644L16.6823 837.628L37.5745 756.907L56.4745 767.416C75.07 777.762 95.9484 764.008 103.019 736.722C110.075 709.457 100.694 678.845 82.0848 668.479C63.4893 658.133 42.6109 671.887 35.5407 699.172L-2.2453 678.135C5.00473 650.14 19.2557 627.926 37.8927 615.653C56.5297 603.359 77.3114 602.446 96.4188 613.076C115.512 623.706 130.663 644.601 139.033 671.927C147.418 699.233 148.041 729.724 140.791 757.739H140.777Z" fill="black"/>
<path d="M7.4653 873.109L-6.87305 928.511L30.9127 949.534L45.2511 894.132L7.4653 873.109Z" fill="black"/>
<path d="M719.279 487.658L682.615 512.588L699.618 566.346L736.282 541.415L719.279 487.658Z" fill="black"/>
<path d="M719.521 292.327C728.113 319.511 728.984 349.961 721.942 378.098C717.293 396.701 709.559 412.808 699.5 425.244L708.397 453.381L671.731 478.313L646.965 399.987L665.298 387.531C683.353 375.258 691.226 343.753 682.855 317.279C674.485 290.805 652.984 279.262 634.942 291.536C616.886 303.809 609.013 335.314 617.384 361.788L580.719 386.72C572.127 359.536 571.255 329.086 578.297 300.949C585.326 272.811 599.411 250.374 617.937 237.776C636.477 225.178 657.245 223.9 676.436 234.226C695.626 244.532 710.929 265.183 719.521 292.347V292.327Z" fill="black"/>
<path d="M542.349 1136.48L505.686 1161.41L522.689 1215.17L559.353 1190.24L542.349 1136.48Z" fill="black"/>
<path d="M542.572 941.171C551.165 968.354 552.036 998.804 544.994 1026.94C540.345 1045.54 532.611 1061.65 522.552 1074.09L531.448 1102.23L494.783 1127.16L470.017 1048.83L488.349 1036.38C506.405 1024.1 514.278 992.597 505.907 966.123C497.536 939.649 476.035 928.106 457.993 940.379C439.937 952.653 432.065 984.158 440.436 1010.63L403.77 1035.56C395.178 1008.38 394.307 977.93 401.349 949.792C408.378 921.655 422.463 899.218 440.989 886.62C459.529 874.022 480.297 872.744 499.487 883.07C518.678 893.375 533.98 914.027 542.572 941.191V941.171Z" fill="black"/>
<path d="M217.8 705.727L215.889 764.917L256.258 767.719L258.169 708.528L217.8 705.727Z" fill="black"/>
<path d="M320.161 535.461C319.192 565.384 310.337 592.974 295.215 613.118C285.225 626.446 273.285 635.474 260.431 639.653L259.435 670.63L219.062 667.831L221.843 581.593L242.029 582.993C261.898 584.372 278.833 561.793 279.774 532.642C280.715 503.49 265.315 478.68 245.433 477.3C225.551 475.921 208.629 498.499 207.689 527.651L167.315 524.852C168.284 494.929 177.139 467.339 192.262 447.195C207.37 427.03 226.948 416.704 247.356 418.124C267.764 419.544 286.581 432.528 300.32 454.701C314.073 476.854 321.116 505.559 320.147 535.482L320.161 535.461Z" fill="black"/>
<path d="M677.342 993.593L675.432 1052.78L715.801 1055.58L717.712 996.394L677.342 993.593Z" fill="black"/>
<path d="M779.722 823.304C778.754 853.227 769.899 880.816 754.776 900.961C744.787 914.289 732.846 923.317 719.993 927.496L718.997 958.473L678.623 955.674L681.404 869.436L701.591 870.835C721.459 872.215 738.394 849.636 739.335 820.484C740.276 791.333 724.877 766.522 704.995 765.143C685.126 763.763 668.191 786.342 667.25 815.494L626.877 812.694C627.845 782.772 636.7 755.182 651.823 735.038C666.932 714.873 686.51 704.547 706.918 705.967C727.326 707.387 746.143 720.37 759.882 742.544C773.635 764.696 780.677 793.402 779.709 823.324L779.722 823.304Z" fill="black"/>
<path d="M581.131 43.2753L551.699 83.8848L579.396 127.039L608.828 86.4292L581.131 43.2753Z" fill="black"/>
<path d="M539.238 -142.433C553.24 -120.625 560.615 -92.1021 559.992 -62.1592C559.591 -42.3596 555.717 -23.4931 548.84 -7.0408L563.34 15.5583L533.911 56.1719L493.552 -6.69593L508.273 -27.0027C522.76 -46.9849 523.451 -80.5388 509.823 -101.799C496.181 -123.039 473.31 -124.053 458.81 -104.071C444.31 -84.0889 443.632 -50.535 457.26 -29.2748L427.831 11.3388C413.829 -10.4692 406.455 -38.992 407.077 -68.9349C407.7 -98.8777 416.237 -126.691 431.11 -147.22C445.984 -167.75 465.437 -178.563 485.859 -177.65C506.281 -176.737 525.25 -164.221 539.252 -142.413L539.238 -142.433Z" fill="black"/>
<path d="M391.331 471.599L348.26 448.452L364.046 385.3L407.118 408.427L402.884 425.346L397.765 422.587L400.103 413.194L367.284 395.565L355.261 443.685L388.079 461.314L391.76 446.606L396.893 449.365L391.331 471.599Z" fill="black"/>
<path d="M414.147 380.292L371.076 357.145L380.734 318.499L385.867 321.258L378.091 352.378L410.91 370.007L417.966 341.768L420.042 342.032C432.715 343.614 445.583 340.267 457.26 332.335C475.136 320.183 488.709 298.558 495.489 271.414C502.268 244.291 501.438 214.917 493.151 188.706C484.863 162.496 470.114 142.595 451.601 132.655C433.103 122.715 413.068 123.932 395.192 136.083C378.146 147.667 365.002 167.893 357.946 193.271L390.806 210.92C394.625 198.403 401.321 188.443 409.9 182.6C419.308 176.19 429.851 175.541 439.578 180.774C459.668 191.567 470.031 224.33 462.67 253.786C459.114 268.047 451.961 279.407 442.553 285.818C433.144 292.208 422.601 292.878 412.875 287.644L396.465 278.819L391.263 299.633L386.13 296.874L393.214 268.534L414.756 280.097C423.113 284.58 432.162 284.033 440.256 278.515C448.35 272.997 454.493 263.239 457.551 251.006C463.874 225.689 454.977 197.531 437.71 188.26C429.353 183.777 420.304 184.325 412.21 189.843C404.116 195.34 397.973 205.118 394.915 217.351L393.975 221.104L350.903 197.957L351.844 194.204C359.122 165.073 373.705 141.824 392.909 128.78C412.113 115.716 433.628 114.417 453.497 125.088C473.365 135.759 489.221 157.141 498.118 185.298C507.014 213.436 507.914 245.001 500.636 274.133C493.358 303.264 478.775 326.513 459.571 339.557C447.672 347.651 434.611 351.303 421.674 350.207L414.161 380.252L414.147 380.292Z" fill="black"/>
<path d="M876.212 839.393L833.141 816.247L848.927 753.095L891.999 776.221L887.779 793.14L882.646 790.381L884.998 780.989L852.179 763.36L840.142 811.479L872.974 829.108L876.641 814.401L881.774 817.159L876.212 839.393Z" fill="black"/>
<path d="M899.029 748.084L855.958 724.937L865.615 686.291L870.749 689.05L862.973 720.17L895.792 737.799L902.848 709.56L904.923 709.824C917.583 711.406 930.464 708.059 942.142 700.127C960.018 687.975 973.591 666.35 980.371 639.227C987.15 612.103 986.32 582.729 978.032 556.518C969.745 530.308 954.995 510.407 936.483 500.467C917.984 490.527 897.95 491.744 880.074 503.895C863.028 515.479 849.884 535.684 842.828 561.063L875.688 578.712C879.507 566.195 886.203 556.234 894.782 550.392C904.204 543.981 914.733 543.332 924.46 548.566C934.186 553.78 941.934 564.268 946.307 578.063C950.679 591.858 951.121 607.316 947.552 621.577C943.982 635.839 936.843 647.199 927.434 653.61C918.026 660.02 907.483 660.669 897.756 655.435L881.347 646.611L876.144 667.425L871.011 664.666L878.095 636.326L899.638 647.889C907.995 652.372 917.044 651.824 925.138 646.306C933.232 640.809 939.375 631.031 942.432 618.798C945.49 606.565 945.117 593.278 941.353 581.41C937.604 569.542 930.935 560.535 922.592 556.052C914.249 551.569 905.186 552.116 897.092 557.634C888.998 563.132 882.855 572.91 879.797 585.163L878.856 588.916L835.785 565.769L836.726 562.016C844.004 532.885 858.587 509.636 877.791 496.592C896.995 483.528 918.496 482.229 938.379 492.9C958.247 503.571 974.103 524.953 982.999 553.11C991.896 581.248 992.795 612.814 985.518 641.945C978.24 671.076 963.657 694.325 944.452 707.369C932.554 715.463 919.506 719.115 906.556 718.019L899.043 748.064L899.029 748.084Z" fill="black"/>
<path d="M-10.6289 489.288L-39.6982 437.273L-17.9897 411.185L-14.5307 417.372L-32.0193 438.389L-9.868 478.029L6.00193 458.96L7.70373 460.725C18.0668 471.537 30.3116 478.232 43.1237 480.098C62.7292 482.959 81.9195 474.438 97.1667 456.12C112.414 437.801 121.878 411.895 123.815 383.149C125.766 354.403 119.955 326.266 107.461 303.91C94.9669 281.554 77.2985 267.678 57.6929 264.838C38.9868 262.12 20.668 269.727 5.79436 286.322L27.9734 326.022C35.597 318.09 44.8117 314.479 54.234 315.859C64.5556 317.36 73.8671 324.663 80.4253 336.389C93.9845 360.651 91.5633 396.579 75.0017 416.48C58.4539 436.361 33.9504 432.81 20.3773 408.528L9.29489 388.708L-2.39657 402.766L-5.85555 396.579L10.0696 377.449L24.6112 403.456C36.261 424.31 57.3194 427.374 71.5427 410.292C85.7661 393.191 87.8553 362.315 76.2054 341.46C70.5742 331.378 62.577 325.109 53.6943 323.811C44.8255 322.533 36.1365 326.367 29.26 334.624L27.1431 337.16L-1.94004 285.145L0.176894 282.609C16.5448 262.931 37.1604 253.802 58.2187 256.866C79.277 259.929 98.2599 274.819 111.681 298.838C125.102 322.837 131.328 353.064 129.238 383.94C127.149 414.816 116.994 442.649 100.612 462.327C84.2441 482.005 63.6285 491.134 42.5702 488.071C29.5229 486.184 17.0014 479.591 6.25089 469.002L-10.6289 489.288Z" fill="black"/>
<path d="M92.1992 1160.31L63.1299 1108.27L98.6052 1065.65L127.675 1117.66L118.183 1129.08L114.724 1122.9L119.996 1116.55L97.8443 1076.91L70.8089 1109.39L92.9602 1149.03L101.234 1139.11L104.693 1145.29L92.1992 1160.31Z" fill="black"/>
<path d="M143.489 1098.68L114.406 1046.66L136.115 1020.58L139.574 1026.76L122.085 1047.78L144.236 1087.42L160.106 1068.35L161.808 1070.12C172.171 1080.93 184.416 1087.62 197.228 1089.49C216.834 1092.35 236.024 1083.83 251.271 1065.51C266.518 1047.19 275.982 1021.29 277.919 992.54C279.87 963.794 274.059 935.656 261.565 913.3C249.071 890.945 231.403 877.069 211.797 874.229C193.091 871.51 174.772 879.118 159.899 895.712L182.078 935.413C198.542 918.291 221.538 922.551 234.53 945.779C241.088 957.525 244.146 972.314 243.122 987.468C242.098 1002.6 237.131 1016.25 229.12 1025.87C212.572 1045.75 188.069 1042.2 174.496 1017.92L163.413 998.098L151.722 1012.16L148.263 1005.97L164.188 986.839L178.729 1012.85C190.379 1033.7 211.438 1036.76 225.661 1019.66C232.537 1011.41 236.813 999.68 237.698 986.656C238.584 973.632 235.955 960.913 230.324 950.831C218.674 929.976 197.616 926.913 183.392 943.994L181.275 946.53L152.206 894.515L154.323 891.979C170.691 872.301 191.306 863.173 212.365 866.236C233.423 869.299 252.406 884.189 265.827 908.209C279.247 932.207 285.474 962.434 283.384 993.31C281.295 1024.19 271.126 1052.02 254.758 1071.7C238.39 1091.38 217.774 1100.5 196.716 1097.44C183.669 1095.55 171.147 1088.96 160.397 1078.37L143.517 1098.66L143.489 1098.68Z" fill="black"/>
<path d="M466.85 817.015L424.346 791.677L441.627 729.377L484.117 754.694L479.496 771.37L474.432 768.368L477.005 759.097L444.629 739.804L431.457 787.275L463.847 806.567L467.873 792.062L472.924 795.065L466.85 817.015Z" fill="black"/>
<path d="M491.81 726.922L449.32 701.604L459.891 663.486L464.955 666.509L456.446 697.222L488.822 716.515L496.542 688.661L498.618 689.027C511.25 691.258 524.186 688.56 536.044 681.216C554.197 669.978 568.282 649.062 575.698 622.284C583.114 595.506 582.975 566.111 575.31 539.515C567.645 512.899 553.38 492.248 535.117 481.374C516.867 470.5 496.805 470.703 478.666 481.942C461.358 492.653 447.743 512.189 440.092 537.182L472.509 556.495C476.618 544.181 483.55 534.565 492.267 529.169C501.828 523.245 512.37 523.144 521.959 528.844C531.547 534.545 539.06 545.418 543.086 559.436C547.126 573.454 547.196 588.913 543.308 602.992C535.255 632.062 512.564 646.1 492.737 634.294L476.549 624.637L470.863 645.187L465.799 642.165L473.547 614.21L494.799 626.869C511.831 637.032 531.34 624.962 538.258 599.969C541.606 587.878 541.537 574.59 538.064 562.54C534.591 550.49 528.143 541.158 519.911 536.249C511.679 531.34 502.616 531.441 494.398 536.513C486.179 541.605 479.815 551.058 476.466 563.129L475.442 566.841L432.938 541.523L433.962 537.811C441.932 509.065 457.055 486.588 476.549 474.517C496.044 462.447 517.573 462.244 537.192 473.909C556.798 485.594 572.128 507.767 580.36 536.35C588.593 564.934 588.731 596.5 580.775 625.246C572.806 653.992 557.683 676.469 538.188 688.54C526.11 696.025 512.966 699.008 500.07 697.243L491.852 726.901L491.81 726.922Z" fill="black"/>
<path d="M796.157 388.019L792.602 320.972L838.329 315.758L839.284 333.692L833.847 334.32L833.307 324.36L798.468 328.336L801.18 379.417L836.033 375.441L835.202 359.821L840.64 359.192L841.899 382.805L796.157 388.019Z" fill="black"/>
<path d="M791.01 291.091L788.838 250.071L794.276 249.442L796.033 282.489L830.885 278.513L829.294 248.53L831.259 247.495C843.241 241.206 853.991 230.312 862.348 215.97C875.16 194.02 881.373 166.065 879.837 137.258C878.301 108.451 869.225 82.2411 854.24 63.4761C839.27 44.6908 820.19 35.5822 800.557 37.834C780.91 40.0655 763.034 53.3937 750.236 75.364C738.019 96.2997 731.806 122.692 732.581 150.079L767.475 146.103C767.309 116.505 782.861 91.2889 803.283 88.9559C813.591 87.7793 823.635 92.5669 831.522 102.467C839.408 112.367 844.195 126.141 844.998 141.275C845.8 156.409 842.521 171.116 835.783 182.68C829.031 194.243 819.637 201.262 809.315 202.439L791.896 204.427L793.072 226.539L787.634 227.168L786.029 197.083L808.9 194.466C817.769 193.452 825.849 187.427 831.646 177.486C837.444 167.546 840.266 154.907 839.574 141.924C838.883 128.92 834.773 117.073 827.994 108.573C821.214 100.073 812.594 95.9345 803.739 96.9488C785.407 99.0383 771.654 122.611 773.079 149.491L773.286 153.487L727.559 158.701L727.351 154.704C725.705 123.768 732.374 93.7436 746.14 70.1707C759.893 46.5978 779.097 32.2755 800.197 29.8817C821.297 27.4676 841.774 37.266 857.852 57.4307C873.929 77.5955 883.697 105.733 885.33 136.69C886.976 167.627 880.293 197.651 866.541 221.224C858.018 235.83 847.184 247.13 835.092 254.007L836.779 285.918L791.038 291.131L791.01 291.091Z" fill="black"/>
<path d="M1014.23 4.73008L977.564 29.6606L994.568 83.4179L1031.23 58.4873L1014.23 4.73008Z" fill="black"/>
<path d="M1495.83 227.462L1459.17 252.392L1476.17 306.149L1512.84 281.219L1495.83 227.462Z" fill="black"/>
<path d="M1496.1 32.1929C1504.69 59.3768 1505.57 89.8269 1498.52 117.964C1493.88 136.567 1486.14 152.674 1476.08 165.11L1484.98 193.247L1448.31 218.18L1423.55 139.853L1441.88 127.397C1459.94 115.124 1467.81 83.6192 1459.44 57.1453C1451.07 30.6714 1429.57 19.1284 1411.52 31.4018C1393.47 43.6751 1385.6 75.18 1393.97 101.654L1357.3 126.586C1348.71 99.4021 1347.84 68.9521 1354.88 40.8147C1361.91 12.6773 1375.99 -9.75954 1394.52 -22.3575C1413.06 -34.9554 1433.83 -36.2334 1453.02 -25.9076C1472.21 -15.6021 1487.51 5.04962 1496.1 32.2132V32.1929Z" fill="black"/>
<path d="M1318.91 876.328L1282.25 901.258L1299.25 955.016L1335.91 930.085L1318.91 876.328Z" fill="black"/>
<path d="M1319.16 681.059C1327.75 708.243 1328.62 738.693 1321.58 766.83C1316.93 785.433 1309.19 801.541 1299.14 813.976L1308.03 842.114L1271.37 867.046L1246.6 788.72L1264.93 776.264C1282.99 763.99 1290.86 732.485 1282.49 706.012C1274.12 679.538 1252.62 667.995 1234.58 680.268C1216.52 692.541 1208.65 724.046 1217.02 750.52L1180.35 775.452C1171.76 748.268 1170.89 717.818 1177.93 689.681C1184.96 661.544 1199.05 639.107 1217.57 626.509C1236.11 613.911 1256.88 612.633 1276.07 622.959C1295.26 633.264 1310.56 653.916 1319.16 681.079V681.059Z" fill="black"/>
<path d="M994.344 445.607L992.434 504.797L1032.8 507.599L1034.71 448.409L994.344 445.607Z" fill="black"/>
<path d="M1096.73 275.328C1095.76 305.25 1086.91 332.84 1071.78 352.984C1061.79 366.313 1049.85 375.34 1037 379.519L1036 410.497L995.631 407.697L998.412 321.459L1018.6 322.859C1038.47 324.238 1055.4 301.659 1056.34 272.508C1057.28 243.356 1041.88 218.546 1022 217.166C1002.12 215.787 985.199 238.366 984.258 267.517L943.885 264.718C944.853 234.795 953.708 207.206 968.831 187.061C983.94 166.896 1003.52 156.57 1023.93 157.991C1044.33 159.411 1063.15 172.394 1076.89 194.567C1090.64 216.72 1097.68 245.425 1096.72 275.348L1096.73 275.328Z" fill="black"/>
<path d="M1453.9 733.472L1451.99 792.663L1492.36 795.464L1494.27 736.274L1453.9 733.472Z" fill="black"/>
<path d="M1556.3 563.193C1555.34 593.115 1546.48 620.705 1531.36 640.85C1521.37 654.178 1509.43 663.205 1496.57 667.384L1495.58 698.362L1455.21 695.562L1457.99 609.324L1478.17 610.724C1498.04 612.104 1514.98 589.525 1515.92 560.373C1516.86 531.221 1501.46 506.411 1481.58 505.031C1461.69 503.652 1444.77 526.231 1443.83 555.383L1403.46 552.583C1404.43 522.66 1413.28 495.071 1428.41 474.926C1443.51 454.761 1463.09 444.436 1483.5 445.856C1503.91 447.276 1522.72 460.259 1536.46 482.432C1550.22 504.585 1557.26 533.291 1556.29 563.213L1556.3 563.193Z" fill="black"/>
<path d="M1167.92 211.465L1124.83 188.318L1140.62 125.167L1183.69 148.313L1179.47 165.212L1174.34 162.453L1176.69 153.081L1143.87 135.431L1131.85 183.571L1164.67 201.2L1168.35 186.472L1173.47 189.231L1167.92 211.465Z" fill="black"/>
<path d="M1190.72 120.179L1147.65 97.0318L1157.3 58.386L1162.44 61.1449L1154.66 92.2644L1187.48 109.893L1194.54 81.6546L1196.61 81.9183C1209.28 83.521 1222.15 80.1534 1233.83 72.2214C1251.71 60.0697 1265.28 38.4443 1272.06 11.3213C1278.84 -15.8017 1278.01 -45.1766 1269.72 -71.3867C1261.43 -97.5969 1246.68 -117.498 1228.18 -127.438C1209.69 -137.379 1189.65 -136.162 1171.78 -124.01C1154.73 -112.426 1141.59 -92.221 1134.53 -66.8426L1167.39 -49.1933C1175.64 -76.1946 1196.91 -89.6649 1216.16 -79.339C1236.25 -68.5466 1246.61 -35.7839 1239.25 -6.32795C1235.7 7.93346 1228.54 19.2939 1219.14 25.7044C1209.73 32.115 1199.18 32.7641 1189.46 27.5302L1173.05 18.7056L1167.85 39.5195L1162.71 36.7606L1169.8 8.42033L1191.34 19.9836C1199.7 24.467 1208.74 23.9192 1216.84 18.4013C1224.93 12.9037 1231.08 3.12556 1234.13 -9.12748C1240.46 -34.445 1231.56 -62.6027 1214.29 -71.8736C1197.01 -81.1445 1177.82 -68.1003 1171.5 -42.7828L1170.56 -39.0298L1127.49 -62.1767L1128.43 -65.9297C1135.7 -95.0611 1150.29 -118.309 1169.49 -131.354C1188.68 -144.418 1210.21 -145.716 1230.08 -135.046C1249.95 -124.375 1265.8 -102.993 1274.7 -74.8354C1283.61 -46.6981 1284.5 -15.1526 1277.22 13.9991C1269.94 43.1305 1255.36 66.3586 1236.15 79.4231C1224.25 87.5174 1211.21 91.1689 1198.26 90.0735L1190.74 120.118L1190.72 120.179Z" fill="black"/>
<path d="M1652.8 579.26L1609.72 556.113L1625.5 492.961L1668.57 516.108L1664.35 533.006L1659.23 530.268L1661.57 520.875L1628.75 503.226L1616.73 551.366L1649.54 568.995L1653.22 554.267L1658.34 557.026L1652.8 579.26Z" fill="black"/>
<path d="M1675.61 487.97L1632.54 464.823L1642.2 426.178L1647.33 428.937L1639.55 460.056L1672.37 477.685L1679.43 449.446L1681.51 449.71C1694.16 451.292 1707.05 447.945 1718.72 440.013C1736.6 427.861 1750.17 406.236 1756.95 379.093C1763.73 351.97 1762.9 322.595 1754.61 296.385C1746.33 270.175 1731.58 250.274 1713.08 240.333C1694.58 230.393 1674.55 231.61 1656.67 243.762C1639.62 255.345 1626.48 275.571 1619.42 300.949L1652.28 318.598C1660.53 291.597 1681.82 278.127 1701.06 288.453C1721.15 299.245 1731.51 332.008 1724.15 361.464C1716.79 390.92 1694.44 406.114 1674.35 395.322L1657.94 386.497L1652.74 407.311L1647.61 404.552L1654.69 376.212L1676.23 387.775C1693.5 397.046 1712.71 384.002 1719.03 358.685C1725.35 333.367 1716.45 305.209 1699.19 295.938C1681.92 286.667 1662.72 299.712 1656.39 325.029L1655.45 328.782L1612.38 305.635L1613.32 301.882C1620.6 272.751 1635.18 249.523 1654.39 236.458C1673.58 223.394 1695.09 222.096 1714.97 232.766C1734.84 243.437 1750.7 264.819 1759.6 292.977C1768.51 321.114 1769.39 352.659 1762.11 381.811C1754.84 410.943 1740.25 434.171 1721.05 447.235C1709.15 455.329 1696.1 458.981 1683.15 457.885L1675.64 487.93L1675.61 487.97Z" fill="black"/>
<path d="M892.899 1056.82L863.83 1004.81L899.305 962.168L928.388 1014.2L918.883 1025.6L915.424 1019.42L920.696 1013.07L898.544 973.427L871.509 1005.93L893.66 1045.57L901.934 1035.63L905.393 1041.81L892.899 1056.82Z" fill="black"/>
<path d="M944.188 995.193L915.119 943.178L936.828 917.09L940.287 923.277L922.798 944.294L944.949 983.934L960.819 964.864L962.521 966.629C972.884 977.442 985.129 984.136 997.941 986.003C1017.55 988.863 1036.74 980.343 1051.98 962.024C1067.23 943.705 1076.7 917.8 1078.63 889.054C1080.58 860.308 1074.77 832.17 1062.28 809.815C1049.78 787.459 1032.12 773.583 1012.51 770.743C993.804 768.024 975.485 775.632 960.612 792.226L982.791 831.927C999.255 814.805 1022.25 819.065 1035.24 842.293C1041.8 854.039 1044.86 868.828 1043.83 883.982C1042.81 899.116 1037.83 912.768 1029.83 922.384C1021.82 932 1011.74 936.483 1001.4 934.982C991.078 933.481 981.767 926.178 975.209 914.452L964.126 894.632L952.435 908.691L948.976 902.504L964.901 883.373L979.442 909.381C985.074 919.463 993.071 925.732 1001.95 927.03C1010.82 928.308 1019.51 924.474 1026.39 916.217C1033.26 907.961 1037.54 896.235 1038.42 883.211C1039.31 870.187 1036.68 857.468 1031.05 847.385C1019.4 826.531 998.342 823.467 984.119 840.549L982.002 843.084L952.919 791.07L955.036 788.534C971.404 768.856 992.019 759.727 1013.08 762.79C1034.14 765.854 1053.12 780.744 1066.54 804.763C1079.96 828.762 1086.19 858.989 1084.1 889.865C1082.01 920.741 1071.85 948.574 1055.47 968.252C1039.1 987.93 1018.5 997.079 997.429 993.996C984.382 992.109 971.86 985.516 961.11 974.926L944.23 995.213L944.188 995.193Z" fill="black"/>
<path d="M1243.42 556.885L1200.93 531.568L1218.2 469.248L1260.7 494.565L1256.06 511.261L1251.01 508.238L1253.57 498.967L1221.2 479.675L1208.04 527.165L1240.42 546.458L1244.44 531.933L1249.51 534.956L1243.42 556.885Z" fill="black"/>
<path d="M1268.39 466.813L1225.89 441.495L1236.46 403.377L1241.52 406.399L1233.01 437.113L1265.4 456.406L1273.12 428.552L1275.2 428.917C1287.83 431.149 1300.77 428.451 1312.62 421.107C1330.78 409.868 1344.86 388.953 1352.28 362.175C1359.69 335.417 1359.56 306.002 1351.9 279.406C1344.24 252.79 1329.97 232.138 1311.71 221.265C1293.45 210.391 1273.4 210.594 1255.26 221.833C1237.95 232.544 1224.34 252.08 1216.69 277.073L1249.1 296.386C1257.99 269.81 1279.58 257.436 1298.55 268.735C1308.14 274.456 1315.64 285.309 1319.68 299.327C1323.72 313.345 1323.79 328.804 1319.9 342.882C1311.85 371.953 1289.16 385.991 1269.33 374.184L1253.14 364.528L1247.46 385.078L1242.39 382.056L1250.14 354.101L1271.39 366.76C1288.43 376.903 1307.92 364.853 1314.85 339.86C1318.2 327.769 1318.13 314.481 1314.66 302.431C1311.19 290.381 1304.74 281.049 1296.51 276.14C1279.47 265.997 1259.97 278.047 1253.05 303.04L1252.02 306.752L1209.53 281.435L1210.56 277.722C1218.53 248.976 1233.65 226.499 1253.14 214.428C1272.64 202.358 1294.17 202.155 1313.79 213.82C1333.39 225.505 1348.72 247.678 1356.95 276.262C1365.19 304.845 1365.33 336.411 1357.37 365.157C1349.4 393.903 1334.28 416.38 1314.78 428.451C1302.7 435.937 1289.56 438.919 1276.67 437.154L1268.45 466.813H1268.39Z" fill="black"/>
<path d="M1572.73 127.905L1569.17 60.8381L1614.91 55.6245L1615.87 73.5781L1610.42 74.1866L1609.89 64.226L1575.04 68.2021L1577.75 119.304L1612.6 115.328L1611.77 99.7071L1617.21 99.0782L1618.47 122.671L1572.73 127.905Z" fill="black"/>
<path d="M1567.59 30.9568L1565.41 -10.0625L1570.84 -10.6914L1572.6 22.3553L1607.45 18.3792L1605.86 -11.6043L1607.83 -12.6389C1619.81 -18.9277 1630.56 -29.8216 1638.92 -44.1641C1651.73 -66.1141 1657.94 -94.0689 1656.41 -122.876C1654.87 -151.683 1645.79 -177.893 1630.81 -196.658C1615.84 -215.443 1596.76 -224.552 1577.13 -222.3C1557.48 -220.068 1539.6 -206.74 1526.8 -184.77C1514.59 -163.834 1508.38 -137.441 1509.15 -110.055L1544.04 -114.031C1543.88 -143.629 1559.43 -168.845 1579.85 -171.178C1590.16 -172.354 1600.2 -167.567 1608.09 -157.667C1615.98 -147.767 1620.76 -133.993 1621.57 -118.859C1623.23 -87.5772 1607.22 -60.1296 1585.88 -57.6952L1568.46 -55.7071L1569.64 -33.5949L1564.2 -32.966L1562.6 -63.0508L1585.47 -65.6678C1603.8 -67.7573 1617.55 -91.3302 1616.13 -118.21C1615.44 -131.213 1611.33 -143.061 1604.55 -151.561C1597.77 -160.061 1589.15 -164.199 1580.29 -163.185C1561.96 -161.095 1548.21 -137.523 1549.63 -110.643L1549.84 -106.647L1504.1 -101.433L1503.89 -105.429C1502.25 -136.366 1508.91 -166.39 1522.68 -189.963C1536.43 -213.536 1555.64 -227.858 1576.74 -230.252C1597.87 -232.666 1618.32 -222.868 1634.39 -202.703C1650.47 -182.538 1660.24 -154.381 1661.87 -123.444C1663.52 -92.5068 1656.85 -62.4828 1643.08 -38.9099C1634.56 -24.3036 1623.72 -13.0041 1611.63 -6.12694L1613.32 25.7837L1567.59 30.9974V30.9568Z" fill="black"/>
<path d="M158.07 1606.8L121.406 1631.73L138.41 1685.48L175.073 1660.55L158.07 1606.8Z" fill="black"/>
<path d="M158.266 1411.45C166.858 1438.64 167.73 1469.09 160.687 1497.22C156.038 1515.83 148.304 1531.93 138.245 1544.37L147.142 1572.51L110.476 1597.44L85.7102 1519.11L104.043 1506.66C122.099 1494.38 129.971 1462.88 121.601 1436.4C113.23 1409.93 91.7288 1398.39 73.6867 1410.66C55.6308 1422.93 47.7583 1454.44 56.129 1480.91L19.4638 1505.84C10.8717 1478.66 10 1448.21 17.0425 1420.07C24.0712 1391.94 38.1562 1369.5 56.6825 1356.9C75.2226 1344.3 95.9902 1343.03 115.181 1353.35C134.371 1363.66 149.674 1384.31 158.266 1411.47V1411.45Z" fill="black"/>
<path d="M-69.4454 1846.05L-111.949 1820.73L-101.379 1782.61L-96.3149 1785.64L-104.824 1816.35L-72.434 1835.64L-64.7136 1807.77L-62.6382 1808.13C-50.006 1810.37 -37.0694 1807.67 -25.212 1800.32C-7.05928 1789.08 7.02574 1768.17 14.4418 1741.39C21.8579 1714.63 21.7195 1685.22 14.0544 1658.62C6.38925 1632.01 -7.87566 1611.35 -26.1391 1600.48C-44.4025 1589.61 -64.4507 1589.81 -82.5896 1601.03C-99.8983 1611.74 -113.513 1631.28 -121.164 1656.27L-88.7327 1675.58C-79.8501 1649.01 -58.2523 1636.63 -39.2832 1647.93C-19.4563 1659.74 -9.88179 1693.01 -17.9343 1722.08C-25.9868 1751.15 -48.6777 1765.19 -68.5046 1753.38L-84.6927 1743.72L-90.3792 1764.27L-95.4432 1761.25L-87.695 1733.3L-66.4431 1745.96C-49.411 1756.12 -29.9024 1744.05 -22.9845 1719.06C-16.0665 1694.08 -24.285 1665.5 -41.3309 1655.34C-58.3629 1645.17 -77.8716 1657.24 -84.7895 1682.24L-85.8134 1685.95L-128.317 1660.63L-127.293 1656.92C-119.324 1628.17 -104.201 1605.7 -84.7065 1593.62C-65.2117 1581.55 -43.683 1581.35 -24.0637 1593.02C-4.45819 1604.7 10.8721 1626.87 19.1045 1655.46C27.3369 1684.04 27.4751 1715.61 19.5195 1744.37C11.55 1773.12 -3.57256 1795.6 -23.0674 1807.67C-35.1461 1815.15 -48.2903 1818.14 -61.1854 1816.37L-69.404 1846.03L-69.4454 1846.05Z" fill="black"/>
<path d="M234.904 1507.14L231.334 1440.1L277.075 1434.88L278.03 1452.82L272.593 1453.45L272.053 1443.49L237.214 1447.46L239.926 1498.54L274.765 1494.57L273.935 1478.95L279.386 1478.32L280.631 1501.93L234.904 1507.14Z" fill="black"/>
<path d="M229.757 1410.22L227.584 1369.2L233.022 1368.57L234.779 1401.61L269.632 1397.64L268.04 1367.65L270.005 1366.62C281.987 1360.33 292.738 1349.44 301.095 1335.1C313.907 1313.15 320.119 1285.19 318.583 1256.38C317.047 1227.58 307.971 1201.37 292.987 1182.6C278.016 1163.82 258.937 1154.69 239.303 1156.96C219.656 1159.19 201.78 1172.52 188.982 1194.49C176.765 1215.43 170.553 1241.82 171.327 1269.2L206.222 1265.23C206.056 1235.63 221.607 1210.41 242.029 1208.08C252.351 1206.9 262.382 1211.69 270.268 1221.59C278.155 1231.49 282.942 1245.27 283.744 1260.4C285.405 1291.68 269.396 1319.13 248.061 1321.56L230.642 1323.55L231.818 1345.66L226.381 1346.29L224.79 1316.21L247.66 1313.59C265.993 1311.5 279.746 1287.93 278.321 1261.05C277.629 1248.05 273.52 1236.2 266.74 1227.7C259.96 1219.2 251.341 1215.06 242.486 1216.07C224.153 1218.16 210.4 1241.74 211.825 1268.62L212.033 1272.61L166.291 1277.83L166.084 1273.83C164.437 1242.89 171.106 1212.87 184.873 1189.3C198.626 1165.72 217.816 1151.4 238.93 1149.01C260.043 1146.59 280.507 1156.39 296.584 1176.56C312.661 1196.72 322.43 1224.86 324.062 1255.8C325.709 1286.73 319.04 1316.76 305.273 1340.33C296.75 1354.94 285.917 1366.23 273.824 1373.11L275.512 1405.02L229.77 1410.24L229.757 1410.22Z" fill="black"/>
<path d="M537.172 1565.24L500.508 1590.17L517.511 1643.92L554.175 1618.99L537.172 1565.24Z" fill="black"/>
<path d="M537.37 1369.93C545.962 1397.11 546.834 1427.56 539.792 1455.7C535.143 1474.3 527.408 1490.41 517.35 1502.85L526.246 1530.98L489.581 1555.91L464.815 1477.59L483.147 1465.13C501.203 1452.86 509.076 1421.35 500.705 1394.88C492.334 1368.41 470.833 1356.86 452.791 1369.14C434.735 1381.41 426.863 1412.92 435.234 1439.39L398.568 1464.32C389.976 1437.14 389.105 1406.69 396.147 1378.55C403.176 1350.41 417.261 1327.98 435.787 1315.38C454.327 1302.78 475.095 1301.5 494.285 1311.83C513.476 1322.13 528.778 1342.78 537.37 1369.95V1369.93Z" fill="black"/>
<path d="M428.205 2056.08C420.955 2084.07 406.704 2106.29 388.067 2118.56C375.753 2126.69 362.485 2129.84 349.396 2127.97L341.897 2156.98L304.111 2135.96L325.003 2055.24L343.903 2065.75C362.499 2076.1 383.377 2062.34 390.447 2035.06C397.504 2007.79 388.123 1977.18 369.513 1966.82C350.918 1956.47 330.04 1970.22 322.969 1997.51L285.183 1976.47C292.433 1948.48 306.684 1926.26 325.321 1913.99C343.958 1901.7 364.74 1900.78 383.847 1911.41C402.941 1922.04 418.091 1942.94 426.462 1970.26C434.847 1997.57 435.469 2028.06 428.219 2056.08H428.205Z" fill="black"/>
<path d="M294.898 2171.41L280.56 2226.81L318.345 2247.84L332.684 2192.43L294.898 2171.41Z" fill="black"/>
<path d="M1006.73 1785.94L970.07 1810.87L987.074 1864.62L1023.74 1839.69L1006.73 1785.94Z" fill="black"/>
<path d="M1006.95 1590.66C1015.54 1617.85 1016.41 1648.3 1009.37 1676.43C1004.72 1695.04 996.985 1711.15 986.926 1723.58L995.822 1751.72L959.157 1776.65L934.391 1698.32L952.724 1685.87C970.779 1673.59 978.652 1642.09 970.281 1615.62C961.91 1589.14 940.409 1577.6 922.367 1589.87C904.312 1602.15 896.439 1633.65 904.81 1660.12L868.144 1685.06C859.552 1657.87 858.681 1627.42 865.723 1599.29C872.752 1571.15 886.837 1548.71 905.363 1536.11C923.903 1523.52 944.671 1522.24 963.861 1532.56C983.052 1542.87 998.354 1563.52 1006.95 1590.68V1590.66Z" fill="black"/>
<path d="M829.818 2434.78L793.154 2459.72L810.158 2513.47L846.821 2488.54L829.818 2434.78Z" fill="black"/>
<path d="M830.001 2239.51C838.593 2266.69 839.465 2297.14 832.422 2325.28C827.774 2343.88 820.039 2359.99 809.981 2372.42L818.877 2400.56L782.212 2425.49L757.446 2347.17L775.778 2334.71C793.834 2322.44 801.707 2290.93 793.336 2264.46C784.965 2237.99 763.464 2226.44 745.422 2238.72C727.366 2250.99 719.494 2282.49 727.864 2308.97L691.199 2333.9C682.607 2306.72 681.735 2276.27 688.778 2248.13C695.807 2219.99 709.892 2197.55 728.418 2184.96C746.958 2172.36 767.726 2171.08 786.916 2181.41C806.106 2191.71 821.409 2212.36 830.001 2239.53V2239.51Z" fill="black"/>
<path d="M505.221 2004.03L503.311 2063.22L543.68 2066.02L545.591 2006.83L505.221 2004.03Z" fill="black"/>
<path d="M607.589 1833.8C606.62 1863.72 597.765 1891.31 582.642 1911.46C572.653 1924.78 560.713 1933.81 547.859 1937.99L546.863 1968.97L506.49 1966.17L509.271 1879.93L529.457 1881.33C549.326 1882.71 566.261 1860.13 567.202 1830.98C568.142 1801.83 552.743 1777.02 532.861 1775.64C512.992 1774.26 496.057 1796.84 495.116 1825.99L454.743 1823.19C455.712 1793.27 464.567 1765.68 479.689 1745.53C494.798 1725.37 514.376 1715.04 534.784 1716.46C555.192 1717.88 574.009 1730.86 587.748 1753.04C601.501 1775.19 608.543 1803.9 607.575 1833.82L607.589 1833.8Z" fill="black"/>
<path d="M964.76 2291.88L962.85 2351.07L1003.22 2353.87L1005.13 2294.68L964.76 2291.88Z" fill="black"/>
<path d="M1067.15 2121.64C1066.18 2151.56 1057.32 2179.15 1042.2 2199.3C1032.21 2212.63 1020.27 2221.65 1007.42 2225.83L1006.42 2256.81L966.049 2254.01L968.83 2167.77L989.017 2169.17C1008.89 2170.55 1025.82 2147.97 1026.76 2118.82C1027.7 2089.67 1012.3 2064.86 992.42 2063.48C972.552 2062.1 955.617 2084.68 954.676 2113.83L914.303 2111.03C915.271 2081.11 924.126 2053.52 939.249 2033.37C954.358 2013.21 973.936 2002.88 994.344 2004.3C1014.75 2005.72 1033.57 2018.71 1047.31 2040.88C1061.06 2063.03 1068.1 2091.74 1067.13 2121.66L1067.15 2121.64Z" fill="black"/>
<path d="M189.838 2057.22L160.406 2097.83L188.103 2140.99L217.535 2100.38L189.838 2057.22Z" fill="black"/>
<path d="M147.986 1871.47C161.988 1893.28 169.363 1921.8 168.74 1951.74C168.339 1971.54 164.465 1990.41 157.588 2006.86L172.088 2029.46L142.659 2070.08L102.3 2007.21L117.022 1986.9C131.508 1966.92 132.2 1933.37 118.571 1912.1C104.929 1890.86 82.0581 1889.85 67.5581 1909.83C53.0718 1929.81 52.38 1963.37 66.0084 1984.63L36.5794 2025.24C22.5774 2003.43 15.2029 1974.91 15.8255 1944.97C16.4481 1915.03 24.9849 1887.21 39.8585 1866.68C54.7321 1846.15 74.1854 1835.34 94.6072 1836.25C115.029 1837.17 133.998 1849.68 148 1871.49L147.986 1871.47Z" fill="black"/>
<path d="M868.54 1341.66L839.107 1382.27L866.804 1425.42L896.236 1384.82L868.54 1341.66Z" fill="black"/>
<path d="M826.666 1155.9C840.668 1177.71 848.042 1206.23 847.42 1236.18C847.018 1255.98 843.145 1274.84 836.268 1291.3L850.768 1313.9L821.339 1354.51L780.98 1291.64L795.701 1271.33C810.187 1251.35 810.879 1217.8 797.251 1196.54C783.609 1175.3 760.738 1174.28 746.238 1194.27C731.751 1214.25 731.06 1247.8 744.688 1269.06L715.259 1309.68C701.257 1287.87 693.883 1259.34 694.505 1229.4C695.128 1199.46 703.665 1171.65 718.538 1151.12C733.412 1130.59 752.865 1119.77 773.287 1120.69C793.709 1121.6 812.678 1134.12 826.68 1155.92L826.666 1155.9Z" fill="black"/>
<path d="M678.759 1769.94L635.688 1746.79L651.474 1683.64L694.545 1706.76L690.312 1723.68L685.192 1720.92L687.545 1711.53L654.712 1693.9L642.688 1742.02L675.507 1759.65L679.188 1744.94L684.321 1747.7L678.759 1769.94Z" fill="black"/>
<path d="M701.576 1678.63L658.505 1655.48L668.162 1616.83L673.295 1619.59L665.519 1650.71L698.338 1668.34L705.395 1640.1L707.47 1640.37C720.144 1641.97 733.011 1638.6 744.689 1630.67C762.565 1618.52 776.138 1596.89 782.917 1569.75C789.697 1542.63 788.867 1513.25 780.579 1487.04C772.291 1460.83 757.542 1440.93 739.044 1430.99C720.545 1421.05 700.511 1422.27 682.635 1434.42C665.589 1446 652.445 1466.23 645.388 1491.61L678.249 1509.25C686.495 1482.25 707.775 1468.76 727.02 1479.11C747.11 1489.9 757.473 1522.66 750.112 1552.12C742.752 1581.58 720.407 1596.77 700.317 1585.98L683.907 1577.15L678.705 1597.97L673.572 1595.21L680.656 1566.87L702.199 1578.43C719.466 1587.7 738.67 1574.66 744.993 1549.34C751.316 1524.02 742.42 1495.87 725.152 1486.59C707.871 1477.3 688.681 1490.37 682.358 1515.69L681.417 1519.44L638.346 1496.29L639.287 1492.54C646.564 1463.41 661.147 1440.18 680.352 1427.11C699.556 1414.07 721.071 1412.75 740.939 1423.42C760.808 1434.09 776.664 1455.48 785.56 1483.63C794.47 1511.77 795.356 1543.34 788.078 1572.47C780.801 1601.6 766.217 1624.85 747.013 1637.89C735.114 1645.99 722.053 1649.64 709.117 1648.54L701.604 1678.59L701.576 1678.63Z" fill="black"/>
<path d="M1163.64 2137.73L1120.57 2114.58L1136.36 2051.43L1179.43 2074.56L1175.21 2091.48L1170.08 2088.72L1172.43 2079.33L1139.61 2061.7L1127.57 2109.82L1160.4 2127.45L1164.07 2112.74L1169.2 2115.5L1163.64 2137.73Z" fill="black"/>
<path d="M1186.46 2046.42L1143.39 2023.27L1153.04 1984.63L1158.18 1987.39L1150.4 2018.51L1183.22 2036.14L1190.28 2007.9L1192.35 2008.16C1205.01 2009.74 1217.89 2006.4 1229.57 1998.44C1247.45 1986.29 1261.02 1964.67 1267.8 1937.54C1274.58 1910.42 1273.75 1881.05 1265.46 1854.84C1257.17 1828.63 1242.42 1808.72 1223.91 1798.78C1205.41 1788.84 1185.38 1790.06 1167.5 1802.21C1150.46 1813.8 1137.31 1834 1130.26 1859.38L1163.12 1877.03C1166.93 1864.51 1173.63 1854.55 1182.21 1848.71C1191.62 1842.3 1202.16 1841.65 1211.89 1846.88C1221.61 1852.1 1229.36 1862.59 1233.73 1876.38C1238.11 1890.19 1238.55 1905.63 1234.98 1919.89C1231.42 1934.16 1224.27 1945.52 1214.86 1951.93C1205.45 1958.34 1194.91 1958.99 1185.18 1953.75L1168.77 1944.93L1163.57 1965.74L1158.44 1962.98L1165.52 1934.64L1187.07 1946.21C1195.42 1950.69 1204.47 1950.14 1212.57 1944.62C1220.66 1939.13 1226.8 1929.35 1229.86 1917.09C1232.92 1904.84 1232.54 1891.57 1228.78 1879.71C1225.02 1867.84 1218.36 1858.83 1210.01 1854.35C1201.65 1849.87 1192.6 1850.41 1184.51 1855.93C1176.41 1861.43 1170.27 1871.21 1167.21 1883.46L1166.27 1887.21L1123.2 1864.07L1124.14 1860.31C1131.42 1831.18 1146 1807.93 1165.21 1794.89C1184.4 1781.82 1205.91 1780.53 1225.79 1791.2C1245.66 1801.87 1261.52 1823.25 1270.41 1851.41C1279.31 1879.54 1280.21 1911.11 1272.93 1940.24C1265.65 1969.37 1251.07 1992.62 1231.87 2005.67C1219.97 2013.76 1206.92 2017.43 1193.97 2016.32L1186.46 2046.36V2046.42Z" fill="black"/>
<path d="M225.509 1849.25L196.426 1797.22L231.915 1754.6L260.984 1806.61L251.493 1818.03L248.034 1811.83L253.305 1805.5L231.154 1765.86L204.118 1798.34L226.27 1837.98L234.53 1828.06L238.003 1834.24L225.509 1849.25Z" fill="black"/>
<path d="M276.799 1787.63L247.716 1735.61L269.424 1709.52L272.883 1715.71L255.395 1736.73L277.546 1776.37L293.416 1757.3L295.118 1759.08C305.481 1769.9 317.726 1776.59 330.538 1778.46C350.143 1781.32 369.334 1772.8 384.581 1754.48C399.828 1736.16 409.292 1710.25 411.229 1681.51C413.18 1652.76 407.369 1624.62 394.875 1602.27C382.381 1579.91 364.713 1566.04 345.107 1563.2C326.415 1560.46 308.082 1568.09 293.208 1584.68L315.387 1624.38C331.852 1607.28 354.847 1611.52 367.839 1634.75C381.399 1659.01 378.977 1694.94 362.416 1714.84C354.405 1724.45 344.318 1728.94 333.983 1727.44C323.661 1725.93 314.35 1718.63 307.792 1706.91L296.709 1687.09L285.018 1701.14L281.559 1694.96L297.484 1675.83L312.025 1701.83C317.657 1711.92 325.654 1718.19 334.536 1719.48C343.419 1720.78 352.094 1716.93 358.971 1708.67C373.194 1691.59 375.283 1660.71 363.633 1639.86C351.984 1619 330.925 1615.94 316.702 1633.02L314.585 1635.56L285.516 1583.54L287.633 1581.01C304 1561.35 324.616 1552.2 345.674 1555.26C366.733 1558.33 385.715 1573.24 399.136 1597.24C412.543 1621.24 418.783 1651.46 416.694 1682.34C414.605 1713.22 404.435 1741.05 388.067 1760.73C371.7 1780.38 351.098 1789.53 330.026 1786.47C316.979 1784.56 304.457 1777.99 293.707 1767.4L276.827 1787.69L276.799 1787.63Z" fill="black"/>
<path d="M379.627 2458.64L350.558 2406.61L386.033 2363.99L415.116 2416L405.611 2427.42L402.152 2421.23L407.423 2414.88L385.272 2375.24L358.237 2407.72L380.388 2447.36L388.662 2437.44L392.121 2443.63L379.627 2458.64Z" fill="black"/>
<path d="M430.916 2397.01L401.847 2345L423.555 2318.91L427.014 2325.1L409.526 2346.11L431.677 2385.75L447.547 2366.68L449.249 2368.45C459.612 2379.26 471.856 2385.96 484.669 2387.82C504.274 2390.68 523.464 2382.16 538.712 2363.84C553.959 2345.53 563.423 2319.62 565.36 2290.87C567.31 2262.13 561.499 2233.99 549.006 2211.63C536.512 2189.28 518.843 2175.4 499.238 2172.56C480.545 2169.82 462.213 2177.45 447.339 2194.05L469.518 2233.75C477.142 2225.82 486.37 2222.2 495.779 2223.58C506.1 2225.08 515.412 2232.39 521.97 2244.11C535.529 2268.38 533.108 2304.3 516.547 2324.2C508.536 2333.82 498.435 2338.32 488.114 2336.8C477.792 2335.3 468.48 2328 461.922 2316.27L450.84 2296.45L439.148 2310.51L435.689 2304.32L451.615 2285.19L466.156 2311.2C471.787 2321.28 479.784 2327.55 488.667 2328.85C497.55 2330.15 506.225 2326.29 513.101 2318.04C527.325 2300.96 529.414 2270.08 517.764 2249.23C512.133 2239.14 504.136 2232.87 495.253 2231.58C486.384 2230.3 477.695 2234.13 470.819 2242.39L468.702 2244.92L439.619 2192.91L441.736 2190.37C458.104 2170.7 478.719 2161.57 499.777 2164.63C520.836 2167.69 539.818 2182.58 553.239 2206.6C566.66 2230.6 572.886 2260.83 570.797 2291.71C568.708 2322.58 558.552 2350.41 542.171 2370.09C525.803 2389.77 505.187 2398.9 484.129 2395.84C471.082 2393.95 458.56 2387.36 447.81 2376.77L430.93 2397.05L430.916 2397.01Z" fill="black"/>
<path d="M754.275 2115.35L711.771 2090.01L729.053 2027.71L771.543 2053.03L766.921 2069.71L761.857 2066.7L764.431 2057.43L732.055 2038.14L718.883 2085.61L751.273 2104.92L755.299 2090.4L760.349 2093.4L754.275 2115.35Z" fill="black"/>
<path d="M779.235 2025.26L736.731 1999.94L747.302 1961.82L752.366 1964.85L743.856 1995.56L776.246 2014.85L783.967 1986.98L786.042 1987.34C798.661 1989.57 811.611 1986.88 823.468 1979.53C841.621 1968.29 855.706 1947.38 863.122 1920.6C870.538 1893.84 870.4 1864.43 862.749 1837.83C855.084 1811.22 840.819 1790.56 822.555 1779.69C804.306 1768.82 784.244 1769.02 766.105 1780.26C748.796 1790.97 735.181 1810.51 727.53 1835.5L759.948 1854.81C768.83 1828.24 790.428 1815.86 809.397 1827.16C829.224 1838.97 838.799 1872.24 830.746 1901.31C822.694 1930.38 800.003 1944.42 780.176 1932.61L763.988 1922.95L758.301 1943.5L753.237 1940.48L760.985 1912.53L782.237 1925.19C799.283 1935.35 818.764 1923.28 825.696 1898.29C832.628 1873.29 824.395 1844.73 807.35 1834.57C790.318 1824.42 770.823 1836.47 763.891 1861.47L762.867 1865.18L720.377 1839.86L721.401 1836.15C729.37 1807.4 744.493 1784.92 763.988 1772.85C783.483 1760.78 805.011 1760.58 824.617 1772.25C844.222 1783.93 859.553 1806.1 867.785 1834.69C876.017 1863.27 876.156 1894.84 868.2 1923.6C860.23 1952.35 845.108 1974.83 825.613 1986.9C813.534 1994.38 800.404 1997.36 787.495 1995.6L779.276 2025.26H779.235Z" fill="black"/>
<path d="M94.0395 2441.03L66.9902 2386.7L104.043 2347.04L111.279 2361.59L106.865 2366.3L102.853 2358.22L74.6138 2388.45L95.2294 2429.83L123.455 2399.63L117.159 2386.97L121.573 2382.24L131.092 2401.37L94.0395 2441.03Z" fill="black"/>
<path d="M54.9395 2362.48L38.3916 2329.25L42.8054 2324.53L56.1294 2351.3L84.3547 2321.1L72.262 2296.81L73.5626 2294.42C81.5045 2279.85 86.7482 2262.31 88.7406 2243.64C91.7845 2215.1 87.0526 2186.54 75.4443 2163.19C63.8221 2139.86 46.7071 2124.54 27.24 2120.1C7.77282 2115.64 -11.7082 2122.57 -27.6334 2139.59C-43.5585 2156.61 -53.9908 2181.73 -57.0209 2210.27C-59.9264 2237.5 -55.7618 2264.74 -45.288 2287.44L-17.0211 2257.19C-27.7578 2232.14 -23.5656 2198.71 -7.0178 2181C1.3391 2172.05 11.6053 2168.42 21.8439 2170.75C32.0964 2173.11 41.1035 2181.14 47.2051 2193.41C53.3068 2205.67 55.7835 2220.7 54.1923 2235.73C52.6012 2250.76 47.1083 2263.97 38.7375 2272.92L24.625 2288.03L33.5352 2305.94L29.1216 2310.67L16.9875 2286.29L35.5138 2266.47C42.6947 2258.78 47.4127 2247.44 48.7824 2234.51C50.166 2221.59 48.0354 2208.67 42.7915 2198.14C37.5477 2187.61 29.7996 2180.69 20.9861 2178.69C12.1726 2176.68 3.35906 2179.8 -3.82178 2187.49C-18.6816 2203.39 -21.933 2234.05 -11.0995 2255.82L-9.49448 2259.04L-46.5471 2298.7L-48.152 2295.48C-60.632 2270.42 -65.7098 2239.73 -62.4445 2209.08C-59.1792 2178.42 -47.9721 2151.46 -30.8709 2133.16C-13.7697 2114.86 7.15016 2107.42 28.0562 2112.23C48.9623 2117.02 67.3503 2133.45 79.8303 2158.5C92.3104 2183.57 97.3742 2214.25 94.109 2244.9C92.0889 2263.91 86.9143 2281.84 79.097 2297.02L91.9645 2322.86L54.9118 2362.52L54.9395 2362.48Z" fill="black"/>
<path d="M1103.74 1719.83L1100.19 1652.76L1145.93 1647.55L1146.87 1665.5L1141.43 1666.11L1140.91 1656.15L1106.05 1660.13L1108.77 1711.23L1143.62 1707.25L1142.79 1691.61L1148.23 1691L1149.48 1714.6L1103.74 1719.83Z" fill="black"/>
<path d="M1098.6 1622.88L1096.41 1581.86L1101.85 1581.23L1103.61 1614.28L1138.46 1610.3L1136.87 1580.32L1138.83 1579.28C1150.81 1573 1161.56 1562.1 1169.92 1547.76C1182.73 1525.81 1188.95 1497.85 1187.41 1469.05C1185.87 1440.24 1176.8 1414.03 1161.81 1395.27C1146.84 1376.48 1127.78 1367.37 1108.13 1369.62C1088.48 1371.86 1070.61 1385.18 1057.81 1407.15C1045.59 1428.09 1039.38 1454.48 1040.15 1481.87L1075.05 1477.89C1074.96 1464.18 1078.23 1451.03 1084.39 1440.5C1091.14 1428.94 1100.53 1421.92 1110.86 1420.75C1121.16 1419.57 1131.21 1424.36 1139.09 1434.26C1146.98 1444.16 1151.77 1457.93 1152.57 1473.06C1154.23 1504.35 1138.22 1531.79 1116.89 1534.23L1099.47 1536.22L1100.64 1558.33L1095.21 1558.96L1093.62 1528.87L1116.49 1526.26C1134.82 1524.17 1148.57 1500.59 1147.15 1473.69C1146.46 1460.69 1142.35 1448.84 1135.57 1440.34C1128.79 1431.84 1120.17 1427.7 1111.31 1428.72C1102.44 1429.73 1094.36 1435.76 1088.57 1445.7C1082.77 1455.64 1079.95 1468.28 1080.64 1481.26L1080.85 1485.26L1035.12 1490.47L1034.91 1486.47C1033.26 1455.54 1039.93 1425.51 1053.7 1401.94C1067.45 1378.37 1086.64 1364.04 1107.76 1361.65C1128.88 1359.26 1149.33 1369.04 1165.41 1389.2C1181.49 1409.36 1191.26 1437.52 1192.89 1468.46C1194.53 1499.4 1187.87 1529.42 1174.1 1552.99C1165.58 1567.6 1154.74 1578.9 1142.65 1585.78L1144.34 1617.69L1098.61 1622.9L1098.6 1622.88Z" fill="black"/>
<path d="M1257.08 1222.07L1235.16 1271.86L1269.12 1303.99L1291.03 1254.21L1257.08 1222.07Z" fill="black"/>
<path d="M1186.01 1056.58C1203.18 1072.83 1215.01 1097.9 1219.3 1127.2C1222.15 1146.57 1221.49 1166.23 1217.5 1184.63L1235.28 1201.44L1213.37 1251.23L1163.89 1204.41L1174.85 1179.52C1185.64 1155.01 1180.81 1122.19 1164.1 1106.38C1147.38 1090.56 1125 1097.64 1114.22 1122.14C1103.43 1146.65 1108.26 1179.47 1124.97 1195.28L1103.05 1245.06C1085.88 1228.81 1074.05 1203.74 1069.76 1174.44C1065.46 1145.15 1069.2 1115.17 1080.27 1089.99C1091.35 1064.82 1108.45 1047.47 1128.43 1041.18C1148.41 1034.87 1168.86 1040.35 1186.03 1056.58H1186.01Z" fill="black"/>
<path d="M1783.53 1330.53C1792.12 1357.71 1792.99 1388.16 1785.95 1416.3C1781.3 1434.9 1773.57 1451.01 1763.51 1463.45L1772.41 1491.58L1735.74 1516.52L1710.97 1438.19L1729.31 1425.73C1747.36 1413.46 1755.24 1381.96 1746.87 1355.48C1738.49 1329.01 1716.99 1317.47 1698.95 1329.74C1680.91 1342.01 1673.02 1373.52 1681.39 1399.99L1644.73 1424.92C1636.14 1397.74 1635.26 1367.29 1642.31 1339.15C1649.34 1311.01 1663.42 1288.58 1681.95 1275.98C1700.49 1263.38 1721.25 1262.1 1740.45 1272.43C1759.64 1282.73 1774.94 1303.39 1783.53 1330.55V1330.53Z" fill="black"/>
<path d="M1606.38 2174.61L1569.71 2199.54L1586.72 2253.3L1623.38 2228.36L1606.38 2174.61Z" fill="black"/>
<path d="M1606.58 1979.39C1615.18 2006.58 1616.05 2037.03 1609 2065.16C1604.36 2083.77 1596.62 2099.87 1586.56 2112.31L1595.46 2140.45L1558.79 2165.38L1534.03 2087.05L1552.36 2074.6C1570.42 2062.32 1578.29 2030.82 1569.92 2004.34C1561.55 1977.87 1540.05 1966.33 1522 1978.6C1503.95 1990.87 1496.08 2022.38 1504.45 2048.85L1467.78 2073.79C1459.19 2046.6 1458.32 2016.15 1465.36 1988.01C1472.39 1959.88 1486.47 1937.44 1505 1924.84C1523.54 1912.24 1544.31 1910.97 1563.5 1921.29C1582.69 1931.6 1597.99 1952.25 1606.58 1979.41V1979.39Z" fill="black"/>
<path d="M1281.76 1743.9L1279.85 1803.09L1320.22 1805.9L1322.13 1746.7L1281.76 1743.9Z" fill="black"/>
<path d="M1384.16 1573.66C1383.19 1603.59 1374.33 1631.18 1359.21 1651.32C1349.22 1664.65 1337.28 1673.68 1324.43 1677.86L1323.43 1708.83L1283.06 1706.03L1285.84 1619.8L1306.02 1621.2C1325.89 1622.58 1342.83 1600 1343.77 1570.84C1344.71 1541.69 1329.31 1516.88 1309.43 1515.5C1289.56 1514.12 1272.62 1536.7 1271.68 1565.85L1231.31 1563.05C1232.28 1533.13 1241.13 1505.54 1256.26 1485.4C1271.37 1465.23 1290.94 1454.91 1311.35 1456.33C1331.76 1457.75 1350.58 1470.73 1364.32 1492.9C1378.07 1515.06 1385.11 1543.76 1384.14 1573.68L1384.16 1573.66Z" fill="black"/>
<path d="M1843.73 1861.53C1842.76 1891.45 1833.91 1919.04 1818.78 1939.19C1808.79 1952.52 1796.85 1961.54 1784 1965.72L1783 1996.7L1742.63 1993.9L1745.41 1907.66L1765.6 1909.06C1785.47 1910.44 1802.4 1887.86 1803.34 1858.71C1804.28 1829.56 1788.88 1804.75 1769 1803.37C1749.13 1801.99 1732.2 1824.57 1731.26 1853.72L1690.88 1850.92C1691.85 1821 1700.71 1793.41 1715.83 1773.26C1730.94 1753.1 1750.52 1742.77 1770.93 1744.19C1791.33 1745.61 1810.15 1758.6 1823.89 1780.77C1837.64 1802.92 1844.68 1831.63 1843.72 1861.55L1843.73 1861.53Z" fill="black"/>
<path d="M1612.28 1065.9L1610.37 1125.09L1650.73 1127.89L1652.65 1068.7L1612.28 1065.9Z" fill="black"/>
<path d="M1714.68 895.625C1713.71 925.548 1704.86 953.138 1689.74 973.282C1679.75 986.61 1667.81 995.638 1654.95 999.817L1653.96 1030.79L1613.58 1027.99L1616.37 941.757L1636.55 943.157C1656.42 944.536 1673.36 921.957 1674.3 892.806C1675.24 863.654 1659.84 838.844 1639.96 837.464C1620.07 836.085 1603.15 858.663 1602.21 887.815L1561.84 885.016C1562.81 855.093 1571.66 827.503 1586.78 807.359C1601.89 787.194 1621.47 776.868 1641.88 778.288C1662.29 779.708 1681.1 792.692 1694.84 814.865C1708.6 837.018 1715.64 865.723 1714.67 895.646L1714.68 895.625Z" fill="black"/>
<path d="M1443.03 1439.39L1399.96 1416.26L1415.75 1353.11L1458.82 1376.23L1454.6 1393.15L1449.46 1390.39L1451.82 1381L1419 1363.37L1406.96 1411.49L1439.79 1429.12L1443.46 1414.41L1448.59 1417.17L1443.03 1439.39Z" fill="black"/>
<path d="M1465.85 1348.1L1422.77 1324.95L1432.43 1286.31L1437.56 1289.07L1429.79 1320.18L1462.61 1337.81L1469.66 1309.57L1471.74 1309.84C1484.41 1311.42 1497.28 1308.07 1508.96 1300.14C1526.83 1287.99 1540.41 1266.36 1547.19 1239.22C1553.97 1212.1 1553.14 1182.72 1544.85 1156.51C1536.56 1130.3 1521.81 1110.4 1503.31 1100.46C1484.81 1090.52 1464.78 1091.74 1446.9 1103.89C1429.86 1115.47 1416.71 1135.7 1409.66 1161.08L1442.52 1178.73C1450.76 1151.73 1472.06 1138.23 1491.29 1148.58C1511.38 1159.37 1521.74 1192.14 1514.38 1221.59C1507.02 1251.05 1484.69 1266.24 1464.59 1255.45L1448.18 1246.63L1442.97 1267.44L1437.84 1264.68L1444.93 1236.34L1466.47 1247.9C1483.74 1257.17 1502.94 1244.13 1509.26 1218.81C1515.59 1193.5 1506.69 1165.34 1489.42 1156.07C1472.15 1146.78 1452.95 1159.84 1446.63 1185.16L1445.69 1188.91L1402.62 1165.76L1403.56 1162.01C1410.83 1132.88 1425.42 1109.65 1444.62 1096.59C1463.83 1083.52 1485.33 1082.22 1505.21 1092.89C1525.08 1103.57 1540.93 1124.95 1549.83 1153.1C1558.74 1181.24 1559.63 1212.79 1552.35 1241.94C1545.07 1271.07 1530.49 1294.3 1511.28 1307.36C1499.38 1315.46 1486.32 1319.11 1473.39 1318.01L1465.87 1348.06L1465.85 1348.1Z" fill="black"/>
<path d="M1180.33 2355.16L1151.26 2303.15L1186.73 2260.5L1215.82 2312.54L1206.31 2323.94L1202.85 2317.75L1208.12 2311.4L1185.97 2271.76L1158.94 2304.26L1181.09 2343.9L1189.36 2333.96L1192.82 2340.15L1180.33 2355.16Z" fill="black"/>
<path d="M1231.62 2293.53L1202.53 2241.51L1224.24 2215.43L1227.7 2221.61L1210.21 2242.63L1232.36 2282.27L1248.23 2263.2L1249.94 2264.97C1260.3 2275.78 1272.54 2282.47 1285.36 2284.34C1304.96 2287.2 1324.15 2278.68 1339.4 2260.36C1354.65 2242.04 1364.11 2216.14 1366.05 2187.39C1368 2158.64 1362.19 2130.51 1349.69 2108.15C1337.2 2085.8 1319.53 2071.92 1299.92 2069.08C1281.22 2066.34 1262.9 2073.97 1248.03 2090.56L1270.2 2130.26C1286.67 2113.14 1309.66 2117.4 1322.66 2140.63C1336.22 2164.89 1333.79 2200.82 1317.23 2220.72C1300.67 2240.6 1276.18 2237.05 1262.61 2212.77L1251.53 2192.95L1239.83 2207.01L1236.38 2200.82L1252.3 2181.69L1266.84 2207.7C1278.49 2228.55 1299.55 2231.61 1313.77 2214.53C1328 2197.45 1330.09 2166.58 1318.44 2145.72C1306.79 2124.87 1285.73 2121.8 1271.51 2138.88L1269.39 2141.42L1240.32 2089.41L1242.44 2086.87C1258.8 2067.21 1279.41 2058.06 1300.48 2061.13C1321.54 2064.19 1340.52 2079.08 1353.94 2103.1C1367.35 2127.1 1373.59 2157.33 1371.5 2188.2C1369.41 2219.08 1359.24 2246.91 1342.87 2266.59C1326.5 2286.27 1305.89 2295.4 1284.83 2292.33C1271.78 2290.42 1259.26 2283.85 1248.51 2273.26L1231.63 2293.55L1231.62 2293.53Z" fill="black"/>
<path d="M1530.85 1855.22L1488.36 1829.9L1505.62 1767.58L1548.13 1792.9L1543.51 1809.59L1538.44 1806.57L1541.02 1797.3L1508.62 1778.01L1495.47 1825.5L1527.84 1844.79L1531.87 1830.27L1536.93 1833.29L1530.85 1855.22Z" fill="black"/>
<path d="M1555.82 1765.15L1513.32 1739.83L1523.89 1701.71L1528.95 1704.73L1520.44 1735.45L1552.83 1754.74L1560.55 1726.86L1562.63 1727.23C1575.26 1729.48 1588.2 1726.76 1600.05 1719.42C1618.21 1708.18 1632.29 1687.27 1639.71 1660.49C1647.12 1633.71 1646.98 1604.31 1639.32 1577.72C1631.65 1551.1 1617.39 1530.45 1599.13 1519.58C1580.86 1508.7 1560.83 1508.91 1542.68 1520.12C1525.37 1530.84 1511.75 1550.37 1504.1 1575.36L1536.53 1594.68C1545.41 1568.1 1567.01 1555.73 1585.98 1567.03C1605.81 1578.83 1615.38 1612.1 1607.33 1641.17C1599.28 1670.24 1576.59 1684.28 1556.76 1672.48L1540.57 1662.82L1534.89 1683.37L1529.82 1680.35L1537.57 1652.39L1558.82 1665.05C1575.85 1675.19 1595.36 1663.14 1602.28 1638.15C1609.2 1613.18 1600.98 1584.6 1583.93 1574.43C1566.9 1564.29 1547.39 1576.34 1540.48 1601.33L1539.45 1605.04L1496.95 1579.73L1497.97 1576.01C1505.94 1547.27 1521.06 1524.79 1540.56 1512.72C1560.05 1500.65 1581.58 1500.45 1601.2 1512.11C1620.81 1523.8 1636.14 1545.97 1644.37 1574.55C1652.6 1603.14 1652.74 1634.7 1644.78 1663.47C1636.81 1692.22 1621.69 1714.69 1602.2 1726.76C1590.12 1734.25 1576.97 1737.23 1564.08 1735.47L1555.86 1765.12L1555.82 1765.15Z" fill="black"/>
<path d="M302.628 2759.64L265.964 2784.57L282.967 2838.33L319.631 2813.4L302.628 2759.64Z" fill="black"/>
<path d="M302.782 2564.33C311.374 2591.52 312.245 2621.97 305.203 2650.1C300.554 2668.71 292.82 2684.81 282.761 2697.25L291.657 2725.39L254.992 2750.32L230.226 2671.99L248.558 2659.54C266.614 2647.26 274.487 2615.76 266.116 2589.29C257.746 2562.81 236.245 2551.27 218.203 2563.54C200.147 2575.81 192.274 2607.32 200.645 2633.79L163.979 2658.73C155.387 2631.54 154.516 2601.09 161.558 2572.95C168.587 2544.82 182.672 2522.38 201.198 2509.78C219.738 2497.18 240.506 2495.91 259.696 2506.23C278.887 2516.54 294.189 2537.19 302.782 2564.35V2564.33Z" fill="black"/>
<path d="M1744.58 2424.66C1758.59 2446.47 1765.96 2474.99 1765.34 2504.93C1764.94 2524.73 1761.06 2543.6 1754.19 2560.05L1768.69 2582.65L1739.26 2623.27L1698.9 2560.4L1713.62 2540.09C1728.11 2520.11 1728.8 2486.56 1715.17 2465.3C1701.53 2444.06 1678.66 2443.04 1664.16 2463.02C1649.67 2483.01 1648.98 2516.56 1662.61 2537.82L1633.18 2578.43C1619.18 2556.62 1611.8 2528.1 1612.42 2498.16C1613.05 2468.22 1621.58 2440.4 1636.46 2419.87C1651.33 2399.34 1670.78 2388.53 1691.2 2389.44C1711.63 2390.36 1730.6 2402.87 1744.6 2424.68L1744.58 2424.66Z" fill="black"/>
<path d="M-11.2929 2922.21L-54.3643 2899.06L-38.5775 2835.91L4.49376 2859.04L0.26005 2875.95L-4.85935 2873.2L-2.52099 2863.8L-35.3398 2846.17L-47.3633 2894.29L-14.5445 2911.92L-10.8641 2897.21L-5.73102 2899.97L-11.2929 2922.21Z" fill="black"/>
<path d="M11.5225 2830.9L-31.5488 2807.75L-21.8913 2769.11L-16.7583 2771.87L-24.534 2802.98L8.28474 2820.61L15.3412 2792.38L17.4166 2792.64C30.0903 2794.22 42.9576 2790.87 54.6351 2782.94C72.5111 2770.79 86.0842 2749.16 92.8638 2722.02C99.6434 2694.9 98.8133 2665.52 90.5256 2639.31C82.2379 2613.1 67.4887 2593.2 48.9763 2583.26C30.4776 2573.32 10.4432 2574.54 -7.43286 2586.69C-24.4787 2598.27 -37.6227 2618.48 -44.6791 2643.88L-11.8187 2661.53C-8.00002 2649.01 -1.30353 2639.05 7.27474 2633.21C16.697 2626.8 27.2263 2626.15 36.9529 2631.38C46.6657 2636.6 54.4276 2647.08 58.7997 2660.88C63.1719 2674.69 63.6147 2690.13 60.045 2704.39C56.4753 2718.65 49.3359 2730.01 39.9275 2736.42C30.5052 2742.84 19.9762 2743.48 10.2495 2738.25L-6.15989 2729.43L-11.3622 2750.24L-16.4953 2747.48L-9.4113 2719.14L12.1312 2730.7C20.4881 2735.19 29.5368 2734.64 37.6309 2729.12C45.7249 2723.62 51.868 2713.85 54.9258 2701.61C57.9835 2689.36 57.6099 2676.09 53.8465 2664.23C50.097 2652.36 43.428 2643.35 35.0849 2638.87C26.7419 2634.38 17.6794 2634.93 9.58541 2640.45C1.49139 2645.95 -4.65177 2655.73 -7.70951 2667.96L-8.65042 2671.71L-51.7217 2648.56L-50.7808 2644.81C-43.5031 2615.68 -28.9201 2592.43 -9.71582 2579.39C9.47462 2566.34 30.9895 2565.02 50.8718 2575.7C70.7402 2586.37 86.5961 2607.75 95.4926 2635.91C104.389 2664.04 105.289 2695.61 98.0109 2724.74C90.7332 2753.87 76.15 2777.12 56.9458 2790.16C45.0469 2798.26 31.9857 2801.91 19.0491 2800.81L11.5363 2830.86L11.5225 2830.9Z" fill="black"/>
<path d="M496.401 3198.69L453.33 3175.55L462.987 3136.9L468.121 3139.66L460.345 3170.78L493.164 3188.41L500.22 3160.17L502.295 3160.43C514.955 3162.01 527.836 3158.67 539.514 3150.72C557.39 3138.56 570.963 3116.94 577.743 3089.82C584.522 3062.69 583.692 3033.32 575.404 3007.11C567.117 2980.9 552.367 2961 533.855 2951.06C515.356 2941.12 495.322 2942.33 477.446 2954.48C460.4 2966.07 447.256 2986.27 440.2 3011.65L473.06 3029.3C476.879 3016.78 483.575 3006.82 492.154 3000.98C501.576 2994.57 512.105 2993.92 521.832 2999.15C531.558 3004.37 539.306 3014.86 543.679 3028.65C548.051 3042.47 548.493 3057.9 544.924 3072.17C541.354 3086.43 534.215 3097.79 524.806 3104.2C515.384 3110.61 504.855 3111.26 495.128 3106.02L478.719 3097.2L473.517 3118.01L468.383 3115.25L475.467 3086.91L497.01 3098.48C505.367 3102.96 514.416 3102.41 522.51 3096.9C530.604 3091.4 536.747 3081.62 539.805 3069.37C542.862 3057.11 542.489 3043.85 538.725 3031.98C534.962 3020.11 528.307 3011.1 519.964 3006.62C511.607 3002.14 502.558 3002.71 494.464 3008.2C486.37 3013.7 480.227 3023.48 477.169 3035.73L476.228 3039.48L433.157 3016.34L434.098 3012.58C441.376 2983.45 455.959 2960.2 475.163 2947.16C494.367 2934.1 515.868 2932.8 535.751 2943.47C555.619 2954.14 571.461 2975.52 580.372 3003.68C589.268 3031.82 590.167 3063.36 582.89 3092.51C575.612 3121.64 561.029 3144.89 541.825 3157.94C529.926 3166.03 516.878 3169.68 503.928 3168.59L496.415 3198.63L496.401 3198.69Z" fill="black"/>
<path d="M151.57 3126.49L109.066 3101.17L119.637 3063.06L124.701 3066.08L116.191 3096.79L148.581 3116.09L156.302 3088.21L158.377 3088.58C171.01 3090.81 183.946 3088.11 195.803 3080.77C213.956 3069.53 228.041 3048.61 235.457 3021.83C242.873 2995.08 242.735 2965.66 235.084 2939.07C227.419 2912.45 213.154 2891.8 194.89 2880.92C176.641 2870.05 156.592 2870.25 138.44 2881.49C121.131 2892.2 107.516 2911.74 99.8651 2936.73L132.283 2956.04C141.165 2929.47 162.763 2917.09 181.732 2928.39C201.559 2940.2 211.134 2973.47 203.081 3002.54C195.029 3031.61 172.338 3045.65 152.511 3033.84L136.323 3024.19L130.636 3044.74L125.572 3041.71L133.32 3013.76L154.572 3026.42C171.618 3036.58 191.099 3024.51 198.031 2999.52C204.949 2974.55 196.73 2945.96 179.685 2935.8C162.653 2925.66 143.158 2937.71 136.226 2962.7L135.202 2966.41L92.7119 2941.09L93.7358 2937.38C101.705 2908.64 116.828 2886.16 136.323 2874.09C155.818 2862.02 177.346 2861.79 196.966 2873.48C216.571 2885.16 231.901 2907.34 240.134 2935.92C248.366 2964.5 248.504 2996.07 240.549 3024.84C232.579 3053.58 217.457 3076.06 197.962 3088.13C185.883 3095.62 172.739 3098.6 159.844 3096.83L151.625 3126.49H151.57Z" fill="black"/>
<path d="M416.917 2896.44L413.361 2829.38L459.089 2824.16L460.044 2842.12L454.606 2842.73L454.067 2832.76L419.228 2836.74L421.94 2887.84L456.778 2883.87L455.948 2868.23L461.4 2867.62L462.645 2891.21L416.917 2896.44Z" fill="black"/>
<path d="M411.769 2799.49L409.597 2758.48L415.035 2757.85L416.792 2790.89L451.644 2786.92L450.053 2756.93L452.018 2755.9C464 2749.61 474.75 2738.72 483.107 2724.37C495.919 2702.42 502.132 2674.47 500.596 2645.66C499.06 2616.86 489.984 2590.65 474.999 2571.88C460.029 2553.1 440.949 2544.01 421.316 2546.24C401.669 2548.49 383.793 2561.8 370.995 2583.77C358.778 2604.7 352.565 2631.1 353.34 2658.48L388.234 2654.51C388.068 2624.91 403.62 2599.69 424.042 2597.36C434.349 2596.18 444.394 2600.97 452.281 2610.87C460.167 2620.77 464.954 2634.55 465.757 2649.68C467.417 2680.96 451.409 2708.41 430.074 2710.84L412.655 2712.83L413.831 2734.94L408.393 2735.57L406.802 2705.49L429.673 2702.87C448.005 2700.78 461.758 2677.21 460.333 2650.31C459.642 2637.3 455.532 2625.46 448.753 2616.96C441.973 2608.46 433.353 2604.34 424.498 2605.33C406.166 2607.42 392.413 2631 393.838 2657.9L394.045 2661.89L348.304 2667.11L348.096 2663.11C346.45 2632.17 353.119 2602.15 366.885 2578.57C380.638 2555 399.829 2540.68 420.942 2538.29C442.056 2535.89 462.519 2545.65 478.597 2565.83C494.674 2586 504.442 2614.14 506.075 2645.09C507.721 2676.03 501.052 2706.06 487.286 2729.63C478.763 2744.23 467.929 2755.53 455.837 2762.41L457.525 2794.32L411.783 2799.54L411.769 2799.49Z" fill="black"/>
<path d="M1502.16 2604.91L1465.49 2629.84L1482.5 2683.6L1519.16 2658.67L1502.16 2604.91Z" fill="black"/>
<path d="M1502.36 2409.73C1510.95 2436.91 1511.82 2467.36 1504.78 2495.5C1500.13 2514.1 1492.39 2530.21 1482.34 2542.65L1491.23 2570.78L1454.57 2595.72L1429.8 2517.39L1448.13 2504.93C1466.19 2492.66 1474.06 2461.16 1465.69 2434.68C1457.32 2408.21 1435.82 2396.66 1417.78 2408.94C1399.72 2421.21 1391.85 2452.72 1400.22 2479.19L1363.55 2504.12C1354.96 2476.94 1354.09 2446.49 1361.13 2418.35C1368.16 2390.21 1382.25 2367.78 1400.77 2355.18C1419.31 2342.58 1440.08 2341.3 1459.27 2351.63C1478.46 2361.93 1493.76 2382.59 1502.36 2409.75V2409.73Z" fill="black"/>
<path d="M1093.3 2678.04L1056.64 2702.97L1073.64 2756.73L1110.3 2731.8L1093.3 2678.04Z" fill="black"/>
<path d="M1093.48 2482.8C1102.07 2509.99 1102.94 2540.44 1095.9 2568.57C1091.25 2587.18 1083.52 2603.28 1073.46 2615.72L1082.35 2643.86L1045.69 2668.79L1020.92 2590.46L1039.25 2578.01C1057.31 2565.73 1065.18 2534.23 1056.81 2507.75C1048.44 2481.28 1026.94 2469.74 1008.9 2482.01C990.843 2494.28 982.97 2525.79 991.341 2552.26L954.676 2577.2C946.084 2550.01 945.212 2519.56 952.254 2491.42C959.283 2463.29 973.368 2440.85 991.894 2428.25C1010.43 2415.65 1031.2 2414.38 1050.39 2424.7C1069.58 2435.01 1084.89 2455.66 1093.48 2482.82V2482.8Z" fill="black"/>
<path d="M1704.44 2877.37C1700.54 2906.77 1689.06 2932.19 1672.11 2948.92C1660.9 2960 1648.2 2966.39 1635.09 2967.81L1631.03 2998.26L1591.36 2986.92L1602.63 2902.16L1622.45 2907.82C1641.98 2913.4 1660.97 2894.66 1664.78 2866.01C1668.58 2837.37 1655.78 2809.54 1636.26 2803.96C1616.74 2798.38 1597.74 2817.12 1593.94 2845.77L1554.27 2834.43C1558.17 2805.03 1569.66 2779.61 1586.6 2762.88C1603.55 2746.14 1623.93 2740.08 1643.98 2745.8C1664.03 2751.52 1681.37 2768.35 1692.78 2793.21C1704.2 2818.06 1708.33 2847.94 1704.43 2877.33L1704.44 2877.37Z" fill="black"/>
<path d="M591.733 2896.15L589.822 2955.34L630.192 2958.15L632.103 2898.95L591.733 2896.15Z" fill="black"/>
<path d="M694.105 2725.94C693.137 2755.86 684.282 2783.45 669.159 2803.59C659.169 2816.92 647.229 2825.95 634.375 2830.13L633.379 2861.11L593.006 2858.31L595.787 2772.07L615.974 2773.47C635.842 2774.85 652.777 2752.27 653.718 2723.12C654.659 2693.97 639.26 2669.16 619.377 2667.78C599.509 2666.4 582.574 2688.98 581.633 2718.13L541.26 2715.33C542.228 2685.4 551.083 2657.82 566.206 2637.67C581.315 2617.51 600.893 2607.18 621.301 2608.6C641.709 2610.02 660.525 2623 674.265 2645.18C688.017 2667.33 695.06 2696.03 694.091 2725.96L694.105 2725.94Z" fill="black"/>
<path d="M1153.68 3013.8C1152.71 3043.72 1143.85 3071.31 1128.73 3091.46C1118.74 3104.79 1106.8 3113.81 1093.95 3117.99L1092.95 3148.97L1052.58 3146.17L1055.36 3059.93L1075.55 3061.33C1095.41 3062.71 1112.35 3040.13 1113.29 3010.98C1114.23 2981.83 1098.83 2957.02 1078.95 2955.64C1059.08 2954.26 1042.15 2976.84 1041.21 3005.99L1000.83 3003.19C1001.8 2973.27 1010.66 2945.68 1025.78 2925.54C1040.89 2905.37 1060.47 2895.05 1080.87 2896.47C1101.28 2897.89 1120.1 2910.87 1133.84 2933.04C1147.59 2955.19 1154.63 2983.9 1153.66 3013.82L1153.68 3013.8Z" fill="black"/>
<path d="M765.29 2662.07L722.205 2638.93L737.992 2575.78L781.063 2598.92L776.843 2615.82L771.71 2613.08L774.062 2603.69L741.243 2586.04L729.22 2634.18L762.039 2651.81L765.719 2637.08L770.838 2639.84L765.29 2662.07Z" fill="black"/>
<path d="M788.092 2570.79L745.021 2547.64L754.678 2509L759.811 2511.75L752.035 2542.87L784.854 2560.5L791.91 2532.26L793.986 2532.53C806.659 2534.11 819.527 2530.76 831.204 2522.83C849.08 2510.68 862.654 2489.05 869.433 2461.91C876.213 2434.79 875.383 2405.41 867.095 2379.2C858.807 2352.99 844.058 2333.09 825.559 2323.15C807.061 2313.21 787.026 2314.43 769.15 2326.58C752.104 2338.16 738.96 2358.39 731.904 2383.77L764.764 2401.42C773.01 2374.41 794.304 2360.94 813.536 2371.27C823.263 2376.48 831.011 2386.97 835.383 2400.77C839.755 2414.58 840.198 2430.02 836.628 2444.28C829.267 2473.74 806.922 2488.93 786.833 2478.14L770.423 2469.31L765.221 2490.13L760.088 2487.37L767.172 2459.03L788.714 2470.59C805.982 2479.86 825.186 2466.82 831.509 2441.5C834.567 2429.25 834.193 2415.98 830.43 2404.11C826.68 2392.25 820.011 2383.24 811.654 2378.76C794.401 2369.49 775.183 2382.53 768.86 2407.85L767.919 2411.6L724.848 2388.45L725.789 2384.7C733.066 2355.57 747.649 2332.32 766.854 2319.28C786.058 2306.23 807.573 2304.91 827.441 2315.58C847.309 2326.25 863.165 2347.64 872.062 2375.79C880.972 2403.93 881.858 2435.5 874.58 2464.63C867.302 2493.76 852.719 2516.99 833.515 2530.05C821.616 2538.15 808.555 2541.8 795.618 2540.7L788.105 2570.75L788.092 2570.79Z" fill="black"/>
<path d="M1372.91 3063.04L1329.84 3039.89L1339.49 3001.24L1344.63 3004L1336.85 3035.12L1369.67 3052.75L1376.73 3024.51L1378.8 3024.78C1391.48 3026.38 1404.34 3023.01 1416.02 3015.08C1433.9 3002.93 1447.47 2981.3 1454.25 2954.16C1461.03 2927.04 1460.2 2897.66 1451.91 2871.45C1443.62 2845.24 1428.87 2825.34 1410.36 2815.4C1391.86 2805.46 1371.83 2806.68 1353.95 2818.83C1336.91 2830.41 1323.76 2850.62 1316.71 2876.02L1349.57 2893.67C1357.81 2866.66 1379.09 2853.17 1398.34 2863.52C1408.07 2868.73 1415.81 2879.22 1420.19 2893.02C1424.56 2906.83 1425 2922.27 1421.43 2936.53C1417.86 2950.79 1410.72 2962.15 1401.31 2968.56C1391.89 2974.97 1381.36 2975.62 1371.64 2970.39L1355.23 2961.56L1350.02 2982.38L1344.89 2979.62L1351.97 2951.28L1373.52 2962.84C1381.87 2967.33 1390.92 2966.78 1399.02 2961.26C1407.11 2955.76 1413.25 2945.98 1416.31 2933.73C1419.37 2921.48 1419 2908.21 1415.23 2896.34C1411.47 2884.48 1404.81 2875.47 1396.47 2870.99C1379.2 2861.71 1360 2874.76 1353.68 2900.08L1352.74 2903.83L1309.66 2880.68L1310.6 2876.93C1317.88 2847.8 1332.47 2824.55 1351.67 2811.51C1370.87 2798.44 1392.38 2797.14 1412.26 2807.81C1432.13 2818.48 1447.97 2839.87 1456.88 2868.02C1465.77 2896.16 1466.67 2927.71 1459.4 2956.86C1452.12 2985.99 1437.54 3009.24 1418.33 3022.28C1406.43 3030.38 1393.37 3034.05 1380.43 3032.91L1372.92 3062.96L1372.91 3063.04Z" fill="black"/>
<path d="M840.793 3007.49L798.303 2982.18L815.57 2919.86L858.074 2945.17L853.439 2961.87L848.389 2958.85L850.949 2949.58L818.572 2930.28L805.414 2977.77L837.791 2997.07L841.817 2982.54L846.881 2985.56L840.793 3007.49Z" fill="black"/>
<path d="M865.766 2917.42L823.262 2892.1L833.833 2853.99L838.897 2857.01L830.388 2887.72L862.778 2907.01L870.498 2879.14L872.573 2879.51C885.206 2881.74 898.142 2879.04 910 2871.7C928.152 2860.46 942.237 2839.54 949.653 2812.76C957.069 2786.01 956.931 2756.59 949.28 2729.99C941.615 2703.38 927.35 2682.73 909.087 2671.85C890.837 2660.98 870.789 2661.18 852.636 2672.4C835.327 2683.11 821.713 2702.65 814.061 2727.64L846.479 2746.95C855.362 2720.38 876.959 2708 895.929 2719.3C915.755 2731.11 925.33 2764.38 917.277 2793.45C909.225 2822.52 886.534 2836.56 866.707 2824.75L850.519 2815.1L844.832 2835.65L839.769 2832.62L847.517 2804.67L868.769 2817.33C885.801 2827.49 905.295 2815.42 912.227 2790.43C919.145 2765.46 910.927 2736.87 893.881 2726.71C876.849 2716.57 857.354 2728.62 850.422 2753.61L849.398 2757.32L806.908 2732L807.932 2728.29C815.902 2699.54 831.024 2677.07 850.519 2665C870.014 2652.93 891.556 2652.72 911.162 2664.39C930.767 2676.07 946.098 2698.25 954.33 2726.83C962.562 2755.41 962.701 2787 954.745 2815.75C946.776 2844.49 931.653 2866.97 912.158 2879.04C900.079 2886.53 886.935 2889.51 874.04 2887.74L865.822 2917.4L865.766 2917.42Z" fill="black"/>
<path d="M1254.56 2799.07L1251 2732L1296.74 2726.79L1297.68 2744.74L1292.24 2745.35L1291.72 2735.39L1256.87 2739.36L1259.58 2790.47L1294.43 2786.49L1293.6 2770.85L1299.04 2770.24L1300.3 2793.83L1254.56 2799.07Z" fill="black"/>
<path d="M1249.41 2702.12L1247.22 2661.1L1252.66 2660.47L1254.42 2693.52L1289.27 2689.54L1287.68 2659.56L1289.64 2658.52C1301.63 2652.23 1312.38 2641.34 1320.73 2627C1333.55 2605.05 1339.76 2577.09 1338.22 2548.28C1336.69 2519.48 1327.61 2493.27 1312.63 2474.5C1297.66 2455.72 1278.58 2446.61 1258.94 2448.86C1239.3 2451.11 1221.42 2464.42 1208.62 2486.39C1196.4 2507.33 1190.19 2533.72 1190.97 2561.11L1225.86 2557.13C1225.69 2527.53 1241.25 2502.32 1261.67 2499.98C1271.98 2498.81 1282.02 2503.59 1289.91 2513.49C1297.79 2523.39 1302.58 2537.17 1303.38 2552.3C1305.04 2583.58 1289.04 2611.03 1267.7 2613.47L1250.28 2615.45L1251.46 2637.57L1246.02 2638.19L1244.43 2608.11L1267.3 2605.49C1285.63 2603.4 1299.38 2579.83 1297.96 2552.93C1297.27 2539.93 1293.16 2528.08 1286.38 2519.58C1279.6 2511.08 1270.98 2506.96 1262.12 2507.96C1243.79 2510.04 1230.04 2533.62 1231.46 2560.52L1231.67 2564.51L1185.93 2569.73L1185.72 2565.73C1184.08 2534.79 1190.74 2504.77 1204.51 2481.2C1218.26 2457.62 1237.45 2443.3 1258.57 2440.91C1279.68 2438.51 1300.15 2448.29 1316.22 2468.46C1332.3 2488.62 1342.07 2516.76 1343.7 2547.72C1345.35 2578.65 1338.68 2608.68 1324.91 2632.25C1316.39 2646.86 1305.56 2658.16 1293.46 2665.03L1295.15 2696.94L1249.42 2702.16L1249.41 2702.12Z" fill="black"/>
</g>
</g>
<rect opacity="0.11" width="1737" height="2974" fill="#A3052D"/>
</g>
<defs>
<clipPath id="clip0_24_7778">
<rect width="1737" height="2974" fill="white"/>
</clipPath>
</defs>
</svg>
