<svg width="1039" height="857" viewBox="0 0 1039 857" fill="none" xmlns="http://www.w3.org/2000/svg">
<path d="M1038.78 0V355.663C1038.78 383.008 1034.96 410.307 1027.13 437.252C1027.06 437.463 1027.01 437.674 1026.94 437.885C1012.26 507.809 962.006 601.739 914.521 666.479L790.337 831.271C790.122 831.559 789.897 831.848 789.673 832.136L789.645 832.175C786.026 836.643 780.798 842.032 773.794 844.755C771.101 845.802 770.288 846.9 767.866 847.704C767.782 847.732 767.707 847.754 767.632 847.782C764.415 848.841 761.367 849.711 758.253 850.443C758.215 850.449 758.187 850.46 758.15 850.465C749.837 852.417 741.121 853.404 727.964 854.557C725.477 854.779 722.83 855 719.997 855.239C712.75 855.849 705.016 856.159 696.712 856.159H0V0H1038.78Z" fill="url(#paint0_linear_398_34413)"/>
<path d="M1026.94 437.883C1012.26 507.807 962.004 601.737 914.519 666.478L793.551 826.507L789.671 832.14L789.642 832.178C786.024 836.647 780.796 842.036 773.792 844.758C771.099 845.806 770.285 846.904 767.863 847.708C767.779 847.736 767.705 847.758 767.63 847.786C764.45 848.795 761.327 849.676 758.25 850.447C758.213 850.452 758.185 850.463 758.148 850.469C744.701 853.812 732.151 854.954 719.957 855.248C719.967 855.248 719.976 855.243 719.985 855.243C722.744 855.037 725.4 854.81 727.953 854.561C819.202 845.612 785.911 806.808 759.84 789.632C733.04 771.968 696.691 749.713 696.691 749.713C920.279 668.657 999.315 532.318 1026.93 437.888L1026.94 437.883Z" fill="url(#paint1_linear_398_34413)"/>
<path d="M696.702 856.163C708.251 856.019 719.781 855.348 731.087 854.039C736.735 853.385 742.346 852.609 747.797 851.555C753.249 850.502 758.598 849.255 763.573 847.619L765.434 847.004L767.238 846.338C768.463 845.911 769.586 845.396 770.745 844.919C772.98 843.899 775.168 842.829 777.076 841.609C780.929 839.192 783.865 836.287 785.417 833.115C786.193 831.535 786.698 829.9 786.848 828.242C787.007 826.584 786.876 824.921 786.558 823.263C785.801 819.953 784.267 816.693 782.144 813.566C777.955 807.285 771.942 801.435 765.331 795.875C762.002 793.097 758.514 790.386 754.895 787.73L752.155 785.767L750.78 784.786C750.322 784.459 749.808 784.154 749.322 783.838L743.449 780.062L719.959 764.954C712.207 759.876 704.38 754.836 696.684 749.719C704.847 754.576 712.871 759.504 720.969 764.4L745.048 779.203L751.07 782.907C752.099 783.511 753.034 784.171 753.969 784.83L756.793 786.81C760.496 789.46 764.068 792.177 767.491 794.96C774.243 800.559 780.386 806.492 784.753 812.956C786.923 816.189 788.494 819.582 789.279 823.064C789.607 824.81 789.738 826.579 789.55 828.342C789.373 830.11 788.83 831.868 787.951 833.564C786.212 836.969 782.977 840.079 778.843 842.607C776.786 843.882 774.486 844.997 772.11 846.033C770.876 846.516 769.688 847.037 768.407 847.464L766.509 848.129L764.564 848.739C759.365 850.358 753.866 851.555 748.293 852.553C742.72 853.546 737.025 854.267 731.302 854.838C725.569 855.375 719.8 855.752 714.03 855.974C708.251 856.202 702.463 856.29 696.684 856.163H696.702Z" fill="url(#paint2_linear_398_34413)"/>
<path d="M872.673 656.054C886.345 645.392 898.614 634.132 910.247 622.672C921.861 611.201 932.689 599.452 942.751 587.482C952.776 575.501 962.211 563.348 970.824 550.985C979.446 538.626 987.16 526.052 994.202 513.356C1001.4 500.682 1007.46 487.791 1012.97 474.829L1016.92 465.076C1018.17 461.816 1019.25 458.534 1020.43 455.269L1022.17 450.362C1022.72 448.721 1023.18 447.074 1023.7 445.428L1026.75 435.564C1027.65 432.266 1028.46 428.956 1029.32 425.651L1030.6 420.695C1031.01 419.043 1031.3 417.379 1031.65 415.716L1033.68 405.753L1033.94 404.506L1034.12 403.258L1034.5 400.758L1035.24 395.762L1036.02 390.767C1036.14 389.935 1036.29 389.104 1036.39 388.266L1036.65 385.761L1037.65 375.742C1038.07 372.404 1038.12 369.056 1038.27 365.712L1038.76 355.672L1038.69 365.718C1038.65 369.067 1038.69 372.415 1038.39 375.764L1037.7 385.805L1037.54 388.316C1037.46 389.154 1037.34 389.985 1037.24 390.822L1036.62 395.834L1035.97 400.846L1035.65 403.352L1035.48 404.605L1035.24 405.853L1033.4 415.849C1033.07 417.512 1032.82 419.181 1032.44 420.844L1031.25 425.823C1030.45 429.139 1029.7 432.465 1028.86 435.781C1021.63 462.254 1010.93 488.396 996.839 513.882C989.685 526.607 981.877 539.203 973.152 551.572C964.4 563.936 955.001 576.144 944.65 588.064C934.326 599.99 923.273 611.7 911.397 623.104C905.393 628.781 899.231 634.398 892.825 639.92C886.41 645.436 879.771 650.864 872.664 656.065L872.673 656.054Z" fill="url(#paint3_linear_398_34413)"/>
<defs>
<linearGradient id="paint0_linear_398_34413" x1="856.478" y1="821.031" x2="569.368" y2="-131.095" gradientUnits="userSpaceOnUse">
<stop stop-color="white"/>
<stop offset="0.03" stop-color="white"/>
<stop offset="0.21" stop-color="white"/>
<stop offset="0.35" stop-color="white"/>
<stop offset="0.77" stop-color="white"/>
<stop offset="1" stop-color="white"/>
</linearGradient>
<linearGradient id="paint1_linear_398_34413" x1="963.678" y1="673.452" x2="847.175" y2="574.685" gradientUnits="userSpaceOnUse">
<stop offset="0.09" stop-color="#E9E9E7"/>
<stop offset="0.15" stop-color="#E0E0DF"/>
<stop offset="0.25" stop-color="#CACAC9"/>
<stop offset="0.36" stop-color="#A7A7A6"/>
<stop offset="0.37" stop-color="#A4A4A4"/>
<stop offset="0.53" stop-color="#A9A9A9"/>
<stop offset="1" stop-color="#F8F8F8"/>
</linearGradient>
<linearGradient id="paint2_linear_398_34413" x1="695.683" y1="802.966" x2="789.709" y2="802.966" gradientUnits="userSpaceOnUse">
<stop stop-color="white"/>
<stop offset="1" stop-color="#ACACAC"/>
</linearGradient>
<linearGradient id="paint3_linear_398_34413" x1="871.589" y1="505.86" x2="1040.18" y2="505.86" gradientUnits="userSpaceOnUse">
<stop stop-color="#EAEAEA"/>
<stop offset="0.35" stop-color="white"/>
<stop offset="0.77" stop-color="white"/>
<stop offset="1" stop-color="#F8F8F8"/>
</linearGradient>
</defs>
</svg>
