<?xml version="1.0" encoding="UTF-8"?>
<svg version="1.1" xmlns="http://www.w3.org/2000/svg" width="512" height="512">
<path d="M0 0 C3.90554795 -0.00439319 7.80998143 -0.04087806 11.71533203 -0.07861328 C35.40348599 -0.18658384 50.36689598 3.58953116 67.78173828 20.37060547 C68.61705078 21.16595703 69.45236328 21.96130859 70.31298828 22.78076172 C75.41671838 27.75059766 79.99127368 32.95573798 84.43408203 38.51904297 C86.94961798 41.57451925 89.58501622 44.47616421 92.28173828 47.37060547 C96.53737245 51.94958259 100.55499078 56.66349737 104.47705078 61.53466797 C106.98967963 64.62647906 109.56813893 67.65504412 112.15673828 70.68310547 C116.46143831 75.73256069 120.58522849 80.90058532 124.65625 86.1394043 C127.77280368 90.13273071 130.98711906 94.02327629 134.28173828 97.87060547 C139.00313151 103.38963879 143.51049263 109.05151116 147.97314453 114.78076172 C150.82995994 118.44552492 153.74223753 122.06418357 156.65673828 125.68310547 C162.21355751 132.59558045 167.60395385 139.62924442 172.96923828 146.69091797 C176.72926315 152.26787654 176.72926315 152.26787654 181.78173828 156.37060547 C182.0548584 155.78359863 182.32797852 155.1965918 182.609375 154.59179688 C183.75181831 152.42729267 184.98527684 150.71543285 186.53955078 148.83154297 C187.07829834 148.17420166 187.6170459 147.51686035 188.17211914 146.83959961 C188.74454346 146.14858154 189.31696777 145.45756348 189.90673828 144.74560547 C191.09844048 143.29402546 192.289848 141.84220349 193.48095703 140.39013672 C194.05507324 139.69227051 194.62918945 138.9944043 195.22070312 138.27539062 C197.07567714 136.01193938 198.90127273 133.72635613 200.71923828 131.43310547 C209.55286352 120.36782754 218.60043805 109.47623849 227.85986328 98.76513672 C229.82819909 96.4873596 231.77380003 94.19281826 233.70361328 91.88232422 C259.1859436 61.47842314 259.1859436 61.47842314 277.78173828 58.37060547 C284.05735911 57.90983013 290.35292048 57.98056029 296.64135742 58.03442383 C299.57710459 58.05796806 302.51193636 58.05497474 305.44775391 58.04833984 C335.32608951 58.09053597 335.32608951 58.09053597 345.78173828 65.37060547 C348.68437467 69.72456006 348.5473147 73.26212285 347.78173828 78.37060547 C342.90998033 92.44883514 331.54448433 103.78397765 321.88720703 114.79638672 C319.19899952 117.87084505 316.59901501 121.00649256 314.03173828 124.18310547 C310.50271263 128.54286891 306.80204243 132.70300541 303.02392578 136.84716797 C300.73657924 139.42142905 298.56625557 142.06350036 296.40673828 144.74560547 C292.72537139 149.29921259 288.85399355 153.60643063 284.86816406 157.88964844 C281.87761187 161.12236751 279.04402143 164.43748213 276.28173828 167.87060547 C272.64674439 172.3883836 268.81463538 176.64879063 264.86767578 180.89013672 C261.87732471 184.12272294 259.04387499 187.43766413 256.28173828 190.87060547 C253.08232098 194.84702411 249.75481818 198.63618847 246.28173828 202.37060547 C242.63965361 206.30633441 239.06061039 210.2784362 235.59423828 214.37060547 C234.85818359 215.23685547 234.12212891 216.10310547 233.36376953 216.99560547 C231.41214877 219.4498339 231.41214877 219.4498339 231.78173828 223.37060547 C233.1061829 225.52918113 234.44870703 227.4835343 235.96923828 229.49560547 C236.89381924 230.75334315 237.81829318 232.0111595 238.74267578 233.26904297 C239.48469238 234.26822754 239.48469238 234.26822754 240.24169922 235.28759766 C242.89323139 238.87397567 245.48893868 242.50058544 248.09423828 246.12060547 C251.37703818 250.66973156 254.66548822 255.2145136 257.97314453 259.74560547 C266.5008689 271.44826721 274.69931147 283.35673113 282.78173828 295.37060547 C283.1733313 295.95251648 283.56492432 296.53442749 283.96838379 297.13397217 C305.21245953 328.7147896 305.21245953 328.7147896 314.78173828 344.37060547 C315.29220703 345.20366211 315.80267578 346.03671875 316.32861328 346.89501953 C322.82904104 357.55682549 328.97623005 368.37681357 334.78173828 379.43310547 C335.30952881 380.43100098 335.83731934 381.42889648 336.38110352 382.45703125 C344.53926621 398.22504037 350.75698043 414.53205603 347.16455078 432.44873047 C344.73879269 439.44693522 340.18112138 444.22081966 333.54345703 447.46435547 C328.60100819 449.30817058 324.01648812 449.91949186 318.78173828 449.37060547 C318.10755859 449.30099609 317.43337891 449.23138672 316.73876953 449.15966797 C295.44722858 445.66925142 279.73982592 424.8791386 267.02783203 409.08544922 C264.69343239 406.26387052 262.2618323 403.56469835 259.78173828 400.87060547 C256.50755405 397.31390303 253.37531395 393.69898736 250.34423828 389.93310547 C246.68602814 385.39744104 242.83430863 381.11359377 238.86791992 376.85131836 C235.0868327 372.76399541 231.58483862 368.49017303 228.09423828 364.15185547 C225.13997464 360.59875461 222.01260405 357.23036867 218.86547852 353.84887695 C215.894582 350.63761496 213.08212752 347.34432732 210.34423828 343.93310547 C206.50063771 339.15438919 202.41213664 334.6790286 198.22338867 330.20678711 C195.10619883 326.8596122 192.14600031 323.44055524 189.28173828 319.87060547 C185.39821952 315.03212307 181.26893271 310.48628953 177.03857422 305.95385742 C173.51352301 302.17628062 170.09926216 298.33320344 166.78173828 294.37060547 C160.21855894 300.72206935 154.19120205 307.56959335 148.46923828 314.68310547 C144.57917897 319.49645984 140.45301994 324.01821997 136.22607422 328.53173828 C132.30295235 332.74453688 128.66277414 337.13455899 125.05908203 341.62451172 C122.5634736 344.63379599 119.94408685 347.50999201 117.28173828 350.37060547 C113.80754585 354.10387802 110.48105118 357.89431658 107.28173828 361.87060547 C103.64886404 366.38574917 99.82256472 370.64759993 95.87207031 374.88134766 C92.81143346 378.18302171 89.95562998 381.59029608 87.15673828 385.12060547 C79.54983004 394.47777578 70.08616961 403.08549679 57.78173828 405.37060547 C51.7977497 405.94577628 47.07624187 405.46739059 41.78173828 402.37060547 C37.15212432 398.05034359 34.19569945 393.74329962 33.41064453 387.34716797 C32.56801826 344.81932427 76.1120077 297.02272445 99.09423828 264.30810547 C99.56071777 263.64343262 100.02719727 262.97875977 100.5078125 262.29394531 C102.99816004 258.77964335 105.56216894 255.34292079 108.21923828 251.95263672 C108.78344482 251.22633057 109.34765137 250.50002441 109.92895508 249.75170898 C111.01046232 248.36767779 112.10504912 246.99373274 113.21459961 245.63208008 C115.98628521 242.09182889 115.98628521 242.09182889 116.94970703 237.80029297 C115.30915276 234.38750114 112.91190661 231.90781483 110.28173828 229.24560547 C109.17636097 228.09045261 108.07352103 226.93286675 106.97314453 225.77294922 C106.42803223 225.19915527 105.88291992 224.62536133 105.32128906 224.03417969 C103.17379011 221.71368209 101.19342661 219.27673661 99.21923828 216.80810547 C96.04695976 212.85566442 92.73335765 209.07922234 89.28173828 205.37060547 C85.83011892 201.66198859 82.5165168 197.88554652 79.34423828 193.93310547 C75.97827563 189.7482324 72.44997811 185.78746149 68.78173828 181.87060547 C64.32301633 177.10969213 60.14376205 172.20592983 56.05908203 167.11669922 C53.5634736 164.10741495 50.94408685 161.23121892 48.28173828 158.37060547 C44.0125305 153.78303107 40.02415089 149.03617543 36.09423828 144.15185547 C33.58202572 141.13041063 30.9576974 138.24622164 28.28173828 135.37060547 C23.97174723 130.73814886 19.93112432 125.9493803 15.96142578 121.01904297 C13.80416429 118.39785428 11.56862828 115.87906266 9.28173828 113.37060547 C6.18618632 109.97461865 3.23022621 106.50889016 0.34423828 102.93310547 C-2.7316276 99.12973044 -5.90579338 95.46977895 -9.21826172 91.87060547 C-13.24398148 87.49240333 -17.03152619 82.98217813 -20.76123047 78.35107422 C-23.0265273 75.60318633 -25.35572625 72.93493909 -27.71850586 70.27172852 C-58.90448542 34.98072745 -58.90448542 34.98072745 -59.41748047 18.48388672 C-58.96089808 13.6405324 -56.90974198 11.07854955 -53.59326172 7.68310547 C-39.78229919 -2.77568169 -16.19313602 -0.00203867 0 0 Z " fill="#ED1B23" transform="translate(111.21826171875,31.62939453125)"/>
</svg>
