<svg width="75" height="75" viewBox="0 0 75 75" fill="none" xmlns="http://www.w3.org/2000/svg">
<path d="M37.4698 31.2228C42.6445 31.2228 46.837 27.0302 46.837 21.8555C46.837 16.6809 42.6445 12.4883 37.4698 12.4883C32.2951 12.4883 28.1025 16.6809 28.1025 21.8555C28.1025 27.0302 32.2951 31.2228 37.4698 31.2228ZM37.4698 18.733C39.1956 18.733 40.5922 20.1296 40.5922 21.8554C40.5922 23.5812 39.1956 24.9777 37.4698 24.9777C35.744 24.9777 34.3474 23.5812 34.3474 21.8554C34.3474 20.1296 35.744 18.733 37.4698 18.733Z" fill="#A3052D"/>
<path d="M28.664 47.2565L34.7694 57.7715C35.973 59.8443 38.9664 59.8443 40.1699 57.7715L46.2649 47.2739C48.2426 43.8643 50.1361 41.2234 54.5206 35.5122C54.7168 35.2565 54.7168 35.2565 54.8187 35.1239C57.7243 31.341 59.3267 26.7197 59.3267 21.8571C59.3267 8.82607 48.0055 -1.34457 34.9154 0.145119C25.1752 1.25616 17.1779 9.04913 15.8299 18.7515C14.9192 25.2913 16.9181 31.6387 21.1699 36.3912C23.6959 39.2141 25.8688 42.4346 28.664 47.2565ZM22.0152 19.612C22.9708 12.7334 28.7129 7.13806 35.6223 6.3499C44.9976 5.28291 53.0818 12.5455 53.0818 21.8572C53.0818 25.3301 51.9419 28.6175 49.8655 31.3208C49.7632 31.454 49.7632 31.454 49.6615 31.5866L49.5671 31.7097C45.02 37.6327 43.0201 40.4221 40.8637 44.1397L37.4697 49.9855L34.0657 44.1229C31.0758 38.965 28.6932 35.434 25.8239 32.2274C22.7826 28.8279 21.3605 24.3125 22.0152 19.612Z" fill="#A3052D"/>
<path d="M74.0238 60.2426C72.8044 59.0233 70.8273 59.0233 69.608 60.2426L64.2777 65.5729H12.4902C12.3873 65.5729 12.2844 65.5783 12.1818 65.5884C12.1355 65.5929 12.0908 65.6016 12.0452 65.6082C11.9901 65.6161 11.9347 65.6225 11.8798 65.6333C11.8274 65.6437 11.7767 65.6581 11.7253 65.6711C11.678 65.683 11.6304 65.6934 11.5836 65.7076C11.5331 65.7228 11.4844 65.7418 11.435 65.7595C11.3884 65.7763 11.3412 65.7917 11.2951 65.8107C11.249 65.8298 11.205 65.8523 11.16 65.8734C11.1126 65.8958 11.0647 65.9169 11.0182 65.9417C10.9752 65.9649 10.9342 65.9911 10.8923 66.0161C10.8468 66.0433 10.8007 66.0691 10.7562 66.0988C10.7098 66.1298 10.6662 66.1644 10.6217 66.1977C10.5848 66.2254 10.5468 66.251 10.5109 66.2806C10.4313 66.3458 10.3547 66.4146 10.282 66.4874L7.15963 69.6099C5.94028 70.8292 5.94028 72.8063 7.15963 74.0257C8.37898 75.245 10.3561 75.245 11.5754 74.0257L13.7833 71.8178H65.571C65.572 71.8178 65.5732 71.8176 65.5742 71.8176C65.6759 71.8175 65.7777 71.8122 65.8791 71.8023C65.9256 71.7977 65.9709 71.7889 66.0167 71.7824C66.0716 71.7745 66.1264 71.768 66.1809 71.7573C66.2334 71.7469 66.2845 71.7324 66.3362 71.7194C66.3833 71.7076 66.4306 71.6973 66.4773 71.6831C66.5279 71.6678 66.5768 71.6489 66.6263 71.631C66.6728 71.6143 66.7198 71.599 66.7658 71.5799C66.812 71.5608 66.8562 71.5384 66.9013 71.517C66.9486 71.4948 66.9963 71.4737 67.0427 71.4489C67.0859 71.4258 67.127 71.3995 67.169 71.3743C67.2144 71.3472 67.2603 71.3215 67.3047 71.2919C67.3511 71.2609 67.3947 71.2263 67.4393 71.193C67.4762 71.1653 67.5141 71.1397 67.5501 71.1101C67.6297 71.0448 67.7063 70.976 67.779 70.9033L74.0239 64.6584C75.2431 63.4391 75.2431 61.462 74.0238 60.2426Z" fill="#A3052D"/>
<path d="M53.0804 46.8374C51.3559 46.8374 49.958 48.2353 49.958 49.9598C49.958 51.6842 51.3559 53.0821 53.0804 53.0821H59.3253C59.3255 53.0821 59.3257 53.0821 59.326 53.0821C59.4292 53.0821 59.5324 53.0767 59.6353 53.0665C59.6739 53.0627 59.7112 53.0552 59.7494 53.0501C59.8126 53.0414 59.8759 53.0337 59.9387 53.0212C59.9823 53.0126 60.0243 53.0003 60.0672 52.9898C60.1237 52.976 60.1805 52.9633 60.2362 52.9463C60.276 52.9342 60.3144 52.9189 60.3536 52.9052C60.4113 52.8851 60.4692 52.8657 60.5259 52.8421C60.5588 52.8283 60.5903 52.8121 60.6226 52.7972C60.6835 52.7693 60.7444 52.7418 60.8037 52.7099C60.8293 52.6962 60.8533 52.6802 60.8785 52.6657C60.9418 52.6294 61.0049 52.5928 61.0661 52.5517C61.0847 52.5391 61.102 52.5248 61.1203 52.5119C61.2652 52.4099 61.4048 52.297 61.5343 52.1675L64.6567 49.0451C65.876 47.8258 65.876 45.8487 64.6567 44.6294C63.4373 43.41 61.4603 43.41 60.2409 44.6294L58.033 46.8373L53.0804 46.8374Z" fill="#A3052D"/>
<path d="M8.45334 55.2886L10.6612 53.0807H21.8576C23.582 53.0807 24.9799 51.6828 24.9799 49.9583C24.9799 48.2339 23.582 46.8359 21.8576 46.8359H9.36782C9.26492 46.8359 9.16218 46.8414 9.05972 46.8515C9.01318 46.856 8.96795 46.8648 8.92199 46.8714C8.86711 46.8793 8.81222 46.8856 8.75777 46.8964C8.70523 46.9068 8.65415 46.9213 8.60248 46.9343C8.55535 46.9461 8.50808 46.9565 8.46139 46.9706C8.41075 46.986 8.36186 47.0048 8.31239 47.0227C8.26585 47.0394 8.21887 47.0548 8.17291 47.0738C8.1268 47.093 8.08245 47.1153 8.03752 47.1367C7.9901 47.1591 7.94239 47.18 7.89599 47.2049C7.85281 47.228 7.81183 47.2544 7.76997 47.2794C7.72445 47.3065 7.67849 47.3323 7.63414 47.362C7.58789 47.393 7.54428 47.4274 7.49978 47.4608C7.46275 47.4886 7.4247 47.5142 7.38869 47.5437C7.30966 47.6086 7.23369 47.6769 7.16154 47.7491C7.16095 47.7497 7.16037 47.75 7.15993 47.7506L4.03756 50.8729C2.81821 52.0923 2.81821 54.0694 4.03756 55.2887C5.25691 56.5081 7.23399 56.5079 8.45334 55.2886Z" fill="#A3052D"/>
<path d="M61.1579 56.202H59.2781C57.5515 56.202 56.1558 57.5977 56.1558 59.3243C56.1558 61.051 57.5515 62.4467 59.2781 62.4467H62.4506C63.2779 62.4467 64.0711 62.1188 64.6581 61.5318L69.0389 57.151C70.2598 55.9302 70.2598 53.9537 69.0389 52.7359C67.8181 51.5151 65.8447 51.5151 64.6239 52.7359L61.1579 56.202Z" fill="#A3052D"/>
<path d="M46.7884 56.2031C45.0617 56.2031 43.666 57.5988 43.666 59.3255C43.666 61.0521 45.0617 62.4479 46.7884 62.4479H49.9108C51.6374 62.4479 53.0331 61.0521 53.0331 59.3255C53.0331 57.5988 51.6374 56.2031 49.9108 56.2031H46.7884Z" fill="#A3052D"/>
<path d="M7.53826 61.1578C6.31744 59.937 4.34402 59.937 3.12321 61.1578L0.915612 63.3654C-0.305204 64.5862 -0.305204 66.5596 0.915612 67.7804C1.52448 68.3893 2.32377 68.6954 3.12321 68.6954C3.9225 68.6954 4.72193 68.3893 5.3308 67.7804L7.5384 65.5728C8.75907 64.352 8.75907 62.3788 7.53826 61.1578Z" fill="#A3052D"/>
<path d="M13.0276 56.2031C11.301 56.2031 9.90527 57.5988 9.90527 59.3255C9.90527 61.0521 11.301 62.4479 13.0276 62.4479H21.8579C23.5845 62.4479 24.9802 61.0521 24.9802 59.3255C24.9802 57.5988 23.5845 56.2031 21.8579 56.2031H13.0276Z" fill="#A3052D"/>
</svg>
