<svg width="540" height="202" viewBox="0 0 540 202" fill="none" xmlns="http://www.w3.org/2000/svg">
<path d="M174.743 199.338C173.157 199.635 171.572 199.784 169.987 199.784C168.104 199.784 165.28 199.486 161.515 198.892C157.75 198.297 154.876 198 152.894 198H0.403845L0.106592 190.717C3.1782 189.033 6.0021 187.844 8.57829 187.15C11.2536 186.358 14.1766 185.714 17.3472 185.218C21.3106 184.525 24.1841 183.633 25.9676 182.543C27.8502 181.453 29.2869 179.124 30.2777 175.557C31.2686 171.891 31.764 166.144 31.764 158.317V45.8066C31.764 38.078 31.12 32.3807 29.8319 28.7146C28.6429 25.0485 26.8593 22.5218 24.4813 21.1346C22.1033 19.6484 18.1399 18.063 12.5912 16.3786C11.6994 16.0813 9.96547 15.5364 7.38928 14.7437C4.91218 13.951 2.48461 13.0593 0.106592 12.0684L0.403845 4.48848H152.003C153.39 4.48848 154.876 4.3894 156.462 4.19123C158.146 3.99306 159.335 3.84444 160.029 3.74535C163.001 3.24993 165.676 3.00222 168.054 3.00222C170.135 3.00222 171.968 3.20039 173.554 3.59672V49.8195L165.825 50.1168C164.141 48.4323 162.753 46.5497 161.663 44.469C160.574 42.3882 159.335 39.6634 157.948 36.2945C155.966 31.3403 153.984 27.476 152.003 24.7017C150.12 21.9273 147.296 19.8961 143.531 18.608C137.982 16.8245 131.096 15.685 122.872 15.1896C114.648 14.6942 105.136 14.4464 94.3357 14.4464C81.6529 14.4464 71.6454 14.8923 64.3132 15.7841C63.9168 20.2429 63.7187 25.3457 63.7187 31.0926V91.4349H106.523C114.351 91.4349 120.197 90.8404 124.061 89.6514C127.925 88.4624 130.898 86.5302 132.979 83.855C135.158 81.1797 138.131 76.4236 141.896 69.5868L144.126 65.5739H152.597V129.335L144.126 129.781C140.955 121.259 136.892 114.621 131.938 109.865C127.083 105.109 120.543 102.731 112.319 102.731H63.7187V152.818C63.7187 163.221 64.9077 170.9 67.2857 175.855C69.7628 180.809 73.2803 184.029 77.8382 185.515C82.4951 186.903 89.0842 187.596 97.6055 187.596H112.171C124.655 187.596 135.406 186.209 144.423 183.435C153.539 180.561 160.276 174.765 164.636 166.045L166.717 161.438C168.5 157.574 169.937 154.7 171.027 152.818C172.117 150.836 173.504 148.953 175.188 147.17H184.552L174.743 199.338ZM237.293 44.3203C237.293 36.2945 236.649 30.4486 235.361 26.7824C234.073 23.0172 232.191 20.4906 229.713 19.2025C227.236 17.9144 223.223 16.7254 217.675 15.6355C210.937 14.1492 206.082 12.9602 203.109 12.0684L203.407 4.48848H303.878V12.2171C301.005 13.4061 298.428 14.2978 296.149 14.8923C293.87 15.3877 290.848 15.9823 287.083 16.6758C282.327 17.4685 278.81 18.4594 276.531 19.6484C274.252 20.7383 272.468 23.0668 271.18 26.6338C269.991 30.2008 269.397 35.7991 269.397 43.4286V151.629C269.397 163.618 270.536 171.941 272.815 176.598C275.193 181.156 279.602 184.029 286.043 185.218C292.483 186.407 304.274 187.002 321.416 187.002C332.315 187.002 341.48 185.614 348.912 182.84C356.442 179.967 362.437 174.269 366.896 165.748L369.125 161.289C370.71 158.02 372.147 155.295 373.435 153.115C374.723 150.836 376.209 148.755 377.894 146.873L386.811 147.17L377.448 199.635C364.171 198.545 353.321 198 344.899 198H203.258L202.961 189.974C204.447 189.479 207.618 188.537 212.473 187.15C218.121 185.664 222.579 184.227 225.849 182.84C229.119 181.354 231.844 179.025 234.024 175.855C236.203 172.585 237.293 168.077 237.293 162.33V44.3203ZM411.463 138.252C412.453 139.937 413.246 141.671 413.841 143.454C414.534 145.238 415.277 147.566 416.07 150.44C416.466 151.43 416.813 152.57 417.11 153.858C420.578 165.253 427.167 174.022 436.878 180.165C446.588 186.308 457.685 189.38 470.17 189.38C476.71 189.38 483.051 188.24 489.194 185.961C495.436 183.583 500.539 180.066 504.503 175.409C508.565 170.653 510.596 164.906 510.596 158.168C510.596 152.322 508.516 146.873 504.354 141.819C500.292 136.766 495.189 132.258 489.046 128.294C483.001 124.232 474.629 119.228 463.928 113.283C451.344 106.347 441.138 100.204 433.311 94.8533C425.483 89.5028 418.844 83.1614 413.395 75.8291C407.945 68.3978 405.22 60.0252 405.22 50.7113C405.22 39.2175 408.44 29.755 414.881 22.3236C421.421 14.7932 429.744 9.34361 439.85 5.97475C450.056 2.5068 460.807 0.772824 472.102 0.772824C481.812 0.772824 491.473 1.96183 501.084 4.33986C510.795 6.71788 520.009 10.1363 528.729 14.5951L530.661 56.9536H521.446C520.257 54.6746 518.87 51.0581 517.285 46.1039L515.798 41.7937C512.429 32.0834 506.583 24.7512 498.26 19.797C490.036 14.7437 480.524 12.2171 469.724 12.2171C464.175 12.2171 458.577 13.1584 452.929 15.041C447.282 16.9236 442.525 19.8465 438.661 23.8099C434.896 27.6742 433.013 32.4798 433.013 38.2267C433.013 43.5772 434.995 48.581 438.958 53.2379C442.922 57.8949 447.826 62.1555 453.672 66.0198C459.518 69.785 467.594 74.541 477.899 80.2879C491.077 87.6202 501.728 94.1102 509.853 99.758C518.077 105.307 525.063 112.044 530.81 119.971C536.655 127.898 539.578 136.865 539.578 146.873C539.578 159.258 536.16 169.612 529.323 177.935C522.486 186.159 513.618 192.204 502.719 196.068C491.919 199.932 480.425 201.864 468.238 201.864C457.339 201.864 445.597 200.527 433.013 197.851C420.529 195.077 410.422 191.312 402.694 186.556V138.549L411.463 138.252Z" fill="url(#paint0_linear_15_6096)" fill-opacity="0.3"/>
<defs>
<linearGradient id="paint0_linear_15_6096" x1="294.5" y1="307" x2="283.993" y2="14.5002" gradientUnits="userSpaceOnUse">
<stop/>
<stop offset="1" stop-color="#A3052D"/>
</linearGradient>
</defs>
</svg>
