<?xml version="1.0" encoding="UTF-8"?>
<svg version="1.1" xmlns="http://www.w3.org/2000/svg" width="512" height="512">
<path d="M0 0 C1.25103516 -0.03867188 1.25103516 -0.03867188 2.52734375 -0.078125 C11.53855888 1.0881956 18.48443437 11.46554123 24.05078125 17.953125 C26.66529976 20.93824516 29.36285527 23.84195728 32.0625 26.75 C35.85155962 30.83547871 39.58422703 34.95394243 43.23046875 39.16796875 C46.06114261 42.38491793 48.97017016 45.5297068 51.87084961 48.68334961 C56.30486939 53.50603882 60.68775909 58.37349669 65.0625 63.25 C66.56221128 64.91692647 68.06221321 66.58359149 69.5625 68.25 C72.5625 71.58333333 75.5625 74.91666667 78.5625 78.25 C79.30757813 79.07757813 80.05265625 79.90515625 80.8203125 80.7578125 C82.29542618 82.39739879 83.76941652 84.03799655 85.2421875 85.6796875 C89.36347768 90.2703061 93.51123788 94.83447107 97.6875 99.375 C101.2475179 103.24638264 104.74955868 107.15947915 108.1953125 111.1328125 C111.04044671 114.35888518 113.95882879 117.5173544 116.87060547 120.68310547 C120.56896198 124.70559045 124.23562785 128.7552067 127.8828125 132.82421875 C129.35043386 134.4575393 130.82453787 136.08505543 132.3046875 137.70703125 C134.57752985 140.20401204 136.8233447 142.7227887 139.0625 145.25 C140.29806641 146.61511719 140.29806641 146.61511719 141.55859375 148.0078125 C146.17736302 153.31385464 150.18448712 157.9307728 150.0625 165.25 C149.22275732 171.81291201 144.89936239 175.98672302 140.515625 180.625 C138.11798647 183.19062595 135.89423063 185.83186929 133.6875 188.5625 C130.36232081 192.66973353 126.98592443 196.72488279 123.5625 200.75 C120.20789595 204.69638883 116.89027828 208.66642493 113.625 212.6875 C109.66806582 217.55049424 105.59814058 222.30700203 101.50634766 227.05615234 C97.71086633 231.47031766 94.00972087 235.95333198 90.33984375 240.47265625 C87.31830056 244.15759143 84.23214049 247.78568321 81.14599609 251.41650391 C78.26692157 254.80973475 75.43038508 258.2327672 72.625 261.6875 C68.66806582 266.55049424 64.59814058 271.30700203 60.50634766 276.05615234 C56.71086633 280.47031766 53.00972087 284.95333198 49.33984375 289.47265625 C46.31830056 293.15759143 43.23214049 296.78568321 40.14599609 300.41650391 C37.26692157 303.80973475 34.43038508 307.2327672 31.625 310.6875 C28.07316096 315.0457025 24.46233689 319.34886967 20.8125 323.625 C20.31693604 324.20822021 19.82137207 324.79144043 19.31079102 325.39233398 C10.20666398 336.01560215 10.20666398 336.01560215 5.8828125 336.48828125 C-8.13654537 336.87432154 -21.84290312 330.72774783 -32.08984375 321.23828125 C-37.57845847 315.33192841 -43.35813436 307.88492514 -44.375 299.75 C-43.51564623 292.87516987 -38.23122629 288.20417242 -33.625 283.375 C-32.45358567 282.13100011 -31.2830045 280.88621512 -30.11328125 279.640625 C-29.55850098 279.05087891 -29.0037207 278.46113281 -28.43212891 277.85351562 C-26.13766346 275.39189376 -23.93990166 272.85228651 -21.7421875 270.3046875 C-19.34968226 267.58075297 -16.89344058 264.91656731 -14.4375 262.25 C-11.39857665 258.9497517 -8.37593844 255.6405059 -5.4375 252.25 C-2.03005081 248.31832786 1.49379673 244.49638756 5.01782227 240.66967773 C7.54990116 237.91526572 10.05285268 235.14257501 12.5 232.3125 C16.12394644 228.12967989 19.89505746 224.08728193 23.65771484 220.02978516 C26.90865512 216.51787256 30.09234313 212.95998582 33.22265625 209.33984375 C35.62920156 206.60629441 38.09553196 203.92885994 40.5625 201.25 C43.60140177 197.94973124 46.624061 194.64050653 49.5625 191.25 C52.50096444 187.8594641 55.52461362 184.55122782 58.5625 181.25 C59.50666289 180.2188896 60.45067609 179.1876421 61.39453125 178.15625 C63.028241 176.37663059 64.66967906 174.60402021 66.32421875 172.84375 C66.95972656 172.1528125 67.59523438 171.461875 68.25 170.75 C68.80042969 170.1621875 69.35085938 169.574375 69.91796875 168.96875 C71.43200905 167.0392656 71.43200905 167.0392656 71.0625 163.25 C69.07284745 160.5446917 69.07284745 160.5446917 66.359375 157.796875 C65.86669128 157.27526794 65.37400757 156.75366089 64.86639404 156.21624756 C59.13730635 150.19138961 53.22802853 144.34080607 47.3125 138.5 C35.3267769 126.66369821 35.3267769 126.66369821 31.640625 122.328125 C26.33818804 116.11025211 20.36891474 110.49101667 14.5625 104.75 C1.24719613 91.58466737 1.24719613 91.58466737 -4.00976562 85.40039062 C-8.896902 79.94878257 -14.23292362 74.89595685 -19.4375 69.75 C-33.56909474 55.77757044 -33.56909474 55.77757044 -38.60009766 49.82446289 C-39.50937861 48.75400782 -40.45108058 47.71044426 -41.41943359 46.69311523 C-43.63350055 44.30016905 -44.96548807 42.17634718 -46.125 39.125 C-45.57483476 27.75491834 -36.97618103 18.89623006 -29.07421875 11.5078125 C-21.31644827 5.09560821 -10.11279926 0.1869855 0 0 Z " fill="#ffff" transform="translate(203.9375,87.75)"/>
</svg>
