<svg width="1387" height="1694" viewBox="0 0 1387 1694" fill="none" xmlns="http://www.w3.org/2000/svg">
<path d="M1174.92 8C1199.19 8 1295.54 65.8199 1337.75 105.849C1406.64 171.179 1388.42 252.623 1289.22 252.623C1217.85 252.623 1075.96 184.55 973.757 148.102C914.519 126.976 733.235 95.8418 696.836 164.781C660.436 233.72 847.031 280.071 888.009 297.099C1010.5 348 1182.88 410.515 1182.88 565.072C1182.88 767.442 948.063 789.68 878.833 789.68C809.603 789.68 510.706 755.122 435.616 740.756C354.253 725.189 236.49 714.07 167.26 740.756C98.0298 767.442 26.2996 787.457 8.81562 987.602C-1.18912 1102.13 82.3282 1234.45 177.966 1268.92C272.546 1303.01 488.103 1316.4 598.343 1325.63C776 1340.5 875.5 1350.5 1008.02 1361.21C1008.02 1361.21 1070.82 1366.09 1092.95 1368.99C1166.46 1378.64 1247.11 1391.23 1282.8 1404.57C1318.48 1417.92 1351.31 1461.28 1351.31 1514.65C1351.31 1568.02 1338.46 1612.5 1244.97 1687" stroke="url(#paint0_linear_1_4239)" stroke-width="15.706"/>
<defs>
<linearGradient id="paint0_linear_1_4239" x1="1191.44" y1="104.737" x2="792.498" y2="1572.88" gradientUnits="userSpaceOnUse">
<stop stop-color="#D9D9D9"/>
<stop offset="0.495" stop-color="#A3052D"/>
<stop offset="1" stop-color="#6B6B6B"/>
</linearGradient>
</defs>
</svg>
