<svg width="1060" height="869" viewBox="0 0 1060 869" fill="none" xmlns="http://www.w3.org/2000/svg">
<g style="mix-blend-mode:multiply">
<path opacity="0.02" d="M17.1764 9.21094L1066.49 10.3364C1062.75 212.114 1064.23 431.039 1057.94 565.57C1056.98 585.474 1052.81 612.259 1046.47 639.692C1034.34 692.018 1011.95 751.12 977.855 789.53C942.516 829.338 892.413 855.418 855.55 864.272C847.882 866.118 840.785 867.227 834.519 867.571C757.082 871.824 43.2757 863.574 8.93799 866.074L17.1764 9.21094Z" fill="#FDFDFD"/>
<path opacity="0.02" d="M17.1773 9.21094L1066.23 10.4362C1062.49 210.994 1064.1 429.87 1057.69 564.24C1056.7 584.221 1052.24 611.471 1045.91 638.777C1033.76 690.976 1011.26 750.044 976.453 789.419C941.433 829.039 891.675 855.346 854.7 864.2C847.079 866.035 839.981 867.139 833.697 867.482C755.979 871.724 43.501 863.452 9.13525 865.963L17.1773 9.21094Z" fill="#FCFCFC"/>
<path opacity="0.03" d="M17.1762 9.21094L1065.98 10.5305C1062.23 209.868 1063.97 428.694 1057.43 562.904C1056.4 582.957 1051.67 610.678 1045.36 637.856C1033.2 689.928 1010.57 748.963 975.059 789.303C940.347 828.734 890.944 855.263 853.867 864.123C846.283 865.947 839.195 867.044 832.883 867.383C754.884 871.618 43.7336 863.324 9.33984 865.841L17.1762 9.21094Z" fill="#FBFBFB"/>
<path opacity="0.04" d="M17.1766 9.21094L1065.73 10.6303C1061.98 208.754 1063.85 427.53 1057.19 561.573C1056.12 581.704 1051.11 609.891 1044.81 636.936C1032.63 688.886 1009.88 747.882 973.666 789.192C939.263 828.434 890.225 855.185 853.026 864.05C845.479 865.863 838.4 866.956 832.06 867.294C753.781 871.524 43.9585 863.202 9.52734 865.73L17.1766 9.21094Z" fill="#FAFAFA"/>
<path opacity="0.05" d="M17.1763 9.21094L1065.48 10.7245C1061.73 207.628 1063.72 426.354 1056.94 560.237C1055.83 580.446 1050.54 609.098 1044.26 636.016C1032.05 687.838 1009.2 746.801 972.281 789.076C938.177 828.129 889.504 855.108 852.202 863.978C844.703 865.78 837.624 866.867 831.265 867.205C752.706 871.424 44.2107 863.086 9.75146 865.62L17.1763 9.21094Z" fill="#F9F9F9"/>
<path opacity="0.06" d="M17.1764 9.21094L1065.22 10.8243C1061.47 206.508 1063.59 425.19 1056.69 558.901C1055.54 579.187 1049.97 608.306 1043.7 635.095C1031.48 686.795 1008.5 745.72 970.879 788.959C937.065 827.819 888.738 854.975 851.352 863.901C843.88 865.686 836.82 866.767 830.433 867.111C751.593 871.325 44.4258 862.964 9.9292 865.503L17.1764 9.21094Z" fill="#F8F8F8"/>
<path opacity="0.06" d="M17.1778 9.21094L1064.96 10.9186C1061.21 205.389 1063.45 424.015 1056.43 557.565C1055.25 577.929 1049.39 607.513 1043.14 634.175C1030.91 685.747 1007.81 744.633 969.478 788.843C935.953 827.508 888 854.886 850.511 863.823C843.086 865.592 836.026 866.673 829.611 867.017C750.491 871.225 44.6516 862.836 10.127 865.387L17.1778 9.21094Z" fill="#F7F7F7"/>
<path opacity="0.07" d="M17.1787 9.21094L1064.71 11.0184C1060.96 204.269 1063.32 422.845 1056.17 556.234C1054.96 576.676 1048.81 606.725 1042.58 633.26C1030.34 684.711 1007.11 743.557 968.076 788.737C934.841 827.209 887.253 854.814 849.661 863.757C842.274 865.514 835.223 866.59 828.789 866.934C749.388 871.13 44.877 862.725 10.3149 865.281L17.1787 9.21094Z" fill="#F6F6F7"/>
<path opacity="0.08" d="M17.175 9.21094L1064.46 11.1126C1060.71 203.143 1063.18 421.675 1055.93 554.898C1054.67 575.417 1048.25 605.933 1042.03 632.34C1029.77 683.663 1006.43 742.476 966.697 788.621C933.744 826.893 886.539 854.725 848.844 863.685C841.494 865.431 834.453 866.501 827.991 866.845C748.309 871.036 45.1258 862.609 10.5356 865.165L17.175 9.21094Z" fill="#F5F5F6"/>
<path opacity="0.09" d="M17.1789 9.21094L1064.21 11.2124C1060.45 202.029 1063.52 420.516 1055.68 553.567C1054.46 574.164 1047.68 605.145 1041.47 631.425C1029.2 682.621 1005.73 741.395 965.299 788.51C932.616 826.582 885.804 854.642 847.997 863.613C840.684 865.348 833.652 866.412 827.162 866.75C747.2 870.931 45.3448 862.481 10.7266 865.048L17.1789 9.21094Z" fill="#F4F4F5"/>
<path opacity="0.1" d="M17.1773 9.21094L1063.95 11.3122C1060.19 200.909 1063.43 419.347 1055.42 552.237C1054.18 572.911 1047.11 604.352 1040.92 630.51C1028.63 681.584 1005.05 740.32 963.904 788.399C931.502 826.272 885.073 854.559 847.163 863.54C839.897 865.265 832.865 866.324 826.357 866.662C746.114 870.837 45.5863 862.365 10.9307 864.938L17.1773 9.21094Z" fill="#F3F3F4"/>
<path opacity="0.1" d="M17.1782 9.21094L1063.7 11.4065C1059.94 199.783 1063.34 418.177 1055.17 550.895C1053.89 571.647 1046.54 603.554 1040.36 629.584C1028.05 680.53 1004.35 739.227 962.502 788.283C930.371 825.956 884.335 854.47 846.313 863.463C839.085 865.17 832.062 866.229 825.525 866.568C745.002 870.737 45.8023 862.237 11.1187 864.821L17.1782 9.21094Z" fill="#F2F2F3"/>
<path opacity="0.11" d="M17.1762 9.21094L1063.44 11.5063C1059.68 198.669 1063.23 417.007 1054.91 549.564C1053.6 570.388 1045.95 602.767 1039.8 628.67C1027.48 679.494 1003.65 738.146 961.107 788.172C929.238 825.646 883.604 854.387 845.479 863.396C838.288 865.093 831.274 866.146 824.71 866.484C743.906 870.643 46.034 862.127 11.313 864.716L17.1762 9.21094Z" fill="#F1F1F2"/>
<path opacity="0.12" d="M17.178 9.21094L1063.19 11.6005C1059.43 197.543 1063.14 415.837 1054.67 548.228C1053.33 569.13 1045.39 601.974 1039.25 627.749C1026.91 678.446 1002.96 737.065 959.715 788.056C928.108 825.324 882.876 854.304 844.639 863.319C837.495 865.004 830.481 866.052 823.898 866.39C742.814 870.543 46.2696 862.005 11.5205 864.599L17.178 9.21094Z" fill="#F0F0F1"/>
<path opacity="0.13" d="M17.1764 9.21094L1062.93 11.7003C1059.17 196.423 1063.03 414.673 1054.41 546.897C1053.05 567.877 1044.82 601.187 1038.69 626.834C1026.34 677.403 1002.26 735.984 958.32 787.945C926.975 825.008 882.136 854.221 843.805 863.247C836.698 864.921 829.703 865.963 823.083 866.301C741.718 870.449 46.5018 861.883 11.7246 864.488L17.1764 9.21094Z" fill="#EFF0F0"/>
<path opacity="0.14" d="M17.1769 9.21094L1062.68 11.7946C1058.91 195.304 1062.94 413.497 1054.16 545.561C1052.76 566.618 1044.25 600.394 1038.13 625.909C1025.77 676.356 1001.56 734.892 956.918 787.828C925.834 824.686 881.398 854.132 842.955 863.169C835.885 864.832 828.9 865.869 822.251 866.207C740.606 870.343 46.7081 861.761 11.9028 864.372L17.1769 9.21094Z" fill="#EEEFEF"/>
<path opacity="0.14" d="M17.1761 9.21094L1062.43 11.8944C1058.66 194.184 1062.84 412.333 1053.91 544.225C1052.48 565.36 1043.68 599.601 1037.58 624.988C1025.2 675.308 1000.87 733.805 955.533 787.712C924.702 824.365 880.677 854.043 842.131 863.097C835.108 864.749 828.123 865.78 821.455 866.113C739.529 870.243 46.9597 861.639 12.1265 864.256L17.1761 9.21094Z" fill="#EDEEEE"/>
<path opacity="0.15" d="M17.1767 9.21094L1062.17 11.9886C1058.41 193.058 1062.75 411.158 1053.66 542.889C1052.2 564.101 1043.11 598.808 1037.02 624.068C1024.63 674.265 1000.17 732.718 954.131 787.595C923.553 824.043 879.939 853.954 841.281 863.019C834.295 864.655 827.319 865.686 820.624 866.019C738.417 870.138 47.1754 861.511 12.3047 864.139L17.1767 9.21094Z" fill="#ECEDED"/>
<path opacity="0.16" d="M17.1789 9.21094L1061.92 12.0884C1058.16 191.944 1062.64 409.993 1053.42 541.558C1051.92 562.848 1042.54 598.021 1036.48 623.153C1024.07 673.223 999.487 731.637 952.749 787.484C922.423 823.727 879.221 853.877 840.46 862.947C833.512 864.572 826.545 865.597 819.822 865.93C737.335 870.044 47.4207 861.395 12.522 864.023L17.1789 9.21094Z" fill="#EBECEC"/>
<path opacity="0.17" d="M17.1764 9.21094L1061.66 12.1882C1057.89 190.824 1062.53 408.824 1053.15 540.228C1051.63 561.595 1041.96 597.234 1035.91 622.238C1023.48 672.186 998.773 730.556 951.335 787.379C921.252 823.411 878.47 853.799 839.597 862.881C832.687 864.494 825.729 865.514 818.987 865.847C736.219 869.955 47.6333 861.278 12.7065 863.917L17.1764 9.21094Z" fill="#EAEBEB"/>
<path opacity="0.18" d="M17.1782 9.21094L1061.41 12.2824C1057.64 189.698 1062.43 407.654 1052.9 538.892C1051.35 560.337 1041.47 596.446 1035.36 621.318C1023.09 671.155 998.083 729.469 949.953 787.263C920.122 823.09 877.752 853.71 838.776 862.809C831.912 864.411 824.955 865.425 818.185 865.758C735.146 869.855 47.8783 861.162 12.9141 863.807L17.1782 9.21094Z" fill="#E9EAEA"/>
<path opacity="0.18" d="M17.1787 9.21094L1061.16 12.3822C1057.38 188.578 1062.33 406.489 1052.65 537.555C1051.06 559.078 1040.9 595.654 1034.8 620.398C1022.52 670.107 997.373 728.383 948.55 787.146C918.963 822.763 877.014 853.622 837.925 862.731C831.099 864.322 824.151 865.331 817.353 865.664C734.034 869.755 48.0938 861.04 13.1016 863.69L17.1787 9.21094Z" fill="#E8E9E9"/>
<path opacity="0.19" d="M17.1776 9.21094L1060.9 12.4765C1057.13 187.458 1062.22 405.314 1052.39 536.219C1050.78 557.82 1040.34 594.861 1034.24 619.477C1021.96 669.065 996.68 727.291 947.156 787.03C917.802 822.435 876.283 853.533 837.092 862.653C830.303 864.233 823.365 865.237 816.547 865.57C732.948 869.65 48.3358 860.912 13.3062 863.574L17.1776 9.21094Z" fill="#E7E8E8"/>
<path opacity="0.2" d="M17.1793 9.21094L1060.65 12.5763C1056.88 186.339 1062.11 404.15 1052.15 534.889C1050.5 556.561 1039.78 594.073 1033.69 618.562C1021.41 668.023 995.98 726.209 945.764 786.924C916.654 822.119 875.555 853.461 836.262 862.587C829.519 864.156 822.581 865.154 815.736 865.481C731.855 869.556 48.5714 860.796 13.5137 863.463L17.1793 9.21094Z" fill="#E6E7E7"/>
<path opacity="0.21" d="M17.1743 9.21094L1060.4 12.6705C1056.62 185.213 1062 402.974 1051.9 533.552C1050.21 555.302 1039.21 593.281 1033.14 617.642C1020.84 666.98 995.274 725.123 944.375 786.808C915.508 821.792 874.821 853.372 835.424 862.515C828.719 864.073 821.79 865.065 814.917 865.392C730.756 869.462 48.8001 860.68 13.7144 863.352L17.1743 9.21094Z" fill="#E5E6E6"/>
<path opacity="0.22" d="M17.1778 9.21094L1060.15 12.7703C1056.37 184.099 1061.9 401.81 1051.65 532.222C1049.93 554.05 1038.64 592.493 1032.58 616.727C1020.27 665.938 994.576 724.036 942.976 786.697C914.343 821.471 874.086 853.289 834.577 862.443C827.909 863.984 820.99 864.976 814.088 865.303C729.647 869.362 49.0187 860.558 13.8955 863.241L17.1778 9.21094Z" fill="#E4E5E6"/>
<path opacity="0.22" d="M17.1766 9.21094L1059.88 12.8646C1056.11 182.973 1061.78 400.635 1051.38 530.88C1049.63 552.785 1038.06 591.695 1032.02 615.796C1019.7 664.885 993.864 722.938 941.572 786.57C913.173 821.132 873.346 853.195 833.734 862.354C827.113 863.884 820.193 864.871 813.274 865.198C728.552 869.251 49.2513 860.425 14.1001 863.114L17.1766 9.21094Z" fill="#E3E4E5"/>
<path opacity="0.23" d="M17.1775 9.21094L1059.63 12.9644C1055.85 181.853 1061.67 399.47 1051.13 529.549C1049.36 551.532 1037.49 590.908 1031.46 614.881C1019.13 663.842 993.154 721.852 940.18 786.464C912.014 820.816 872.617 853.117 832.903 862.287C826.319 863.807 819.409 864.782 812.461 865.115C727.458 869.162 49.486 860.308 14.2974 863.003L17.1775 9.21094Z" fill="#E2E3E4"/>
<path opacity="0.24" d="M17.1764 9.21094L1059.38 13.0642C1055.59 180.739 1061.56 398.301 1050.89 528.219C1049.07 550.279 1036.94 590.12 1030.91 613.966C1018.58 662.805 992.461 720.765 938.795 786.353C910.863 820.489 871.896 853.034 832.069 862.221C825.523 863.729 818.622 864.699 811.646 865.032C726.363 869.068 49.7186 860.197 14.502 862.897L17.1764 9.21094Z" fill="#E1E2E3"/>
<path opacity="0.25" d="M17.1782 9.21094L1059.13 13.1584C1055.34 179.613 1061.46 397.131 1050.64 526.883C1048.79 549.021 1036.37 589.328 1030.35 613.046C1018.01 661.758 991.753 719.678 937.394 786.237C909.686 820.162 871.159 852.951 831.23 862.143C824.73 863.64 817.829 864.605 810.835 864.938C725.271 868.968 49.9542 860.075 14.7095 862.781L17.1782 9.21094Z" fill="#E0E1E2"/>
<path opacity="0.26" d="M17.1787 9.21094L1058.88 13.2582C1055.09 178.493 1061.34 395.966 1050.39 525.552C1048.51 547.768 1035.8 588.54 1029.8 612.131C1017.45 660.721 991.052 718.592 936.001 786.126C908.527 819.835 870.43 852.868 830.388 862.071C823.927 863.557 817.035 864.516 810.012 864.843C724.168 868.863 50.1791 859.948 14.897 862.664L17.1787 9.21094Z" fill="#DFE0E1"/>
<path opacity="0.26" d="M17.1775 9.21094L1058.62 13.3525C1054.84 177.373 1061.23 394.791 1050.13 524.21C1048.22 546.504 1035.23 587.742 1029.24 611.205C1016.88 659.673 990.33 717.494 934.607 786.01C907.357 819.508 869.7 852.779 829.555 861.994C823.131 863.468 816.258 864.422 809.197 864.749C723.073 868.763 50.4118 859.826 15.1016 862.548L17.1775 9.21094Z" fill="#DEDFE0"/>
<path opacity="0.27" d="M17.1746 9.21094L1058.37 13.4523C1054.58 176.254 1061.12 393.627 1049.88 522.88C1047.93 545.251 1034.65 586.955 1028.68 610.29C1016.31 658.631 989.617 716.407 933.201 785.899C906.176 819.181 868.958 852.701 828.701 861.927C822.324 863.391 815.45 864.339 808.372 864.666C721.966 868.674 50.6332 859.715 15.2856 862.443L17.1746 9.21094Z" fill="#DDDEDF"/>
<path opacity="0.28" d="M17.1764 9.21094L1058.11 13.5465C1054.32 175.128 1060.99 392.451 1049.63 521.544C1047.65 543.992 1034.08 586.162 1028.13 609.37C1015.75 657.588 988.917 715.321 931.809 785.782C905.009 818.848 868.23 852.613 827.871 861.849C821.53 863.302 814.667 864.245 807.56 864.572C720.874 868.569 50.8688 859.587 15.4932 862.326L17.1764 9.21094Z" fill="#DCDDDE"/>
<path opacity="0.29" d="M17.1769 9.21094L1057.85 13.6463C1054.06 174.014 1060.88 391.287 1049.37 520.213C1047.36 542.734 1033.51 585.375 1027.57 608.455C1015.18 656.546 988.198 714.234 930.407 785.671C903.831 818.527 867.492 852.53 827.02 861.777C820.718 863.219 813.863 864.156 806.728 864.483C719.762 868.475 51.0844 859.471 15.6714 862.215L17.1769 9.21094Z" fill="#DBDCDD"/>
<path opacity="0.3" d="M17.1761 9.21094L1057.6 13.7406C1053.8 172.888 1060.76 390.112 1049.12 518.877C1047.08 541.475 1032.94 584.582 1027.01 607.535C1014.61 655.504 987.486 713.142 929.022 785.561C902.671 818.2 866.771 852.452 826.196 861.705C819.94 863.136 813.086 864.067 805.932 864.394C718.685 868.38 51.3361 859.349 15.895 862.104L17.1761 9.21094Z" fill="#DADBDC"/>
<path opacity="0.3" d="M17.1805 9.21094L1057.35 13.8404C1053.56 171.768 1060.65 388.947 1048.87 517.541C1046.8 540.217 1032.38 583.789 1026.46 606.615C1014.05 654.456 986.771 712.044 927.624 785.444C901.497 817.867 866.037 852.363 825.35 861.633C819.131 863.052 812.286 863.978 805.105 864.306C717.577 868.281 51.5556 859.233 16.0864 861.994L17.1805 9.21094Z" fill="#D9DADB"/>
<path opacity="0.31" d="M17.1785 9.21094L1057.1 13.9402C1053.3 170.654 1060.53 387.778 1048.62 516.21C1046.5 538.964 1031.8 583.002 1025.9 605.694C1013.48 653.414 986.067 710.952 926.229 785.328C900.317 817.534 865.306 852.28 824.516 861.556C818.334 862.958 811.499 863.884 804.289 864.206C716.481 868.175 51.7873 859.105 16.2808 861.866L17.1785 9.21094Z" fill="#D8D9DA"/>
<path opacity="0.32" d="M17.1764 9.21094L1056.84 14.0344C1053.05 169.528 1060.41 386.608 1048.36 514.874C1046.22 537.705 1031.23 582.203 1025.34 604.774C1012.91 652.366 985.336 709.859 924.824 785.211C899.136 817.202 864.565 852.191 823.663 861.478C817.528 862.87 810.692 863.79 803.464 864.111C715.376 868.07 52.0097 858.978 16.4751 861.75L17.1764 9.21094Z" fill="#D7D8D9"/>
<path opacity="0.33" d="M17.1782 9.21094L1056.58 14.1342C1052.79 168.408 1060.29 385.438 1048.11 513.543C1045.93 536.452 1030.67 581.416 1024.79 603.859C1012.35 651.329 984.627 708.773 923.442 785.106C897.969 816.88 863.847 852.114 822.841 861.411C816.745 862.792 809.918 863.707 802.662 864.028C714.293 867.981 52.2546 858.867 16.6826 861.644L17.1782 9.21094Z" fill="#D6D7D8"/>
<path opacity="0.34" d="M17.1787 9.21094L1056.33 14.2285C1052.53 167.288 1060.17 384.268 1047.86 512.207C1045.65 535.194 1030.1 580.623 1024.23 602.939C1011.78 650.281 983.907 707.681 922.04 784.99C896.782 816.547 863.108 852.031 821.991 861.339C815.931 862.709 809.114 863.618 801.83 863.94C713.18 867.887 52.4702 858.75 16.8701 861.533L17.1694 9.21094H17.1787Z" fill="#D5D6D7"/>
<path opacity="0.34" d="M17.178 9.21094L1056.08 14.3283C1052.27 166.169 1060.04 383.098 1047.61 510.871C1045.36 533.935 1029.53 579.83 1023.68 602.018C1011.22 649.239 983.196 706.583 920.646 784.873C895.612 816.215 862.378 851.942 821.158 861.262C815.145 862.62 808.328 863.524 801.025 863.845C712.095 867.782 52.7126 858.623 17.0845 861.417L17.1873 9.21094H17.178Z" fill="#D4D5D6"/>
<path opacity="0.35" d="M17.1795 9.20867L1055.83 14.4203C1052.02 165.041 1059.92 381.926 1047.36 509.533C1045.07 532.674 1028.96 579.035 1023.12 601.096C1010.65 648.189 982.468 705.488 919.245 784.754C894.426 815.874 861.641 851.856 820.309 861.182C814.333 862.529 807.526 863.427 800.194 863.749C710.984 867.68 52.9292 858.498 17.2637 861.298L17.1702 9.20312L17.1795 9.20867Z" fill="#D3D4D5"/>
<path opacity="0.36" d="M17.1768 9.21094L1055.57 14.5223C1051.77 163.929 1059.8 380.764 1047.1 508.204C1044.79 531.423 1028.39 578.25 1022.56 600.183C1010.09 647.154 981.745 704.398 917.858 784.651C893.255 815.555 860.918 851.781 819.483 861.118C813.545 862.454 806.747 863.346 799.387 863.668C709.896 867.593 53.1696 858.384 17.476 861.195L17.1768 9.21648V9.21094Z" fill="#D2D3D5"/>
<path opacity="0.37" d="M17.1768 9.21094L1055.32 14.6166C1051.51 162.803 1059.68 379.589 1046.86 506.868C1044.51 530.159 1027.83 577.457 1022.01 599.263C1009.53 646.106 981.035 703.306 916.464 784.535C892.076 815.222 860.189 851.698 818.641 861.046C812.75 862.371 805.952 863.258 798.574 863.574C708.802 867.488 53.4034 858.262 17.6724 861.079L17.1768 9.21094Z" fill="#D1D2D4"/>
<path opacity="0.38" d="M17.1768 9.21094L1055.07 14.7164C1051.26 161.683 1059.56 378.424 1046.61 505.537C1044.22 528.906 1027.26 576.67 1021.46 598.348C1008.97 645.069 980.314 702.214 915.071 784.424C890.889 814.895 859.459 851.615 817.809 860.973C811.955 862.287 805.166 863.169 797.76 863.485C707.708 867.394 53.6371 858.146 17.8781 860.968L17.1768 9.21094Z" fill="#D0D2D3"/>
<path opacity="0.38" d="M17.1768 9.21094L1054.81 14.8106C1051 160.563 1059.43 377.249 1046.34 504.201C1043.93 527.648 1026.68 575.877 1020.89 597.428C1008.39 644.022 979.576 701.116 913.659 784.308C889.692 814.557 858.711 851.532 816.949 860.896C811.132 862.199 804.353 863.075 796.918 863.391C706.586 867.288 53.8429 858.018 18.0558 860.851L17.1768 9.21094Z" fill="#CFD1D2"/>
<path opacity="0.39" d="M17.1768 9.21094L1054.55 14.9104C1050.74 159.443 1059.29 376.085 1046.09 502.865C1043.64 526.389 1026.11 575.084 1020.34 596.507C1007.83 642.979 978.846 700.018 912.275 784.197C888.523 814.23 857.991 851.454 816.126 860.824C810.356 862.116 803.577 862.986 796.124 863.302C705.51 867.194 54.0954 857.902 18.2709 860.735L17.1768 9.21094Z" fill="#CED0D1"/>
<path opacity="0.4" d="M17.1768 9.21094L1054.3 15.0102C1050.49 158.323 1059.17 374.915 1045.84 501.534C1043.35 525.136 1025.54 574.297 1019.78 595.587C1007.26 641.931 978.117 698.921 910.872 784.08C887.326 813.892 857.253 851.365 815.275 860.752C809.543 862.032 802.772 862.892 795.291 863.213C704.398 867.1 54.3011 857.786 18.4579 860.624L17.1768 9.21094Z" fill="#CDCFD0"/>
<path opacity="0.41" d="M17.1768 9.21094L1054.05 15.1045C1050.23 157.203 1059.05 373.745 1045.6 500.198C1043.08 523.878 1024.98 573.504 1019.23 594.667C1006.69 640.889 977.397 697.828 909.488 783.964C886.157 813.559 856.542 851.282 814.452 860.674C808.757 861.944 802.006 862.797 794.487 863.119C703.313 866.995 54.5442 857.658 18.6636 860.508L17.1768 9.21094Z" fill="#CCCECF"/>
<path opacity="0.42" d="M17.1768 9.21094L1053.8 15.2043C1049.98 156.084 1058.92 372.575 1045.34 498.868C1042.79 522.625 1024.41 572.717 1018.67 593.752C1006.12 639.847 976.668 696.736 908.086 783.853C884.96 813.226 855.803 851.199 813.601 860.602C807.953 861.861 801.201 862.709 793.664 863.03C702.209 866.9 54.7686 857.542 18.86 860.397L17.1768 9.21094Z" fill="#CBCDCE"/>
<path opacity="0.42" d="M17.1768 9.21094L1053.54 15.2985C1049.73 154.958 1058.8 371.405 1045.09 497.531C1042.5 521.366 1023.84 571.924 1018.12 592.832C1005.56 638.804 975.938 695.633 906.702 783.742C883.791 812.899 855.083 851.121 812.778 860.53C807.167 861.777 800.425 862.62 792.86 862.936C701.134 866.8 55.0118 857.414 19.0751 860.28L17.1768 9.21094Z" fill="#CACCCD"/>
<path opacity="0.43" d="M17.1768 9.21094L1053.29 15.3983C1049.48 153.844 1058.67 370.236 1044.84 496.195C1042.21 520.108 1023.26 571.131 1017.56 591.911C1004.99 637.757 975.199 694.535 905.299 783.626C882.594 812.561 854.344 851.038 811.927 860.458C806.354 861.694 799.621 862.531 792.028 862.847C700.021 866.701 55.2269 857.298 19.2527 860.169L17.1768 9.21094Z" fill="#C9CBCC"/>
<path opacity="0.44" d="M17.1768 9.21094L1053.03 15.4926C1049.2 152.718 1058.53 369.066 1044.58 494.859C1041.92 518.849 1022.68 570.339 1017 590.991C1004.42 636.714 974.461 693.437 903.896 783.509C881.397 812.228 853.606 850.949 811.086 860.38C805.559 861.605 798.826 862.437 791.214 862.753C698.927 866.601 55.4606 857.176 19.4585 860.053L17.1768 9.21094Z" fill="#C8CACB"/>
<path opacity="0.45" d="M17.1768 9.21094L1052.78 15.5924C1048.95 151.598 1058.4 367.896 1044.33 493.529C1041.64 517.591 1022.11 569.551 1016.45 590.076C1003.85 635.672 973.722 692.345 902.503 783.398C880.21 811.896 852.876 850.872 810.244 860.308C804.755 861.522 798.031 862.348 790.391 862.664C697.824 866.501 55.6851 857.054 19.6455 859.942L17.1768 9.21094Z" fill="#C7C9CA"/>
<path opacity="0.46" d="M17.1768 9.21094L1052.52 15.6866C1048.7 150.473 1058.28 366.721 1044.08 492.192C1041.35 516.332 1021.54 568.758 1015.9 589.156C1003.29 634.63 972.993 691.242 901.119 783.287C879.041 811.563 852.156 850.794 809.421 860.236C803.979 861.439 797.255 862.26 789.587 862.576C696.739 866.407 55.9282 856.937 19.8606 859.831L17.1768 9.21094Z" fill="#C6C8C9"/>
<path opacity="0.46" d="M17.1768 9.21094L1052.27 15.7864C1048.45 149.358 1058.14 365.556 1043.83 490.862C1041.06 515.079 1020.97 567.971 1015.33 588.241C1002.72 633.587 972.245 690.15 899.716 783.177C877.844 811.236 851.417 850.711 808.57 860.169C803.165 861.362 796.451 862.177 788.764 862.493C695.635 866.318 56.1526 856.826 20.0569 859.72L17.1768 9.21094Z" fill="#C5C7C8"/>
<path opacity="0.47" d="M17.1768 9.21094L1052.02 15.8862C1048.2 148.238 1058.01 364.386 1043.58 489.526C1040.77 513.82 1020.4 567.178 1014.78 587.32C1002.16 632.545 971.506 689.046 898.323 783.06C876.656 810.898 850.688 850.628 807.738 860.092C802.37 861.273 795.665 862.082 787.951 862.398C694.541 866.213 56.3864 856.699 20.2533 859.604L17.1768 9.21094Z" fill="#C4C6C7"/>
<path opacity="0.48" d="M17.1768 9.21094L1051.77 15.9805C1047.94 147.113 1057.88 363.217 1043.32 488.189C1040.49 512.562 1019.83 566.385 1014.22 586.4C1001.58 631.497 970.758 687.943 896.92 782.944C875.459 810.56 849.959 850.545 806.887 860.014C801.566 861.184 794.861 861.988 787.118 862.299C693.429 866.107 56.6015 856.571 20.4403 859.482L17.1768 9.21094Z" fill="#C3C5C6"/>
<path opacity="0.49" d="M17.1768 9.21094L1051.51 16.0803C1047.69 145.999 1057.74 362.047 1043.08 486.859C1040.21 511.309 1019.27 565.593 1013.68 585.485C1001.03 630.46 970.028 686.851 895.546 782.838C874.29 810.232 849.248 850.473 806.073 859.948C800.79 861.107 794.094 861.905 786.333 862.215C692.363 866.019 56.8633 856.455 20.6648 859.377L17.1768 9.21094Z" fill="#C2C4C5"/>
<path opacity="0.5" d="M17.1768 9.21094L1051.25 16.1745C1047.42 144.873 1057.6 360.877 1042.82 485.523C1039.91 510.05 1018.69 564.8 1013.11 584.56C1000.45 629.407 969.261 685.742 894.134 782.716C873.075 809.894 848.5 850.384 805.213 859.87C799.967 861.018 793.281 861.811 785.491 862.121C691.24 865.913 57.069 856.333 20.8424 859.26L17.1768 9.21094Z" fill="#C1C3C4"/>
<path opacity="0.5" d="M17.1768 9.21094L1051 16.2743C1047.17 143.753 1057.47 359.707 1042.57 484.192C1039.62 508.797 1018.12 564.013 1012.56 583.645C999.877 628.37 968.523 684.644 892.74 782.606C871.887 809.562 847.77 850.301 804.381 859.798C799.181 860.935 792.495 861.722 784.678 862.032C690.146 865.819 57.3028 856.216 21.0388 859.149L17.1768 9.21094Z" fill="#C1C2C4"/>
<path opacity="0.51" d="M17.1768 9.21094L1050.75 16.3686C1046.91 142.633 1057.34 358.537 1042.31 482.85C1039.33 507.533 1017.55 563.214 1012 582.719C999.307 627.317 967.765 683.535 891.338 782.484C870.69 809.218 847.032 850.212 803.53 859.715C798.368 860.84 791.691 861.622 783.855 861.933C689.043 865.708 57.5273 856.083 21.2352 859.027L17.1768 9.21094Z" fill="#C0C1C3"/>
<path opacity="0.52" d="M17.1768 9.21094L1050.5 16.4684C1046.66 141.513 1057.2 357.367 1042.06 481.52C1039.04 506.275 1016.97 562.427 1011.44 581.804C998.746 626.28 967.017 682.438 889.954 782.378C869.512 808.891 846.312 850.14 802.707 859.648C797.592 860.763 790.915 861.539 783.051 861.849C687.958 865.62 57.7704 855.972 21.4503 858.922L17.1768 9.21094Z" fill="#BFC0C2"/>
<path opacity="0.53" d="M17.1768 9.21094L1050.24 16.5626C1046.41 140.388 1057.07 356.198 1041.82 480.184C1038.76 505.016 1016.41 561.634 1010.89 580.884C998.175 625.232 966.26 681.329 888.56 782.262C868.315 808.553 845.592 850.057 801.865 859.571C796.788 860.674 790.12 861.445 782.228 861.755C686.855 865.52 57.9948 855.851 21.6373 858.806L17.1768 9.21094Z" fill="#BEBFC1"/>
<path opacity="0.54" d="M17.1768 9.21094L1049.99 16.6624C1046.16 139.273 1056.93 355.028 1041.56 478.853C1038.47 503.763 1015.84 560.847 1010.34 579.969C997.614 624.195 965.511 680.231 887.167 782.151C867.127 808.22 844.862 849.979 801.033 859.504C795.993 860.596 789.335 861.362 781.414 861.667C685.761 865.42 58.2286 855.729 21.843 858.695L17.1768 9.21094Z" fill="#BDBEC0"/>
<path opacity="0.54" d="M17.1768 9.21094L1049.73 16.7622C1045.89 138.153 1056.79 353.858 1041.3 477.522C1038.17 502.51 1015.26 560.06 1009.77 579.054C997.025 623.153 964.735 679.133 885.755 782.04C865.921 807.887 844.114 849.902 800.173 859.432C795.179 860.513 788.53 861.273 780.582 861.578C684.648 865.326 58.4437 855.612 22.0207 858.578L17.1768 9.21094Z" fill="#BCBDBF"/>
<path opacity="0.55" d="M17.1768 9.21094L1049.48 16.8565C1045.63 137.028 1056.65 352.688 1041.05 476.181C1037.88 501.246 1014.69 559.261 1009.22 578.128C996.464 622.105 963.978 678.019 884.371 781.924C864.733 807.555 843.394 849.818 799.35 859.354C794.394 860.43 787.754 861.179 779.778 861.483C683.563 865.226 58.6868 855.485 22.2358 858.462L17.1768 9.21094Z" fill="#BBBCBE"/>
<path opacity="0.56" d="M17.1768 9.21094L1049.22 16.9562C1045.38 135.914 1056.52 351.518 1040.8 474.85C1037.59 499.993 1014.12 558.474 1008.66 577.213C995.884 621.063 963.211 676.916 882.968 781.813C863.536 807.222 842.665 849.741 798.499 859.282C793.58 860.347 786.95 861.09 778.945 861.395C682.45 865.126 58.9019 855.368 22.4228 858.351L17.1768 9.21094Z" fill="#BABBBD"/>
<path opacity="0.57" d="M17.1768 9.21094L1048.97 17.0505C1045.13 134.788 1056.38 350.348 1040.55 473.514C1037.31 498.735 1013.55 557.681 1008.12 576.293C995.333 620.021 962.454 675.812 881.584 781.696C862.349 806.884 841.945 849.658 797.676 859.21C792.804 860.264 786.174 861.001 778.151 861.306C681.375 865.032 59.1544 855.252 22.6379 858.24L17.1768 9.21094Z" fill="#B9BABC"/>
<path opacity="0.58" d="M17.1768 9.21094L1048.72 17.1503C1044.88 133.668 1056.24 349.179 1040.3 472.183C1037.02 497.482 1012.98 556.894 1007.55 575.378C994.753 618.978 961.677 674.709 880.182 781.585C861.143 806.551 841.206 849.58 796.825 859.138C791.99 860.181 785.37 860.907 777.318 861.217C680.262 864.932 59.3694 855.13 22.8249 858.129L17.1768 9.21094Z" fill="#B8B9BB"/>
<path opacity="0.58" d="M17.1768 9.21094L1048.47 17.2445C1044.62 132.548 1056.1 348.003 1040.05 470.847C1036.73 496.223 1012.41 556.101 1007 574.452C994.192 617.93 960.911 673.595 878.798 781.469C859.964 806.213 840.486 849.497 796.002 859.061C791.214 860.092 784.594 860.813 776.514 861.123C679.177 864.832 59.6126 855.008 23.0306 858.013L17.1768 9.21094Z" fill="#B7B8BA"/>
<path opacity="0.59" d="M17.1768 9.21094L1048.21 17.3443C1044.36 131.428 1055.96 346.839 1039.8 469.511C1036.44 494.959 1011.84 555.308 1006.44 573.532C993.612 616.882 960.135 672.486 877.395 781.353C858.758 805.875 839.756 849.414 795.151 858.983C790.401 860.003 783.789 860.718 775.691 861.023C678.074 864.727 59.837 854.88 23.227 857.891L17.1768 9.21094Z" fill="#B6B7B9"/>
<path opacity="0.6" d="M17.1768 9.21094L1047.95 17.4386C1044.1 130.303 1055.81 345.664 1039.54 468.175C1036.14 493.7 1011.26 554.515 1005.88 572.612C993.041 615.84 959.349 671.371 875.992 781.236C857.552 805.536 839.018 849.331 794.309 858.911C789.596 859.92 782.994 860.63 774.868 860.935C676.97 864.627 60.0614 854.758 23.4234 857.78L17.1768 9.21094Z" fill="#B5B6B8"/>
<path opacity="0.61" d="M17.1768 9.21094L1047.7 17.5384C1043.85 129.188 1055.67 344.499 1039.28 466.844C1035.85 492.447 1010.68 553.722 1005.32 571.697C992.462 614.798 958.573 670.268 874.59 781.125C856.355 805.204 838.279 849.258 793.459 858.839C788.792 859.837 782.19 860.541 774.036 860.846C675.858 864.533 60.2765 854.642 23.601 857.669L17.1768 9.21094Z" fill="#B4B5B7"/>
<path opacity="0.62" d="M17.1768 9.21094L1047.45 17.6382C1043.59 128.068 1055.53 343.329 1039.04 465.513C1035.57 491.194 1010.12 552.935 1004.78 570.782C991.91 613.761 957.797 669.159 873.215 781.02C855.177 804.877 837.578 849.186 792.645 858.772C788.016 859.759 781.424 860.458 773.251 860.763C674.792 864.444 60.5383 854.531 23.8348 857.558L17.1768 9.21094Z" fill="#B3B4B6"/>
<path opacity="0.62" d="M17.1768 9.21094L1047.19 17.7324C1043.34 126.943 1055.39 342.154 1038.79 464.177C1035.28 489.936 1009.55 552.142 1004.22 569.862C991.33 612.713 957.011 668.05 871.812 780.903C853.97 804.533 836.839 849.103 791.794 858.695C787.212 859.671 780.619 860.364 772.418 860.669C673.679 864.339 60.7534 854.404 24.0125 857.442L17.1768 9.21094Z" fill="#B2B3B5"/>
<path opacity="0.63" d="M17.1768 9.21094L1046.94 17.8322C1043.09 125.829 1055.25 340.99 1038.54 462.847C1034.99 488.683 1008.98 551.355 1003.66 568.947C990.75 611.671 956.216 666.941 870.41 780.793C852.764 804.2 836.1 849.026 790.952 858.628C786.408 859.593 779.824 860.28 771.595 860.585C672.575 864.25 60.9778 854.293 24.2089 857.336L17.1768 9.21094Z" fill="#B1B3B4"/>
<path opacity="0.64" d="M17.1768 9.21094L1046.69 17.9265C1042.84 124.703 1055.11 339.814 1038.28 461.505C1034.7 487.419 1008.4 550.557 1003.1 568.021C990.189 610.623 955.431 665.821 869.016 780.671C851.567 803.857 835.38 848.942 790.111 858.545C785.604 859.499 779.03 860.181 770.782 860.486C671.481 864.139 61.2116 854.16 24.4146 857.214L17.1768 9.21094Z" fill="#B0B2B3"/>
<path opacity="0.65" d="M17.1768 9.21094L1046.44 18.0263C1042.58 123.583 1054.96 338.645 1038.03 460.174C1034.41 486.166 1007.83 549.769 1002.54 567.106C989.61 609.581 954.627 664.713 867.623 780.56C850.379 803.524 834.651 848.865 789.279 858.473C784.818 859.416 778.244 860.092 769.968 860.391C670.387 864.039 61.4454 854.038 24.611 857.098L17.1768 9.21094Z" fill="#AFB1B3"/>
<path opacity="0.66" d="M17.1768 9.21094L1046.18 18.1205C1042.31 122.463 1054.81 337.475 1037.78 458.838C1034.12 484.902 1007.26 548.977 1001.99 566.186C989.039 608.538 953.832 663.598 866.23 780.449C849.182 803.191 833.921 848.787 788.437 858.401C784.014 859.338 777.449 860.003 769.145 860.303C669.284 863.945 61.6698 853.921 24.8073 856.987L17.1768 9.21094Z" fill="#AEB0B2"/>
<path opacity="0.66" d="M17.1768 9.21094L1045.92 18.2203C1042.06 121.343 1054.67 336.305 1037.53 457.508C1033.83 483.649 1006.68 548.189 1001.43 565.271C988.459 607.496 953.028 662.489 864.827 780.338C847.976 802.859 833.192 848.715 787.595 858.334C783.219 859.26 776.654 859.92 768.332 860.219C668.19 863.851 61.8943 853.805 25.0037 856.882L17.1768 9.21094Z" fill="#ADAFB1"/>
<path opacity="0.67" d="M17.1768 9.21094L1045.67 18.3146C1041.81 120.218 1054.52 335.129 1037.27 456.171C1033.54 482.39 1006.11 547.396 1000.88 564.345C987.898 606.443 952.233 661.364 863.434 780.216C846.779 802.515 832.463 848.626 786.754 858.251C782.415 859.166 775.86 859.82 767.509 860.12C667.096 863.746 62.1187 853.677 25.2001 856.76L17.1768 9.21094Z" fill="#ACAEB0"/>
<path opacity="0.68" d="M17.1768 9.21094L1045.42 18.4144C1041.56 119.103 1054.38 333.965 1037.02 454.835C1033.24 481.132 1005.53 546.604 1000.32 563.425C987.319 605.4 951.419 660.244 862.04 780.1C845.582 802.177 831.742 848.549 785.922 858.174C781.62 859.077 775.074 859.726 766.695 860.025C666.002 863.64 62.3525 853.555 25.4058 856.643L17.1768 9.21094Z" fill="#ABADAF"/>
<path opacity="0.69" d="M17.1768 9.21094L1045.17 18.5142C1041.3 117.983 1054.23 332.795 1036.77 453.505C1032.95 479.879 1004.96 545.816 999.765 562.51C986.748 604.358 950.606 659.13 860.647 779.994C844.385 801.844 831.013 848.477 785.08 858.107C780.825 859 774.289 859.643 765.882 859.942C664.907 863.552 62.5863 853.439 25.6022 856.538L17.1768 9.21094Z" fill="#AAACAE"/>
<path opacity="0.7" d="M17.1768 9.21094L1044.91 18.6084C1041.04 116.858 1054.08 331.62 1036.52 452.168C1032.67 478.62 1004.39 545.018 999.213 561.59C986.178 603.316 949.801 658.01 859.254 779.878C843.188 801.506 830.284 848.399 784.247 858.035C780.03 858.917 773.503 859.554 765.068 859.854C663.813 863.457 62.82 853.322 25.8079 856.422L17.1768 9.21094Z" fill="#A9ABAD"/>
<path opacity="0.7" d="M17.1768 9.21094L1044.66 18.7082C1040.79 115.744 1053.94 330.456 1036.27 450.838C1032.38 477.367 1003.82 544.231 998.662 560.675C985.607 602.273 948.979 656.895 857.86 779.767C841.982 801.173 829.564 848.327 783.406 857.963C779.235 858.833 772.708 859.465 764.245 859.759C662.71 863.352 63.0445 853.195 25.995 856.305L17.1768 9.21094Z" fill="#A8AAAC"/>
<path opacity="0.71" d="M17.1768 9.21094L1044.4 18.8025C1040.53 114.618 1053.78 329.28 1036.01 449.502C1032.08 476.103 1003.23 543.438 998.091 559.755C985.018 601.231 948.146 655.775 856.458 779.65C840.776 800.835 828.825 848.244 782.564 857.885C778.431 858.745 771.913 859.371 763.432 859.665C661.616 863.252 63.2783 853.073 26.2007 856.189L17.1768 9.21094Z" fill="#A7A9AB"/>
<path opacity="0.72" d="M17.1768 9.21094L1044.15 18.9023C1040.27 113.498 1053.63 328.11 1035.76 448.166C1031.78 474.844 1002.66 542.645 997.539 558.834C984.448 600.183 947.323 654.65 855.064 779.54C839.579 800.502 828.105 848.172 781.723 857.813C777.627 858.661 771.119 859.282 762.609 859.576C660.512 863.158 63.5027 852.956 26.3877 856.078L17.1768 9.21094Z" fill="#A6A8AA"/>
<path opacity="0.73" d="M17.1768 9.21094L1043.89 18.9965C1040.02 112.373 1053.48 326.941 1035.51 446.829C1031.49 473.586 1002.08 541.852 996.978 557.914C983.868 599.135 946.482 653.53 853.662 779.423C838.372 800.159 827.366 848.094 780.881 857.741C776.832 858.584 770.324 859.194 761.786 859.488C659.409 863.058 63.7271 852.834 26.5841 855.967L17.1768 9.21094Z" fill="#A5A7A9"/>
<path opacity="0.74" d="M17.1768 9.21094L1043.64 19.0963C1039.77 111.258 1053.34 325.771 1035.26 445.499C1031.21 472.333 1001.52 541.065 996.436 556.999C983.307 598.099 945.659 652.41 852.278 779.312C837.185 799.826 826.655 848.022 780.049 857.669C776.037 858.501 769.538 859.105 760.982 859.399C658.324 862.964 63.9702 852.718 26.7992 855.856L17.1768 9.21094Z" fill="#A4A6A8"/>
<path opacity="0.74" d="M17.1768 9.21094L1043.39 19.1906C1039.51 110.133 1053.19 324.595 1035.01 444.163C1030.91 471.074 1000.95 540.272 995.875 556.079C982.727 597.051 944.817 651.279 850.884 779.196C835.978 799.488 825.926 847.945 779.217 857.591C775.252 858.412 768.753 859.011 760.168 859.305C657.23 862.859 64.204 852.596 26.9955 855.74L17.1768 9.21094Z" fill="#A3A5A7"/>
<path opacity="0.75" d="M17.1768 9.21094L1043.14 19.2904C1039.26 109.013 1053.04 323.426 1034.76 442.832C1030.62 469.821 1000.37 539.485 995.323 555.164C982.157 596.008 943.976 650.159 849.491 779.09C834.782 799.161 825.206 847.878 778.375 857.525C774.448 858.334 767.958 858.922 759.345 859.221C656.127 862.77 64.4284 852.48 27.1919 855.634L17.1768 9.21094Z" fill="#A2A4A6"/>
<path opacity="0.76" d="M17.1768 9.21094L1042.87 19.3902C1038.99 107.899 1052.88 322.261 1034.5 441.496C1030.32 468.563 999.793 538.692 994.753 554.244C981.568 594.966 943.106 649.034 848.079 778.974C833.566 798.822 824.467 847.8 777.524 857.453C773.634 858.251 767.154 858.833 758.522 859.127C655.023 862.67 64.6529 852.358 27.3789 855.518L17.1768 9.21094Z" fill="#A1A3A5"/>
<path opacity="0.77" d="M17.1768 9.21094L1042.62 19.4844C1038.74 106.773 1052.73 321.086 1034.24 440.16C1030.03 467.299 999.213 537.894 994.201 553.318C980.997 593.913 942.255 647.897 846.686 778.852C832.369 798.473 823.738 847.717 776.682 857.37C772.839 858.157 766.359 858.734 757.7 859.027C653.92 862.559 64.8773 852.225 27.5753 855.396L17.1768 9.21094Z" fill="#A0A2A4"/>
<path opacity="0.78" d="M17.1768 9.21094L1042.37 19.5842C1038.49 105.653 1052.58 319.916 1034 438.829C1029.75 466.046 998.652 537.106 993.649 552.403C980.427 592.87 941.404 646.771 845.302 778.741C831.172 798.141 823.027 847.645 775.86 857.298C772.054 858.074 765.583 858.645 756.895 858.939C652.835 862.465 65.1204 852.108 27.7904 855.279L17.1768 9.21094Z" fill="#9FA1A3"/>
<path opacity="0.78" d="M17.1768 9.21094L1042.12 19.6785C1038.24 104.533 1052.42 318.741 1033.75 437.493C1029.46 464.787 998.073 536.313 993.098 551.483C979.847 591.828 940.534 645.635 843.908 778.63C829.975 797.808 822.298 847.573 775.018 857.226C771.259 857.996 764.788 858.556 756.082 858.85C651.741 862.371 65.3542 851.992 27.9868 855.169L17.1768 9.21094Z" fill="#9EA0A2"/>
<path opacity="0.79" d="M17.1768 9.21094L1041.86 19.7783C1037.97 103.413 1052.27 317.576 1033.49 436.162C1029.16 463.534 997.502 535.526 992.537 550.568C979.267 590.786 939.655 644.509 842.506 778.519C828.769 797.475 821.568 847.501 774.176 857.159C770.455 857.919 763.993 858.473 755.259 858.767C650.637 862.276 65.5786 851.875 28.1831 855.063L17.1768 9.21094Z" fill="#9D9FA2"/>
<path opacity="0.8" d="M17.1768 9.21094L1041.61 19.8725C1037.72 102.288 1052.12 316.401 1033.24 434.821C1028.87 462.27 996.922 534.728 991.985 549.642C978.697 589.732 938.786 643.367 841.122 778.397C827.572 797.126 820.858 847.418 773.344 857.076C769.66 857.824 763.207 858.373 754.445 858.667C649.543 862.171 65.8124 851.748 28.3795 854.941L17.1768 9.21094Z" fill="#9C9EA1"/>
<path opacity="0.81" d="M17.1768 9.21094L1041.36 19.9723C1037.47 101.173 1051.97 315.231 1032.99 433.49C1028.58 461.017 996.352 533.941 991.424 548.727C978.117 588.695 937.897 642.236 839.719 778.287C826.365 796.793 820.128 847.351 772.502 857.004C768.865 857.741 762.412 858.284 753.632 858.578C648.449 862.071 66.0462 851.631 28.5852 854.83L17.1768 9.21094Z" fill="#9B9DA0"/>
<path opacity="0.82" d="M17.1768 9.21094L1041.1 20.0666C1037.21 100.048 1051.8 314.056 1032.74 432.154C1028.28 459.753 995.772 533.148 990.872 547.807C977.537 587.648 937.009 641.1 838.326 778.176C825.159 796.461 819.399 847.279 771.661 856.932C768.061 857.658 761.618 858.196 752.809 858.484C647.346 861.971 66.2706 851.504 28.7816 854.714L17.1768 9.21094Z" fill="#9A9C9F"/>
<path opacity="0.82" d="M17.1768 9.21094L1040.85 20.1664C1036.95 98.9279 1051.65 312.886 1032.48 430.823C1027.99 458.5 995.202 532.36 990.311 546.892C976.957 586.605 936.102 639.963 836.923 778.065C823.953 796.122 818.669 847.213 770.819 856.865C767.266 857.58 760.832 858.113 751.986 858.401C646.242 861.883 66.4951 851.393 28.9686 854.609L17.1768 9.21094Z" fill="#999B9E"/>
<path opacity="0.83" d="M17.1768 9.21094L1040.59 20.2662C1036.7 97.8135 1051.51 311.722 1032.23 429.492C1027.69 457.247 994.622 531.568 989.759 545.977C976.378 585.563 935.204 638.827 835.539 777.954C822.765 795.79 817.959 847.141 769.987 856.793C766.471 857.503 760.047 858.024 751.182 858.312C645.158 861.783 66.7382 851.271 29.1837 854.498L17.1768 9.21094Z" fill="#989A9D"/>
<path opacity="0.84" d="M17.1768 9.21094L1040.34 20.3604C1036.45 96.688 1051.35 310.546 1031.98 428.151C1027.4 455.983 994.051 530.769 989.198 545.051C975.798 584.515 934.288 637.679 834.136 777.832C821.55 795.446 817.229 847.063 769.145 856.71C765.676 857.408 759.252 857.924 750.359 858.212C644.054 861.678 66.9626 851.143 29.3707 854.376L17.1768 9.21094Z" fill="#97999C"/>
<path opacity="0.85" d="M17.1768 9.21094L1040.09 20.4602C1036.19 95.5681 1051.2 309.376 1031.73 426.82C1027.1 454.73 993.472 529.982 988.647 544.136C975.218 583.473 933.372 636.542 832.743 777.727C820.343 795.119 816.5 847.002 768.304 856.643C764.872 857.331 758.457 857.841 749.536 858.129C642.951 861.589 67.1871 851.033 29.5671 854.265L17.1768 9.21094Z" fill="#96989B"/>
<path opacity="0.86" d="M17.1768 9.21094L1039.84 20.5545C1035.94 94.4482 1051.04 308.201 1031.48 425.484C1026.81 453.466 992.901 529.189 988.085 543.211C974.638 582.419 932.446 635.389 831.34 777.605C819.137 794.77 815.771 846.924 767.462 856.566C764.068 857.242 757.662 857.747 748.722 858.035C641.857 861.484 67.4208 850.905 29.7728 854.148L17.1768 9.21094Z" fill="#95979A"/>
<path opacity="0.86" d="M17.1768 9.21094L1039.58 20.6543C1035.68 93.3282 1050.88 307.031 1031.23 424.153C1026.52 452.213 992.331 528.402 987.543 542.296C974.068 581.377 931.52 634.241 829.966 777.494C817.949 794.437 815.069 846.858 766.639 856.494C763.292 857.159 756.886 857.658 747.918 857.946C640.772 861.389 67.664 850.789 29.9786 854.038L17.1768 9.21094Z" fill="#949699"/>
<path opacity="0.87" d="M17.1768 9.21094L1039.32 20.7485C1035.42 92.2028 1050.72 305.856 1030.97 422.817C1026.22 450.954 991.742 527.609 986.972 541.375C973.469 580.335 930.566 633.094 828.554 777.377C816.734 794.099 814.33 846.786 765.788 856.416C762.478 857.07 756.082 857.564 747.086 857.846C639.659 861.278 67.879 850.661 30.1656 853.916L17.1768 9.21094Z" fill="#939598"/>
<path opacity="0.88" d="M17.1768 9.21094L1039.07 20.8483C1035.17 91.0884 1050.56 304.692 1030.72 421.481C1025.92 449.696 991.171 526.816 986.421 540.455C972.899 579.287 929.612 631.941 827.16 777.266C815.527 793.761 813.61 846.719 764.947 856.344C761.683 856.993 755.287 857.475 746.263 857.758C638.556 861.184 68.1035 850.539 30.3526 853.805L17.1768 9.21094Z" fill="#929597"/>
<path opacity="0.89" d="M17.1768 9.21094L1038.82 20.9426C1034.92 89.9629 1050.4 303.516 1030.47 420.145C1025.63 448.437 990.592 526.018 985.86 539.535C972.31 578.239 928.649 630.787 825.758 777.15C814.321 793.422 812.881 846.647 764.105 856.272C760.879 856.91 754.492 857.386 745.449 857.669C637.462 861.09 68.3373 850.423 30.5583 853.694L17.1768 9.21094Z" fill="#919496"/>
<path opacity="0.9" d="M17.1768 9.21094L1038.56 21.0424C1034.65 88.8429 1049.86 302.324 1030.21 418.814C1025.24 447.173 990.012 525.231 985.308 538.62C971.73 577.197 927.686 629.634 824.374 777.039C813.124 793.09 812.17 846.581 763.273 856.2C760.093 856.826 753.707 857.298 744.636 857.58C636.367 860.99 68.571 850.301 30.7641 853.583L17.1768 9.21094Z" fill="#909395"/>
<path opacity="0.9" d="M17.1768 9.21094L1038.31 21.1422C1034.4 87.7285 1049.73 301.154 1029.97 417.484C1024.96 445.92 989.451 524.443 984.756 537.705C971.15 576.154 926.704 628.481 822.98 776.928C811.918 792.757 811.45 846.52 762.441 856.128C759.299 856.743 752.921 857.209 743.822 857.492C635.273 860.896 68.8048 850.184 30.9604 853.472L17.1768 9.21094Z" fill="#8F9294"/>
<path opacity="0.91" d="M17.1768 9.21094L1038.06 21.2364C1034.15 86.6031 1049.6 299.979 1029.72 416.148C1024.67 444.662 988.871 523.65 984.205 536.785C970.571 575.112 925.722 627.322 821.587 776.817C810.721 792.419 810.73 846.453 761.599 856.056C758.494 856.66 752.126 857.12 743.009 857.403C634.189 860.802 69.0386 850.068 31.1662 853.361L17.1768 9.21094Z" fill="#8E9193"/>
<path opacity="0.92" d="M17.1768 9.21094L1037.8 21.3362C1033.89 85.4831 1049.47 298.815 1029.46 414.817C1024.37 443.409 988.282 522.863 983.634 535.87C969.972 574.07 924.703 626.164 820.175 776.706C809.496 792.086 809.991 846.392 760.748 855.989C757.69 856.588 751.322 857.031 742.176 857.32C633.076 860.707 69.2537 849.951 31.3438 853.256L17.1768 9.21094Z" fill="#8D9092"/>
<path opacity="0.93" d="M17.1768 9.21094L1037.54 21.4305C1033.64 84.3632 1049.34 297.639 1029.2 413.475C1024.09 442.144 987.711 522.059 983.083 534.944C969.392 573.016 923.693 624.988 818.791 776.584C808.299 791.742 809.281 846.32 759.916 855.906C756.895 856.494 750.536 856.932 741.363 857.214C631.982 860.596 69.4781 849.818 31.5496 853.123L17.1768 9.21094Z" fill="#8C8F91"/>
<path opacity="0.94" d="M17.1768 9.21094L1037.29 21.5303C1033.38 83.2432 1049.2 296.475 1028.95 412.145C1023.8 440.891 987.132 521.272 982.521 534.029C968.803 571.974 922.664 623.824 817.388 776.474C807.093 791.404 808.551 846.253 759.074 855.834C756.1 856.411 749.742 856.843 740.549 857.126C630.888 860.497 69.7119 849.702 31.746 853.012L17.1768 9.21094Z" fill="#8B8E91"/>
<path opacity="0.94" d="M17.1768 9.21094L1037.04 21.6245C1033.13 82.1178 1049.07 295.3 1028.71 410.808C1023.52 439.633 986.524 520.474 981.979 533.103C968.111 570.904 921.636 622.648 816.004 776.357C805.896 791.066 807.85 846.187 758.242 855.756C755.305 856.322 748.956 856.749 739.736 857.031C629.794 860.397 69.9457 849.574 31.9517 852.895L17.1768 9.21094Z" fill="#8A8D90"/>
<path opacity="0.95" d="M17.1768 9.21094L1036.79 21.7243C1032.87 81.0034 1048.94 294.13 1028.45 409.478C1023.23 438.38 985.953 519.686 981.418 532.189C967.541 569.867 920.579 621.479 814.602 776.246C804.68 790.733 807.121 846.131 757.4 855.69C754.511 856.244 748.161 856.666 738.913 856.948C628.69 860.308 70.1701 849.464 32.1481 852.79L17.1768 9.21094Z" fill="#898C8F"/>
<path opacity="0.96" d="M17.1768 9.21094L1036.53 21.8186C1032.62 79.8779 1048.81 292.96 1028.2 408.142C1022.94 437.116 985.383 518.893 980.866 531.268C966.97 568.819 919.522 620.298 813.218 776.13C803.483 790.395 806.41 846.065 756.568 855.612C753.716 856.161 747.376 856.571 738.109 856.854C627.605 860.203 70.4132 849.336 32.3538 852.674L17.1768 9.21094Z" fill="#888B8E"/>
<path opacity="0.97" d="M17.1768 9.21094L1036.28 21.9183C1032.36 78.758 1048.69 291.79 1027.95 406.805C1022.65 435.857 984.812 518.101 980.305 530.348C966.39 567.777 918.438 619.117 811.815 776.013C802.277 790.051 805.681 845.998 755.726 855.534C752.912 856.072 746.59 856.477 737.286 856.76C626.502 860.103 70.6377 849.214 32.5502 852.557L17.1768 9.21094Z" fill="#878A8D"/>
<path opacity="0.98" d="M17.1768 9.21094L1036.02 22.0181C1032.1 77.6436 1048.55 290.62 1027.69 405.475C1022.35 434.604 984.223 517.313 979.744 529.433C965.82 566.735 917.334 617.941 810.412 775.908C801.061 789.724 804.961 845.948 754.875 855.468C752.107 855.995 745.786 856.394 736.453 856.677C625.389 860.014 70.8527 849.103 32.7278 852.452L17.1768 9.21094Z" fill="#86898C"/>
<path opacity="0.98" d="M17.1768 9.21094L1035.77 22.1124C1031.85 76.5181 1048.42 289.45 1027.44 404.139C1022.07 433.346 983.662 516.521 979.192 528.513C965.25 565.687 916.231 616.755 809.019 775.792C799.855 789.386 804.268 845.926 754.043 855.396C751.313 855.917 745 856.305 735.649 856.588C624.304 859.914 71.0959 848.981 32.9429 852.341L17.1768 9.21094Z" fill="#85888B"/>
<path opacity="0.99" d="M17.1768 9.21094L1035.51 22.2122C1031.6 75.3981 1048.29 288.281 1027.19 402.808C1021.78 432.093 983.092 515.733 978.641 527.598C964.689 564.65 914.753 615.485 807.635 775.681C798.63 789.042 803.548 845.854 753.211 855.324C750.527 855.834 744.215 856.216 734.836 856.494C623.21 859.815 71.3296 848.859 33.1486 852.225L17.1768 9.21094Z" fill="#84878A"/>
<path d="M1035.26 22.3064C1031.33 74.2727 1048.16 287.111 1026.94 401.472C1021.49 430.834 982.521 514.94 978.079 526.678C964.109 563.602 913.958 614.371 806.232 775.564C797.442 788.71 802.81 845.771 752.369 855.246C718.237 861.661 74.7709 848.455 33.345 852.108L17.1768 9.21094L1035.26 22.3064Z" fill="#838689"/>
</g>
<path d="M1038.78 0V355.663C1038.78 383.008 1034.96 410.307 1027.13 437.252C1027.06 437.463 1027.01 437.674 1026.94 437.885C1012.26 507.809 962.006 601.739 914.521 666.479L790.337 831.271C790.122 831.559 789.897 831.848 789.673 832.136L789.645 832.175C786.026 836.643 780.798 842.032 773.794 844.755C771.101 845.802 770.288 846.9 767.866 847.704C767.782 847.732 767.707 847.754 767.632 847.782C764.415 848.841 761.367 849.711 758.253 850.443C758.215 850.449 758.187 850.46 758.15 850.465C749.837 852.417 741.121 853.404 727.964 854.557C725.477 854.779 722.83 855 719.997 855.239C712.75 855.849 705.016 856.159 696.712 856.159H0V0H1038.78Z" fill="url(#paint0_linear_1_5839)"/>
<path d="M1026.94 437.883C1012.26 507.807 962.005 601.737 914.52 666.478L793.552 826.507L789.672 832.14L789.643 832.178C786.025 836.647 780.797 842.036 773.793 844.758C771.1 845.806 770.286 846.904 767.864 847.708C767.78 847.736 767.705 847.758 767.631 847.786C764.451 848.795 761.328 849.676 758.251 850.447C758.214 850.452 758.186 850.463 758.149 850.469C744.701 853.812 732.152 854.954 719.958 855.248C719.968 855.248 719.977 855.243 719.986 855.243C722.745 855.037 725.401 854.81 727.953 854.561C819.203 845.612 785.912 806.808 759.841 789.632C733.041 771.968 696.692 749.713 696.692 749.713C920.28 668.657 999.316 532.318 1026.93 437.888L1026.94 437.883Z" fill="url(#paint1_linear_1_5839)"/>
<path d="M696.701 856.159C708.25 856.015 719.78 855.344 731.086 854.035C736.734 853.381 742.345 852.605 747.796 851.552C753.248 850.498 758.597 849.251 763.572 847.615L765.433 847L767.237 846.334C768.462 845.908 769.585 845.392 770.744 844.915C772.979 843.895 775.167 842.825 777.075 841.605C780.928 839.188 783.864 836.283 785.416 833.111C786.192 831.531 786.697 829.896 786.847 828.238C787.006 826.58 786.875 824.917 786.557 823.259C785.8 819.949 784.266 816.689 782.143 813.562C777.954 807.281 771.941 801.432 765.33 795.871C762.001 793.093 758.513 790.382 754.894 787.726L752.154 785.764L750.779 784.782C750.321 784.455 749.807 784.15 749.321 783.834L743.448 780.058L719.958 764.95C712.206 759.872 704.379 754.832 696.683 749.715C704.846 754.572 712.87 759.5 720.968 764.396L745.047 779.199L751.069 782.903C752.098 783.507 753.033 784.167 753.968 784.827L756.792 786.806C760.495 789.456 764.067 792.173 767.49 794.956C774.242 800.556 780.385 806.488 784.752 812.953C786.922 816.185 788.493 819.578 789.278 823.06C789.606 824.806 789.737 826.575 789.55 828.338C789.372 830.106 788.829 831.864 787.95 833.56C786.211 836.965 782.976 840.075 778.842 842.603C776.785 843.878 774.485 844.993 772.109 846.029C770.875 846.512 769.688 847.033 768.406 847.46L766.508 848.125L764.563 848.735C759.364 850.354 753.865 851.552 748.292 852.55C742.719 853.542 737.024 854.263 731.301 854.834C725.568 855.372 719.799 855.749 714.029 855.97C708.25 856.198 702.462 856.286 696.683 856.159H696.701Z" fill="url(#paint2_linear_1_5839)"/>
<path d="M872.674 656.05C886.346 645.388 898.615 634.128 910.248 622.668C921.862 611.197 932.69 599.448 942.752 587.478C952.777 575.497 962.212 563.344 970.825 550.981C979.447 538.623 987.161 526.048 994.203 513.352C1001.4 500.678 1007.46 487.787 1012.97 474.825L1016.92 465.073C1018.17 461.813 1019.25 458.53 1020.43 455.265L1022.17 450.358C1022.72 448.717 1023.18 447.07 1023.7 445.424L1026.75 435.561C1027.65 432.262 1028.47 428.952 1029.33 425.647L1030.6 420.691C1031.01 419.039 1031.3 417.375 1031.65 415.712L1033.68 405.749L1033.94 404.502L1034.12 403.254L1034.5 400.754L1035.25 395.758L1036.02 390.763C1036.14 389.931 1036.29 389.1 1036.4 388.263L1036.65 385.757L1037.65 375.738C1038.07 372.401 1038.12 369.052 1038.28 365.709L1038.76 355.668L1038.7 365.714C1038.65 369.063 1038.7 372.412 1038.39 375.76L1037.7 385.801L1037.54 388.312C1037.46 389.15 1037.34 389.981 1037.24 390.818L1036.62 395.83L1035.97 400.842L1035.65 403.348L1035.48 404.601L1035.25 405.849L1033.4 415.845C1033.08 417.508 1032.82 419.177 1032.44 420.841L1031.25 425.819C1030.45 429.135 1029.7 432.461 1028.86 435.777C1021.63 462.251 1010.93 488.392 996.84 513.879C989.686 526.603 981.878 539.199 973.153 551.568C964.4 563.932 955.002 576.14 944.651 588.061C934.327 599.986 923.274 611.696 911.398 623.1C905.394 628.777 899.232 634.394 892.826 639.916C886.411 645.432 879.772 650.86 872.665 656.061L872.674 656.05Z" fill="url(#paint3_linear_1_5839)"/>
<defs>
<linearGradient id="paint0_linear_1_5839" x1="856.478" y1="821.031" x2="569.368" y2="-131.095" gradientUnits="userSpaceOnUse">
<stop stop-color="white"/>
<stop offset="0.03" stop-color="white"/>
<stop offset="0.21" stop-color="white"/>
<stop offset="0.35" stop-color="white"/>
<stop offset="0.77" stop-color="white"/>
<stop offset="1" stop-color="white"/>
</linearGradient>
<linearGradient id="paint1_linear_1_5839" x1="963.679" y1="673.452" x2="847.176" y2="574.685" gradientUnits="userSpaceOnUse">
<stop offset="0.09" stop-color="#E9E9E7"/>
<stop offset="0.15" stop-color="#E0E0DF"/>
<stop offset="0.25" stop-color="#CACAC9"/>
<stop offset="0.36" stop-color="#A7A7A6"/>
<stop offset="0.37" stop-color="#A4A4A4"/>
<stop offset="0.53" stop-color="#A9A9A9"/>
<stop offset="1" stop-color="#F8F8F8"/>
</linearGradient>
<linearGradient id="paint2_linear_1_5839" x1="695.682" y1="802.962" x2="789.708" y2="802.962" gradientUnits="userSpaceOnUse">
<stop stop-color="white"/>
<stop offset="1" stop-color="#ACACAC"/>
</linearGradient>
<linearGradient id="paint3_linear_1_5839" x1="871.59" y1="505.856" x2="1040.18" y2="505.856" gradientUnits="userSpaceOnUse">
<stop stop-color="#EAEAEA"/>
<stop offset="0.35" stop-color="white"/>
<stop offset="0.77" stop-color="white"/>
<stop offset="1" stop-color="#F8F8F8"/>
</linearGradient>
</defs>
</svg>
