<svg width="117" height="117" viewBox="0 0 117 117" fill="none" xmlns="http://www.w3.org/2000/svg">
<path d="M0 56.16C0 29.6858 -1.52588e-05 16.4489 8.22443 8.22444C16.4489 0 29.6858 0 56.16 0H60.84C87.3142 0 100.551 0 108.776 8.22444C117 16.4489 117 29.6858 117 56.16V60.84C117 87.3142 117 100.551 108.776 108.776C100.551 117 87.3142 117 60.84 117H56.16C29.6858 117 16.4489 117 8.22443 108.776C-1.52588e-05 100.551 0 87.3142 0 60.84V56.16Z" fill="url(#paint0_linear_52_1818)"/>
<g clip-path="url(#clip0_52_1818)">
<path d="M58.5001 28C39.0173 28 23.2236 41.5901 23.2236 58.3537C23.2236 66.9912 27.4164 74.7858 34.1466 80.313C34.0605 82.9486 33.1408 85.5571 31.5324 87.6491C34.6506 87.5249 37.7051 86.282 40.0537 84.2314C45.421 87.0702 51.7388 88.7074 58.5006 88.7074C77.9834 88.7074 93.7775 75.1173 93.7775 58.3537C93.7775 41.5901 77.9829 28 58.5001 28ZM80.4255 73.0621C79.1254 74.4947 77.2729 75.3 75.3386 75.3H41.6616C39.7273 75.3 37.8748 74.4947 36.5747 73.0621C32.8934 69.0051 30.6996 63.8996 30.6996 58.3532C30.6996 52.8069 32.893 47.7018 36.5743 43.6449C37.8743 42.2118 39.7268 41.4064 41.6616 41.4064H75.3381C77.2966 41.4064 79.1593 42.2411 80.4711 43.6946C84.1254 47.7432 86.3006 52.8297 86.3006 58.3528C86.3006 63.8758 84.1068 69.0046 80.4255 73.0616V73.0621Z" fill="black"/>
<path d="M21.5435 58.3535C21.5435 62.517 22.4461 66.5545 24.2288 70.3692C19.466 68.8027 16 65.7026 16 58.3535C16 51.382 19.466 47.904 24.2293 46.3379C22.447 50.1545 21.5435 54.1938 21.5435 58.3535Z" fill="black"/>
<path d="M20.1142 37.3269V46.4266C18.8783 47.2245 17.8325 48.1866 16.9872 49.3067C16.9797 49.317 16.9718 49.3263 16.9648 49.3365V37.3269C16.9648 36.4574 17.6698 35.7524 18.5393 35.7524C19.4088 35.7524 20.1142 36.4574 20.1142 37.3269Z" fill="black"/>
<path d="M95.4563 58.3535C95.4563 62.517 94.5537 66.5545 92.771 70.3692C97.5338 68.8031 101 65.7031 101 58.3535C101 51.382 97.5338 47.904 92.7705 46.3379C94.5528 50.1545 95.4563 54.1938 95.4563 58.3535Z" fill="black"/>
<path d="M96.8857 37.3269V46.4266C98.1217 47.2245 99.1674 48.1866 100.013 49.3067C100.02 49.317 100.028 49.3263 100.035 49.3365V37.3269C100.035 36.4574 99.3302 35.7524 98.4606 35.7524C97.5911 35.7524 96.8857 36.4574 96.8857 37.3269Z" fill="black"/>
<path d="M51.003 57.4119C49.9782 58.9896 48.4995 57.4119 45.4102 57.4119C42.3208 57.4119 40.8426 58.9896 39.8178 57.4119C38.826 55.8845 41.5624 52.1167 45.4102 52.1167C49.2579 52.1167 51.9943 55.8849 51.003 57.4119Z" fill="black"/>
<path d="M77.1817 57.4119C76.1569 58.9896 74.6782 57.4119 71.5889 57.4119C68.4995 57.4119 67.0213 58.9896 65.9965 57.4119C65.0047 55.8845 67.7411 52.1167 71.5889 52.1167C75.4366 52.1167 78.1731 55.8849 77.1817 57.4119Z" fill="black"/>
<path d="M58.4996 64.5897C56.3435 64.5897 54.9211 62.88 54.8616 62.8074C54.5393 62.4131 54.5974 61.8319 54.9917 61.5096C55.3861 61.1874 55.9673 61.2455 56.2895 61.6398C56.2956 61.6468 57.2302 62.7451 58.4996 62.7451C59.769 62.7451 60.7036 61.6468 60.7129 61.6357C61.0351 61.2414 61.6145 61.1851 62.0088 61.5073C62.4031 61.8296 62.4599 62.4126 62.1372 62.807C62.0776 62.88 60.6553 64.5892 58.4991 64.5892L58.4996 64.5897Z" fill="black"/>
</g>
<defs>
<linearGradient id="paint0_linear_52_1818" x1="58.5" y1="0" x2="58.5" y2="117" gradientUnits="userSpaceOnUse">
<stop stop-color="white"/>
<stop offset="0.765625" stop-color="white"/>
</linearGradient>
<clipPath id="clip0_52_1818">
<rect width="85" height="60.7069" fill="white" transform="translate(16 28)"/>
</clipPath>
</defs>
</svg>
