<svg width="357" height="358" viewBox="0 0 357 358" fill="none" xmlns="http://www.w3.org/2000/svg">
<path d="M52.1368 181.763C-17.3789 221.896 -17.3789 286.972 52.1368 327.112C121.661 367.245 234.372 367.245 303.888 327.112C373.404 286.98 373.404 221.904 303.888 181.763C234.364 141.631 121.653 141.631 52.1368 181.763Z" fill="#A3052D" fill-opacity="0.11"/>
<path d="M336.927 101.953L335.686 102.669L304.727 84.7669L305.969 84.0508L336.927 101.953Z" fill="#6B6B6B"/>
<path d="M305.969 84.0523L335.687 101.238L335.711 75.4672L305.993 58.2812L305.969 84.0523Z" fill="#FAFAFA"/>
<path d="M303.495 85.4775L336.928 104.812L336.952 74.7522L303.519 55.418L303.495 85.4775ZM304.752 57.5662L335.711 75.4683L335.687 102.671L304.729 84.7694L304.752 57.5662Z" fill="#6B6B6B"/>
<path d="M304.727 84.7657L305.969 84.0496L305.992 58.2786L304.751 57.5625L304.727 84.7657Z" fill="#6B6B6B"/>
<path d="M303.519 55.4153L304.753 54.6992L338.186 74.0414L336.952 74.7575L303.519 55.4153Z" fill="#6B6B6B"/>
<path d="M338.185 74.0391L336.952 74.7551L336.928 104.815L338.161 104.099L338.185 74.0391Z" fill="#6B6B6B"/>
<path d="M327.866 90.0329C329.02 90.7013 329.959 92.3244 329.951 93.6531C329.951 94.9898 329.012 95.5229 327.858 94.8625C326.705 94.1942 325.766 92.571 325.774 91.2423C325.774 89.9056 326.713 89.3725 327.866 90.0329Z" fill="#6B6B6B"/>
<path opacity="0.2" d="M312.51 65.2589L328.248 74.3532C328.685 74.6078 329.043 75.2204 329.035 75.7296V75.7774C329.035 76.2866 328.677 76.4855 328.24 76.2388L312.502 67.1525C312.064 66.8979 311.706 66.2853 311.714 65.7761V65.7204C311.714 65.2112 312.072 65.0122 312.51 65.2669V65.2589Z" fill="black"/>
<g opacity="0.2">
<path d="M310.012 69.5407L330.722 81.5231C331.16 81.7777 331.518 82.3029 331.518 82.7007C331.518 83.0985 331.16 83.2099 330.722 82.9553L309.996 70.9649C309.558 70.7103 309.208 70.1851 309.208 69.7953C309.208 69.4054 309.574 69.2861 310.012 69.5407Z" fill="black"/>
<path d="M310.012 72.4L330.723 84.3825C331.16 84.6371 331.518 85.1622 331.518 85.5601C331.518 85.9579 331.16 86.0693 330.723 85.8147L309.996 73.8242C309.558 73.5696 309.208 73.0445 309.208 72.6546C309.208 72.2648 309.574 72.1454 310.012 72.4Z" fill="black"/>
<path d="M310.004 75.2516L330.715 87.2341C331.152 87.4887 331.51 88.0138 331.51 88.4116C331.51 88.8094 331.152 88.9208 330.715 88.6662L309.988 76.6758C309.551 76.4212 309.2 75.8961 309.2 75.5062C309.2 75.1163 309.566 74.997 310.004 75.2516Z" fill="black"/>
</g>
<path opacity="0.3" d="M324.149 91.8575C323.982 91.754 323.815 91.6108 323.632 91.396C323.187 90.8947 323.234 90.481 323.242 90.1866C323.242 90.0513 323.051 89.6137 322.948 89.6774C322.677 89.8524 322.335 89.9081 322.049 90.0434C321.874 90.1309 321.54 90.3935 321.11 89.8047C320.935 89.558 320.871 89.3034 320.871 89.0647C321.07 88.8977 321.197 88.6112 321.15 88.0941C321.134 87.9429 320.903 87.5132 320.839 87.6167C320.736 87.7678 320.593 88.0781 320.569 88.4919C320.378 88.6351 320.131 88.6749 319.901 88.7147C319.757 88.7385 319.63 88.8101 319.471 88.8022C319.431 88.8022 319.36 88.826 319.296 88.7624C319.153 88.6192 319.169 88.5476 319.145 88.4282C319.121 88.2771 319.177 88.1657 319.216 88.0861C319.216 88.0781 319.216 88.0702 319.224 88.0622C319.224 88.0622 319.224 88.0543 319.224 88.0463C319.224 87.9031 319.049 87.4894 318.97 87.5769C318.683 87.927 318.301 88.3009 317.752 88.1975C317.728 88.1975 317.697 88.1816 317.673 88.1736C317.673 88.0861 317.649 87.9827 317.641 87.8872C317.625 87.6724 317.609 87.4734 317.545 87.2109C317.514 87.0836 317.355 86.7574 317.267 86.7812C316.829 86.9085 316.479 87.2586 315.891 87.0915C315.851 87.0836 315.612 86.9722 315.604 86.9563C315.509 86.7971 315.66 86.463 315.676 86.4073C315.731 86.2481 315.803 86.1129 315.883 85.9776C315.954 85.8901 316.018 85.7787 316.05 85.6196C316.074 85.4843 315.787 84.8796 315.731 85.0467C315.707 85.1183 315.628 85.2456 315.54 85.4286C315.262 85.723 314.761 85.9379 314.379 86.0572C313.933 86.1925 313.472 86.1925 312.764 85.7469C312.581 85.6355 312.238 85.3809 312.032 84.999C311.865 84.6887 311.849 84.3943 311.841 84.1954C311.817 83.6941 311.92 83.3122 312.032 82.986C312.676 83.4077 313.273 83.6464 313.83 83.7976C314.323 83.9328 314.864 84.0681 315.19 83.8612C315.373 83.7419 315.485 83.3202 315.039 82.62C314.729 82.1346 314.331 81.888 314.068 81.7368C313.71 81.522 313.368 81.3947 313.082 81.3629C312.493 81.2992 312.095 81.6652 311.849 82.1983C311.809 82.2779 311.761 82.3893 311.705 82.5245C311.021 82.063 310.265 81.3629 309.43 80.2728C309.39 80.2171 309.366 80.2967 309.414 80.3524C310.226 81.4583 310.957 82.1983 311.642 82.7155C311.443 83.352 311.331 84.3625 312.135 85.5241C312.994 86.7574 313.917 86.7971 314.347 86.7176C314.681 86.6539 314.96 86.5346 315.214 86.3198C315.23 86.3038 315.262 86.3038 315.286 86.3038C315.262 86.6778 315.365 87.0915 315.755 87.4814C316.169 87.8872 316.519 87.7281 316.734 87.6803C316.941 87.6326 317.132 87.5451 317.323 87.4655C317.354 87.8713 317.426 88.3566 317.768 88.6828C318.102 89.0011 318.397 88.7385 318.564 88.6828C318.707 88.6351 318.842 88.5794 318.954 88.4919C318.978 88.5555 319.001 88.6271 319.033 88.6987C319.32 89.3432 319.662 89.4069 319.845 89.375C320.107 89.3353 320.402 89.3114 320.656 89.208C320.72 89.4546 320.831 89.7092 320.999 89.9877C321.444 90.7038 321.858 90.8231 322.112 90.7913C322.431 90.7515 322.693 90.5844 322.948 90.4173C322.988 90.6242 323.067 90.8629 323.25 91.1971C323.576 91.7699 323.982 92.1678 324.293 92.3349C324.428 92.4065 324.293 91.9609 324.149 91.8654V91.8575ZM314.458 82.3813C314.665 82.5166 315.095 82.8348 315.119 83.2088C315.135 83.4236 314.944 83.4634 314.84 83.4873C314.506 83.5827 314.068 83.4873 313.639 83.3759C313.161 83.2565 312.66 83.0815 312.127 82.7791C312.509 81.9278 313.233 81.5777 314.466 82.3733L314.458 82.3813Z" fill="black"/>
<path d="M336.928 148.234L335.687 148.95L304.728 131.048L305.969 130.332L336.928 148.234Z" fill="#6B6B6B"/>
<path d="M305.969 130.334L335.687 147.52L335.711 121.749L305.993 104.562L305.969 130.334Z" fill="#FAFAFA"/>
<path d="M303.495 131.759L336.928 151.093L336.952 121.033L303.519 101.699L303.495 131.759ZM304.752 103.847L335.711 121.75L335.687 148.953L304.728 131.051L304.752 103.847Z" fill="#6B6B6B"/>
<path d="M304.728 131.047L305.969 130.331L305.993 104.56L304.752 103.844L304.728 131.047Z" fill="#6B6B6B"/>
<path d="M303.52 101.697L304.753 100.98L338.186 120.323L336.953 121.039L303.52 101.697Z" fill="#6B6B6B"/>
<path d="M338.185 120.32L336.952 121.036L336.928 151.096L338.161 150.38L338.185 120.32Z" fill="#6B6B6B"/>
<path d="M327.866 136.314C329.02 136.983 329.959 138.606 329.951 139.934C329.943 141.263 329.012 141.804 327.858 141.144C326.704 140.475 325.766 138.852 325.773 137.524C325.773 136.187 326.712 135.654 327.866 136.314Z" fill="#6B6B6B"/>
<path opacity="0.2" d="M312.511 111.539L328.249 120.633C328.686 120.888 329.044 121.501 329.036 122.01V122.058C329.036 122.567 328.678 122.766 328.241 122.519L312.503 113.433C312.065 113.178 311.707 112.565 311.715 112.056V112.001C311.715 111.491 312.073 111.292 312.511 111.539Z" fill="black"/>
<g opacity="0.2">
<path d="M310.012 115.822L330.722 127.804C331.16 128.059 331.518 128.584 331.518 128.982C331.518 129.38 331.16 129.491 330.722 129.237L309.996 117.246C309.558 116.992 309.208 116.466 309.208 116.077C309.208 115.687 309.574 115.567 310.012 115.822Z" fill="black"/>
<path d="M310.012 118.681L330.723 130.664C331.16 130.918 331.518 131.443 331.518 131.841C331.518 132.239 331.16 132.351 330.723 132.096L309.996 120.105C309.558 119.851 309.208 119.326 309.208 118.936C309.208 118.546 309.574 118.427 310.012 118.681Z" fill="black"/>
<path d="M310.004 121.533L330.715 133.515C331.152 133.77 331.51 134.295 331.51 134.693C331.51 135.091 331.152 135.202 330.715 134.947L309.988 122.957C309.551 122.702 309.2 122.177 309.2 121.787C309.2 121.398 309.566 121.278 310.004 121.533Z" fill="black"/>
</g>
<path opacity="0.3" d="M324.151 138.139C323.983 138.035 323.816 137.892 323.633 137.677C323.188 137.176 323.236 136.762 323.244 136.468C323.244 136.333 323.053 135.895 322.949 135.959C322.679 136.134 322.336 136.189 322.05 136.325C321.875 136.412 321.541 136.675 321.111 136.086C320.936 135.839 320.872 135.585 320.872 135.346C321.071 135.179 321.199 134.892 321.151 134.375C321.135 134.224 320.904 133.794 320.841 133.898C320.737 134.049 320.594 134.359 320.57 134.773C320.379 134.916 320.133 134.956 319.902 134.996C319.759 135.02 319.631 135.091 319.472 135.083C319.432 135.083 319.361 135.107 319.297 135.044C319.154 134.9 319.17 134.829 319.146 134.709C319.122 134.558 319.178 134.447 319.218 134.367C319.218 134.359 319.218 134.351 319.225 134.343C319.225 134.343 319.225 134.336 319.225 134.328C319.225 134.184 319.05 133.771 318.971 133.858C318.684 134.208 318.303 134.582 317.754 134.479C317.73 134.479 317.698 134.463 317.674 134.455C317.674 134.367 317.65 134.264 317.642 134.168C317.626 133.954 317.61 133.755 317.547 133.492C317.515 133.365 317.356 133.039 317.268 133.062C316.831 133.19 316.481 133.54 315.892 133.373C315.852 133.365 315.613 133.253 315.605 133.238C315.51 133.078 315.661 132.744 315.677 132.689C315.733 132.529 315.804 132.394 315.884 132.259C315.955 132.171 316.019 132.06 316.051 131.901C316.075 131.766 315.788 131.161 315.733 131.328C315.709 131.4 315.629 131.527 315.542 131.71C315.263 132.004 314.762 132.219 314.38 132.338C313.934 132.474 313.473 132.474 312.765 132.028C312.582 131.917 312.24 131.662 312.033 131.28C311.866 130.97 311.85 130.676 311.842 130.477C311.818 129.975 311.921 129.593 312.033 129.267C312.677 129.689 313.274 129.928 313.831 130.079C314.324 130.214 314.865 130.349 315.192 130.142C315.375 130.023 315.486 129.601 315.04 128.901C314.73 128.416 314.332 128.169 314.07 128.018C313.712 127.803 313.37 127.676 313.083 127.644C312.494 127.58 312.096 127.946 311.85 128.48C311.81 128.559 311.762 128.671 311.707 128.806C311.022 128.344 310.266 127.644 309.431 126.554C309.391 126.498 309.367 126.578 309.415 126.634C310.227 127.74 310.959 128.48 311.643 128.997C311.444 129.633 311.333 130.644 312.136 131.805C312.996 133.039 313.919 133.078 314.348 132.999C314.682 132.935 314.961 132.816 315.215 132.601C315.231 132.585 315.263 132.585 315.287 132.585C315.263 132.959 315.367 133.373 315.756 133.763C316.17 134.168 316.52 134.009 316.735 133.962C316.942 133.914 317.133 133.826 317.324 133.747C317.356 134.153 317.427 134.638 317.769 134.964C318.104 135.282 318.398 135.02 318.565 134.964C318.708 134.916 318.844 134.861 318.955 134.773C318.979 134.837 319.003 134.908 319.035 134.98C319.321 135.624 319.663 135.688 319.846 135.656C320.109 135.617 320.403 135.593 320.658 135.489C320.721 135.736 320.833 135.99 321 136.269C321.445 136.985 321.859 137.104 322.114 137.073C322.432 137.033 322.695 136.866 322.949 136.699C322.989 136.905 323.068 137.144 323.251 137.478C323.578 138.051 323.983 138.449 324.294 138.616C324.429 138.688 324.294 138.242 324.151 138.147V138.139ZM314.46 128.671C314.666 128.806 315.096 129.124 315.12 129.498C315.136 129.713 314.945 129.753 314.841 129.776C314.507 129.872 314.07 129.776 313.64 129.665C313.163 129.546 312.661 129.371 312.128 129.068C312.51 128.217 313.234 127.867 314.468 128.663L314.46 128.671Z" fill="black"/>
<path d="M64.0062 267.464L49.223 276.001C49.4219 270.726 49.8834 262.873 49.1514 257.598C44.6878 225.286 32.1007 214.633 26.1095 198.903C19.8079 182.337 27.4939 177.006 37.4793 179.99C46.3826 182.647 59.2721 195.823 63.3299 219.94C66.0271 235.98 65.5497 253.404 64.0062 267.472V267.464Z" fill="#F11A1A" fill-opacity="0.36"/>
<path opacity="0.65" d="M64.0062 267.464L49.223 276.001C49.4219 270.726 49.8834 262.873 49.1514 257.598C44.6878 225.286 32.1007 214.633 26.1095 198.903C19.8079 182.337 27.4939 177.006 37.4793 179.99C46.3826 182.647 59.2721 195.823 63.3299 219.94C66.0271 235.98 65.5497 253.404 64.0062 267.472V267.464Z" fill="white"/>
<path d="M56.1687 271.991L54.6888 272.843C59.9798 235.169 47.0983 202.5 34.3839 189.005C34.1372 188.751 34.1531 188.337 34.4077 188.09C34.6782 187.844 35.084 187.86 35.3307 188.114C48.0372 201.616 60.9108 234.509 56.1767 271.991H56.1687Z" fill="white"/>
<path d="M53.3773 273.6L45.0549 278.406C40.6311 265.381 36.0879 260.17 30.4468 251.601C25.3069 243.803 19.3316 238.974 16.1569 233.5C13.3483 228.646 11.2319 222.551 15.409 218.868C22.0606 212.996 30.7332 219.21 36.7085 225.925C41.8643 231.733 52.2396 247.177 53.3773 273.608V273.6Z" fill="#F11A1A" fill-opacity="0.36"/>
<path opacity="0.3" d="M53.3773 273.6L45.0549 278.406C40.6311 265.381 36.0879 260.17 30.4468 251.601C25.3069 243.803 19.3316 238.974 16.1569 233.5C13.3483 228.646 11.2319 222.551 15.409 218.868C22.0606 212.996 30.7332 219.21 36.7085 225.925C41.8643 231.733 52.2396 247.177 53.3773 273.608V273.6Z" fill="white"/>
<path d="M49.9639 275.575L48.7545 276.283C45.2616 255.683 31.2741 231.854 22.5776 226.22C22.2753 226.022 22.1798 225.608 22.3867 225.298C22.5856 224.987 22.9914 224.9 23.3017 225.099C32.3005 230.939 46.2641 254.657 49.9718 275.567L49.9639 275.575Z" fill="white"/>
<path d="M344.306 236.778L335.514 241.854C333.509 243.016 330.255 243.016 328.25 241.854L266.277 206.074C264.272 204.912 264.272 203.043 266.277 201.881L275.069 196.805C277.074 195.643 280.328 195.643 282.333 196.805L344.306 232.585C346.311 233.747 346.311 235.617 344.306 236.778Z" fill="#E0E0E0"/>
<path d="M341.496 182.305L341.656 229.264C341.656 231.54 340.056 232.861 338.091 234.03L333.158 236.903C331.797 237.698 331.034 237.969 329.307 237.674C328.551 237.555 327.27 236.942 326.666 236.6C326.626 236.592 326.594 236.568 326.562 236.552L326.292 236.401L275.712 207.432C272.02 205.315 269.729 201.385 269.713 197.128L269.57 154.362C269.57 153.391 270.246 152.198 271.097 151.705L279.507 146.819C280.343 146.326 281.719 146.318 282.563 146.811L339.937 179.68C340.367 179.91 340.748 180.34 341.027 180.817C341.305 181.295 341.48 181.844 341.48 182.321L341.496 182.305Z" fill="#37474F"/>
<path d="M341.497 182.305L341.656 229.264C341.656 231.539 340.057 232.86 338.092 234.03L333.159 236.902C331.798 237.698 331.034 237.968 329.308 237.674C328.552 237.554 327.271 236.942 326.666 236.6V236.576C328.639 237.491 330.183 236.464 330.175 234.133L330.024 189.887C330.024 189.147 329.761 188.328 329.339 187.604L341.035 180.793C341.314 181.27 341.489 181.819 341.489 182.297L341.497 182.305Z" fill="#263238"/>
<path d="M330.033 189.897C330.033 188.426 328.982 186.619 327.701 185.895L273.478 154.833C271.338 153.608 269.587 154.618 269.595 157.093L269.731 197.13C269.746 201.387 272.03 205.317 275.73 207.434L326.309 236.411C328.449 237.636 330.2 236.626 330.192 234.151L330.041 189.905L330.033 189.897Z" fill="#455A64"/>
<path d="M276.795 148.395L334.272 181.645C335.919 182.6 336.945 184.366 336.953 186.268L337.121 234.603L336.245 235.112L336.078 186.275C336.078 184.684 335.211 183.204 333.835 182.401L275.927 148.896L276.795 148.387V148.395Z" fill="#0E0B0F"/>
<path opacity="0.2" d="M336.222 183.602C336.683 184.397 336.946 185.32 336.946 186.267L337.113 234.603L336.238 235.112L336.071 186.275C336.071 185.479 335.856 184.715 335.466 184.047L336.222 183.61V183.602Z" fill="#AD5858" fill-opacity="0.99"/>
<path opacity="0.2" d="M335.466 184.048C335.076 183.379 334.519 182.806 333.827 182.408L275.92 148.904L276.787 148.395L334.265 181.645C335.084 182.122 335.752 182.798 336.222 183.602" fill="#AD5858" fill-opacity="0.99"/>
<path d="M297.188 154.33L297.212 161.602L294.371 163.257L294.34 153.598C294.34 153.097 294.682 152.898 295.119 153.145L297.188 154.33Z" fill="#A3052D"/>
<path opacity="0.4" d="M297.188 154.33L297.212 161.602L294.371 163.257L294.34 153.598C294.34 153.097 294.682 152.898 295.119 153.145L297.188 154.33Z" fill="black"/>
<path d="M317.207 161.443L317.246 173.219L314.533 174.802L312.703 173.752L312.671 164.093C312.671 163.6 312.313 162.995 311.892 162.748L298.008 154.8L295.127 153.145C294.698 152.898 294.348 153.097 294.348 153.598L294.379 163.257L292.541 162.207L292.502 150.44C292.502 150.392 292.502 150.336 292.518 150.288C292.573 149.827 292.9 149.31 293.281 149.087L294.435 148.411C294.865 148.164 295.557 148.156 295.995 148.411L316.419 160.107C316.849 160.361 317.199 160.958 317.199 161.451L317.207 161.443Z" fill="#A3052D"/>
<path opacity="0.2" d="M314.493 163.026L314.533 174.801L312.703 173.751L312.671 164.092C312.671 163.598 312.313 162.994 311.892 162.747L298.008 154.799L295.127 153.144C294.698 152.897 294.348 153.096 294.348 153.597L294.379 163.256L292.541 162.206L292.502 150.438C292.502 150.391 292.502 150.335 292.518 150.287C292.581 149.905 292.9 149.77 293.289 149.985L313.714 161.681C314.143 161.928 314.493 162.532 314.501 163.026H314.493Z" fill="black"/>
<path opacity="0.2" d="M88.9927 230.697L218.5 305.472C220.513 306.634 223.775 306.634 225.788 305.472L321.099 250.445C323.112 249.283 323.112 247.398 321.099 246.236L191.591 171.461C189.578 170.299 186.316 170.299 184.303 171.461L88.9927 226.488C86.9797 227.65 86.9797 229.535 88.9927 230.697Z" fill="black"/>
<path d="M228.493 294.836L225.397 293.054C225.397 293.054 227.18 292.489 227.999 292.871C228.819 293.253 228.5 294.836 228.5 294.836H228.493Z" fill="black"/>
<path d="M230.618 292.89C230.618 292.89 228.112 290.13 225.105 292.89C222.097 295.651 221.938 298.396 220.689 298.349C219.44 298.301 219.463 276.277 219.463 276.277L231.327 287.313L230.618 292.89Z" fill="black"/>
<path d="M106.282 212.791L106.091 212.68L108 211.582L189.873 164.312L309.18 241.522C311.153 242.66 311.503 244.307 309.96 245.19L307.167 246.797L230.634 291.004L230.093 290.606L106.29 212.791H106.282Z" fill="#455A64"/>
<path d="M220.418 265.854L226.346 264.629V288.363C222.774 289.883 220.498 291.315 220.124 294.307L220.418 265.846V265.854Z" fill="#5F2836"/>
<path d="M228.972 288.669L304.79 244.893C306.103 244.137 307.169 242.283 307.169 240.771V217.371L230.619 261.951C230.619 261.951 229.704 265.261 226.991 266.303C224.278 267.346 226.347 268.396 226.347 268.396V288.351C228.694 288.072 228.972 288.661 228.972 288.661V288.669Z" fill="#EBEBEB"/>
<path d="M221.978 265.041C222.766 264.587 223.378 264.564 223.378 264.985V265.725C223.378 266.553 224.627 266.505 226.187 265.614C227.73 264.723 228.995 263.33 228.995 262.511V261.763C228.995 261.333 230.054 260.386 231.359 259.631L108.001 188.953C107.245 189.391 106.092 190.059 106.092 190.059C105.773 190.369 105.622 190.902 105.622 191.078V191.817C105.622 192.645 104.373 194.029 102.83 194.928C101.278 195.82 100.021 195.867 100.021 195.04V194.3C100.021 193.87 99.4003 193.902 98.6206 194.356L221.978 265.033V265.041Z" fill="#37474F"/>
<path d="M106.282 190.178L106.091 190.067L108 188.969L189.873 141.699L309.18 210.594C311.153 211.732 311.503 213.379 309.96 214.262L307.167 215.87L230.618 261.969L106.282 190.186V190.178Z" fill="#455A64"/>
<path d="M99.9971 193.582L223.259 264.745L218.946 268.118L96.0825 197.186C96.6156 195.921 97.1646 195.261 97.7295 194.895L100.005 193.582H99.9971Z" fill="#455A64"/>
<path d="M96.5675 229.053C96.4879 229.005 96.4163 228.958 96.3447 228.894C96.289 228.87 96.2492 228.822 96.2094 228.767C96.1139 228.671 96.0344 228.56 95.9628 228.441C95.9071 228.385 95.8832 228.329 95.8355 228.266C95.7082 228.059 95.6047 227.828 95.5172 227.581C95.4217 227.335 95.3422 227.056 95.2705 226.786C95.1989 226.483 95.1512 226.181 95.0955 225.847C95.0557 225.664 95.0398 225.473 95.0239 225.282C95.008 225.131 95 224.995 94.9841 224.828C94.9602 224.486 94.9443 224.128 94.9443 223.754V203.394C94.9443 201.118 95.3979 198.834 96.0901 197.188L218.954 268.127L219.471 300.033L96.6152 229.093L96.5754 229.069L96.5675 229.053Z" fill="#455A64"/>
<path opacity="0.1" d="M218.938 268.119C218.938 268.119 122.18 222.831 113.372 218.686C107.563 215.949 108.24 222.807 112.298 228.114C115.544 232.355 144.028 256.471 144.028 256.471L112.417 238.219L96.5994 229.085L96.5596 229.061C96.4801 229.013 96.4085 228.966 96.3369 228.902C96.2812 228.878 96.2414 228.83 96.2016 228.775C96.1061 228.679 96.0266 228.568 95.955 228.448C95.8993 228.393 95.8754 228.337 95.8277 228.273C95.7003 228.066 95.5969 227.836 95.5094 227.589C95.4139 227.342 95.3344 227.064 95.2627 226.793C95.1911 226.491 95.1434 226.189 95.0877 225.855C95.0479 225.672 95.032 225.481 95.0161 225.29C95.0002 225.138 94.9922 225.003 94.9763 224.836C94.9524 224.494 94.9365 224.136 94.9365 223.762V203.401C94.9365 201.126 95.39 198.842 96.0823 197.195L218.946 268.135L218.938 268.119Z" fill="black"/>
<path d="M217.801 274.332H220.554C220.554 271.388 221.421 268.954 221.891 268.325C222.495 268.795 223.267 269.065 224.142 269.065C225.431 269.065 226.712 268.484 227.564 267.991C228.678 267.346 229.919 266.352 230.738 265.198C230.794 265.119 230.866 265.031 230.905 264.952C231.399 264.22 231.701 263.408 231.733 262.596L304.352 220.674L306.81 219.242L309.961 217.428C310.605 217.054 310.924 216.544 310.924 216.011V212.797C310.924 213.433 310.55 213.895 309.961 214.253L309.921 214.277L301.591 219.075L231.367 259.621C230.062 260.377 228.988 261.323 228.988 261.753V262.493C228.988 262.851 228.757 263.32 228.343 263.798C227.85 264.434 227.062 265.087 226.195 265.596C224.644 266.487 223.386 266.527 223.386 265.707V264.967C223.386 264.538 222.766 264.57 221.986 265.023L220.594 265.835C219.05 266.718 217.801 270.521 217.801 274.316V274.332Z" fill="#37474F"/>
<path d="M220.554 274.331V294.692C220.554 294.978 220.57 295.272 220.578 295.543L220.65 296.227C220.65 296.227 220.65 296.267 220.666 296.299C220.912 294.111 223.005 292.161 224.819 291.127C225.631 290.65 226.88 290.085 228.177 290.085C229.139 290.085 230.007 290.427 230.635 290.992L230.882 290.857C231.049 290.761 231.2 290.666 231.359 290.57L301.583 250.024C301.583 250.024 303.429 248.966 305.609 247.701C305.983 247.478 306.381 247.263 306.763 247.024C307.948 246.34 309.142 245.648 310.16 245.059C310.63 244.717 310.916 244.287 310.916 243.738V246.953C310.916 247.406 310.685 247.844 310.216 248.194C310.216 248.21 310.2 248.21 310.192 248.218C309.794 248.449 309.365 248.687 308.943 248.95C308.68 249.101 308.418 249.252 308.155 249.403C307.686 249.666 307.232 249.936 306.811 250.191C306.508 250.366 306.23 250.533 305.975 250.668C305.752 250.796 305.561 250.915 305.386 251.011C304.758 251.384 304.352 251.615 304.352 251.615L248.569 283.807L230.763 294.095C229.497 294.835 228.463 295.097 228.399 294.715C228.391 294.66 228.384 294.596 228.384 294.58V293.856C228.384 292.965 227.134 292.965 225.591 293.856C224.079 294.723 223.419 295.798 223.387 296.665V297.548C223.387 298.001 223.212 298.471 222.973 298.59C222.862 298.662 222.711 298.741 222.559 298.821C222.313 298.956 222.01 299.139 221.676 299.33C221.35 299.521 220.976 299.744 220.586 299.967C220.077 300.253 219.608 300.197 219.194 299.839C219.138 299.816 219.098 299.768 219.059 299.712C218.963 299.617 218.883 299.505 218.812 299.386V299.37C218.756 299.314 218.732 299.275 218.685 299.203C218.557 298.996 218.454 298.765 218.366 298.519C218.271 298.272 218.191 297.994 218.12 297.723C218.048 297.421 217.992 297.118 217.945 296.784C217.905 296.609 217.889 296.41 217.873 296.219C217.857 296.068 217.849 295.933 217.833 295.766C217.809 295.424 217.793 295.066 217.793 294.692V274.331H220.546H220.554Z" fill="#37474F"/>
<path opacity="0.1" d="M96.0807 197.178L212.85 264.593L301.111 213.632C302.432 212.876 302.432 211.635 301.111 210.879L185.567 144.164L108 188.951H107.984C107.228 189.389 106.074 190.065 106.074 190.065C105.756 190.367 105.605 190.9 105.605 191.083V191.823C105.605 192.651 104.355 194.035 102.812 194.934C102.732 194.99 102.645 195.014 102.565 195.062L99.9953 193.574L98.77 194.274C98.7143 194.298 98.6745 194.314 98.6029 194.354L98.6188 194.369L97.7118 194.895C97.1628 195.253 96.5979 195.929 96.0728 197.178H96.0807Z" fill="black"/>
<path d="M294.541 214.149L291.025 212.272L294.223 211.508C294.876 212.248 294.915 213.147 294.533 214.149H294.541Z" fill="#BA68C8"/>
<path opacity="0.5" d="M294.541 214.149L291.025 212.272L294.223 211.508C294.876 212.248 294.915 213.147 294.533 214.149H294.541Z" fill="black"/>
<path d="M201.475 261.012C203.448 262.15 206.647 262.15 208.62 261.012L288.829 214.697L168.758 146.494L165.949 144.871L85.7479 190.056C83.7826 191.194 83.7826 193.056 85.7479 194.177L201.475 261.004V261.012Z" fill="#F11A1A" fill-opacity="0.36"/>
<path d="M231.591 174.66L259.558 190.756L277.667 180.302L298.728 192.467V206.518C298.728 208.356 296.667 210.982 295.911 210.544C295.911 210.544 294.264 210.878 291.885 211.976C289.506 213.066 286.069 216.273 286.069 216.273L221.796 180.294L231.583 174.645L231.591 174.66Z" fill="#BA68C8"/>
<path opacity="0.15" d="M231.591 174.66L259.558 190.756L277.667 180.302L298.728 192.467V206.518C298.728 208.356 296.667 210.982 295.911 210.544C295.911 210.544 294.264 210.878 291.885 211.976C289.506 213.066 286.069 216.273 286.069 216.273L221.796 180.294L231.583 174.645L231.591 174.66Z" fill="black"/>
<path d="M287.175 194.16V209.412C287.262 209.349 287.342 209.301 287.421 209.261C288.273 208.768 289.554 208.195 290.851 208.195C291.734 208.195 292.506 208.266 293.102 208.728V190.738L287.175 194.168V194.16Z" fill="#37474F"/>
<path d="M283.244 214.667C283.275 213.76 283.657 212.868 284.254 212.065C284.541 211.667 284.875 211.285 285.241 210.935C285.352 210.824 285.464 210.72 285.583 210.609C285.726 210.489 285.877 210.362 286.02 210.243C286.14 210.147 286.267 210.06 286.386 209.964C286.649 209.773 286.92 209.598 287.182 209.431V194.234L283.268 196.502V196.422L283.252 214.659L283.244 214.667Z" fill="#E0E0E0"/>
<path opacity="0.4" d="M298.735 206.526C298.735 208.364 296.674 210.989 295.918 210.552L293.102 208.722V197.121L295.918 192.268L297.454 191.719L298.727 192.459V206.51L298.735 206.526Z" fill="black"/>
<path d="M205.048 241.583V258.992C205.915 258.992 206.782 258.817 207.427 258.427L216.227 253.351L283.244 214.658L283.26 196.422L205.048 241.575V241.583Z" fill="#EBEBEB"/>
<path opacity="0.15" d="M278.174 208.094L259.413 218.923C259.413 218.923 261.362 216.894 268.793 212.653C276.018 208.531 278.174 208.086 278.174 208.086V208.094Z" fill="black"/>
<path d="M87.7612 176.188V189.332C87.7612 190.843 88.8354 192.697 90.1402 193.453L193.885 253.349L202.669 258.426C203.313 258.808 204.18 258.991 205.048 258.991V243.547L87.7612 176.188Z" fill="#F5F5F5"/>
<path d="M168.757 123.882L288.829 193.207V194.814C288.829 195.705 290.078 196.04 291.621 195.148C293.173 194.257 294.43 193.143 294.43 191.6L294.581 190.072L172.242 119.45L171.749 119.164C171.622 119.395 171.542 119.657 171.542 119.904V120.644C171.542 121.535 170.301 122.967 168.765 123.874L168.757 123.882Z" fill="#A3052D"/>
<path opacity="0.1" d="M168.757 123.882L288.829 193.207V194.814C288.829 195.705 290.078 196.04 291.621 195.148C293.173 194.257 294.43 193.143 294.43 191.6L294.581 190.072L172.242 119.45L171.749 119.164C171.622 119.395 171.542 119.657 171.542 119.904V120.644C171.542 121.535 170.301 122.967 168.765 123.874L168.757 123.882Z" fill="black"/>
<path d="M208.62 239.524L287.047 194.236C288.041 193.711 288.956 193.297 289.338 193.496L288.829 193.209L168.758 123.884C168.758 123.884 168.05 123.479 167.357 123.073C166.586 122.627 164.891 122.874 163.57 123.638L85.7479 168.576C83.7826 169.714 83.7826 171.576 85.7479 172.697L201.475 239.524C203.448 240.662 206.647 240.662 208.62 239.524Z" fill="#A3052D"/>
<path opacity="0.3" d="M208.62 239.524L287.047 194.236C288.041 193.711 288.956 193.297 289.338 193.496L288.829 193.209L168.758 123.884C168.758 123.884 168.05 123.479 167.357 123.073C166.586 122.627 164.891 122.874 163.57 123.638L85.7479 168.576C83.7826 169.714 83.7826 171.576 85.7479 172.697L201.475 239.524C203.448 240.662 206.647 240.662 208.62 239.524Z" fill="white"/>
<path d="M234.606 174.812L235.402 175.274L233.047 176.635L249.111 185.912L251.466 184.551L252.262 185.013L243.295 190.192L242.499 189.731L244.998 188.291L228.933 179.014L225.902 180.764C225.313 181.106 224.892 181.464 224.637 181.838C224.247 182.498 224.502 183.318 225.401 184.32L227.318 186.413L226.467 186.906L220.197 183.151L234.614 174.828L234.606 174.812Z" fill="white"/>
<path d="M205.907 191.378L206.703 191.84L204.611 193.049L212.464 195.038L218.32 191.657L214.787 187.169L213.14 188.116C213.021 188.188 212.901 188.243 212.782 188.283C212.487 188.403 212.106 188.331 211.636 188.06L217.047 184.934L217.842 185.395L215.957 186.485L226.372 199.94L224.199 201.197L200.402 195.476L199.518 195.985C199.399 196.057 199.28 196.112 199.16 196.152C198.866 196.28 198.484 196.2 198.015 195.929L205.9 191.378H205.907ZM223.086 197.728L218.853 192.357L213.705 195.333L223.086 197.728Z" fill="white"/>
<path d="M182.444 204.928C182.778 204.737 183.112 204.61 183.447 204.554C183.996 204.467 185.102 204.626 186.772 205.048L198.214 207.984L191.562 199.661L192.151 199.319C192.485 199.128 192.819 199.001 193.154 198.945C193.703 198.858 194.808 199.017 196.479 199.438L216.721 204.602L218.193 203.751L218.988 204.212L211.016 208.819L210.22 208.358L212.575 206.997L195.103 202.239L200.076 208.437L208.104 210.49L201.277 214.428L200.481 213.967L202.868 212.622L185.682 207.968L194.124 217.635L196.479 216.274L197.275 216.736L192.422 219.536L191.626 219.075L193.098 218.224L181.863 205.247L182.452 204.904L182.444 204.928Z" fill="white"/>
<path d="M211.205 231.372C207.41 229.184 202.699 229.176 198.896 231.364C198.658 231.5 198.363 231.5 198.124 231.364L99.8619 174.635C99.6232 174.499 99.48 174.245 99.48 173.966C99.48 173.688 99.6232 173.441 99.8619 173.298C100.984 172.646 101.66 171.484 101.66 170.187C101.66 168.89 100.992 167.721 99.8619 167.076C99.6232 166.941 99.48 166.686 99.48 166.408C99.48 166.129 99.6232 165.875 99.8619 165.739L158.684 131.781C158.923 131.646 159.217 131.646 159.456 131.781C163.259 133.977 167.977 133.977 171.781 131.781C172.019 131.646 172.314 131.646 172.552 131.781L270.91 188.567C271.149 188.702 271.292 188.956 271.292 189.235C271.292 189.513 271.141 189.768 270.91 189.903C269.78 190.556 269.112 191.717 269.112 193.014C269.112 194.311 269.78 195.481 270.91 196.125C271.149 196.26 271.292 196.515 271.292 196.794C271.292 197.072 271.141 197.319 270.91 197.462L211.985 231.38C211.865 231.452 211.73 231.484 211.603 231.484C211.475 231.484 211.34 231.452 211.221 231.38L211.205 231.372ZM267.561 193.006C267.561 191.574 268.133 190.261 269.128 189.314L172.154 133.333C168.081 135.513 163.156 135.513 159.082 133.333L101.644 166.495C102.639 167.45 103.204 168.763 103.204 170.187C103.204 171.611 102.639 172.924 101.644 173.879L198.53 229.813C202.596 227.641 207.521 227.649 211.595 229.821L269.136 196.706C268.141 195.751 267.577 194.438 267.577 193.014L267.561 193.006Z" fill="white"/>
<path d="M171.741 119.164L172.234 119.451L294.573 190.072C294.573 190.072 294.653 189.882 294.836 189.738C294.947 189.667 295.082 189.603 295.249 189.508L296.133 188.998C296.459 188.807 296.833 188.585 297.223 188.362C297.732 188.075 298.201 188.131 298.615 188.489C298.671 188.513 298.71 188.561 298.75 188.616C298.886 188.752 299.013 188.935 299.124 189.126C299.252 189.333 299.355 189.563 299.442 189.81C299.538 190.057 299.625 190.335 299.689 190.606C299.761 190.908 299.816 191.21 299.864 191.544C299.904 191.719 299.92 191.918 299.936 192.109C299.952 192.261 299.96 192.396 299.976 192.563C299.999 192.905 300.015 193.263 300.015 193.637V190.2C300.015 188.298 298.408 185.84 296.443 184.702L180.708 117.875C178.727 116.738 175.878 116.539 174.343 117.422L172.887 118.273L172.831 118.305C172.736 118.377 172.489 118.512 172.21 118.663C172.21 118.663 172.194 118.663 172.194 118.679C172.027 118.774 171.868 118.957 171.757 119.172L171.741 119.164Z" fill="#A3052D"/>
<path opacity="0.3" d="M171.741 119.164L172.234 119.451L294.573 190.072C294.573 190.072 294.653 189.882 294.836 189.738C294.947 189.667 295.082 189.603 295.249 189.508L296.133 188.998C296.459 188.807 296.833 188.585 297.223 188.362C297.732 188.075 298.201 188.131 298.615 188.489C298.671 188.513 298.71 188.561 298.75 188.616C298.886 188.752 299.013 188.935 299.124 189.126C299.252 189.333 299.355 189.563 299.442 189.81C299.538 190.057 299.625 190.335 299.689 190.606C299.761 190.908 299.816 191.21 299.864 191.544C299.904 191.719 299.92 191.918 299.936 192.109C299.952 192.261 299.96 192.396 299.976 192.563C299.999 192.905 300.015 193.263 300.015 193.637V190.2C300.015 188.298 298.408 185.84 296.443 184.702L180.708 117.875C178.727 116.738 175.878 116.539 174.343 117.422L172.887 118.273L172.831 118.305C172.736 118.377 172.489 118.512 172.21 118.663C172.21 118.663 172.194 118.663 172.194 118.679C172.027 118.774 171.868 118.957 171.757 119.172L171.741 119.164Z" fill="white"/>
<path d="M208.62 261.014L213.457 258.205L286.076 216.283C286.1 215.376 286.474 214.485 287.063 213.681C287.89 212.527 289.123 211.533 290.237 210.888C291.089 210.395 292.37 209.814 293.659 209.814C294.542 209.814 295.306 210.093 295.91 210.554C296.38 209.918 297.247 207.491 297.247 204.547H300C300 208.342 298.751 212.153 297.207 213.028L295.815 213.84C295.035 214.294 294.414 214.317 294.414 213.896V213.156C294.414 212.328 293.165 212.376 291.606 213.267C290.062 214.158 288.813 215.551 288.813 216.378V217.118C288.813 217.548 287.739 218.495 286.434 219.25L216.21 259.797L208.604 264.181C208.604 264.181 208.588 264.181 208.588 264.197C207.601 264.746 206.32 265.032 205.023 265.032V261.857C206.312 261.857 207.609 261.579 208.596 261.006L208.62 261.014Z" fill="#A3052D"/>
<path opacity="0.3" d="M208.62 261.014L213.457 258.205L286.076 216.283C286.1 215.376 286.474 214.485 287.063 213.681C287.89 212.527 289.123 211.533 290.237 210.888C291.089 210.395 292.37 209.814 293.659 209.814C294.542 209.814 295.306 210.093 295.91 210.554C296.38 209.918 297.247 207.491 297.247 204.547H300C300 208.342 298.751 212.153 297.207 213.028L295.815 213.84C295.035 214.294 294.414 214.317 294.414 213.896V213.156C294.414 212.328 293.165 212.376 291.606 213.267C290.062 214.158 288.813 215.551 288.813 216.378V217.118C288.813 217.548 287.739 218.495 286.434 219.25L216.21 259.797L208.604 264.181C208.604 264.181 208.588 264.181 208.588 264.197C207.601 264.746 206.32 265.032 205.023 265.032V261.857C206.312 261.857 207.609 261.579 208.596 261.006L208.62 261.014Z" fill="black"/>
<path d="M208.597 239.531C208.597 239.531 208.613 239.515 208.629 239.515L213.466 236.706L269.249 204.515L287.056 194.227C288.321 193.487 289.355 193.224 289.419 193.606C289.435 193.622 289.435 193.63 289.435 193.646V194.458C289.435 195.349 290.684 195.349 292.227 194.458C293.739 193.59 294.399 192.516 294.431 191.649V190.766C294.431 190.312 294.606 189.843 294.845 189.723C294.956 189.652 295.108 189.572 295.259 189.493C295.505 189.357 295.808 189.174 296.142 188.983C296.468 188.793 296.842 188.57 297.232 188.347C297.741 188.061 298.211 188.116 298.624 188.474C298.68 188.498 298.72 188.546 298.76 188.602C298.855 188.697 298.943 188.808 299.006 188.928C299.062 188.983 299.086 189.039 299.134 189.103C299.261 189.31 299.364 189.54 299.452 189.787C299.547 190.034 299.635 190.312 299.698 190.583C299.77 190.885 299.826 191.187 299.874 191.522C299.913 191.697 299.929 191.896 299.945 192.086C299.961 192.238 299.969 192.373 299.985 192.54C300.009 192.882 300.025 193.24 300.025 193.614V204.53H297.272V193.614C297.272 193.328 297.256 193.033 297.248 192.763L297.176 192.079C297.176 192.079 297.176 192.039 297.16 192.007C296.914 194.195 294.821 196.144 293.007 197.179C292.196 197.656 290.946 198.221 289.649 198.221C288.687 198.221 287.819 197.879 287.191 197.314L286.944 197.449C286.777 197.545 286.626 197.64 286.467 197.736L216.243 238.282L208.637 242.666C208.637 242.666 208.621 242.666 208.621 242.682C208.605 242.698 208.597 242.698 208.565 242.706C207.586 243.239 206.321 243.517 205.056 243.517V240.343C206.472 240.343 207.602 240.024 208.605 239.499L208.597 239.531Z" fill="#A3052D"/>
<path opacity="0.3" d="M208.597 239.531C208.597 239.531 208.613 239.515 208.629 239.515L213.466 236.706L269.249 204.515L287.056 194.227C288.321 193.487 289.355 193.224 289.419 193.606C289.435 193.622 289.435 193.63 289.435 193.646V194.458C289.435 195.349 290.684 195.349 292.227 194.458C293.739 193.59 294.399 192.516 294.431 191.649V190.766C294.431 190.312 294.606 189.843 294.845 189.723C294.956 189.652 295.108 189.572 295.259 189.493C295.505 189.357 295.808 189.174 296.142 188.983C296.468 188.793 296.842 188.57 297.232 188.347C297.741 188.061 298.211 188.116 298.624 188.474C298.68 188.498 298.72 188.546 298.76 188.602C298.855 188.697 298.943 188.808 299.006 188.928C299.062 188.983 299.086 189.039 299.134 189.103C299.261 189.31 299.364 189.54 299.452 189.787C299.547 190.034 299.635 190.312 299.698 190.583C299.77 190.885 299.826 191.187 299.874 191.522C299.913 191.697 299.929 191.896 299.945 192.086C299.961 192.238 299.969 192.373 299.985 192.54C300.009 192.882 300.025 193.24 300.025 193.614V204.53H297.272V193.614C297.272 193.328 297.256 193.033 297.248 192.763L297.176 192.079C297.176 192.079 297.176 192.039 297.16 192.007C296.914 194.195 294.821 196.144 293.007 197.179C292.196 197.656 290.946 198.221 289.649 198.221C288.687 198.221 287.819 197.879 287.191 197.314L286.944 197.449C286.777 197.545 286.626 197.64 286.467 197.736L216.243 238.282L208.637 242.666C208.637 242.666 208.621 242.666 208.621 242.682C208.605 242.698 208.597 242.698 208.565 242.706C207.586 243.239 206.321 243.517 205.056 243.517V240.343C206.472 240.343 207.602 240.024 208.605 239.499L208.597 239.531Z" fill="black"/>
<path d="M84.2759 170.586V173.816C84.2759 174.556 84.7453 175.288 85.6921 175.853L85.7478 175.877L193.876 238.304L201.467 242.688V242.703C201.467 242.703 201.483 242.688 201.483 242.703C202.469 243.252 203.75 243.539 205.047 243.539V240.364C203.758 240.364 202.461 240.086 201.475 239.513L196.645 236.72H196.629L85.7478 172.686C84.6976 172.074 84.2838 171.366 84.2759 170.586Z" fill="#A3052D"/>
<path opacity="0.2" d="M84.2759 170.586V173.816C84.2759 174.556 84.7453 175.288 85.6921 175.853L85.7478 175.877L193.876 238.304L201.467 242.688V242.703C201.467 242.703 201.483 242.688 201.483 242.703C202.469 243.252 203.75 243.539 205.047 243.539V240.364C203.758 240.364 202.461 240.086 201.475 239.513L196.645 236.72H196.629L85.7478 172.686C84.6976 172.074 84.2838 171.366 84.2759 170.586Z" fill="black"/>
<path d="M84.2759 192.086V195.316C84.2759 196.056 84.7453 196.788 85.6921 197.353L85.7478 197.385L193.876 259.812L201.467 264.196V264.211C201.467 264.211 201.483 264.196 201.483 264.211C202.469 264.76 203.75 265.047 205.047 265.047V261.872C203.758 261.872 202.461 261.594 201.475 261.021L196.645 258.228H196.629L85.7478 194.194C84.6976 193.582 84.2838 192.874 84.2759 192.094V192.086Z" fill="#A3052D"/>
<path opacity="0.2" d="M84.2759 192.086V195.316C84.2759 196.056 84.7453 196.788 85.6921 197.353L85.7478 197.385L193.876 259.812L201.467 264.196V264.211C201.467 264.211 201.483 264.196 201.483 264.211C202.469 264.76 203.75 265.047 205.047 265.047V261.872C203.758 261.872 202.461 261.594 201.475 261.021L196.645 258.228H196.629L85.7478 194.194C84.6976 193.582 84.2838 192.874 84.2759 192.094V192.086Z" fill="black"/>
<path d="M275.046 209.902V253.225L268.792 246.009L262.539 260.45V217.119L275.046 209.902Z" fill="#BE506C"/>
<path opacity="0.5" d="M275.046 209.902V253.225L268.792 246.009L262.539 260.45V217.119L275.046 209.902Z" fill="black"/>
<path d="M246.913 266.207V277.967C246.913 281.865 248.99 285.462 252.364 287.411L268.802 296.903L253.167 295.097L256.294 304.12L239.856 294.628C236.482 292.678 234.406 289.082 234.406 285.183V273.424L246.913 266.207Z" fill="#BE506C"/>
<path opacity="0.5" d="M246.913 266.207V277.967C246.913 281.865 248.99 285.462 252.364 287.411L268.802 296.903L253.167 295.097L256.294 304.12L239.856 294.628C236.482 292.678 234.406 289.082 234.406 285.183V273.424L246.913 266.207Z" fill="black"/>
<path opacity="0.15" d="M250.548 264.113L231.787 274.942C231.787 274.942 233.736 272.913 241.168 268.672C248.392 264.551 250.548 264.105 250.548 264.105V264.113Z" fill="black"/>
<path opacity="0.2" d="M224.665 170.553L192.942 152.237C192.377 151.911 191.685 151.911 191.12 152.237L136.085 184.015C135.815 184.174 135.815 184.564 136.085 184.715L168.11 203.206L224.673 170.545L224.665 170.553Z" fill="black"/>
<path d="M220.169 167.879V168.563C220.169 169.566 219.636 170.489 218.768 170.998L169.605 199.379C169.176 199.633 168.682 199.753 168.205 199.753C167.727 199.753 167.234 199.633 166.789 199.379L139.991 183.959C139.132 183.466 138.591 182.527 138.591 181.524V180.577C138.591 180.705 138.647 180.824 138.766 180.896L168.197 197.891L220.161 167.879H220.169Z" fill="#37474F"/>
<path d="M220.168 167.879L191.015 151.051C190.498 150.749 189.862 150.749 189.336 151.051L138.765 180.251C138.518 180.394 138.518 180.753 138.765 180.896L168.188 197.883L220.16 167.871L220.168 167.879Z" fill="#455A64"/>
<path d="M167.926 195.41L152.204 186.34L198.176 159.797L213.986 168.82L167.926 195.41Z" fill="#37474F"/>
<path d="M213.986 168.82L213.381 169.162L198.176 160.489L152.808 186.69L152.204 186.34L198.176 159.797L213.986 168.82Z" fill="#263238"/>
<path d="M160.2 170.185L160.486 170.352L168.196 174.8L181.897 166.883L182.183 166.724L174.187 162.109L160.2 170.185Z" fill="#263238"/>
<path d="M160.486 170.354L168.196 174.802L181.897 166.885L174.187 162.438L160.486 170.354Z" fill="#37474F"/>
<path d="M168.196 197.883V199.753C168.681 199.753 169.167 199.633 169.596 199.379L218.759 170.998C219.627 170.497 220.168 169.566 220.168 168.563V167.879L168.196 197.883Z" fill="#263238"/>
<path d="M168.984 198.298C169.915 198.656 170.973 198.584 171.856 198.075L220.805 169.814C221.664 169.32 222.253 168.469 222.42 167.482L227.783 135.529C227.814 135.346 227.83 135.163 227.83 134.98C227.83 134.089 227.472 133.238 226.844 132.617L175.978 161.993C175.341 162.359 174.904 162.995 174.784 163.711L168.992 198.298H168.984Z" fill="#37474F"/>
<path d="M168.197 197.882L168.531 198.073C168.682 198.16 168.834 198.232 168.985 198.296L174.777 163.709C174.896 162.985 175.342 162.356 175.971 161.99L226.836 132.615C226.637 132.416 226.407 132.249 226.16 132.098L175.191 161.521C174.554 161.887 174.117 162.523 173.997 163.239L168.197 197.874V197.882Z" fill="#455A64"/>
<path d="M175.254 162.641L174.467 162.188C174.236 162.498 174.069 162.856 173.997 163.254L168.197 197.888L168.531 198.079C168.682 198.167 168.834 198.238 168.985 198.302L174.777 163.715C174.841 163.317 175.016 162.959 175.246 162.641H175.254Z" fill="#263238"/>
<path d="M196.554 168.792C196.912 166.652 199.124 163.811 201.487 162.443C203.85 161.074 205.481 161.703 205.123 163.843C204.765 165.984 202.553 168.824 200.19 170.193C197.827 171.561 196.196 170.933 196.554 168.792Z" fill="#A3052D"/>
<path d="M185.91 68.8521C184.836 67.3801 183.953 68.8123 183.857 68.6054C183.762 68.3985 185.783 67.2846 184.144 65.4785C182.99 64.2134 182.337 65.4387 181.804 65.4705C181.804 65.4705 183.762 64.2373 181.781 62.0493C180.555 60.6967 179.187 62.5744 179.234 62.288C179.258 62.1607 182.385 58.4291 184.971 55.2385C187.43 52.2071 186.515 50.8545 186.037 50.4089C185.608 50.0031 184.915 50.0191 182.855 52.1434C180.818 54.228 174.667 60.6171 173.323 61.914C171.978 63.2109 171.135 63.7519 171.198 61.556C171.262 59.4873 171.342 57.5379 170.594 56.0421C169.345 53.5358 167.642 53.9496 167.475 55.5329C167.244 57.7607 166.464 60.2193 165.716 63.744C165.327 65.5819 164.849 67.2767 164.682 68.5656C163.998 73.069 160.895 74.2784 156.877 76.7528C153.79 78.6624 150.766 80.1025 144.337 83.4761C143.422 82.2746 139.977 77.9543 134.988 69.6636C130.875 62.8369 125.099 55.2306 119.481 54.2837L118.033 80.747C118.033 80.747 123.269 88.1783 130.97 97.6227C137.447 105.571 140.208 106.065 144.178 104.33C147.377 102.93 150.201 100.734 153.607 97.8852C159.041 93.3341 165.923 87.2077 168.032 85.2265C170.148 83.2533 171.294 82.5849 173.848 81.5029C176.792 80.2616 178.16 79.1955 180.372 77.1029C181.43 76.1004 183.42 74.2784 184.828 72.7348C186.196 71.231 186.714 69.9341 185.926 68.8521H185.91Z" fill="#C8856A"/>
<path d="M158.604 75.4304L161.715 73.6641C161.715 73.6641 161.444 75.8044 164.022 79.711C166.6 83.6176 169.393 84.4133 169.393 84.4133L166.791 86.5854C166.791 86.5854 163.759 85.6227 161.189 81.7558C158.611 77.889 158.611 75.4384 158.611 75.4384L158.604 75.4304Z" fill="#FAFAFA"/>
<path d="M179.426 73.9114C179.163 73.076 180.022 71.9621 180.022 71.9621C180.022 71.9621 179.386 72.5588 178.574 72.5827C177.771 72.6065 176.903 71.8029 176.856 71.0789C176.808 70.3548 177.643 69.5194 177.643 69.5194C177.643 69.5194 177.055 69.8456 176.219 69.8138C175.384 69.782 174.843 69.0818 174.843 68.0554C174.843 67.029 176.649 65.0399 178.431 63.2656C178.431 63.2656 177.277 63.8464 175.996 65.1115C175.01 66.0743 174.341 66.7744 174.111 67.6974C173.761 66.7267 173.204 65.8435 172.44 65.1513C173.8 67.6656 173.602 73.2828 171.716 76.4495C173.729 74.8264 174.66 72.2803 174.54 69.8775C175.05 70.4105 175.829 70.5935 176.386 70.2992C176.219 70.7925 175.933 71.5085 176.856 72.5429C177.779 73.5852 178.829 73.1874 178.829 73.1874C178.829 73.1874 178.352 73.8875 179.203 74.7309C180.054 75.5743 181.041 75.256 181.908 74.4365C181.089 75.081 179.688 74.7389 179.418 73.9034L179.426 73.9114Z" fill="#AF6152"/>
<path d="M118.709 53.4062C124.82 54.6634 128.965 59.3497 133.803 66.789C138.64 74.2204 144.329 82.6941 144.329 82.6941L159.948 74.3477C159.948 74.3477 159.661 77.8963 162.541 81.6438C165.422 85.3833 167.92 85.9642 167.92 85.9642C167.92 85.9642 158.611 94.3344 152.946 99.2197C147.281 104.105 143.255 106.5 140.088 105.927C136.922 105.354 134.63 103.333 130.127 98.0103C125.623 92.6874 116.648 81.1346 116.648 81.1346L118.717 53.4142L118.709 53.4062Z" fill="#455A64"/>
<path d="M144.33 82.6882C139.604 85.0911 137.718 89.0216 136.978 93.4374C134.902 87.295 140.551 81.996 143.001 80.707L144.33 82.6882Z" fill="#37474F"/>
<path d="M112.049 285.14L117.643 283.461L116.036 279.785L112.503 282.618L112.049 285.14Z" fill="black"/>
<path d="M106.885 275.293C106.885 275.293 106.487 278.722 106.384 279.804C106.28 280.887 110.895 284.523 112.057 285.143L112.502 282.621C113.473 283.671 114.022 284.968 115.032 286.878C115.876 288.477 116.894 291.461 119.329 293.601C122.941 296.768 128.733 298.598 134.709 299.147C140.684 299.696 144.185 298.47 145.959 297.309C147.725 296.155 148.346 294.723 147.996 293.227C147.646 291.739 106.885 275.285 106.885 275.285V275.293Z" fill="#263238"/>
<path d="M123.514 264.456L123.689 262.467C124.795 262.499 124.779 265.395 126.251 268.02C128.24 271.553 131.2 276.001 134.136 278.881C139.928 284.554 145.171 288.206 147.757 290.76C151.218 294.173 144.574 298.923 134.836 297.849C129.998 297.316 121.509 294.484 119.225 291.58C116.95 288.683 115.685 284.291 113.855 282.175C112.025 280.059 107.967 277.807 106.885 275.301C106.288 273.924 106.511 272.046 106.773 268.323C106.948 265.864 106.733 261.878 108.142 262.26L108.174 263.517C108.699 264.615 111.316 266.612 115.199 267.471C117.133 267.901 122.949 268.394 123.506 264.464L123.514 264.456Z" fill="#37474F"/>
<path opacity="0.15" d="M118.341 267.742C120.219 267.694 122.256 267.209 123.123 265.634C123.131 265.618 123.147 265.602 123.163 265.586C123.163 265.586 122.582 267.424 124.221 269.493C125.868 271.561 136.18 286.074 136.18 286.074C136.18 286.074 126.505 274.036 124.643 271.768C121.898 268.411 120.991 267.989 118.333 267.75C118.333 267.75 118.334 267.75 118.341 267.75V267.742Z" fill="black"/>
<path opacity="0.15" d="M120.584 271.56C120.528 271.87 120.226 272.085 119.9 272.029C119.574 271.974 119.351 271.679 119.406 271.361C119.462 271.051 119.765 270.836 120.091 270.892C120.417 270.947 120.64 271.242 120.584 271.56Z" fill="black"/>
<path opacity="0.15" d="M123.313 274.79C123.257 275.101 122.955 275.316 122.629 275.26C122.303 275.204 122.08 274.91 122.135 274.592C122.191 274.281 122.494 274.066 122.82 274.122C123.146 274.178 123.369 274.472 123.313 274.79Z" fill="black"/>
<path opacity="0.15" d="M126.034 278.029C125.978 278.339 125.676 278.554 125.35 278.498C125.023 278.443 124.8 278.148 124.856 277.83C124.912 277.512 125.214 277.305 125.54 277.361C125.867 277.416 126.089 277.711 126.034 278.029Z" fill="black"/>
<path opacity="0.15" d="M128.755 281.259C128.699 281.569 128.397 281.784 128.071 281.729C127.744 281.673 127.522 281.379 127.577 281.06C127.633 280.75 127.935 280.535 128.262 280.591C128.588 280.647 128.811 280.941 128.755 281.259Z" fill="black"/>
<path opacity="0.15" d="M131.485 284.497C131.429 284.808 131.127 285.023 130.801 284.967C130.474 284.911 130.252 284.617 130.307 284.299C130.363 283.988 130.665 283.773 130.992 283.829C131.318 283.885 131.541 284.179 131.485 284.497Z" fill="black"/>
<path d="M119.966 271.696C119.91 271.696 119.854 271.665 119.815 271.617C119.727 271.521 119.735 271.37 119.838 271.291C119.966 271.179 122.981 268.673 126.729 269.095C126.856 269.111 126.952 269.222 126.936 269.349C126.92 269.477 126.8 269.564 126.673 269.556C123.132 269.158 120.181 271.617 120.157 271.641C120.101 271.688 120.029 271.704 119.966 271.696Z" fill="#263238"/>
<path d="M122.694 274.915C122.638 274.915 122.582 274.883 122.543 274.836C122.455 274.74 122.463 274.589 122.566 274.509C122.694 274.398 125.709 271.892 129.457 272.313C129.584 272.329 129.68 272.449 129.664 272.568C129.648 272.695 129.528 272.783 129.401 272.775C125.868 272.377 122.909 274.836 122.885 274.859C122.829 274.907 122.757 274.923 122.694 274.915Z" fill="#263238"/>
<path d="M125.416 278.157C125.36 278.157 125.305 278.126 125.265 278.078C125.177 277.982 125.185 277.831 125.289 277.752C125.416 277.64 128.431 275.134 132.179 275.556C132.306 275.571 132.402 275.683 132.386 275.81C132.37 275.937 132.251 276.025 132.123 276.017C128.591 275.619 125.631 278.078 125.607 278.102C125.551 278.149 125.48 278.165 125.416 278.157Z" fill="#263238"/>
<path d="M128.137 281.396C128.081 281.396 128.026 281.364 127.986 281.316C127.898 281.221 127.906 281.077 128.01 280.99C128.137 280.878 131.153 278.372 134.9 278.794C135.027 278.81 135.123 278.921 135.107 279.048C135.091 279.176 134.972 279.263 134.844 279.255C131.312 278.858 128.352 281.316 128.328 281.34C128.272 281.388 128.201 281.404 128.137 281.396Z" fill="#263238"/>
<path d="M130.857 284.622C130.801 284.622 130.745 284.59 130.706 284.543C130.618 284.447 130.626 284.296 130.73 284.216C130.857 284.105 133.872 281.599 137.62 282.02C137.747 282.036 137.843 282.148 137.827 282.275C137.811 282.402 137.691 282.49 137.564 282.482C134.031 282.084 131.072 284.543 131.048 284.567C130.992 284.614 130.921 284.63 130.857 284.622Z" fill="#263238"/>
<path d="M77.1912 301.887C76.8013 306.454 75.9898 309.469 74.2393 312.119C72.4889 314.768 68.9403 315.397 66.2351 315.11C62.4319 314.712 58.5094 312.572 56.576 307.56C55.4143 304.544 55.653 300.948 56.4884 296.715L77.1912 301.879V301.887Z" fill="#263238"/>
<path d="M63.4354 268.43C62.1066 268.509 61.5656 274.636 60.6506 280.77C59.672 287.342 57.4839 290.986 56.6962 295.418C55.5982 301.56 55.9722 304.337 58.1284 308.109C60.2766 311.88 69.9199 315.811 73.9618 310.535C77.2637 306.239 77.5104 301.409 77.3751 295.243C77.2319 288.87 77.0807 284.382 77.4706 279.553C77.8446 274.938 78.2822 270.467 77.1444 269.933C77.041 270.61 76.9296 271.469 76.8182 272.137C76.7307 272.647 76.5397 275.145 75.7997 275.161C75.744 274.572 75.7759 274.023 75.8316 273.418C75.8793 272.893 75.8475 272.328 75.5054 271.923C75.1632 271.517 74.5824 271.374 74.0493 271.262C72.7524 270.992 71.4475 270.745 70.1268 270.602C69.4664 270.53 68.806 270.49 68.1456 270.482C67.6046 270.482 65.1858 270.387 64.6686 270.562C64.3504 270.665 64.056 270.88 63.9366 271.175C63.8491 271.397 63.8571 271.644 63.8491 271.875C63.8412 272.304 63.7695 272.726 63.6502 273.14C63.5945 273.323 63.4592 273.538 63.2762 273.49C63.1251 273.45 63.0694 273.267 63.0694 273.116C63.0853 272.368 63.1967 271.835 63.2524 270.968C63.2762 270.57 63.3638 270.021 63.3717 269.623C63.3876 269.225 63.4035 268.835 63.4354 268.438V268.43Z" fill="#37474F"/>
<path opacity="0.15" d="M61.5095 297.034C61.4776 297.281 61.6606 297.504 61.9152 297.528C62.1698 297.559 62.4006 297.384 62.4324 297.138C62.4642 296.891 62.2812 296.668 62.0266 296.644C61.772 296.613 61.5413 296.788 61.5095 297.034Z" fill="black"/>
<path opacity="0.15" d="M62.0583 292.776C62.0265 293.023 62.2095 293.246 62.4641 293.27C62.7187 293.302 62.9494 293.126 62.9812 292.88C63.0131 292.633 62.8301 292.41 62.5755 292.387C62.3208 292.355 62.0901 292.53 62.0583 292.776Z" fill="black"/>
<path opacity="0.15" d="M62.5759 288.765C62.544 289.011 62.727 289.234 62.9816 289.258C63.2363 289.282 63.467 289.115 63.4988 288.868C63.5306 288.621 63.3476 288.399 63.093 288.375C62.8384 288.343 62.6077 288.518 62.5759 288.765Z" fill="black"/>
<path opacity="0.15" d="M63.093 284.812C63.0611 285.058 63.2441 285.281 63.4987 285.305C63.7533 285.337 63.9841 285.162 64.0159 284.915C64.0477 284.668 63.8647 284.446 63.6101 284.422C63.3555 284.39 63.1248 284.565 63.093 284.812Z" fill="black"/>
<path opacity="0.15" d="M73.5549 285.632C73.523 285.879 73.706 286.101 73.9606 286.125C74.2153 286.157 74.446 285.982 74.4778 285.735C74.5096 285.489 74.3266 285.266 74.072 285.242C73.8174 285.21 73.5867 285.385 73.5549 285.632Z" fill="black"/>
<path opacity="0.15" d="M73.0368 289.616C73.005 289.863 73.188 290.086 73.4426 290.11C73.6972 290.141 73.9279 289.966 73.9597 289.72C73.9916 289.473 73.8086 289.25 73.554 289.226C73.2994 289.195 73.0686 289.37 73.0368 289.616Z" fill="black"/>
<path opacity="0.15" d="M72.5212 293.628C72.4893 293.875 72.6723 294.097 72.927 294.121C73.1816 294.153 73.4123 293.978 73.4441 293.731C73.4759 293.485 73.293 293.262 73.0383 293.238C72.7837 293.206 72.553 293.381 72.5212 293.628Z" fill="black"/>
<path opacity="0.15" d="M71.9719 297.877C71.94 298.123 72.123 298.346 72.3776 298.37C72.6322 298.402 72.863 298.227 72.8948 297.98C72.9266 297.733 72.7436 297.511 72.489 297.487C72.2344 297.463 72.0037 297.63 71.9719 297.877Z" fill="black"/>
<path opacity="0.15" d="M68.0259 299.819L72.3224 270.165L70.6117 270.102L68.0259 299.819Z" fill="black"/>
<path d="M61.9468 297.316C61.9468 297.316 61.9946 297.316 62.0184 297.316C65.0976 296.72 70.3091 297.118 72.33 298.112C72.4414 298.176 72.5846 298.128 72.6483 298.017C72.712 297.905 72.6642 297.77 72.5449 297.714C70.4046 296.656 65.1453 296.25 61.923 296.871C61.7957 296.895 61.7081 297.014 61.74 297.133C61.7638 297.237 61.8434 297.301 61.9468 297.316Z" fill="#263238"/>
<path d="M62.4959 293.059C62.5356 293.059 62.5754 293.059 62.6152 293.043C64.9783 292.017 70.5717 292.717 72.8791 293.863C72.9984 293.919 73.1337 293.879 73.1973 293.767C73.261 293.656 73.2132 293.521 73.0939 293.465C70.6831 292.272 64.9146 291.555 62.4243 292.638C62.3049 292.685 62.2492 292.821 62.3049 292.94C62.3367 293.019 62.4163 293.067 62.4959 293.075V293.059Z" fill="#263238"/>
<path d="M63.0129 289.048C63.0527 289.048 63.0925 289.048 63.1323 289.032C65.4954 288.013 71.0888 288.705 73.3962 289.851C73.5155 289.915 73.6508 289.867 73.7144 289.756C73.7781 289.644 73.7303 289.509 73.611 289.453C71.2081 288.26 65.4317 287.544 62.9413 288.626C62.822 288.674 62.7663 288.809 62.822 288.928C62.8538 289.008 62.9334 289.056 63.0129 289.063V289.048Z" fill="#263238"/>
<path d="M63.5217 285.094C63.5615 285.094 63.6013 285.094 63.6411 285.079C66.0042 284.052 71.5976 284.752 73.9049 285.898C74.0163 285.962 74.1596 285.914 74.2232 285.803C74.2869 285.691 74.2391 285.556 74.1198 285.5C71.709 284.307 65.9405 283.591 63.4501 284.673C63.3308 284.72 63.2751 284.856 63.3308 284.975C63.3626 285.055 63.4422 285.102 63.5217 285.11V285.094Z" fill="#263238"/>
<path d="M66.9994 116.289C63.8009 153.78 63.1803 209.054 63.1803 209.054C62.8939 211.902 60.3001 217.599 59.8784 231.714C59.3612 248.932 61.0878 273.286 61.0878 273.286C61.0878 273.286 69.8717 278.036 78.592 275.275C78.592 275.275 87.8136 241.826 91.1315 220.177C93.7094 203.317 98.165 171.809 98.165 171.809L100.608 203.635C100.608 203.635 99.9711 214.321 100.273 221.8C100.624 230.496 106.495 265.863 106.495 265.863C106.495 265.863 116.688 270.915 126.068 266.173C126.068 266.173 128.766 214.719 129.052 204.256C129.617 183.736 128.957 143.285 128.264 116.782L66.9915 116.289H66.9994Z" fill="#263238"/>
<path d="M126.704 261.098C126.704 261.098 124.214 263.031 118.557 263.501C112.9 263.962 105.286 261.098 105.286 261.098L106.193 266.826C106.193 266.826 111.547 269.722 118.485 269.046C125.423 268.37 126.482 266.906 126.482 266.906L126.704 261.106V261.098Z" fill="#455A64"/>
<path d="M60.5479 268.559C60.5479 268.559 64.6932 270.794 70.3502 271.264C76.0073 271.725 80.1526 270.102 80.1526 270.102L79.2456 275.831C79.2456 275.831 76.2539 277.86 69.3079 277.183C62.3699 276.507 60.7786 274.367 60.7786 274.367L60.5558 268.567L60.5479 268.559Z" fill="#455A64"/>
<path d="M83.2394 162.922C82.9053 170.966 82.4597 179.018 81.9425 187.062C81.6879 191.088 81.4174 195.106 81.123 199.124L80.6854 205.155L80.4547 208.17C80.3831 209.173 80.208 210.175 80.0887 211.178C79.0225 219.19 77.5187 233.719 76.3094 241.723C75.1159 249.727 73.7951 257.723 72.355 265.704C73.0949 257.668 73.9542 249.64 74.9329 241.627C75.9036 233.615 77.3039 219.087 78.4178 211.082C78.5451 210.08 78.7281 209.085 78.8077 208.083L79.0543 205.067L79.5795 199.044C79.9295 195.026 80.2955 191.016 80.6854 187.006C81.4492 178.978 82.2926 170.958 83.2394 162.93V162.922Z" fill="black"/>
<path d="M120.404 163.93C121.47 171.043 122.083 178.204 122.544 185.357C122.974 192.51 123.443 199.702 123.212 206.879C123.093 214.056 123.021 226.078 122.783 233.255C122.568 240.432 122.25 247.608 121.812 254.785C121.581 247.616 121.462 240.439 121.454 233.271C121.422 226.102 121.422 214.08 121.51 206.903L121.605 201.524L121.629 200.18L121.597 198.851L121.526 196.162L121.223 185.412L120.873 174.663C120.778 171.083 120.587 167.502 120.404 163.914V163.93Z" fill="black"/>
<path d="M98.1733 171.802L102.04 151.274C102.04 151.274 112.606 149.834 118.041 145.172C118.041 145.172 114.524 151.354 104.554 153.741L100.719 171.874L100.616 203.636L98.1733 171.81V171.802Z" fill="black"/>
<path d="M68.6715 56.4153C68.6715 56.4153 61.7732 61.4836 64.3034 74.7788C66.2925 85.2098 67.1995 96.4921 67.303 101.035C67.4701 107.997 65.7992 128.652 65.7992 128.652C75.9994 141.661 122.648 139.815 128.775 128.652C128.775 128.652 127.939 81.7328 125.847 71.3894C124.017 62.3747 120.007 56.4948 116.649 53.8135L103.099 50.5195L88.1012 50.8139L68.6715 56.4073V56.4153Z" fill="#F5F5F5"/>
<path d="M85.4665 44.5292C84.8061 40.9806 82.3794 37.4639 80.5574 33.5493C78.3296 28.7674 76.8656 26.0463 76.969 22.5614C77.0327 20.5006 78.2421 17.6681 79.7458 17.0316C78.2421 12.1463 79.9368 8.19992 84.7107 6.36993C85.8325 5.94028 87.7898 5.27194 88.8958 4.77068C90.5348 4.02277 90.861 2.67813 92.1659 1.50057C94.4017 -0.528334 98.2844 -0.69542 99.8519 2.21665C101.324 0.18775 103.4 0.171837 105.819 0.704921C108.127 1.21414 109.272 3.12369 109.105 5.24011C112.256 3.33852 115.272 5.51063 115.63 7.38836C115.892 8.77279 115.63 9.95831 116.584 11.1756C117.658 12.5442 119.592 12.4646 120.149 11.3109C120.547 13.2762 119.823 14.8118 117.674 14.772C118.446 15.8222 118.685 17.2146 118.351 18.5274C117.897 20.3017 116.163 21.3997 114.738 21.4713C114.547 22.5614 114.532 23.5559 113.879 24.5187C113.251 25.4416 112.431 26.3566 111.429 26.8738C108.23 28.5287 104.658 29.1414 101.181 29.9768C99.8041 30.311 98.4276 30.6372 97.0591 30.9714C96.8204 31.0271 95.5713 31.1464 95.4281 31.3612L85.4745 44.5292H85.4665Z" fill="#263238"/>
<path d="M80.2876 39.0715C83.8441 40.5275 85.133 37.6552 85.133 37.6552L84.9023 49.9002C84.9023 50.5049 84.966 55.2549 84.966 55.2549C84.966 55.2549 101.555 63.8798 102.757 66.2508C104.181 63.9195 106.337 58.4534 103.815 55.6448L103.879 48.667C103.879 48.667 106.297 48.5794 108.35 48.2214C111.779 47.6406 114.612 44.816 115.479 41.0526C116.386 37.1142 116.466 30.7251 115.463 26.0785C115.209 24.893 115.073 23.6757 115.161 22.4583C115.392 19.236 114.755 17.39 113.84 14.7246C109.949 11.7887 99.1922 11.4943 91.1641 16.7297C93.0497 20.8511 92.087 25.1237 88.6021 27.097C88.8089 28.4098 89.0795 31.7276 86.9153 31.7356C85.3558 31.7356 85.1887 29.7862 83.5338 28.1233C81.847 26.4207 78.1313 26.1103 76.7708 28.6962C74.8612 32.3084 76.6276 37.5916 80.2876 39.0874V39.0715Z" fill="#C8856A"/>
<path d="M103.886 48.6666C98.3964 48.1971 93.8374 47.3776 90.4877 43.8131C88.053 41.2193 86.8516 37.7344 86.8516 37.7344C86.8516 37.7344 86.8675 41.8797 89.5886 45.484C91.3311 47.7834 95.2456 50.0192 103.847 50.4807L103.878 48.6666H103.886Z" fill="#AF6152"/>
<path d="M113.277 22.5608L109.72 21.24C110.054 20.2375 111.113 19.7203 112.099 20.0863C113.078 20.4523 113.611 21.5583 113.277 22.5608Z" fill="#263238"/>
<path d="M112.379 25.9116C112.395 26.7948 111.719 27.5188 110.868 27.5347C110.016 27.5506 109.316 26.8425 109.3 25.9593C109.284 25.0762 109.96 24.3521 110.812 24.3362C111.663 24.3203 112.363 25.0284 112.379 25.9116Z" fill="#263238"/>
<path d="M100.227 26.8178C100.243 27.701 99.567 28.425 98.7157 28.441C97.8643 28.4569 97.1641 27.7487 97.1482 26.8656C97.1323 25.9824 97.8086 25.2584 98.66 25.2425C99.5113 25.2265 100.211 25.9347 100.227 26.8178Z" fill="#263238"/>
<path d="M111.454 32.1716L106.171 34.7177L104.182 24.2708C106.147 23.4991 108.868 28.2411 111.446 32.1716H111.454Z" fill="#AF6152"/>
<path d="M99.0503 22.2343L95.5972 23.8256C95.1755 22.8311 95.6131 21.6694 96.5679 21.2318C97.5227 20.7942 98.6366 21.2318 99.0503 22.2343Z" fill="#263238"/>
<path d="M100.838 36.5195L106.535 37.8483C106.201 39.4714 104.657 40.4978 103.082 40.1318C101.507 39.7658 100.504 38.1506 100.838 36.5195Z" fill="#AF6152"/>
<path d="M101.514 37.4663C101.275 37.4345 101.036 37.4424 100.806 37.4663C100.933 38.7314 101.816 39.8373 103.081 40.1397C103.399 40.2113 103.71 40.2192 104.02 40.1874C104.131 38.8746 103.033 37.6652 101.514 37.4743V37.4663Z" fill="#F28F8F"/>
<path d="M105.383 65.224C105.383 65.224 107.913 60.3148 107.905 58.4052L104.77 55.2227L103.855 63.203L105.383 65.224Z" fill="#BE506C"/>
<path opacity="0.2" d="M105.383 65.224C105.383 65.224 107.913 60.3148 107.905 58.4052L104.77 55.2227L103.855 63.203L105.383 65.224Z" fill="black"/>
<path d="M101.119 63.5372L95.7964 59.9727L91.3965 62.9723L99.5678 67.0698L101.119 63.5372Z" fill="#BE506C"/>
<path opacity="0.2" d="M101.119 63.5372L95.7964 59.9727L91.3965 62.9723L99.5678 67.0698L101.119 63.5372Z" fill="black"/>
<path d="M98.834 112.709C101.507 97.5683 101.826 73.858 101.483 69.7047L104.38 69.4023C106.424 74.3672 112.479 98.5867 112.416 110.378C112.583 114.484 107.355 125.543 104.587 125.663C101.818 125.782 98.3964 115.168 98.834 112.709Z" fill="#BE506C"/>
<path opacity="0.1" d="M98.834 112.709C101.507 97.5683 101.826 73.858 101.483 69.7047L104.38 69.4023C106.424 74.3672 112.479 98.5867 112.416 110.378C112.583 114.484 107.355 125.543 104.587 125.663C101.818 125.782 98.3964 115.168 98.834 112.709Z" fill="#BE506C"/>
<path opacity="0.5" d="M104.61 70.0269C104.523 69.7643 104.459 69.5972 104.38 69.4062L101.483 69.7086C101.515 70.0587 101.515 70.4088 101.499 70.9816C102.55 71.1408 104.045 70.4724 104.618 70.0269H104.61Z" fill="#BE506C"/>
<path d="M101.046 63.1302C102.295 62.8915 103.783 62.995 103.783 62.995C103.783 62.995 104.802 63.8463 105.383 65.2228C105.383 65.2228 105.351 67.7768 104.38 69.3999C104.38 69.3999 103.258 70.2115 101.484 69.7023C101.484 69.7023 99.8449 68.5486 99.3755 66.9255C99.2879 65.5331 100.402 63.536 101.046 63.1302Z" fill="#BE506C"/>
<path opacity="0.1" d="M101.046 63.1302C102.295 62.8915 103.783 62.995 103.783 62.995C103.783 62.995 104.802 63.8463 105.383 65.2228C105.383 65.2228 105.351 67.7768 104.38 69.3999C104.38 69.3999 103.258 70.2115 101.484 69.7023C101.484 69.7023 99.8449 68.5486 99.3755 66.9255C99.2879 65.5331 100.402 63.536 101.046 63.1302Z" fill="#BE506C"/>
<path d="M101.101 63.1222C101.005 63.1222 100.886 63.345 100.791 63.3609C98.7697 62.2709 98.4435 61.9049 97.9104 62.056C96.892 62.3425 94.505 66.5753 93.9083 67.9438C93.3036 69.2964 93.4229 69.2964 91.5532 68.0552C87.9409 65.6444 84.8777 62.4777 83.0954 59.9078C80.5971 56.3115 79.7378 53.2005 79.7378 53.2005C79.7378 53.2005 81.8622 50.2645 82.4828 49.1427C83.6842 46.9705 84.0104 46.1192 84.9652 46.0078L84.9334 47.623C85.1482 49.5166 87.7977 51.3864 90.4393 53.6699C93.0808 55.9614 97.3534 58.1176 98.3639 59.0962C99.1039 59.8043 100.162 61.4593 101.085 63.1302L101.101 63.1222Z" fill="#E6E6E6"/>
<path d="M110.696 64.7217C110.402 65.4935 107.943 59.4624 106.742 59.5898C106.161 59.6375 104.856 61.2765 103.774 63.0031C103.774 63.0031 103.074 62.9872 102.955 62.9792C103.408 60.6957 103.567 58.818 103.639 57.5927C103.798 54.9909 103.846 50.4875 103.846 50.4875L103.878 48.6735C104.379 48.6496 104.848 48.6178 105.334 48.5859C105.636 48.8962 106.328 49.9863 106.63 50.4955C107.808 52.421 110.123 55.6752 110.513 57.9746C111.134 61.6664 110.808 64.4432 110.688 64.7296L110.696 64.7217Z" fill="#E6E6E6"/>
<path d="M80.4059 53.0132C80.4059 53.0132 82.7848 62.7042 89.2773 72.6658C95.7619 82.6273 106.782 94.5461 106.782 94.5461C106.782 94.5461 113.791 73.7319 107.903 52.2812L118.645 54.3261C118.645 54.3261 126.848 60.731 127.906 77.3362C128.964 93.9414 128.773 132.697 128.773 132.697C128.773 132.697 122.185 139.055 113.123 141.171L111.134 131.369L108.102 142.532C108.102 142.532 96.3666 146.001 82.029 141.171C67.6994 136.341 65.1612 132.021 65.1612 132.021C65.1612 132.021 66.482 109.616 66.0285 100.951C65.575 92.2864 63.6177 80.7257 63.1642 73.8354C62.7106 66.945 65.2726 57.2461 65.2726 57.2461L80.3899 53.0212L80.4059 53.0132Z" fill="#455A64"/>
<path d="M65.958 56.2576C71.5832 55.2153 78.9748 54.1173 80.7172 51.9531C85.2604 61.9305 90.0343 73.3561 90.8776 86.6195C92.819 117.029 94.5217 148.99 94.5217 148.99C94.5217 148.99 73.1904 147.296 63.3244 140.644C63.3244 140.644 64.5974 133.324 65.3373 117.745C66.0773 102.159 64.3985 90.5739 62.7117 78.9892C61.0329 67.4046 63.762 58.2228 65.95 56.2735L65.958 56.2576Z" fill="#37474F"/>
<path d="M107.284 51.5C112.766 65.209 114.198 65.9171 116.195 93.3113C118.184 120.705 118.582 142.864 118.582 142.864C118.582 142.864 127.27 138.846 129.514 135.17C129.514 135.17 129.84 112.797 129.283 93.5739C128.726 74.3431 128.862 64.4691 118.717 53.4096L107.292 51.5H107.284Z" fill="#37474F"/>
<path d="M65.9578 56.2578C58.057 57.6422 54.1822 62.5991 50.7132 72.855C45.9711 86.8664 41.8019 100.671 40.9028 107.689L59.5369 102.596L69.4984 82.5381C69.4984 82.5381 73.9779 66.2909 65.9578 56.2578Z" fill="#455A64"/>
<path d="M103.862 142.657L63.5549 136.459L57.4204 84.7812L97.7359 90.9793L103.862 142.657Z" fill="#BE506C"/>
<path opacity="0.2" d="M103.862 142.657L63.5549 136.459L57.4204 84.7812L97.7359 90.9793L103.862 142.657Z" fill="black"/>
<path d="M102.374 140.39L63.7529 134.446L58.0322 86.2461L96.653 92.1975L102.374 140.39Z" fill="#FAFAFA"/>
<path d="M97.4097 125.789L93.5508 93.2472L57.4204 84.7656L63.5549 136.467L101.754 145.434C102.502 145.609 103.067 145.092 102.979 144.312L101.022 127.826C100.942 127.134 100.362 126.481 99.6932 126.322L97.4097 125.789Z" fill="#BE506C"/>
<path d="M41.1655 107.694C41.1417 112.993 41.9532 113.876 47.7615 116.851C53.5776 119.827 68.2414 124.41 79.8579 125.532C87.4245 126.264 91.3232 125.906 94.2671 124.744C98.309 123.145 102.987 118.435 101.85 111.433C103.107 107.773 101.189 107.28 99.6218 106.882L99.9082 109.277C99.9082 109.277 96.5108 111.584 93.3839 111.632C90.257 111.672 93.1611 108.012 93.7181 105.8C94.283 103.588 94.1637 102.315 92.3496 101.265C91.3311 101.257 90.997 102.657 87.8382 105.8C85.4433 108.187 83.5736 112.539 79.8579 112.038C76.9379 111.64 59.6564 103.62 59.6564 103.62L58.8767 97L41.1655 107.694Z" fill="#C8856A"/>
<path d="M74.9658 110.234L78.4587 111.468C78.4587 111.468 76.2149 114.205 75.65 117.698C75.0851 121.19 76.1274 125.28 76.1274 125.28L72.1571 124.437C72.1571 124.437 71.274 120.785 71.8787 116.615C72.4833 112.446 74.9658 110.234 74.9658 110.234Z" fill="#FAFAFA"/>
<path d="M76.2461 110.551C76.2461 110.551 74.1694 112.914 73.5727 116.948C72.9043 121.499 73.7318 124.236 74.1774 125.04C71.8143 124.682 58.3121 121.221 54.4533 119.868C50.5944 118.523 44.3167 115.564 42.7891 114.139C41.2614 112.723 40.6806 110.989 40.9034 107.687L48.3268 102.077L50.9206 100.12L58.5588 94.3438L59.2271 99.9531L59.6409 103.398L76.2461 110.543V110.551Z" fill="#455A64"/>
<path d="M59.6413 103.404C55.1061 101.328 50.7699 101.518 48.3272 102.083C47.8817 102.187 47.4998 102.306 47.1895 102.418C47.8498 101.694 50.0936 100.794 51.7883 100.596C54.5412 100.269 56.5463 100.516 59.3708 101.208L59.6334 103.404H59.6413Z" fill="#37474F"/>
<path d="M238.779 94.6328L232.987 97.9427L238.859 116.76C239.28 117.977 240.657 118.375 241.643 117.818C241.93 117.659 246.465 115.065 247.452 114.5C247.73 114.341 247.977 114.102 248.16 113.792L253.324 103.027L238.779 94.6328Z" fill="#A3052D"/>
<path d="M275.189 56.712V110.315C275.189 112.105 273.931 114.293 272.372 115.184L269.452 116.871C267.9 117.77 265.378 117.77 263.827 116.871L216.685 89.6518C215.133 88.7528 213.876 86.5727 213.876 84.7825V31.1797C213.876 29.3895 215.133 27.2014 216.693 26.3103L219.613 24.6235C221.164 23.7244 223.686 23.7244 225.238 24.6235L272.38 51.8427C273.931 52.7417 275.189 54.9218 275.189 56.712Z" fill="#A3052D" fill-opacity="0.44"/>
<path d="M269.452 116.869L272.372 115.182C273.924 114.283 275.181 112.103 275.181 110.313V56.7103C275.181 55.8112 274.871 54.8166 274.361 53.9414L261.368 61.4444V115.445L263.835 116.869C265.386 117.768 267.909 117.768 269.46 116.869H269.452Z" fill="#A3052D"/>
<path d="M266.644 61.645C266.644 59.8548 265.387 57.6668 263.827 56.7756L216.685 29.5565C215.134 28.6574 213.877 29.3894 213.869 31.1796V84.7825C213.869 86.5727 215.126 88.7607 216.677 89.6518L233.402 99.311L238.852 116.768C239.393 118.335 241.525 118.542 242.361 117.102L247.103 107.22L263.827 116.871C265.379 117.77 266.636 117.038 266.636 115.248V61.645H266.644Z" fill="white"/>
<path d="M215.428 30.5683C215.492 30.5683 215.675 30.5842 215.985 30.7672L263.127 57.9863C264.257 58.6388 265.244 60.3494 265.244 61.6463V115.249C265.244 115.663 265.14 115.838 265.124 115.854C265.124 115.854 265.108 115.854 265.085 115.854C265.021 115.854 264.838 115.838 264.528 115.655L247.803 106.004C247.588 105.876 247.35 105.821 247.103 105.821C246.968 105.821 246.824 105.845 246.689 105.884C246.315 105.996 246.013 106.266 245.846 106.616L241.136 116.443C241.008 116.634 240.825 116.681 240.69 116.681C240.602 116.681 240.3 116.657 240.181 116.331L234.739 98.8986C234.635 98.5644 234.404 98.278 234.102 98.1029L217.377 88.4437C216.248 87.7913 215.261 86.0807 215.261 84.7838V31.181C215.261 30.7672 215.364 30.5922 215.38 30.5683C215.38 30.5683 215.396 30.5683 215.42 30.5683M215.428 29.168C214.505 29.168 213.869 29.9 213.869 31.173V84.7758C213.869 86.566 215.126 88.754 216.677 89.6452L233.402 99.3043L238.852 116.761C239.146 117.612 239.918 118.066 240.69 118.066C241.334 118.066 241.979 117.755 242.361 117.103L247.103 107.221L263.827 116.872C264.281 117.135 264.703 117.254 265.085 117.254C266.007 117.254 266.644 116.522 266.644 115.249V61.6463C266.644 59.8561 265.387 57.6681 263.827 56.777L216.685 29.5578C216.232 29.2953 215.81 29.1759 215.428 29.1759V29.168Z" fill="#A3052D"/>
<path d="M224.028 62.5925C224.028 67.1675 228.07 69.626 229.621 70.5251C231.173 71.4242 235.477 73.835 235.477 68.5917C235.477 68.5439 235.453 68.5041 235.445 68.4644C235.445 68.4485 235.453 68.4246 235.445 68.4087L230.894 52.7264L238.676 57.2219C238.906 57.93 239.328 58.6301 239.853 59.1473V75.3547L239.01 74.8375V85.0059L236.519 83.5658C235.652 83.0645 234.952 83.5976 234.952 84.7513V85.8174L234.188 85.3719C232.494 84.3932 231.125 85.4355 231.125 87.6872V87.9896L250.006 98.8899V98.5876C250.006 96.3359 248.637 93.7103 246.942 92.7396L246.179 92.294V91.2279C246.179 90.0742 245.478 88.7295 244.611 88.2362L242.121 86.7961V76.7311L241.277 76.214V59.9668C241.803 60.0544 242.224 59.8475 242.455 59.4019L249.91 63.7064L245.136 74.3124C245.136 74.3124 245.136 74.3124 245.136 74.3203C245.089 74.3999 245.057 74.4954 245.057 74.5988C245.057 79.1738 249.099 81.6323 250.65 82.5314C252.202 83.4305 256.506 85.8413 256.506 80.598C256.506 80.5503 256.482 80.5105 256.474 80.4707C256.474 80.4548 256.482 80.4309 256.474 80.415L251.804 64.3349C251.971 64.2474 252.043 64.0883 252.058 63.953V63.8416C252.058 63.4597 251.828 63.0221 251.541 62.855L242.535 57.6515C242.328 56.8559 241.874 56.0602 241.285 55.4794V53.6653C241.285 52.989 240.967 52.2491 240.577 52.0263C240.187 51.8035 239.869 52.1695 239.869 52.8458V54.6599C239.288 54.5644 238.827 54.8349 238.62 55.3919L229.613 50.1883C229.327 50.0212 229.096 50.1963 229.096 50.5782V50.9919C229.096 51.0476 229.136 51.1113 229.144 51.167L224.131 62.314C224.131 62.314 224.131 62.314 224.131 62.322C224.084 62.4015 224.052 62.497 224.052 62.6004L224.028 62.5925ZM250.634 64.3509L254.947 79.3806L246.322 74.3999L250.634 64.3509ZM225.309 62.4095L229.621 52.3604L233.934 67.3902L225.309 62.4095Z" fill="#455A64"/>
</svg>
