<svg width="429" height="458" viewBox="0 0 429 458" fill="none" xmlns="http://www.w3.org/2000/svg">
<path d="M250.662 455.859C232.022 447.031 224.579 426.043 221.95 406.504C221.506 403.237 220.576 399.884 221.636 396.779C222.697 393.674 225.975 391.121 229.101 391.997C231.698 392.722 233.223 395.351 234.965 397.439C237.28 400.219 240.385 402.318 243.803 403.421C246.054 404.146 248.715 404.362 250.565 402.902C253.107 400.89 252.783 396.963 252.209 393.739C251.149 387.734 250.1 381.719 249.04 375.715C248.477 372.491 247.904 369.202 248.391 365.967C248.877 362.733 250.608 359.52 253.54 358.135C256.461 356.761 260.561 357.886 261.741 360.937C262.227 362.203 262.195 363.62 262.509 364.94C262.822 366.26 263.699 367.644 265.04 367.796C266.393 367.958 267.529 366.822 268.329 365.719C271.109 361.9 272.657 357.313 274.063 352.79C275.469 348.257 276.8 343.638 279.213 339.57C281.636 335.502 285.336 331.986 289.912 330.937C294.488 329.898 299.898 331.911 301.834 336.249C303.771 340.598 301.899 345.661 299.638 349.837C296.273 356.025 292.022 361.716 287.056 366.671C286.158 367.569 285.195 368.531 285 369.797C284.665 372.069 287.067 373.854 289.306 374.211C291.849 374.601 294.413 373.919 296.977 373.789C299.541 373.659 302.462 374.309 303.814 376.526C305.696 379.599 303.522 383.526 301.185 386.252C296.522 391.705 290.918 396.335 284.708 399.884C282.48 401.149 280.11 402.339 278.477 404.33C276.843 406.321 276.183 409.415 277.72 411.492C279.267 413.569 282.35 413.796 284.762 412.92C287.175 412.044 289.166 410.313 291.383 409.014C295.538 406.591 301.315 405.931 304.798 409.274C307.092 411.481 307.849 414.954 307.416 418.124C306.984 421.283 305.502 424.193 303.879 426.93C298.177 436.472 290.215 444.726 280.532 450.027C270.85 455.339 261.481 457.914 250.63 455.902" fill="#F1DAE0"/>
<path d="M253.616 442.834C254.817 432.546 257.067 421.37 259.826 409.762C260.529 406.863 261.222 403.996 261.903 401.172C262.595 398.359 263.266 395.568 264.11 392.874C265.754 387.487 267.756 382.424 269.79 377.685C271.834 372.947 273.944 368.522 275.946 364.389C277.958 360.267 279.905 356.459 281.831 353.073C285.661 346.268 289.393 341.162 292.087 337.754C293.439 336.045 294.521 334.757 295.278 333.892C295.635 333.481 295.927 333.156 296.133 332.918C296.328 332.702 296.436 332.594 296.436 332.604C296.436 332.604 296.36 332.734 296.176 332.961C295.971 333.21 295.7 333.546 295.365 333.978C294.651 334.865 293.591 336.185 292.271 337.905C289.631 341.346 285.963 346.485 282.199 353.289C280.305 356.686 278.38 360.495 276.389 364.616C274.409 368.749 272.321 373.174 270.298 377.912C268.275 382.651 266.295 387.692 264.673 393.048C263.85 395.72 263.169 398.489 262.487 401.313C261.806 404.137 261.113 406.993 260.421 409.892C257.662 421.489 255.401 432.633 254.179 442.889" fill="#F1DAE0"/>
<path d="M264.272 392.818C264.272 392.818 264.045 392.363 263.72 391.498C263.396 390.632 262.974 389.367 262.476 387.798C261.481 384.661 260.247 380.29 258.906 375.454C257.564 370.618 256.277 366.269 255.228 363.164C254.708 361.606 254.276 360.351 253.973 359.486C253.67 358.62 253.518 358.134 253.551 358.112C253.594 358.101 253.81 358.556 254.189 359.399C254.568 360.243 255.065 361.477 255.628 363.024C256.775 366.107 258.138 370.456 259.479 375.292C260.788 380.063 261.978 384.379 262.887 387.679C263.309 389.161 263.655 390.416 263.947 391.422C264.196 392.309 264.315 392.807 264.272 392.818Z" fill="#F1DAE0"/>
<path d="M304.442 378.052C304.442 378.052 303.868 378.257 302.819 378.528C301.769 378.798 300.255 379.188 298.394 379.729C294.662 380.778 289.566 382.412 284.016 384.467C278.466 386.523 273.522 388.611 269.995 390.212C268.221 391.001 266.804 391.683 265.83 392.148C264.846 392.613 264.294 392.851 264.283 392.819C264.262 392.786 264.781 392.473 265.733 391.932C266.685 391.402 268.08 390.666 269.833 389.822C273.327 388.113 278.261 385.96 283.821 383.894C289.393 381.838 294.532 380.259 298.297 379.317C300.179 378.831 301.715 378.495 302.786 378.3C303.857 378.106 304.452 378.008 304.463 378.052H304.442Z" fill="#F1DAE0"/>
<path d="M253.995 441.98C253.995 441.98 253.854 441.839 253.627 441.525C253.368 441.147 253.054 440.692 252.664 440.141C251.831 438.94 250.674 437.165 249.278 434.958C246.476 430.545 242.787 424.324 238.817 417.411C234.846 410.487 231.222 404.245 228.518 399.777C227.198 397.602 226.105 395.817 225.294 394.497C224.947 393.924 224.655 393.448 224.428 393.058C224.233 392.723 224.147 392.55 224.158 392.528C224.179 392.528 224.298 392.68 224.525 392.983C224.785 393.361 225.099 393.816 225.488 394.367C226.321 395.568 227.479 397.342 228.875 399.549C231.677 403.963 235.366 410.184 239.336 417.108C243.306 424.021 246.931 430.274 249.635 434.742C250.955 436.906 252.048 438.702 252.859 440.022C253.205 440.595 253.497 441.071 253.725 441.46C253.919 441.796 254.006 441.98 253.995 441.991V441.98Z" fill="#F1DAE0"/>
<path d="M306.118 414.89C306.118 414.89 305.956 415.02 305.61 415.203C305.198 415.42 304.701 415.69 304.095 416.015C302.699 416.74 300.806 417.724 298.513 418.925C293.807 421.381 287.337 424.854 280.197 428.705C273.057 432.556 266.544 435.964 261.784 438.333C259.404 439.513 257.467 440.454 256.115 441.071C255.487 441.352 254.979 441.59 254.557 441.774C254.2 441.925 254.005 442.001 253.994 441.979C253.994 441.958 254.157 441.849 254.503 441.655C254.914 441.438 255.412 441.168 256.017 440.843C257.413 440.119 259.306 439.134 261.6 437.933C266.306 435.477 272.775 432.005 279.926 428.153C287.067 424.302 293.569 420.894 298.339 418.525C300.72 417.346 302.656 416.404 304.008 415.788C304.636 415.506 305.144 415.268 305.566 415.084C305.923 414.933 306.118 414.857 306.129 414.879L306.118 414.89Z" fill="#F1DAE0"/>
<path d="M115.388 223.652C115.388 223.652 102.536 225.437 109.752 253.587C116.968 281.737 123.091 296.244 123.091 296.244C123.091 296.244 124.065 302.616 118.915 302.422C113.776 302.227 103.293 298.051 99.7339 303.601C96.0448 309.356 99.2687 316.28 107.329 323.539C115.388 330.799 132.471 347.34 134.007 348.844C135.522 350.315 136.668 353.442 133.142 353.864C129.615 354.286 104.602 351.354 103.91 363.308C103.228 375.263 129.009 391.783 131.789 393.644C134.57 395.504 135.013 396.954 134.386 398.577C133.758 400.189 125.45 398.415 118.298 397.874C111.147 397.333 102.763 397.949 102.947 404.884C103.131 411.819 116.665 429.334 156.163 442.349L174.858 447.184L188.673 433.575C216.477 402.645 219.517 380.726 216.239 374.614C212.95 368.512 205.366 372.136 199.427 376.161C193.487 380.185 187.158 385.865 185.817 384.772C184.475 383.68 184.129 382.198 185.622 379.201C187.115 376.204 201.277 349.05 194.742 339.021C188.208 328.981 167.956 343.965 164.688 345.35C161.421 346.734 160.859 343.446 161.443 341.423C162.027 339.356 168.637 316.507 172.023 306.208C175.41 295.909 174.771 288.293 168.713 285.134C162.871 282.083 155.85 290.922 151.49 293.637C147.13 296.363 144.804 290.348 144.804 290.348C144.804 290.348 142.911 274.715 135.175 246.695C127.451 218.675 115.129 223.695 115.129 223.695" fill="#F1DAE0"/>
<path d="M174.857 451.848C169.264 431.25 159.938 394.478 151.759 362.942C143.591 331.416 136.17 302.888 130.674 282.257C127.926 271.968 125.697 263.627 124.15 257.839C123.382 254.973 122.787 252.744 122.376 251.197C122.181 250.45 122.041 249.877 121.933 249.466C121.835 249.076 121.803 248.871 121.803 248.871C121.803 248.871 121.878 249.066 121.997 249.444C122.116 249.855 122.29 250.429 122.495 251.164C122.928 252.701 123.566 254.929 124.378 257.775C126 263.519 128.294 271.849 131.085 282.149C136.678 302.747 144.165 331.265 152.333 362.79C160.501 394.326 169.772 431.12 175.257 451.74" fill="#F1DAE0"/>
<path d="M114.166 310.036C114.166 310.036 114.621 310.242 115.4 310.696C116.179 311.15 117.271 311.843 118.624 312.708C121.317 314.45 124.985 316.938 128.977 319.773C132.904 322.575 136.453 325.106 139.179 327.043C140.412 327.908 141.451 328.644 142.284 329.228C143.019 329.737 143.42 330.039 143.398 330.072C143.376 330.104 142.933 329.877 142.165 329.423C141.397 328.968 140.293 328.276 138.952 327.389C136.269 325.626 132.644 323.083 128.652 320.249C124.704 317.479 121.134 314.969 118.407 313.054C117.174 312.189 116.135 311.464 115.292 310.88C114.556 310.361 114.166 310.058 114.188 310.025L114.166 310.036Z" fill="#F1DAE0"/>
<path d="M144.944 329.163C144.804 329.077 149.618 321.298 155.687 311.789C161.767 302.279 166.798 294.641 166.939 294.728C167.079 294.814 162.265 302.593 156.185 312.102C150.105 321.612 145.074 329.25 144.934 329.152L144.944 329.163Z" fill="#F1DAE0"/>
<path d="M155.308 378.14C155.308 378.14 155.644 377.761 156.336 377.145C157.115 376.463 158.089 375.608 159.257 374.591C161.713 372.439 165.099 369.442 168.713 366.001C172.337 362.572 175.507 359.348 177.779 357C178.85 355.897 179.758 354.967 180.472 354.22C181.111 353.571 181.478 353.214 181.511 353.246C181.543 353.279 181.23 353.679 180.645 354.382C180.061 355.086 179.185 356.081 178.081 357.293C175.885 359.716 172.748 362.994 169.124 366.445C165.5 369.896 162.059 372.85 159.528 374.927C158.262 375.965 157.223 376.788 156.488 377.339C155.752 377.891 155.341 378.183 155.308 378.151V378.14Z" fill="#F1DAE0"/>
<path d="M123.664 366.975C123.664 366.975 124.13 367.05 124.941 367.288C125.871 367.581 127.018 367.927 128.36 368.349C131.237 369.268 135.208 370.577 139.578 372.059C143.949 373.542 147.898 374.915 150.743 375.932C152.063 376.419 153.188 376.83 154.108 377.177C154.897 377.479 155.33 377.674 155.319 377.707C155.309 377.75 154.854 377.631 154.043 377.393C153.112 377.101 151.966 376.755 150.624 376.333C147.746 375.413 143.776 374.104 139.405 372.622C135.035 371.14 131.086 369.766 128.241 368.749C126.921 368.262 125.796 367.851 124.876 367.505C124.086 367.202 123.654 367.007 123.664 366.975Z" fill="#F1DAE0"/>
<path d="M127.32 411.377C127.32 411.377 127.915 411.485 128.954 411.788C130.101 412.134 131.572 412.589 133.346 413.13C137.046 414.287 142.142 415.921 147.767 417.771C153.393 419.61 158.467 421.319 162.134 422.574C163.887 423.191 165.337 423.699 166.462 424.1C167.479 424.468 168.041 424.695 168.02 424.738C167.998 424.781 167.425 424.63 166.386 424.327C165.239 423.981 163.768 423.526 161.994 422.985C158.294 421.828 153.198 420.194 147.573 418.344C141.958 416.505 136.873 414.796 133.206 413.541C131.453 412.924 130.003 412.416 128.878 412.015C127.861 411.648 127.299 411.42 127.32 411.377Z" fill="#F1DAE0"/>
<path d="M167.143 424.139C167.143 424.139 167.565 423.652 168.409 422.852C169.329 421.986 170.54 420.85 171.99 419.487C175.008 416.642 179.163 412.693 183.631 408.203C188.099 403.724 192.048 399.559 194.882 396.519C196.245 395.059 197.37 393.858 198.236 392.928C199.036 392.084 199.491 391.629 199.523 391.651C199.556 391.683 199.155 392.181 198.42 393.079C197.673 393.977 196.581 395.254 195.196 396.801C192.437 399.916 188.542 404.125 184.063 408.625C179.595 413.126 175.376 417.031 172.282 419.801C170.735 421.186 169.458 422.289 168.571 423.036C167.684 423.782 167.176 424.182 167.143 424.15V424.139Z" fill="#F1DAE0"/>
<path d="M59.565 55.7813L49.0061 52.4924C49.0061 52.4924 46.2365 61.3528 36.9759 58.6374C32.1616 57.2309 30.6579 53.3146 30.409 50.5992C30.1061 47.451 31.4584 44.3785 33.8277 42.2797C36.5431 39.8888 41.3033 38.4283 48.0216 41.9011L55.4431 18.1003L45.0032 14.8439L40.6542 28.789C40.6542 28.789 24.8267 28.0101 19.7961 44.1405C14.9818 59.5786 27.7044 67.4869 33.633 69.3369C38.1659 70.7541 53.9502 74.4757 59.5542 55.7813H59.565Z" fill="#A3052D"/>
<path d="M46.418 9.89369L57.0139 13.2L60.1011 3.30637L49.5052 1.53704e-05L46.418 9.89369Z" fill="#A3052D"/>
<path d="M88.7107 28.8945L92.9407 27.7802C92.9407 27.7802 91.9995 24.2317 95.6778 23.1931C97.5819 22.6522 98.9126 23.6475 99.5617 24.5021C100.33 25.4974 100.514 26.8065 100.168 28.0073C99.7672 29.3813 98.4798 30.8634 95.4939 31.1123L98.0038 40.6434L102.18 39.5399L100.708 33.9575C100.708 33.9575 106.172 30.8959 104.462 24.4372C102.829 18.2598 96.9111 18.2815 94.5311 18.909C92.7136 19.385 86.6444 21.4621 88.6999 28.8945H88.7107Z" fill="#A3052D"/>
<path d="M102.756 41.5011L98.5093 42.6216L99.5553 46.5861L103.802 45.4656L102.756 41.5011Z" fill="#A3052D"/>
<path d="M387.735 43.7892L391.965 42.6749C391.965 42.6749 391.024 39.1264 394.702 38.0879C396.606 37.5469 397.937 38.5422 398.586 39.3969C399.354 40.3922 399.538 41.7013 399.192 42.9021C398.791 44.2761 397.504 45.7582 394.518 46.007L397.028 55.5382L401.204 54.4347L399.732 48.8523C399.732 48.8523 405.196 45.7907 403.486 39.332C401.853 33.1546 395.935 33.1763 393.555 33.8037C391.738 34.2797 385.668 36.3569 387.724 43.7892H387.735Z" fill="#A3052D"/>
<path d="M401.78 56.3958L397.533 57.5164L398.579 61.4809L402.826 60.3604L401.78 56.3958Z" fill="#A3052D"/>
<path d="M1.64196 185.482L10.3401 182.129C10.3401 182.129 7.52724 174.826 15.0678 171.764C18.9841 170.174 22.0241 171.97 23.6144 173.636C25.4644 175.562 26.1784 178.288 25.7132 180.917C25.1723 183.914 22.7922 187.376 16.5283 188.598L24.0904 208.212L32.6911 204.902L28.2664 193.412C28.2664 193.412 39.1282 185.645 34.011 172.349C29.1102 159.626 16.5607 161.065 11.6816 162.947C7.94916 164.386 -4.42724 170.196 1.65277 185.471L1.64196 185.482Z" fill="#A3052D"/>
<path d="M34.363 208.911L25.6306 212.276L28.7732 220.433L37.5056 217.068L34.363 208.911Z" fill="#A3052D"/>
<path d="M428.995 46.258C428.995 46.258 429.006 46.0741 428.995 45.7171C428.984 45.3168 428.973 44.7867 428.952 44.116C428.93 43.759 428.941 43.3695 428.898 42.9368C428.833 42.504 428.768 42.028 428.703 41.5195C428.627 41.0111 428.551 40.4593 428.465 39.8751C428.324 39.3017 428.173 38.6851 428.01 38.036C427.34 35.4503 426.204 32.313 424.116 29.1107C422.06 25.9084 419.118 22.5763 415.126 19.8825C411.123 17.2319 406.092 15.1872 400.434 14.6463C399.017 14.5922 397.578 14.4191 396.117 14.5597C395.393 14.6138 394.646 14.5922 393.91 14.7004C393.175 14.8086 392.428 14.9276 391.682 15.0358C388.728 15.6416 385.71 16.5179 382.897 18.0325C380.074 19.5146 377.391 21.4295 375 23.7663C372.663 26.1464 370.629 28.9376 369.06 32.0317C367.481 35.1258 366.388 38.5444 365.966 42.1037C365.793 42.9908 365.793 43.8888 365.739 44.7867C365.685 45.6847 365.642 46.5934 365.685 47.5022C365.761 49.3197 365.988 51.148 366.377 52.9439C367.21 56.8602 368.801 60.5385 370.932 63.7733L370.899 63.4487C369.396 67.2027 367.914 70.8918 366.475 74.4836L366.215 75.1327L366.897 74.9488C370.943 73.8345 374.881 72.7526 378.7 71.7032L378.408 71.6491C382.519 74.7432 387.225 76.723 391.887 77.5344C394.213 77.9455 396.55 78.1186 398.79 77.9672C399.915 77.9239 401.029 77.8698 402.111 77.6534C402.652 77.5669 403.193 77.4911 403.723 77.4046C404.253 77.3072 404.772 77.145 405.281 77.0151C413.589 74.8839 419.723 69.7667 423.229 64.7036C425.014 62.1721 426.29 59.6622 427.091 57.3795C427.296 56.8061 427.491 56.2544 427.686 55.7243C427.827 55.1833 427.956 54.6532 428.086 54.1556C428.205 53.6579 428.324 53.1819 428.443 52.7167C428.53 52.2515 428.584 51.8079 428.638 51.3968C428.746 50.5638 428.887 49.8282 428.919 49.1899C428.941 48.5624 428.963 48.0215 428.973 47.5671C428.973 47.156 428.984 46.8314 428.995 46.5718C428.995 46.3446 428.995 46.2364 428.984 46.2364C428.973 46.2364 428.963 46.3446 428.941 46.5718C428.919 46.8206 428.898 47.1452 428.865 47.5563C428.833 47.9998 428.8 48.5408 428.757 49.1682C428.703 49.8065 428.551 50.5314 428.422 51.3536C427.827 54.5991 426.528 59.4675 422.893 64.444C419.377 69.4097 413.308 74.3971 405.14 76.4418C404.632 76.5608 404.123 76.723 403.604 76.8096C403.074 76.8853 402.554 76.9719 402.014 77.0476C400.953 77.2531 399.861 77.2964 398.757 77.3397C396.55 77.4803 394.267 77.3072 391.985 76.8961C387.419 76.0739 382.821 74.1266 378.797 71.0866L378.667 70.9892L378.505 71.0325C374.697 72.0711 370.748 73.1421 366.702 74.2564L367.113 74.7216C368.563 71.1299 370.045 67.4407 371.559 63.6867L371.624 63.5136L371.516 63.3621C369.439 60.1923 367.881 56.5897 367.059 52.7708C366.68 51.0074 366.464 49.2331 366.388 47.4481C366.345 46.561 366.388 45.6738 366.431 44.7867C366.485 43.9104 366.485 43.0233 366.648 42.1578C367.059 38.6743 368.119 35.3313 369.666 32.3021C371.192 29.2729 373.171 26.5467 375.465 24.1991C377.802 21.9055 380.42 20.0231 383.178 18.5626C385.926 17.0696 388.891 16.1933 391.779 15.5983C392.515 15.4901 393.24 15.3711 393.954 15.2629C394.679 15.1548 395.403 15.1656 396.117 15.1115C397.556 14.9708 398.963 15.1331 400.358 15.1764C405.908 15.6849 410.863 17.6647 414.823 20.2395C418.771 22.8684 421.703 26.1248 423.759 29.2729C425.858 32.4211 427.015 35.5044 427.718 38.0576C427.891 38.6959 428.054 39.3017 428.205 39.8751C428.303 40.4593 428.389 41.0002 428.476 41.5087C428.562 42.0172 428.638 42.4824 428.703 42.9043C428.746 43.337 428.757 43.7265 428.789 44.0727C428.843 44.7435 428.876 45.2736 428.908 45.663C428.941 46.02 428.963 46.2039 428.973 46.2039L428.995 46.258Z" fill="#263238"/>
<path d="M106.374 173.845H168.851C168.851 173.845 168.851 121.386 223.365 120.444C251.677 119.958 266.358 138.501 272.319 152.716C279.243 169.214 277.144 188.017 267.873 203.325C257.27 220.797 234.454 238.356 192.348 230.934L191.948 370.136H253.733V287.612C253.733 287.612 340.378 265.218 340.378 169.723C340.378 74.2277 266.499 58.6274 226.784 57.3508C204.692 56.6476 196.676 55.6955 169.348 59.5794C134.523 64.5235 105.627 104.963 106.363 173.845H106.374Z" fill="#A3052D"/>
<path d="M254.479 399.15H191.775V457.711H254.479V399.15Z" fill="#A3052D"/>
<path opacity="0.1" d="M254.479 399.15H191.775V457.711H254.479V399.15Z" fill="black"/>
<path opacity="0.1" d="M106.374 173.845H168.851C168.851 173.845 168.851 121.386 223.365 120.444C251.677 119.958 266.358 138.501 272.319 152.716C279.243 169.214 277.144 188.017 267.873 203.325C257.27 220.797 234.454 238.356 192.348 230.934L191.948 370.136H253.733V287.612C253.733 287.612 340.378 265.218 340.378 169.723C340.378 74.2277 266.499 58.6274 226.784 57.3508C204.692 56.6476 196.676 55.6955 169.348 59.5794C134.523 64.5235 105.627 104.963 106.363 173.845H106.374Z" fill="black"/>
<path d="M80.4952 173.848H142.972C142.972 173.848 142.972 121.389 197.487 120.448C225.799 119.961 240.48 138.504 246.441 152.719C253.365 169.218 251.266 188.02 241.994 203.328C231.392 220.8 208.176 236.682 166.07 229.26V370.139H227.854V287.616C227.854 287.616 314.5 265.221 314.5 169.726C314.5 74.2308 232.571 57.1375 197.498 57.1375C170.678 57.1375 79.316 63.6178 80.4952 173.848Z" fill="#A3052D"/>
<path opacity="0.3" d="M80.4952 173.848H142.972C142.972 173.848 142.972 121.389 197.487 120.448C225.799 119.961 240.48 138.504 246.441 152.719C253.365 169.218 251.266 188.02 241.994 203.328C231.392 220.8 208.176 236.682 166.07 229.26V370.139H227.854V287.616C227.854 287.616 314.5 265.221 314.5 169.726C314.5 74.2308 232.571 57.1375 197.498 57.1375C170.678 57.1375 79.316 63.6178 80.4952 173.848Z" fill="black"/>
<path d="M228.602 399.155H165.897V457.716H228.602V399.155Z" fill="#A3052D"/>
<path opacity="0.3" d="M228.602 399.155H165.897V457.716H228.602V399.155Z" fill="black"/>
<path d="M204.542 120.74C204.542 120.74 204.217 120.74 203.611 120.686C202.995 120.653 202.107 120.48 200.95 120.469C198.635 120.318 195.27 120.372 191.148 120.88C187.037 121.4 182.18 122.417 177.008 124.202C174.434 125.132 171.761 126.192 169.133 127.588C166.482 128.929 163.853 130.574 161.43 132.575C158.985 134.555 156.918 136.87 155.123 139.24C153.316 141.609 151.747 144.021 150.395 146.401C147.733 151.194 145.927 155.813 144.802 159.806C143.655 163.787 143.146 167.119 142.919 169.423C142.789 170.581 142.746 171.479 142.724 172.085C142.692 172.69 142.66 173.015 142.638 173.015C142.616 173.015 142.605 172.69 142.605 172.085C142.605 171.468 142.605 170.57 142.703 169.402C142.865 167.076 143.309 163.711 144.412 159.687C145.494 155.662 147.279 150.988 149.94 146.142C151.293 143.74 152.861 141.295 154.679 138.893C156.486 136.502 158.574 134.144 161.062 132.132C163.529 130.098 166.19 128.443 168.873 127.09C171.534 125.684 174.239 124.624 176.835 123.704C182.061 121.919 186.961 120.935 191.105 120.469C195.248 120.015 198.645 120.015 200.961 120.242C202.129 120.285 203.016 120.502 203.622 120.567C204.228 120.664 204.542 120.718 204.542 120.74Z" fill="#263238"/>
<path d="M298.686 109.585C298.686 109.585 298.61 109.509 298.481 109.336C298.34 109.141 298.156 108.892 297.929 108.579C297.431 107.875 296.75 106.902 295.873 105.658C295.419 105.03 294.954 104.305 294.38 103.559C293.775 102.834 293.125 102.044 292.433 101.19C291.73 100.335 290.983 99.4262 290.194 98.4633C289.382 97.5221 288.43 96.6025 287.489 95.5856C286.515 94.6011 285.552 93.5084 284.46 92.4698C283.335 91.4529 282.177 90.4035 280.965 89.3108C280.36 88.7699 279.765 88.1965 279.115 87.6556C278.455 87.1363 277.785 86.6062 277.103 86.0653C275.729 85.0051 274.366 83.8583 272.884 82.7873C266.955 78.4923 260.021 74.3596 252.415 70.6921C250.49 69.8267 248.586 68.9612 246.714 68.1173C244.799 67.3709 242.906 66.6352 241.045 65.9212C239.206 65.1531 237.323 64.6121 235.506 64.0171C233.678 63.4545 231.914 62.7946 230.129 62.3727C228.355 61.9075 226.635 61.4531 224.958 61.0096C223.281 60.566 221.615 60.3063 220.025 59.9602C218.423 59.6572 216.898 59.2678 215.394 59.073C213.901 58.8567 212.462 58.6511 211.088 58.4456C208.351 57.9804 205.841 57.883 203.656 57.6666C202.563 57.5801 201.536 57.4611 200.594 57.4178C199.653 57.3962 198.799 57.3745 198.02 57.3529C196.505 57.2988 195.304 57.2663 194.45 57.2339C194.071 57.2122 193.757 57.2014 193.519 57.1906C193.314 57.1798 193.205 57.169 193.205 57.1582C193.205 57.1582 193.314 57.1365 193.519 57.1365C193.757 57.1365 194.071 57.1365 194.45 57.1257C195.304 57.1257 196.505 57.1257 198.02 57.1257C198.799 57.1257 199.664 57.1365 200.605 57.1473C201.547 57.1798 202.574 57.2772 203.667 57.3529C205.863 57.5476 208.384 57.6125 211.132 58.0561C212.506 58.24 213.955 58.4347 215.448 58.6403C216.952 58.8134 218.488 59.2029 220.1 59.495C221.701 59.8303 223.368 60.09 225.055 60.5227C226.743 60.9555 228.474 61.4098 230.259 61.8642C232.055 62.2753 233.818 62.9244 235.657 63.4978C237.486 64.0928 239.379 64.6338 241.229 65.4019C243.09 66.1267 244.994 66.8516 246.919 67.598C248.802 68.4527 250.717 69.3074 252.642 70.1837C260.28 73.862 267.237 78.0271 273.176 82.3653C274.669 83.4364 276.032 84.6048 277.406 85.6758C278.088 86.2167 278.758 86.7577 279.418 87.277C280.067 87.8179 280.662 88.4021 281.268 88.943C282.469 90.0465 283.638 91.1175 284.752 92.1345C285.845 93.1839 286.807 94.2874 287.77 95.2827C288.711 96.2996 289.653 97.2408 290.464 98.1928C291.243 99.1665 291.989 100.086 292.671 100.952C293.363 101.817 294.002 102.618 294.586 103.353C295.138 104.121 295.603 104.846 296.036 105.495C296.879 106.761 297.539 107.767 298.005 108.481C298.21 108.806 298.372 109.065 298.502 109.26C298.61 109.433 298.665 109.531 298.654 109.541L298.686 109.585Z" fill="#263238"/>
<path d="M292.172 243.724C292.172 243.724 292.02 243.962 291.696 244.373C291.328 244.828 290.852 245.423 290.257 246.169C289.629 246.948 288.85 247.889 287.898 248.939C286.946 249.999 285.908 251.232 284.642 252.498C283.409 253.796 282.056 255.203 280.52 256.642C279.027 258.124 277.339 259.606 275.576 261.185C271.995 264.269 267.916 267.503 263.437 270.619C258.937 273.702 254.458 276.364 250.304 278.614C248.205 279.696 246.214 280.756 244.3 281.622C242.406 282.541 240.61 283.309 238.955 284.002C237.322 284.726 235.796 285.267 234.476 285.776C233.156 286.295 231.999 286.685 231.047 286.998C230.138 287.29 229.413 287.529 228.861 287.712C228.364 287.864 228.093 287.94 228.083 287.918C228.083 287.896 228.331 287.788 228.818 287.604C229.359 287.399 230.073 287.128 230.971 286.793C231.912 286.457 233.048 286.036 234.357 285.484C235.666 284.943 237.181 284.38 238.793 283.634C240.426 282.92 242.212 282.141 244.083 281.2C245.987 280.323 247.956 279.252 250.044 278.16C254.177 275.899 258.612 273.226 263.102 270.154C267.57 267.06 271.638 263.847 275.219 260.796C276.982 259.238 278.681 257.778 280.174 256.306C281.71 254.889 283.084 253.493 284.328 252.228C285.605 250.983 286.665 249.772 287.628 248.733C288.601 247.705 289.402 246.786 290.051 246.029C290.679 245.315 291.187 244.741 291.576 244.308C291.934 243.919 292.117 243.724 292.139 243.735L292.172 243.724Z" fill="#263238"/>
<path d="M226.764 365.226C226.613 365.226 226.483 347.851 226.483 326.42C226.483 304.988 226.613 287.603 226.764 287.603C226.916 287.603 227.046 304.977 227.046 326.42C227.046 347.862 226.916 365.226 226.764 365.226Z" fill="#263238"/>
<path d="M229.143 453.746C228.992 453.746 228.862 441.553 228.862 426.516C228.862 411.478 228.992 399.274 229.143 399.274C229.295 399.274 229.425 411.467 229.425 426.516C229.425 441.564 229.295 453.746 229.143 453.746Z" fill="#263238"/>
<path d="M290.65 165.557C289.557 167.732 293.603 169.495 295.929 170.198C298.266 170.902 300.754 170.826 303.177 170.696C306.401 170.523 309.744 170.22 312.546 168.619C315.034 167.191 316.895 164.843 318.194 162.29C319.492 159.737 320.281 156.946 321.06 154.187C321.06 154.187 295.496 155.864 290.639 165.557H290.65Z" fill="#455A64"/>
<g opacity="0.4">
<path d="M290.649 165.556C289.556 167.731 293.602 169.494 295.928 170.197C298.265 170.9 300.753 170.825 303.177 170.695C306.401 170.522 309.744 170.219 312.546 168.618C315.034 167.19 316.895 164.842 318.193 162.289C319.491 159.736 320.281 156.945 321.06 154.186C321.06 154.186 295.496 155.863 290.638 165.556H290.649Z" fill="black"/>
</g>
<path d="M362.852 158.623C367.017 161.598 372.156 163.21 377.284 163.156C379.74 163.124 382.347 162.648 384.154 160.992C384.987 160.235 385.614 159.251 386.469 158.526C387.053 158.028 387.735 157.65 388.287 157.109C388.838 156.568 389.249 155.8 389.087 155.053C388.914 154.285 388.276 153.052 387.594 152.662C384.662 150.996 381.157 151.061 377.782 151.137C374.406 151.213 371.085 152.002 367.883 153.073C365.265 153.95 362.528 155.194 361.197 157.617" fill="#455A64"/>
<g opacity="0.4">
<path d="M389.077 155.061C388.904 154.293 387.844 153.276 387.162 152.887C384.23 151.221 381.147 151.069 377.772 151.145C374.396 151.221 371.075 152.011 367.873 153.082C365.255 153.958 362.518 155.202 361.187 157.625L362.853 158.621C367.018 161.596 372.157 163.208 377.285 163.154C379.741 163.121 382.337 162.645 384.155 160.99C384.988 160.233 385.615 159.248 386.47 158.523C387.054 158.026 387.736 157.647 388.287 157.106C388.839 156.565 389.25 155.797 389.088 155.051L389.077 155.061Z" fill="black"/>
</g>
<path d="M312.957 197.46L366.888 198.163C367.364 198.163 367.699 197.709 367.558 197.255L361.229 177.522C361.229 177.522 362.16 167.666 363.447 155.798C365.405 137.796 368.002 115.153 368.034 115.207C364.356 104.864 342.589 103.112 342.589 103.112L317.782 104.583L316.906 103.123L309.766 106.444C308.208 107.169 306.715 108.012 305.287 108.965C300.581 112.124 289.21 119.35 287.133 127.421C282.341 146.072 290.455 166.898 290.455 166.898L295.658 162.83C297.021 161.802 298.309 160.904 299.791 160.071L310.242 188.08C310.242 188.08 308.067 189.4 307.97 191.672C307.883 193.944 309.095 196.681 312.935 197.449" fill="#455A64"/>
<g opacity="0.3">
<path d="M336.076 164.443C337.785 155.248 336.887 145.792 335.968 136.488C332.971 144.104 333.079 152.684 329.909 160.224C329.563 161.035 329.185 161.847 329.066 162.723C328.947 163.599 329.131 164.562 329.791 165.157C330.656 165.947 331.933 165.525 333.09 165.384C334.313 165.233 334.962 164.822 336.065 164.443" fill="black"/>
</g>
<g opacity="0.4">
<path d="M316.214 185.724C320.563 187.239 325.15 184.437 329.726 183.939C332.755 183.614 335.784 184.307 338.792 184.794C344.861 185.778 351.071 185.93 357.183 185.248C358.114 185.14 359.077 185.01 359.888 184.545C360.699 184.08 361.359 182.792 361.305 181.862C351.125 180.812 340.934 180.196 330.754 179.146C328.2 178.887 325.561 178.627 323.116 179.384C320.032 180.336 317.663 182.76 315.5 185.14" fill="black"/>
</g>
<path d="M387.529 151.491C383.115 141.582 367.602 114.146 367.602 114.146L355.582 129.216L358.384 158.805C358.384 158.805 364.735 151.719 382.488 151.578C386.621 151.545 389.098 155.061 389.098 155.061L387.54 151.502L387.529 151.491Z" fill="#455A64"/>
<path d="M315.349 146.258C315.197 146.301 314.289 143.402 313.326 139.788C312.352 136.175 311.692 133.211 311.844 133.167C311.995 133.124 312.904 136.024 313.867 139.637C314.84 143.25 315.5 146.215 315.349 146.258Z" fill="#263238"/>
<path d="M354.663 127.217C354.663 127.217 355.085 127.53 355.777 128.158C356.448 128.807 357.411 129.781 358.46 131.101C360.559 133.697 363.123 137.765 364.205 142.85C364.746 145.381 364.832 147.869 364.551 150.098C364.27 152.316 363.848 154.252 363.577 155.907C363.296 157.552 363.123 158.893 363.036 159.824C362.95 160.754 362.928 161.273 362.885 161.273C362.853 161.273 362.799 160.754 362.82 159.813C362.842 158.872 362.95 157.509 363.188 155.853C363.415 154.187 363.794 152.229 364.043 150.044C364.291 147.869 364.183 145.446 363.664 142.979C362.615 138.014 360.159 133.989 358.157 131.36C356.156 128.699 354.598 127.303 354.685 127.228L354.663 127.217Z" fill="#263238"/>
<path d="M343.648 195.103C343.648 195.103 343.237 195.265 342.469 195.449C342.091 195.546 341.615 195.654 341.063 195.719C340.511 195.795 339.884 195.914 339.17 195.947C337.763 196.087 336.076 196.076 334.215 195.914C332.354 195.719 330.331 195.352 328.265 194.724C326.209 194.075 324.327 193.231 322.682 192.333C321.059 191.414 319.664 190.462 318.582 189.553C318.019 189.131 317.565 188.676 317.154 188.298C316.732 187.93 316.407 187.573 316.148 187.27C315.618 186.686 315.347 186.35 315.369 186.329C315.445 186.253 316.613 187.551 318.82 189.239C319.913 190.094 321.308 190.992 322.92 191.879C324.543 192.733 326.404 193.545 328.416 194.183C330.439 194.8 332.43 195.178 334.258 195.395C336.086 195.579 337.742 195.622 339.137 195.546C341.917 195.406 343.605 194.994 343.638 195.103H343.648Z" fill="#263238"/>
<path d="M360.299 188.935C360.364 188.925 360.58 189.509 360.71 190.515C360.84 191.51 360.861 192.949 360.418 194.453C359.985 195.967 359.087 197.158 358.297 197.807C357.508 198.467 356.902 198.672 356.869 198.618C356.826 198.542 357.345 198.207 358.027 197.515C358.698 196.833 359.477 195.708 359.877 194.291C360.699 191.435 360.082 188.946 360.288 188.925L360.299 188.935Z" fill="#263238"/>
<path d="M357.368 192.741C357.509 192.709 357.79 194.288 357.098 196.073C356.416 197.858 355.14 198.832 355.053 198.713C354.934 198.594 355.94 197.523 356.568 195.868C357.217 194.223 357.195 192.752 357.368 192.741Z" fill="#263238"/>
<path d="M347.717 157.141C347.836 157.26 346.83 158.385 345.791 159.911C344.742 161.425 344.049 162.767 343.898 162.702C343.757 162.648 344.244 161.165 345.326 159.597C346.397 158.017 347.619 157.033 347.717 157.152V157.141Z" fill="#263238"/>
<path d="M310.695 130.948C310.63 131.013 309.776 130.331 308.304 129.369C306.833 128.406 304.702 127.216 302.181 126.264C299.66 125.333 297.27 124.836 295.528 124.598C293.786 124.36 292.682 124.316 292.682 124.23C292.682 124.165 293.786 124.067 295.571 124.208C297.356 124.349 299.812 124.792 302.376 125.744C304.94 126.707 307.093 127.984 308.521 129.044C309.96 130.104 310.728 130.905 310.685 130.959L310.695 130.948Z" fill="#263238"/>
<path d="M367.601 113.779C367.71 113.931 364.789 115.705 362.138 118.896C359.455 122.055 358.189 125.236 358.027 125.16C357.962 125.139 358.189 124.316 358.784 123.061C359.368 121.817 360.353 120.162 361.705 118.539C363.068 116.927 364.529 115.672 365.665 114.883C366.801 114.093 367.569 113.725 367.601 113.779Z" fill="#263238"/>
<path d="M345.326 104.865C345.326 104.865 345.424 105.028 345.564 105.363C345.727 105.699 345.889 106.207 346.073 106.878C346.419 108.219 346.603 110.286 346.051 112.741C345.489 115.165 344.136 117.978 341.637 120.195C339.16 122.424 335.503 123.755 331.684 123.744C327.855 123.722 324.252 122.402 321.634 120.39C318.983 118.389 317.22 115.9 316.106 113.683C315.002 111.443 314.494 109.474 314.266 108.111C314.158 107.429 314.083 106.889 314.072 106.532C314.05 106.164 314.039 105.98 314.072 105.98C314.126 105.98 314.191 106.737 314.494 108.079C314.786 109.42 315.348 111.335 316.473 113.509C317.62 115.652 319.362 118.064 321.958 119.979C324.512 121.915 327.995 123.16 331.706 123.192C335.406 123.203 338.922 121.937 341.313 119.817C343.736 117.707 345.088 115.002 345.683 112.655C346.268 110.286 346.149 108.273 345.878 106.932C345.608 105.59 345.283 104.898 345.348 104.865H345.326Z" fill="#263238"/>
<g opacity="0.3">
<path d="M349.112 159.066C349.09 158.525 349.025 157.887 348.56 157.616C348.268 157.443 347.889 157.487 347.575 157.638C347.272 157.79 347.024 158.038 346.796 158.287C345.487 159.704 344.568 161.089 343.908 162.907L349.209 162.452C349.176 161.338 349.155 160.191 349.112 159.077V159.066Z" fill="black"/>
</g>
<g opacity="0.3">
<path d="M366.714 147.909C366.303 144.88 364.756 142.1 362.873 139.687C365.156 147.174 364.388 151.404 363.111 156.521L363.393 155.807C364.864 152.81 367.136 150.938 366.725 147.898L366.714 147.909Z" fill="black"/>
</g>
<path d="M356.122 399.397L352.888 447.918L331.792 447.669L328.47 397.222L356.122 399.397Z" fill="#FFBE9D"/>
<path d="M353.482 441.534V442.94C353.482 442.94 377.272 452.515 377.521 457.026L330.287 456.745L331.023 441.036C338.023 444.325 345.368 444.736 353.482 441.534Z" fill="#E8505B"/>
<path d="M335.772 446.078C334.853 446.327 334.215 447.344 334.431 448.274C334.636 449.204 335.675 449.854 336.595 449.626C337.514 449.399 338.315 448.187 338.012 447.3C337.698 446.402 336.443 445.699 335.61 446.143" fill="white"/>
<path d="M330.288 456.746L330.461 452.971L375.66 454.615C375.66 454.615 377.759 455.545 377.51 457.017L330.277 456.735L330.288 456.746Z" fill="#263238"/>
<path d="M353.655 443.071C353.655 443.298 352.497 443.395 351.35 444.131C350.193 444.834 349.598 445.829 349.392 445.743C349.176 445.7 349.533 444.315 350.929 443.449C352.313 442.573 353.709 442.854 353.655 443.071Z" fill="#263238"/>
<path d="M358.6 445.147C358.654 445.374 357.648 445.752 356.858 446.726C356.036 447.678 355.841 448.728 355.603 448.717C355.387 448.749 355.236 447.397 356.242 446.207C357.237 445.006 358.589 444.919 358.6 445.136V445.147Z" fill="#263238"/>
<path d="M361.38 451.089C361.175 451.132 360.861 449.985 361.456 448.72C362.051 447.454 363.133 446.967 363.23 447.151C363.36 447.346 362.657 448.016 362.181 449.055C361.683 450.083 361.607 451.056 361.38 451.078V451.089Z" fill="#263238"/>
<path d="M352.27 44.5373C353.482 41.5081 352.011 37.8299 349.382 35.8933C346.753 33.9568 343.237 33.5349 340.013 34.0542C336.789 34.5627 333.76 35.915 330.774 37.2456C328.069 34.5302 323.785 33.4916 320.139 34.6817C316.494 35.8717 313.648 39.2254 313.064 43.0227C310.738 42.4277 308.12 43.2283 306.508 45.0025C304.896 46.7876 304.377 49.4706 305.21 51.7208L319.836 56.8597L335.805 84.9554C340.478 88.9366 348.105 88.8284 352.66 84.7174C357.214 80.6063 358.091 73.0117 354.596 67.9703C355.494 67.1805 356.241 66.2285 356.836 65.2007C359.367 63.6321 361.347 61.1979 362.007 58.2769C363.392 52.0995 358.556 45.273 352.27 44.5265V44.5373Z" fill="#263238"/>
<path d="M342.586 103.106C341.677 98.5295 341.049 95.403 341.049 95.4354C341.049 95.4354 349.672 92.0817 349.077 80.0298C348.785 74.0364 346.491 64.6026 344.381 56.9322C342.477 50.03 336.04 42.4246 329.225 44.6208L308.626 54.682C306.56 55.3527 306.192 57.2893 306.679 59.4097L306.711 60.4483L314.728 93.6179L318.114 108.439C319.618 114.746 325.676 118.868 332.092 117.938C339.189 116.91 343.981 110.138 342.575 103.106H342.586Z" fill="#FFBE9D"/>
<path d="M344.252 64.9482C344.447 65.7272 343.938 66.5386 343.127 66.7549C342.315 66.9713 341.493 66.5169 341.298 65.7272C341.104 64.9482 341.612 64.1369 342.424 63.9205C343.235 63.7041 344.057 64.1585 344.252 64.9482Z" fill="#263238"/>
<path d="M343.364 62.6459C343.223 62.8839 341.914 62.2781 340.302 62.6243C338.69 62.938 337.684 64.0198 337.468 63.8576C337.36 63.7927 337.479 63.3924 337.911 62.9164C338.344 62.4403 339.123 61.8994 340.129 61.683C341.135 61.4775 342.055 61.6722 342.617 61.9427C343.191 62.2132 343.429 62.5377 343.364 62.6459Z" fill="#263238"/>
<path d="M328.597 68.5445C328.792 69.3235 328.284 70.1349 327.472 70.3512C326.661 70.5676 325.839 70.1132 325.644 69.3235C325.449 68.5445 325.958 67.7331 326.769 67.5168C327.58 67.3004 328.403 67.7548 328.597 68.5445Z" fill="#263238"/>
<path d="M327.808 66.4661C327.667 66.7042 326.358 66.0983 324.746 66.4445C323.134 66.7582 322.128 67.8401 321.912 67.6778C321.803 67.6129 321.912 67.2126 322.355 66.7366C322.788 66.2606 323.567 65.7197 324.573 65.5033C325.579 65.2977 326.499 65.4925 327.061 65.7629C327.635 66.0442 327.873 66.358 327.808 66.4661Z" fill="#263238"/>
<path d="M335.955 76.6321C335.933 76.5456 336.896 76.1561 338.465 75.6152C338.865 75.4854 339.233 75.3231 339.243 75.031C339.276 74.7172 339.016 74.3061 338.713 73.8734C338.118 72.9646 337.491 72.0018 336.842 70.9957C334.224 66.8954 332.233 63.4876 332.395 63.3902C332.558 63.282 334.819 66.5276 337.437 70.6278C338.075 71.6448 338.681 72.6076 339.265 73.5272C339.514 73.9599 339.893 74.436 339.817 75.0959C339.774 75.4313 339.514 75.7125 339.265 75.8424C339.016 75.983 338.789 76.0263 338.584 76.0804C336.972 76.5131 335.965 76.7295 335.933 76.6429L335.955 76.6321Z" fill="#263238"/>
<path d="M341.06 95.4372C341.06 95.4372 333.324 97.5901 324.572 94.55C324.572 94.55 330.23 101.95 341.676 98.4123L341.06 95.4372Z" fill="#EB996E"/>
<path d="M328.111 64.1689C328.003 64.6341 326.348 64.6233 324.465 65.0885C322.572 65.5104 321.09 66.2677 320.787 65.8999C320.647 65.7268 320.874 65.2724 321.436 64.7639C321.999 64.2555 322.94 63.7362 324.076 63.4657C325.212 63.1953 326.283 63.2493 327.019 63.4549C327.754 63.6496 328.155 63.9634 328.111 64.1797V64.1689Z" fill="#263238"/>
<path d="M342.749 57.5286C342.489 57.9614 341.105 57.864 339.525 58.1777C337.935 58.4482 336.669 59.0324 336.28 58.7186C336.107 58.5564 336.236 58.1561 336.756 57.6801C337.253 57.2149 338.162 56.728 339.255 56.5333C340.347 56.3386 341.353 56.4684 341.981 56.728C342.619 56.9877 342.879 57.3231 342.771 57.5286H342.749Z" fill="#263238"/>
<path d="M313.703 46.9347C314.179 49.2715 315.737 51.3594 317.835 52.4954C319.934 53.6313 322.541 53.7612 324.748 52.8632C326.458 52.1708 328.232 50.8618 329.963 51.4893C331.791 52.1492 332.365 54.5834 334.063 55.5354C336.487 56.8985 339.408 54.5401 342.177 54.7781C344.319 54.962 345.974 56.6281 347.651 57.9696C349.328 59.3111 351.654 60.4362 353.547 59.4192C353.039 57.6342 352.53 55.8275 351.633 54.2047C350.735 52.5819 349.393 51.1322 347.673 50.4615C346.721 50.0937 345.693 49.9638 344.784 49.4986C342.826 48.4925 341.961 46.2206 340.533 44.5546C338.694 42.4017 335.773 41.2225 332.96 41.5146C330.612 41.7526 328.394 42.9318 326.047 42.8344C324.305 42.7587 322.639 41.9906 320.897 42.0122C317.511 42.0663 314.958 45.0414 313.075 47.8542" fill="#263238"/>
<path d="M325.105 49.4126C323.558 49.2936 320.366 48.9691 319.317 47.8656C317.045 45.4638 313.648 44.2089 310.619 45.0095C307.59 45.81 305.145 48.85 305.188 52.2146C301.477 53.0152 298.34 56.0985 297.29 59.9715C296.241 63.8445 297.312 68.3667 299.995 71.331C300.698 72.1099 301.769 73.9058 301.769 73.9058C301.769 73.9058 300.374 75.6475 299.844 76.8268C297.377 82.3009 304.084 84.3997 304.084 84.3997C304.106 88.078 307.492 88.0672 309.667 88.0456C311.755 88.0456 313.042 93.8335 314.741 93.6063L313.02 75.6908C313.226 75.7774 313.486 75.8315 313.81 75.8315C317.91 75.9072 316.839 68.1503 315.509 66.1381C316.666 64.591 317.835 63.0115 318.581 61.194C319.328 59.3657 319.382 54.8111 318.744 52.8962C320.172 52.6906 325.776 49.4559 325.094 49.4018L325.105 49.4126Z" fill="#263238"/>
<path d="M313.636 76.6535C312.998 74.1977 309.947 73.105 308.053 74.7927C307.015 75.7231 306.398 77.281 307.047 79.8883C308.789 86.8554 315.421 83.6639 315.388 83.4584C315.367 83.3286 314.371 79.5204 313.625 76.6535H313.636Z" fill="#FFBE9D"/>
<path d="M312.598 81.3591C312.598 81.3591 312.5 81.4781 312.317 81.6187C312.143 81.7594 311.808 81.9108 311.419 81.8675C310.618 81.781 309.698 80.7641 309.352 79.5199C309.179 78.8925 309.158 78.2542 309.255 77.7024C309.341 77.1399 309.579 76.6963 309.936 76.5448C310.283 76.3717 310.596 76.5232 310.737 76.6963C310.878 76.8694 310.867 77.0208 310.91 77.0208C310.932 77.0317 311.029 76.8694 310.91 76.5881C310.845 76.4583 310.726 76.3176 310.531 76.2203C310.326 76.1229 310.066 76.1229 309.817 76.2203C309.287 76.3934 308.93 77.01 308.822 77.6159C308.682 78.2325 308.692 78.9574 308.887 79.6606C309.287 81.0562 310.337 82.1813 311.408 82.2246C311.927 82.2246 312.306 81.9757 312.468 81.7594C312.641 81.5322 312.641 81.3699 312.609 81.3591H312.598Z" fill="#EB996E"/>
<path d="M350.994 66.9307C350.994 66.9307 351.622 66.4439 352.509 65.362C353.374 64.2801 354.434 62.4518 354.683 59.9527C354.802 58.7194 354.737 57.3238 354.294 55.9391C353.85 54.5651 353.05 53.1695 351.816 52.0985C349.415 49.9131 345.444 48.907 341.874 50.162C341.549 50.2702 341.247 50.4324 340.933 50.5623C340.641 50.7137 340.359 50.8868 340.078 51.0491L339.645 51.2871V50.8111C339.624 49.9672 339.31 49.1558 338.769 48.5392C338.228 47.9117 337.525 47.4357 336.768 47.1111C335.253 46.4404 333.619 46.4296 332.127 46.7758C329.141 47.4573 326.609 48.8205 324.218 49.0909C321.849 49.3939 319.88 48.8097 318.82 48.0091C318.268 47.6304 317.965 47.1977 317.76 46.9272C317.586 46.6243 317.5 46.4728 317.522 46.462C317.576 46.4188 317.868 47.122 318.939 47.836C319.988 48.55 321.881 49.0477 324.164 48.7123C325.3 48.55 326.512 48.1389 327.799 47.6629C329.087 47.1869 330.471 46.6243 332.018 46.2781C332.797 46.1158 333.609 45.986 334.463 46.0293C335.307 46.0726 336.162 46.2673 336.984 46.6135C337.795 46.9597 338.574 47.479 339.191 48.1822C339.819 48.8854 340.197 49.8374 340.208 50.8219L339.775 50.5839C340.067 50.4216 340.37 50.2269 340.684 50.0646C341.009 49.924 341.333 49.7509 341.679 49.6427C345.477 48.312 349.631 49.3939 352.162 51.7198C353.45 52.8666 354.294 54.3596 354.737 55.8092C355.181 57.2697 355.224 58.7194 355.073 60.0068C354.77 62.5925 353.612 64.4533 352.671 65.5135C352.195 66.0436 351.773 66.4222 351.459 66.6278C351.156 66.8441 350.994 66.9523 350.983 66.9415L350.994 66.9307Z" fill="#455A64"/>
<path d="M349.577 42.4692C349.533 42.545 348.841 41.9175 347.337 41.7011C346.602 41.6038 345.66 41.6038 344.676 41.9391C343.691 42.2421 342.653 42.902 341.939 43.9298L341.679 44.3084L341.517 43.8757C340.641 41.5389 338.087 39.3211 334.918 38.9749C332.537 38.7044 330.374 39.7754 328.578 40.8032C326.76 41.8634 325.105 42.902 323.547 43.3996C322.011 43.9406 320.637 44.0055 319.739 43.8432C319.285 43.7675 318.949 43.6593 318.733 43.5619C318.517 43.4646 318.398 43.4105 318.408 43.3888C318.43 43.3347 318.895 43.5295 319.772 43.616C320.648 43.7026 321.935 43.5836 323.417 43.0102C324.91 42.4801 326.49 41.4415 328.318 40.338C329.238 39.7971 330.233 39.2453 331.347 38.8559C332.462 38.4556 333.717 38.2608 334.982 38.3907C338.379 38.7693 341.084 41.1602 341.971 43.6809L341.549 43.6268C342.361 42.4909 343.518 41.8201 344.578 41.528C345.639 41.2035 346.634 41.2468 347.402 41.3874C348.181 41.5389 348.744 41.8201 349.101 42.0365C349.447 42.2745 349.609 42.426 349.598 42.4368L349.577 42.4692Z" fill="#455A64"/>
<path d="M335.328 79.837C334.841 79.361 334.106 79.2095 333.424 79.2853C332.786 79.361 332.007 79.9235 331.596 80.6159C331.596 80.6268 331.574 80.6376 331.563 80.6592C331.542 80.6917 331.52 80.7133 331.498 80.7458L331.52 80.7241C331.368 80.973 331.282 81.2542 331.314 81.5463C331.379 82.1846 331.866 82.7256 332.44 83.0068C333.348 83.4612 334.56 83.3314 335.274 82.5957C335.988 81.8601 336.031 80.551 335.296 79.837H335.328Z" fill="#E8505B"/>
<path d="M335.87 83.2014C335.784 83.2231 335.675 82.8769 335.394 82.4225C335.113 81.9681 334.604 81.4055 333.89 81.081C333.165 80.7564 332.408 80.7456 331.889 80.8322C331.359 80.9079 331.034 81.0594 330.991 80.9836C330.948 80.9295 331.218 80.6483 331.792 80.4535C332.354 80.248 333.252 80.1831 334.128 80.5725C334.994 80.9728 335.535 81.6977 335.751 82.2494C335.978 82.812 335.946 83.2014 335.87 83.2014Z" fill="#263238"/>
<path d="M313.789 84.5339C313.789 84.5339 314.103 85.0748 313.692 85.897C313.486 86.2865 313.118 86.7192 312.534 86.9356C311.961 87.1628 311.214 87.0762 310.63 86.7084C310.035 86.3406 309.645 85.7131 309.602 85.0856C309.548 84.469 309.786 83.9497 310.046 83.5927C310.608 82.8678 311.236 82.857 311.236 82.9219C311.268 83.0085 310.76 83.1708 310.381 83.8199C310.197 84.1336 310.057 84.5772 310.122 85.0315C310.176 85.4859 310.479 85.9403 310.933 86.2324C311.387 86.5137 311.939 86.5894 312.372 86.4488C312.815 86.3081 313.151 85.9944 313.356 85.6915C313.778 85.064 313.702 84.5339 313.8 84.5339H313.789Z" fill="#E8505B"/>
<path d="M310.143 84.1226C310.208 84.1551 310.11 84.4904 309.634 84.7176C309.407 84.8258 309.083 84.8907 308.736 84.8042C308.379 84.7176 308.044 84.458 307.849 84.101C307.655 83.7439 307.622 83.3112 307.741 82.9758C307.86 82.6405 308.087 82.4025 308.304 82.2726C308.758 82.0022 309.093 82.1103 309.083 82.1753C309.083 82.2618 308.812 82.3159 308.553 82.5864C308.282 82.846 308.077 83.3545 308.347 83.8305C308.607 84.3173 309.137 84.4255 309.505 84.339C309.872 84.2632 310.078 84.0685 310.143 84.1118V84.1226Z" fill="#E8505B"/>
<path d="M322.035 180.201C322.035 180.201 348.822 181.759 364.649 181.899C376.918 182.007 382.381 178.751 384.826 170.875C386.881 164.254 382.457 151.575 382.457 151.575C374.17 151.618 369.042 152.765 363.708 155.264L365.125 161.063L321.938 164.784L322.013 180.201H322.035Z" fill="#FFBE9D"/>
<path d="M374.158 167.252C374.007 167.35 372.752 165.002 370.112 163.239C367.505 161.432 364.854 161.118 364.898 160.945C364.898 160.88 365.568 160.859 366.618 161.097C367.656 161.324 369.074 161.854 370.426 162.784C371.778 163.715 372.795 164.829 373.379 165.716C373.974 166.603 374.202 167.231 374.147 167.263L374.158 167.252Z" fill="#EB996E"/>
<path d="M312.234 155.222C312.234 155.222 303.947 157.212 297.867 161.28L304.337 178.871C306.5 184.648 313.121 187.483 318.358 184.486C326.504 179.834 329.382 166.246 329.382 166.246L338.339 127.429L323.507 118.136L312.234 155.222Z" fill="#FFBE9D"/>
<path d="M323.495 118.136L324.09 105.37L320.779 92.4423C320.595 91.7283 320.509 90.8303 321.082 90.3976C321.688 89.9432 322.597 89.9649 323.084 90.4625C323.992 91.3929 328.32 102.742 328.32 102.742C328.32 102.742 334.887 98.7928 336.055 98.6089C337.224 98.4141 338.684 101.952 338.781 102.222C338.868 102.504 338.792 104.592 338.792 104.592C338.792 104.592 342.849 104.711 343.217 105.273C343.585 105.825 343.682 108.713 343.682 108.713C343.682 108.713 345.402 109.265 345.673 110.563C345.954 111.862 346.506 114.004 345.694 114.48C344.883 114.945 343.174 115.886 343.174 115.886C343.174 115.886 342.481 122.507 342.308 123.113C342.135 123.719 338.327 127.429 338.327 127.429L323.495 118.136Z" fill="#FFBE9D"/>
<path d="M309.702 184.758C309.702 184.758 310.102 184.986 310.946 185.267C311.779 185.548 313.088 185.797 314.765 185.57C316.431 185.343 318.476 184.618 320.304 183.017C322.111 181.383 323.939 179.219 325.454 176.504C326.211 175.141 326.892 173.648 327.455 172.036C328.039 170.424 328.418 168.671 328.84 166.854C329.694 163.208 330.603 159.281 331.577 155.116C333.524 146.775 335.71 137.438 338.068 127.388L338.09 127.312L338.144 127.258C338.89 126.522 339.637 125.776 340.383 125.008C340.751 124.618 341.119 124.229 341.476 123.829C341.649 123.623 341.833 123.417 341.963 123.223C342.093 123.093 342.093 122.833 342.147 122.552C342.439 120.388 342.666 118.149 342.904 115.899V115.758L343.045 115.682C343.726 115.304 344.408 114.914 345.111 114.525C345.262 114.427 345.5 114.319 345.598 114.243C345.684 114.178 345.76 114.049 345.792 113.875C345.868 113.551 345.847 113.14 345.803 112.75C345.706 111.993 345.522 111.106 345.327 110.403C345.057 109.743 344.321 109.278 343.607 109.018L343.423 108.953V108.769C343.391 108.142 343.347 107.493 343.272 106.854C343.239 106.53 343.196 106.216 343.131 105.902C343.099 105.762 343.055 105.588 343.012 105.502C342.98 105.426 342.99 105.48 342.947 105.437C342.893 105.415 342.839 105.383 342.763 105.361C341.562 105.026 340.145 104.983 338.804 104.918H338.522V104.626C338.544 103.955 338.577 103.208 338.544 102.516C338.566 102.332 338.393 102.051 338.295 101.791C338.176 101.532 338.057 101.272 337.927 101.023C337.668 100.515 337.376 100.028 337.04 99.595C336.867 99.3786 336.683 99.1839 336.489 99.0541C336.272 98.9242 336.175 98.8918 335.915 98.9892C335.418 99.1623 334.898 99.4327 334.39 99.6924C332.367 100.742 330.409 101.889 328.483 103.035L328.202 103.198L328.083 102.895C327.055 100.331 326.049 97.7991 325.053 95.3109C324.556 94.0667 324.058 92.8226 323.571 91.6001C323.387 90.9834 322.955 90.6264 322.381 90.4858C321.808 90.3343 321.245 90.5182 320.975 91.0051C320.845 91.2323 320.78 91.5135 320.812 91.7732C320.845 92.0112 320.964 92.379 321.029 92.6711C321.191 93.2986 321.353 93.9153 321.516 94.5319C321.84 95.7652 322.165 96.9985 322.479 98.2102C323.117 100.634 323.744 103.024 324.35 105.35V105.394V105.437C324.134 109.883 323.928 114.146 323.733 118.203V118.235V118.268C319.644 131.575 316.258 142.609 313.878 150.334C312.688 154.164 311.747 157.182 311.097 159.259C310.773 160.265 310.524 161.044 310.351 161.596C310.178 162.126 310.07 162.397 310.07 162.397C310.07 162.397 310.135 162.115 310.275 161.585C310.438 161.023 310.665 160.244 310.957 159.227C311.573 157.139 312.471 154.11 313.618 150.258C315.944 142.512 319.276 131.456 323.279 118.127V118.181C323.452 114.124 323.647 109.862 323.852 105.415V105.491C323.247 103.165 322.608 100.785 321.97 98.3509C321.645 97.1392 321.321 95.9167 320.996 94.6726C320.834 94.0559 320.672 93.4284 320.499 92.8118C320.423 92.4764 320.326 92.2276 320.261 91.8273C320.217 91.4486 320.304 91.0592 320.499 90.7238C320.693 90.3884 320.996 90.118 321.375 89.9881C321.754 89.8583 322.132 89.8691 322.489 89.9557C322.846 90.0422 323.193 90.2045 323.485 90.4642C323.777 90.7022 323.971 91.1133 324.069 91.3945C324.556 92.617 325.053 93.8612 325.551 95.1053C326.546 97.5936 327.563 100.125 328.591 102.689L328.191 102.548C330.127 101.402 332.085 100.255 334.13 99.1839C334.649 98.9242 335.147 98.6538 335.731 98.4482C335.894 98.405 336.045 98.34 336.272 98.3725C336.467 98.405 336.651 98.4807 336.781 98.5781C337.073 98.762 337.278 99 337.462 99.238C337.841 99.714 338.133 100.233 338.403 100.763C338.533 101.023 338.663 101.293 338.793 101.564C338.89 101.845 339.074 102.072 339.096 102.484C339.128 103.252 339.096 103.976 339.074 104.658L338.804 104.366C340.199 104.442 341.541 104.463 342.936 104.842C343.023 104.864 343.12 104.918 343.218 104.961C343.304 105.004 343.477 105.156 343.499 105.242C343.607 105.448 343.629 105.61 343.672 105.794C343.748 106.14 343.791 106.465 343.824 106.8C343.899 107.46 343.943 108.109 343.964 108.758L343.769 108.499C344.602 108.812 345.435 109.299 345.836 110.208C346.095 111.095 346.236 111.852 346.355 112.707C346.398 113.129 346.431 113.562 346.333 114.027C346.29 114.254 346.171 114.514 345.944 114.698C345.717 114.86 345.576 114.914 345.392 115.022C344.689 115.412 343.997 115.801 343.315 116.18L343.456 115.963C343.218 118.225 342.98 120.453 342.688 122.638L342.623 123.06C342.612 123.19 342.514 123.428 342.417 123.536C342.244 123.785 342.06 123.991 341.887 124.196C341.519 124.607 341.151 125.008 340.773 125.397C340.026 126.176 339.269 126.923 338.522 127.658L338.598 127.528C336.218 137.568 334.011 146.894 332.031 155.235C331.036 159.4 330.106 163.316 329.24 166.962C328.807 168.78 328.407 170.554 327.812 172.177C327.228 173.81 326.525 175.314 325.757 176.688C324.199 179.425 322.338 181.599 320.488 183.233C318.595 184.856 316.496 185.57 314.808 185.765C313.099 185.97 311.757 185.678 310.935 185.375C310.513 185.224 310.21 185.072 310.016 184.964C309.821 184.856 309.713 184.802 309.723 184.791L309.702 184.758Z" fill="#EB996E"/>
<path d="M338.793 104.57C338.793 104.646 338.425 104.689 337.852 104.722C337.278 104.754 336.5 104.776 335.699 104.981C334.898 105.187 334.249 105.587 333.86 105.966C333.46 106.334 333.286 106.647 333.211 106.615C333.146 106.593 333.189 106.204 333.557 105.706C333.914 105.209 334.639 104.678 335.548 104.44C336.456 104.213 337.278 104.267 337.863 104.332C338.447 104.408 338.793 104.505 338.782 104.581L338.793 104.57Z" fill="#EB996E"/>
<path d="M335.623 104.69C335.482 104.636 335.471 104.3 335.601 103.943C335.731 103.586 335.958 103.337 336.109 103.392C336.25 103.446 336.261 103.781 336.131 104.138C336.001 104.495 335.774 104.744 335.623 104.69Z" fill="#EB996E"/>
<path d="M343.866 108.628C343.866 108.79 342.416 108.963 340.653 109.071C339.777 109.147 339.127 109.461 338.868 109.937C338.587 110.38 338.673 110.748 338.597 110.77C338.543 110.824 338.251 110.402 338.511 109.753C338.63 109.45 338.9 109.115 339.279 108.898C339.658 108.682 340.123 108.574 340.577 108.519C342.395 108.4 343.855 108.487 343.855 108.639L343.866 108.628Z" fill="#EB996E"/>
<path d="M343.142 112.512C343.293 112.512 343.391 113.324 343.347 114.297C343.304 115.282 343.142 116.061 342.99 116.061C342.839 116.061 342.741 115.249 342.785 114.276C342.828 113.291 342.99 112.512 343.142 112.512Z" fill="#EB996E"/>
<path d="M347.641 141.655L348.604 138.334C348.798 137.663 349.631 137.458 350.118 137.955L351.373 139.232L352.152 136.116C352.358 135.294 353.483 135.186 353.851 135.943L355.625 139.632L347.641 141.645V141.655Z" fill="white"/>
<path d="M355.635 141.062C355.668 141.213 353.958 141.765 351.816 142.295C349.663 142.825 347.9 143.139 347.857 142.988C347.824 142.836 349.534 142.284 351.676 141.754C353.818 141.224 355.592 140.91 355.635 141.062Z" fill="white"/>
<path d="M291.298 122.562C291.298 122.562 290.897 122.973 290.335 123.85C289.783 124.715 289.166 126.111 288.863 127.939C288.55 129.757 288.528 131.974 288.669 134.419C288.788 136.864 288.982 139.558 289.285 142.371C289.88 147.997 290.789 153.049 291.568 156.673C291.957 158.491 292.304 159.951 292.542 160.957C292.65 161.401 292.736 161.79 292.823 162.115C292.888 162.385 292.91 162.526 292.91 162.526C292.91 162.526 292.855 162.396 292.78 162.126C292.693 161.801 292.585 161.422 292.455 160.979C292.185 159.973 291.817 158.523 291.417 156.706C290.594 153.081 289.664 148.029 289.069 142.393C288.766 139.58 288.582 136.886 288.474 134.43C288.344 131.985 288.377 129.746 288.723 127.907C289.047 126.067 289.686 124.661 290.27 123.806C290.854 122.941 291.308 122.573 291.308 122.573L291.298 122.562Z" fill="white"/>
<path d="M314.071 107.86C314.071 107.86 313.995 107.914 313.833 107.99C313.617 108.098 313.379 108.206 313.119 108.325C312.502 108.618 311.604 109.05 310.533 109.645C308.37 110.803 305.492 112.599 302.409 114.73C299.325 116.85 296.577 118.863 294.587 120.291C293.667 120.94 292.878 121.502 292.207 121.968C291.969 122.13 291.752 122.281 291.558 122.411C291.406 122.509 291.331 122.563 291.32 122.552C291.32 122.552 291.385 122.487 291.525 122.368C291.72 122.216 291.926 122.065 292.153 121.892C292.802 121.405 293.581 120.821 294.49 120.15C296.469 118.69 299.185 116.656 302.279 114.535C305.373 112.404 308.272 110.63 310.458 109.505C311.54 108.931 312.448 108.509 313.087 108.239C313.357 108.131 313.595 108.033 313.822 107.936C313.995 107.871 314.082 107.839 314.082 107.849L314.071 107.86Z" fill="white"/>
<path d="M365.665 114.889C365.665 114.889 365.6 114.846 365.481 114.748C365.329 114.619 365.167 114.478 364.994 114.326C364.572 113.969 363.934 113.461 363.101 112.909C361.445 111.784 358.979 110.518 356.144 109.393C353.31 108.257 350.659 107.457 348.734 106.927C347.771 106.656 346.981 106.461 346.44 106.332C346.224 106.277 346.018 106.223 345.813 106.169C345.672 106.126 345.596 106.104 345.596 106.094C345.596 106.094 345.672 106.094 345.823 106.115C346.029 106.148 346.235 106.191 346.462 106.234C347.013 106.342 347.803 106.515 348.777 106.764C350.724 107.251 353.386 108.041 356.231 109.177C359.076 110.313 361.554 111.611 363.187 112.769C364.842 113.915 365.665 114.867 365.665 114.867V114.889Z" fill="white"/>
<path d="M314.374 197.48C314.374 197.48 314.212 197.448 313.952 197.339C313.692 197.231 313.314 197.047 312.881 196.766C312.026 196.225 310.879 195.176 310.533 193.585C310.176 192.027 310.512 190.545 310.955 189.626C311.172 189.161 311.399 188.804 311.583 188.576C311.756 188.349 311.875 188.241 311.886 188.252C311.918 188.273 311.496 188.76 311.107 189.691C310.717 190.61 310.414 192.038 310.761 193.531C311.085 195.046 312.167 196.074 312.978 196.636C313.811 197.21 314.406 197.448 314.385 197.491L314.374 197.48Z" fill="white"/>
<path d="M310.934 185.763C310.999 185.741 311.226 186.358 311.453 187.126C311.681 187.894 311.81 188.532 311.756 188.543C311.691 188.565 311.464 187.948 311.237 187.18C311.01 186.412 310.88 185.773 310.934 185.763Z" fill="white"/>
<path d="M325.56 428.315L358.556 428.153L357.961 314.061L357.658 198.01L312.967 197.459L304.929 212.605C301.683 218.717 299.487 225.36 298.752 232.24C298.189 237.487 302.116 254.58 303.49 258.93L315.791 297.941L325.571 428.315H325.56Z" fill="#263238"/>
<path d="M367.331 198.172L403.594 297.021C407.857 310.273 406.429 323.407 399.126 335.643L357.031 417.809L333.361 388.199L368.586 314.59L337.537 264.284L342.762 198.28L357.388 198.042L367.342 198.172H367.331Z" fill="#263238"/>
<path d="M354.641 231.288C354.641 231.288 354.663 231.461 354.695 231.797C354.717 232.154 354.749 232.651 354.793 233.29C354.868 234.631 354.966 236.557 355.096 239.023C355.334 244.032 355.691 251.227 356.112 260.109C356.524 269.023 357.01 279.614 357.551 291.374C357.811 297.259 358.092 303.437 358.384 309.841C358.59 313.044 358.493 316.311 358.536 319.611C358.536 322.921 358.557 326.275 358.568 329.683C358.612 356.87 358.655 381.482 358.687 399.322C358.676 408.214 358.666 415.42 358.655 420.428C358.644 422.895 358.622 424.832 358.622 426.162C358.622 426.801 358.601 427.298 358.601 427.655C358.601 427.991 358.568 428.164 358.568 428.164C358.568 428.164 358.547 427.991 358.536 427.655C358.536 427.298 358.514 426.801 358.503 426.162C358.493 424.821 358.46 422.895 358.438 420.428C358.406 415.42 358.352 408.214 358.287 399.322C358.211 381.482 358.114 356.87 358.006 329.683C358.006 326.286 357.984 322.921 357.973 319.621C357.941 316.311 358.038 313.044 357.833 309.852C357.551 303.448 357.292 297.27 357.032 291.385C356.534 279.625 356.091 269.023 355.712 260.119C355.355 251.237 355.074 244.043 354.868 239.034C354.782 236.568 354.717 234.642 354.674 233.3C354.663 232.662 354.641 232.164 354.641 231.807C354.641 231.472 354.641 231.299 354.641 231.299V231.288Z" fill="#455A64"/>
<path d="M353.809 200.121C353.809 200.121 353.928 200.5 354.036 201.193C354.144 201.885 354.285 202.902 354.425 204.146C354.717 206.645 355.02 210.118 355.193 213.958C355.366 217.799 355.377 221.283 355.312 223.803C355.28 225.058 355.237 226.086 355.193 226.789C355.15 227.492 355.096 227.882 355.064 227.882C354.977 227.882 354.955 226.324 354.923 223.814C354.88 221.304 354.815 217.831 354.642 214.002C354.469 210.172 354.231 206.71 354.036 204.2C353.852 201.69 353.733 200.143 353.809 200.132V200.121Z" fill="#455A64"/>
<path d="M346.539 202.35C346.593 202.426 345.976 202.707 345.803 203.583C345.727 204.005 345.803 204.546 346.225 204.903C346.614 205.271 347.296 205.444 347.848 205.195C348.4 204.946 348.702 204.308 348.681 203.778C348.681 203.226 348.324 202.815 347.956 202.599C347.177 202.155 346.56 202.437 346.55 202.35C346.539 202.318 346.658 202.209 346.928 202.123C347.199 202.047 347.653 202.025 348.14 202.242C348.616 202.447 349.157 202.988 349.2 203.746C349.254 204.47 348.886 205.325 348.075 205.704C347.253 206.061 346.366 205.78 345.857 205.271C345.305 204.741 345.251 203.984 345.414 203.486C345.565 202.967 345.868 202.642 346.117 202.491C346.366 202.328 346.528 202.318 346.539 202.35Z" fill="#455A64"/>
<path d="M329.229 200.392C329.229 200.392 329.391 200.749 329.521 201.43C329.651 202.112 329.738 203.129 329.619 204.373C329.5 205.617 329.121 207.089 328.374 208.56C327.628 210.042 326.459 211.513 324.902 212.649C323.322 213.764 321.559 214.391 319.914 214.629C318.27 214.867 316.755 214.759 315.544 214.467C314.321 214.186 313.391 213.785 312.785 213.439C312.179 213.093 311.887 212.855 311.898 212.822C311.952 212.714 313.228 213.623 315.619 214.077C317.945 214.543 321.548 214.326 324.566 212.184C327.563 210.01 328.915 206.667 329.218 204.319C329.554 201.907 329.099 200.403 329.218 200.392H329.229Z" fill="#455A64"/>
<path d="M371.681 209.858C371.681 209.912 370.859 209.977 369.604 209.61C368.349 209.253 366.704 208.376 365.341 206.883C363.989 205.39 363.275 203.659 363.037 202.383C362.799 201.095 362.94 200.284 362.994 200.295C363.091 200.295 363.102 201.085 363.426 202.296C363.74 203.497 364.476 205.098 365.752 206.515C367.04 207.922 368.554 208.809 369.723 209.242C370.891 209.685 371.681 209.761 371.67 209.869L371.681 209.858Z" fill="#455A64"/>
<path d="M384.565 316.432C384.565 316.432 383.938 317.146 382.65 317.957C382.001 318.347 381.19 318.779 380.184 319.028C379.199 319.288 377.998 319.32 376.862 318.942C374.558 318.184 373.119 316.454 372.243 315.263C371.366 314.041 370.923 313.219 370.977 313.186C371.042 313.132 371.615 313.879 372.556 315.025C373.498 316.14 374.926 317.719 377.035 318.412C379.156 319.115 381.179 318.293 382.445 317.611C383.743 316.908 384.5 316.356 384.554 316.432H384.565Z" fill="#455A64"/>
<path d="M376.31 322.736C376.18 322.822 374.654 320.897 372.891 318.419C371.128 315.942 369.808 313.865 369.938 313.778C370.067 313.691 371.593 315.617 373.356 318.095C375.12 320.572 376.439 322.649 376.31 322.736Z" fill="#455A64"/>
<path d="M320.865 235.116C320.724 235.171 320.335 234.554 320.01 233.721C319.675 232.899 319.534 232.174 319.675 232.12C319.815 232.066 320.205 232.682 320.529 233.515C320.865 234.338 321.005 235.062 320.865 235.116Z" fill="#FAFAFA"/>
<path d="M341.809 238.114C341.658 238.114 341.528 237.573 341.528 236.914C341.528 236.254 341.658 235.713 341.809 235.713C341.961 235.713 342.091 236.254 342.091 236.914C342.091 237.573 341.961 238.114 341.809 238.114Z" fill="#FAFAFA"/>
<path d="M333.199 249.486C333.048 249.486 332.875 248.837 332.821 248.004C332.767 247.181 332.842 246.5 333.005 246.489C333.156 246.489 333.329 247.138 333.383 247.971C333.437 248.793 333.362 249.475 333.199 249.486Z" fill="#FAFAFA"/>
<path d="M317.468 257.871C317.338 257.968 316.894 257.568 316.31 257.146C315.737 256.724 315.217 256.421 315.272 256.27C315.315 256.129 315.986 256.216 316.645 256.692C317.305 257.168 317.598 257.784 317.468 257.871Z" fill="#FAFAFA"/>
<path d="M345.196 268.44C345.067 268.353 345.229 267.877 345.564 267.39C345.9 266.893 346.267 266.557 346.397 266.644C346.527 266.73 346.365 267.206 346.029 267.693C345.694 268.191 345.326 268.526 345.196 268.44Z" fill="#FAFAFA"/>
<path d="M328.049 271.435C327.898 271.435 327.768 270.537 327.768 269.445C327.768 268.352 327.898 267.454 328.049 267.454C328.201 267.454 328.331 268.352 328.331 269.445C328.331 270.537 328.201 271.435 328.049 271.435Z" fill="#FAFAFA"/>
<path d="M322.477 283.563C322.391 283.693 321.817 283.433 321.211 282.989C320.606 282.546 320.184 282.091 320.281 281.962C320.368 281.832 320.941 282.091 321.547 282.535C322.153 282.979 322.575 283.433 322.477 283.563Z" fill="#FAFAFA"/>
<path d="M339.82 287.792C339.885 287.933 339.528 288.225 339.041 288.452C338.543 288.669 338.089 288.734 338.024 288.593C337.959 288.452 338.316 288.16 338.803 287.933C339.3 287.717 339.755 287.652 339.82 287.792Z" fill="#FAFAFA"/>
<path d="M328.05 307.54C327.909 307.605 327.347 306.772 326.806 305.668C326.254 304.565 325.918 303.613 326.059 303.548C326.2 303.483 326.762 304.316 327.303 305.419C327.855 306.523 328.19 307.475 328.05 307.54Z" fill="#FAFAFA"/>
<path d="M347.198 305.74C347.058 305.664 347.307 304.939 347.75 304.106C348.194 303.284 348.659 302.668 348.8 302.743C348.94 302.819 348.691 303.544 348.248 304.377C347.804 305.199 347.339 305.816 347.198 305.74Z" fill="#FAFAFA"/>
<path d="M338.813 322.499C338.651 322.477 338.662 321.622 338.499 320.605C338.348 319.588 338.067 318.777 338.218 318.712C338.348 318.636 338.889 319.404 339.062 320.519C339.246 321.633 338.965 322.531 338.824 322.499H338.813Z" fill="#FAFAFA"/>
<path d="M329.835 332.085C329.716 332.194 329.175 331.783 328.634 331.177C328.082 330.571 327.725 329.997 327.844 329.889C327.963 329.781 328.504 330.192 329.045 330.798C329.596 331.404 329.954 331.977 329.835 332.085Z" fill="#FAFAFA"/>
<path d="M351.633 335.71C351.525 335.601 351.925 335.017 352.52 334.411C353.126 333.805 353.699 333.394 353.808 333.503C353.916 333.611 353.516 334.195 352.92 334.801C352.315 335.407 351.741 335.818 351.633 335.71Z" fill="#FAFAFA"/>
<path d="M339.095 350.043C338.944 350.022 338.944 349.199 339.095 348.204C339.247 347.209 339.496 346.419 339.647 346.452C339.799 346.473 339.799 347.295 339.647 348.291C339.496 349.286 339.247 350.076 339.095 350.043Z" fill="#FAFAFA"/>
<path d="M330.667 356.999C330.537 357.074 330.061 356.523 329.607 355.755C329.163 354.986 328.904 354.305 329.033 354.229C329.163 354.153 329.639 354.705 330.094 355.473C330.537 356.241 330.797 356.923 330.667 356.999Z" fill="#FAFAFA"/>
<path d="M350.973 365.786C351.06 365.916 350.508 366.468 349.74 367.02C348.972 367.571 348.269 367.918 348.182 367.788C348.096 367.658 348.647 367.106 349.416 366.555C350.184 366.003 350.887 365.657 350.973 365.786Z" fill="#FAFAFA"/>
<path d="M334.053 377.177C333.902 377.123 334.096 376.247 334.183 375.176C334.28 374.105 334.248 373.207 334.399 373.185C334.551 373.153 334.843 374.072 334.735 375.23C334.637 376.387 334.183 377.242 334.042 377.188L334.053 377.177Z" fill="#FAFAFA"/>
<path d="M340.815 393.523C340.696 393.62 340.241 393.252 339.798 392.7C339.354 392.149 339.095 391.629 339.224 391.532C339.343 391.435 339.798 391.803 340.241 392.354C340.685 392.906 340.945 393.425 340.815 393.523Z" fill="#FAFAFA"/>
<path d="M333.425 404.503C333.295 404.59 332.7 403.951 332.094 403.064C331.488 402.177 331.099 401.398 331.229 401.312C331.359 401.225 331.954 401.863 332.56 402.751C333.165 403.627 333.555 404.417 333.425 404.503Z" fill="#FAFAFA"/>
<path d="M353.776 390.732C353.635 390.678 353.646 390.277 353.808 389.834C353.97 389.39 354.23 389.077 354.371 389.131C354.511 389.185 354.5 389.585 354.338 390.029C354.176 390.472 353.916 390.786 353.776 390.732Z" fill="#FAFAFA"/>
<path d="M344.806 416.868C344.665 416.792 344.936 416.024 345.141 415.061C345.358 414.098 345.444 413.287 345.596 413.276C345.747 413.265 345.92 414.131 345.682 415.18C345.455 416.23 344.925 416.944 344.795 416.868H344.806Z" fill="#FAFAFA"/>
<path d="M350.638 249.67C350.497 249.735 350.151 249.302 349.87 248.696C349.589 248.09 349.47 247.549 349.61 247.484C349.751 247.419 350.097 247.852 350.378 248.458C350.66 249.064 350.779 249.605 350.638 249.67Z" fill="#FAFAFA"/>
<path d="M335.621 215.971C335.708 216.111 334.95 216.717 334.139 217.583C333.328 218.437 332.765 219.238 332.624 219.162C332.495 219.097 332.852 218.124 333.728 217.193C334.593 216.263 335.545 215.841 335.621 215.971Z" fill="#FAFAFA"/>
<path d="M348.994 215.568C348.843 215.6 348.583 214.962 348.204 214.215C347.837 213.469 347.48 212.885 347.599 212.777C347.707 212.668 348.302 213.144 348.713 213.967C349.124 214.789 349.146 215.546 348.994 215.568Z" fill="#FAFAFA"/>
<path d="M307.343 226.559C307.203 226.505 307.343 225.78 307.679 224.958C308.003 224.125 308.393 223.508 308.533 223.562C308.674 223.616 308.533 224.341 308.198 225.163C307.873 225.985 307.484 226.613 307.343 226.559Z" fill="#FAFAFA"/>
<path d="M308.694 242.908C308.596 243.027 307.98 242.681 307.32 242.129C306.66 241.577 306.205 241.036 306.303 240.917C306.4 240.798 307.017 241.144 307.677 241.696C308.337 242.248 308.791 242.789 308.694 242.908Z" fill="#FAFAFA"/>
<path d="M336.022 203.011C335.881 203.065 335.578 202.665 335.362 202.113C335.146 201.561 335.081 201.064 335.221 201.01C335.362 200.955 335.665 201.356 335.881 201.907C336.098 202.459 336.162 202.957 336.022 203.011Z" fill="#FAFAFA"/>
<path d="M362.191 210.994C362.04 210.962 362.051 210.312 362.224 209.533C362.397 208.765 362.656 208.17 362.808 208.203C362.959 208.235 362.949 208.884 362.775 209.663C362.602 210.431 362.343 211.026 362.191 210.994Z" fill="#FAFAFA"/>
<path d="M368.347 223.35C368.207 223.296 368.402 222.484 368.78 221.543C369.17 220.602 369.592 219.899 369.743 219.953C369.884 220.007 369.689 220.818 369.31 221.759C368.921 222.701 368.499 223.404 368.347 223.35Z" fill="#FAFAFA"/>
<path d="M363.957 233.333C363.816 233.398 363.308 232.651 362.81 231.667C362.312 230.672 362.02 229.817 362.161 229.741C362.301 229.676 362.81 230.423 363.308 231.407C363.805 232.402 364.097 233.257 363.957 233.333Z" fill="#FAFAFA"/>
<path d="M373.335 243.308C373.195 243.254 373.292 242.626 373.573 241.912C373.844 241.198 374.19 240.657 374.331 240.712C374.471 240.766 374.374 241.393 374.093 242.107C373.822 242.821 373.476 243.362 373.335 243.308Z" fill="#FAFAFA"/>
<path d="M364.95 253.075C364.821 253.162 364.485 252.87 364.215 252.426C363.944 251.982 363.825 251.56 363.955 251.474C364.085 251.387 364.42 251.679 364.691 252.123C364.961 252.567 365.08 252.989 364.95 253.075Z" fill="#FAFAFA"/>
<path d="M366.736 273.23C366.617 273.338 365.946 272.797 365.232 272.029C364.518 271.261 364.031 270.547 364.139 270.439C364.258 270.331 364.929 270.872 365.643 271.64C366.357 272.408 366.844 273.122 366.736 273.23Z" fill="#FAFAFA"/>
<path d="M377.716 261.657C377.597 261.754 377.002 261.202 376.396 260.434C375.79 259.666 375.401 258.963 375.52 258.865C375.639 258.768 376.234 259.32 376.84 260.088C377.446 260.856 377.835 261.559 377.716 261.657Z" fill="#FAFAFA"/>
<path d="M383.743 277.637C383.602 277.572 383.851 276.761 384.294 275.819C384.738 274.889 385.214 274.175 385.355 274.251C385.495 274.316 385.246 275.127 384.803 276.068C384.359 276.999 383.883 277.713 383.743 277.637Z" fill="#FAFAFA"/>
<path d="M370.934 290.782C370.793 290.868 370.296 290.262 369.592 289.624C368.9 288.986 368.262 288.531 368.337 288.38C368.402 288.239 369.214 288.499 369.982 289.202C370.739 289.905 371.064 290.695 370.934 290.771V290.782Z" fill="#FAFAFA"/>
<path d="M371.735 304.345C371.735 304.497 371.194 304.626 370.534 304.626C369.874 304.626 369.333 304.497 369.333 304.345C369.333 304.194 369.874 304.064 370.534 304.064C371.194 304.064 371.735 304.194 371.735 304.345Z" fill="#FAFAFA"/>
<path d="M384.901 300.558C384.761 300.471 385.042 299.8 385.247 298.946C385.464 298.102 385.54 297.377 385.702 297.366C385.853 297.344 386.037 298.145 385.799 299.086C385.561 300.038 385.031 300.644 384.901 300.558Z" fill="#FAFAFA"/>
<path d="M397.98 305.105C397.829 305.159 397.439 304.402 397.093 303.418C396.747 302.433 396.585 301.589 396.736 301.535C396.887 301.481 397.277 302.238 397.623 303.223C397.969 304.207 398.132 305.051 397.98 305.105Z" fill="#FAFAFA"/>
<path d="M395.902 323.711C395.761 323.636 396.097 322.727 396.648 321.688C397.2 320.639 397.752 319.849 397.893 319.925C398.033 320.001 397.698 320.909 397.146 321.948C396.594 322.997 396.043 323.787 395.902 323.711Z" fill="#FAFAFA"/>
<path d="M383.958 334.649C383.818 334.703 383.374 333.957 382.963 332.972C382.563 331.988 382.346 331.144 382.487 331.079C382.628 331.025 383.071 331.772 383.482 332.756C383.883 333.741 384.099 334.584 383.958 334.649Z" fill="#FAFAFA"/>
<path d="M370.738 338.867C370.738 339.019 370.295 339.149 369.743 339.149C369.191 339.149 368.748 339.019 368.748 338.867C368.748 338.716 369.191 338.586 369.743 338.586C370.295 338.586 370.738 338.716 370.738 338.867Z" fill="#FAFAFA"/>
<path d="M378.324 356.219C378.172 356.263 377.869 355.624 377.653 354.791C377.436 353.969 377.372 353.266 377.523 353.223C377.674 353.179 377.977 353.818 378.194 354.651C378.41 355.473 378.475 356.176 378.324 356.219Z" fill="#FAFAFA"/>
<path d="M368.737 350.435C368.607 350.359 368.758 349.84 369.094 349.288C369.429 348.737 369.797 348.358 369.938 348.434C370.067 348.509 369.916 349.029 369.581 349.58C369.245 350.132 368.877 350.511 368.737 350.435Z" fill="#FAFAFA"/>
<path d="M368.544 369.583C368.392 369.605 368.176 368.859 368.067 367.917C367.959 366.976 367.992 366.208 368.143 366.186C368.295 366.165 368.511 366.911 368.619 367.852C368.727 368.794 368.695 369.562 368.544 369.583Z" fill="#FAFAFA"/>
</svg>
