<svg width="1387" height="1694" xmlns="http://www.w3.org/2000/svg" fill="none">
 <defs>
  <linearGradient y2="0.93203" x2="0.57221" y1="0.05762" x1="0.8632" id="paint0_linear_1_4239">
   <stop stop-color="#D9D9D9"/>
   <stop stop-color="#A3052D" offset="0.495"/>
   <stop stop-color="#6B6B6B" offset="1"/>
  </linearGradient>
 </defs>
 <g>
  <title>Layer 1</title>
  <path stroke="url(#paint0_linear_1_4239)" id="svg_1" stroke-width="15.706" d="m1194.25128,14.64291c19.08296,0 94.84081,50.83409 128.02959,86.02686c54.16667,57.43681 39.84069,129.04073 -38.15805,129.04073c-56.11663,0 -167.68157,-59.8484 -248.0415,-91.89275c-46.57751,-18.57355 -189.11707,-45.94611 -217.73679,14.66384c-28.62051,60.60977 118.09497,101.36064 150.31505,116.33131c96.31193,44.75113 231.85047,99.71305 231.85047,235.59644c0,177.91961 -184.63135,197.47081 -239.06535,197.47081c-54.434,0 -287.37485,-37.89823 -348.49161,-43.01299c-61.11676,-5.11476 -111.16547,-6.00402 -211.00232,0c-99.83685,6.00402 -363.90246,118.55862 -357.48325,222.10646c6.41921,103.54784 293.56042,220.51075 365.90114,242.24465c72.34072,21.7339 243.85378,41.74346 330.53303,49.85828c139.68772,13.0734 217.92235,21.8652 322.11986,31.28122c0,0 49.37823,4.2904 66.77856,6.84002c57.79927,8.48408 121.21256,19.55296 149.27481,31.28122c28.05439,11.73705 53.86788,49.85828 53.86788,96.78011c0,46.92182 -10.10367,86.02774 -83.61276,151.52663"/>
 </g>
</svg>