<svg width="1387" height="1694" xmlns="http://www.w3.org/2000/svg" fill="none">
 <defs>
  <linearGradient y2="0.93203" x2="0.57221" y1="0.05762" x1="0.8632" id="paint0_linear_1_4239">
   <stop stop-color="#D9D9D9"/>
   <stop stop-color="#A3052D" offset="0.495"/>
   <stop stop-color="#6B6B6B" offset="1"/>
  </linearGradient>
 </defs>
 <g>
  <title>Layer 1</title>
  <path stroke="url(#paint0_linear_1_4239)" id="svg_1" stroke-width="15.706" d="m1157.86533,251.78571c23.41016,0 116.34669,40.99491 157.06127,69.37597c66.44937,46.31965 48.87487,104.0643 -46.81068,104.0643c-68.84151,0 -205.70464,-48.26447 -304.2868,-74.10648c-57.13932,-14.97856 -232.00081,-37.05303 -267.11027,11.82559c-35.11042,48.87847 144.8739,81.74182 184.40014,93.81485c118.1514,36.08934 284.42434,80.41313 284.42434,189.99566c0,143.48245 -226.49792,159.24942 -293.27525,159.24942c-66.77733,0 -355.08503,-24.50198 -427.51475,-34.68763c-78.48048,-11.03717 -192.07138,-18.92065 -258.84871,0c-66.77752,18.92065 -135.96647,33.1115 -152.83103,175.0164c-9.65029,81.20155 70.90818,175.01782 163.15773,199.45741c91.22923,24.17017 299.14949,33.66382 405.48392,40.20798c171.36298,10.54299 267.33791,17.63309 395.163,25.22659c0,0 60.57513,3.45997 81.92111,5.5161c70.90569,6.84195 148.69843,15.76839 183.12401,25.22659c34.41593,9.46529 66.08283,40.20798 66.08283,78.04787c0,37.83989 -12.39475,69.37667 -102.5726,122.19795"/>
 </g>
</svg>