<svg width="1801" height="1297" viewBox="0 0 1801 1297" fill="none" xmlns="http://www.w3.org/2000/svg">
<path d="M1766.99 19.1738C1766.99 19.1738 1033.3 -45.3492 1135.99 188.174C1208.99 354.174 1905.83 185.507 1766.99 406.174C1551.49 748.674 -147.422 -63.3697 58.4921 574.674C164.992 904.674 1634.99 483.33 1766.99 767.174C2018.7 1308.44 158.492 606.674 21.992 907.674C-148.321 1283.24 1671.62 1002.43 1740.99 1102.17C1826.2 1224.68 1194.16 1324.2 1199 1246.5C1203.84 1168.8 1360.49 1087.59 1459.5 1136.5C1557.66 1184.99 1532.49 1407.17 1532.49 1407.17" stroke="url(#paint0_linear_82_3491)" stroke-width="21" stroke-linecap="round"/>
<defs>
<linearGradient id="paint0_linear_82_3491" x1="900.563" y1="11" x2="900.563" y2="1407.17" gradientUnits="userSpaceOnUse">
<stop stop-color="#D9D9D9"/>
<stop offset="0.5" stop-color="#A3052D"/>
<stop offset="1" stop-color="white"/>
</linearGradient>
</defs>
</svg>
