<svg width="117" height="117" viewBox="0 0 117 117" fill="none" xmlns="http://www.w3.org/2000/svg">
<path d="M0 56.16C0 29.6858 0 16.4489 8.22444 8.22444C16.4489 0 29.6858 0 56.16 0H60.84C87.3142 0 100.551 0 108.776 8.22444C117 16.4489 117 29.6858 117 56.16V60.84C117 87.3142 117 100.551 108.776 108.776C100.551 117 87.3142 117 60.84 117H56.16C29.6858 117 16.4489 117 8.22444 108.776C0 100.551 0 87.3142 0 60.84V56.16Z" fill="url(#paint0_linear_50_7367)"/>
<path d="M43.0575 81.8552L44.1286 82.3847C48.5922 85.0316 53.5909 86.2668 58.5899 86.2668C74.3006 86.2668 87.1548 73.5615 87.1548 58.0328C87.1548 50.6214 84.1196 43.3864 78.7639 38.0924C73.4079 32.7985 66.2664 29.7987 58.5899 29.7987C42.8791 29.7987 30.0247 42.504 30.2033 58.2094C30.2033 63.5031 31.8101 68.6207 34.488 73.032L35.202 74.091L32.3458 84.5023L43.0575 81.8552Z" fill="white"/>
<path d="M81.7988 35.269C75.7287 29.0929 67.3378 25.74 58.7682 25.74C40.5583 25.74 25.9186 40.3864 26.097 58.2091C26.097 63.8559 27.7038 69.3265 30.3819 74.2673L25.74 91.0313L43.0575 86.6197C47.8778 89.2668 53.2336 90.5021 58.5898 90.5021C76.6214 90.5021 91.261 75.8555 91.261 58.033C91.261 49.3861 87.8686 41.2687 81.7988 35.269ZM58.7682 85.0318C53.9479 85.0318 49.1276 83.7968 45.0213 81.3263L43.9502 80.7968L33.5955 83.4436L36.2734 73.3854L35.5593 72.3265C27.7038 59.7978 31.453 43.2098 44.3072 35.4453C57.1614 27.6811 73.7649 31.3869 81.6204 44.0922C89.4756 56.7975 85.7264 73.2086 72.8724 80.9731C68.7659 83.62 63.7672 85.0318 58.7682 85.0318ZM74.4789 65.4446L72.5151 64.5622C72.5151 64.5622 69.6589 63.327 67.8734 62.4446C67.6948 62.4446 67.5164 62.268 67.3378 62.268C66.8021 62.268 66.4451 62.4446 66.088 62.6212C66.088 62.6212 65.9096 62.7975 63.4102 65.6209C63.2315 65.9738 62.8745 66.1504 62.5174 66.1504H62.3388C62.1604 66.1504 61.8034 65.9738 61.6247 65.7975L60.732 65.4446C58.7682 64.5622 56.9831 63.5033 55.5547 62.0917C55.1976 61.7388 54.662 61.3859 54.3049 61.033C53.0552 59.7978 51.8054 58.3859 50.913 56.7977L50.7343 56.4448C50.556 56.2683 50.556 56.0919 50.3773 55.7391C50.3773 55.3862 50.3773 55.0333 50.556 54.8567C50.556 54.8567 51.27 53.9743 51.8054 53.4451C52.1627 53.0919 52.3411 52.5627 52.6982 52.2098C53.0552 51.6804 53.2338 50.9746 53.0552 50.4451C52.8768 49.5627 50.7343 44.7982 50.1989 43.7395C49.8416 43.2101 49.4849 43.0337 48.9492 42.8572H46.9854C46.6281 42.8572 46.2713 43.0337 45.914 43.0337L45.7354 43.2101C45.3783 43.3866 45.0213 43.7395 44.6643 43.9159C44.3072 44.269 44.1286 44.6217 43.7716 44.9748C42.5218 46.563 41.8078 48.504 41.8078 50.4451C41.8078 51.8567 42.1648 53.2685 42.7005 54.5038L42.8791 55.0333C44.4859 58.3859 46.6281 61.3859 49.4849 64.0328L50.1989 64.7386C50.7343 65.268 51.27 65.6209 51.6271 66.1502C55.3763 69.3267 59.6609 71.6207 64.4813 72.856C65.0169 73.0323 65.731 73.0323 66.2667 73.2089H68.0518C68.9445 73.2089 70.0156 72.856 70.73 72.5031C71.2654 72.1502 71.6224 72.1502 71.9795 71.7973L72.3367 71.4441C72.6938 71.0912 73.0508 70.9149 73.4078 70.562C73.7649 70.2091 74.1219 69.8562 74.3006 69.5031C74.6576 68.7973 74.836 67.9149 75.0146 67.0328V65.7975C75.0146 65.7975 74.836 65.6209 74.4789 65.4446Z" fill="black"/>
<defs>
<linearGradient id="paint0_linear_50_7367" x1="58.5" y1="0" x2="58.5" y2="117" gradientUnits="userSpaceOnUse">
<stop stop-color="white"/>
<stop offset="0.765625" stop-color="white"/>
</linearGradient>
</defs>
</svg>
